<svg width="83" height="43" viewBox="0 0 83 43" fill="none" xmlns="http://www.w3.org/2000/svg">
<g clip-path="url(#clip0_3952_10890)">
<path d="M84 -1H-1V44H84V-1Z" fill="white"/>
<g clip-path="url(#clip1_3952_10890)">
<path fill-rule="evenodd" clip-rule="evenodd" d="M5.38843 29.5795H9.99377L11.0923 26.5263H17.0919L18.1482 29.5795H22.8381L16.3737 12.515H11.8105L5.38843 29.5795ZM48.9492 29.5795H53.0475V12.515H48.9492V29.5795ZM47.9773 17.1996H43.879V23.8496C43.879 26.0662 42.527 26.6099 41.6397 26.6099C40.3299 26.6099 39.6116 26.0244 39.6116 24.3932V17.1995H35.5133V24.6441C35.5133 27.9064 36.5696 29.9557 40.1609 29.9557C41.5975 29.9557 43.2029 29.161 43.9635 27.9064H44.0057V29.5793H47.9773V17.1996ZM35.0484 29.5795H23.1333L23.091 26.4009L29.3441 20.2528H23.5981V17.1578H34.5834V20.2528L28.3303 26.4845H35.0482L35.0484 29.5795ZM14.1345 17.2417H14.0922L12.1065 23.2225H16.0358L14.1345 17.2417Z" fill="#041E42"/>
<path d="M69.8142 12.9211H71.0012V13.8457H69.8142V12.9211Z" fill="#5162AA"/>
<path d="M65.5051 22.8267H69.0659V26.6572H65.5051V22.8267Z" fill="#8C338A"/>
<path d="M67.8792 27.4503H70.2091V28.8591H67.8792V27.4503Z" fill="#5D81C1"/>
<path d="M66.4725 28.1102H69.286V30.928H66.4725V28.1102Z" fill="#E75027"/>
<path d="M69.9894 25.5574H72.4072V26.6141H69.9894V25.5574Z" fill="#D5292A"/>
<path d="M69.1095 23.6198H71.5712V24.2803H69.1095V23.6198Z" fill="#F6A124"/>
<path d="M72.4065 25.5574H74.1209V26.0417H72.4065V25.5574Z" fill="#6A95CD"/>
<path d="M69.1095 20.5815H71.4833V23.6195H69.1095V20.5815Z" fill="#3370B6"/>
<path d="M64.45 18.2485H69.0658V22.7834H64.45V18.2485Z" fill="#74C7DC"/>
<path d="M61.7682 18.2485H64.8454V20.7581H61.7682V18.2485Z" fill="#92C144"/>
<path d="M65.7688 14.0215H71V18.2923H65.7688V14.0215Z" fill="#5162AA"/>
<path d="M71.4398 18.8208H75.2644V23.4878H71.4398V18.8208Z" fill="#199BD6"/>
<path d="M70.8684 21.4631H74.1215V25.6018H70.8684V21.4631Z" fill="#F6A124"/>
<path d="M69.1095 24.2805H71.5273V26.658H69.1095V24.2805Z" fill="#D5292A"/>
<path d="M67.6592 25.7335H70.7804V27.4506H67.6592V25.7335Z" fill="#1F9AA7"/>
<path d="M74.1215 23.0913H74.7808V25.1606H74.1215V23.0913Z" fill="#A5BFDF"/>
<path d="M75.2643 18.6886H77.0227V19.7893H75.2643V18.6886Z" fill="#3FB6AF"/>
<path d="M75.132 19.7446H76.4068V20.449H75.132V19.7446Z" fill="#AF2458"/>
<path d="M69.1095 16.4432H71.4833V20.6259H69.1095V16.4432Z" fill="#7AC19A"/>
<path d="M71.4398 14.77H74.6489V18.8206H71.4398V14.77Z" fill="#E5DF22"/>
<path d="M71.0437 14.0215H73.3736V17.808H71.0437V14.0215Z" fill="#34BBD0"/>
<path d="M74.1653 17.7202H77.3305V18.8209H74.1653V17.7202Z" fill="#6BA8DB"/>
<path d="M74.6482 15.2546H76.1428V17.7202H74.6482V15.2546Z" fill="#DF5297"/>
<path d="M75.7042 16.0467H77.1109V17.0594H75.7042V16.0467Z" fill="#604696"/>
<path d="M75.3528 17.0595H77.331V18.0722H75.3528V17.0595Z" fill="#F9D805"/>
<path fill-rule="evenodd" clip-rule="evenodd" d="M71.0007 12.8766H69.8138V13.8452H71.0007V12.8766ZM67.9236 12.9203H65.7695V15.2978H67.9236V12.9203Z" fill="#5162AA"/>
<path d="M59.1312 12.9211H65.8132V18.2925H59.1312V12.9211Z" fill="#16B9E7"/>
<path d="M62.5596 11.0717H64.8895V14.1096H62.5596V11.0717Z" fill="#42AD4B"/>
<path d="M57.7238 17.8521H62.0318V19.5252H57.7238V17.8521Z" fill="#E6B722"/>
<path d="M67.923 11.336H69.5934V14.0217H67.923V11.336Z" fill="#B9CF36"/>
<path d="M70.1655 21.4631H70.8249V22.1235H70.1655V21.4631Z" fill="#92C144"/>
</g>
</g>
<defs>
<clipPath id="clip0_3952_10890">
<rect width="83" height="43" rx="8" fill="white"/>
</clipPath>
<clipPath id="clip1_3952_10890">
<rect width="71.9424" height="20" fill="white" transform="translate(5.38843 11)"/>
</clipPath>
</defs>
</svg>
