<svg width="83" height="42" viewBox="0 0 83 42" fill="none" xmlns="http://www.w3.org/2000/svg">
<g clip-path="url(#clip0_3955_5264)">
<rect width="83" height="42" rx="8" fill="#051039"/>
<g clip-path="url(#clip1_3955_5264)">
<path d="M84.0001 13H-1V28.6086H84.0001V13Z" fill="#051039" stroke="#1D1D1B" strokeWidth="0.0777322" stroke-miterlimit="10"/>
<path d="M67.8707 17.7261L64.8547 22.0946C64.4583 22.6699 63.8131 23.2218 63.028 23.2839V23.4161H66.386C67.2799 23.4161 67.9329 22.8331 68.3682 22.1957L71.4697 17.7183H67.8629L67.8707 17.7261Z" fill="#FF0000"/>
<path d="M12.2222 23.4161V18.2003H13.7458V23.4161H12.2222ZM47.3105 23.4161L43.6571 20.3224V23.4161H42.3745V18.2003H43.4628L47.0696 21.2474V18.2003H48.3522V23.4161H47.3105ZM55.2625 19.8871C54.5785 19.545 53.8012 19.273 52.7751 19.273C51.749 19.273 50.6375 19.9104 50.6375 20.7887C50.6375 21.6671 51.5703 22.3278 52.7673 22.3278C53.6613 22.3278 54.5474 22.0946 55.317 21.6283V22.9186C54.5008 23.315 53.6068 23.5171 52.7052 23.5094C50.6219 23.5094 48.9818 22.4444 48.9818 20.781C48.9818 19.1175 50.653 18.0992 52.7052 18.0992C53.5835 18.0992 54.4541 18.2547 55.2703 18.5812V19.8793L55.2625 19.8871ZM22.2108 23.4161V18.2003H27.2945V19.3196H23.7344V20.6177H27.2168V21.7371H23.7344V23.4161H22.2108ZM56.1798 23.4161V18.2003H61.4578V19.3196H57.7033V20.2213H61.4034V21.3406H57.7033V22.2967H61.4422V23.4161H56.1798ZM32.5803 21.4572L34.6791 23.4161H33.0622C32.7047 23.4161 32.4637 23.3073 32.2771 23.1207L30.8469 21.7371C30.8158 21.706 30.7691 21.6904 30.7225 21.6904H29.7508V23.4161H28.2273V18.2003H31.5231C33.2332 18.2003 33.9484 18.9698 33.9484 19.8171C33.9484 20.6644 33.07 21.2785 32.5803 21.4572ZM31.3677 20.6022C31.974 20.6022 32.2616 20.299 32.2616 19.9492C32.2616 19.5994 32.0051 19.3196 31.3677 19.3196H29.7508V20.6022H31.3677ZM19.5213 21.4572L21.6201 23.4161H20.0032C19.6457 23.4161 19.4047 23.3073 19.2181 23.1207L17.7879 21.7371C17.7568 21.706 17.7101 21.6904 17.6635 21.6904H16.6918V23.4161H15.1683V18.2003H18.4641C20.1742 18.2003 20.8972 18.9698 20.8972 19.8171C20.8972 20.6644 20.0188 21.2785 19.5291 21.4572H19.5213ZM18.3087 20.6022C18.9072 20.6022 19.2026 20.299 19.2026 19.9492C19.2026 19.5994 18.9461 19.3196 18.3087 19.3196H16.6918V20.6022H18.3087ZM9.84364 23.4161L9.17514 22.2734H6.26018L5.65387 23.4161H4.20805L7.10746 18.208H8.42891L11.717 23.4161H9.83586H9.84364ZM6.84317 21.1852H8.53773L7.65936 19.5917L6.84317 21.1852ZM40.2214 23.4161L39.5684 22.2734H36.7312L36.1482 23.4161H34.7335L37.5629 18.208H38.8455L42.0481 23.4161H40.2291H40.2214ZM37.2986 21.1852H38.9543L38.0993 19.5917L37.3064 21.1852H37.2986Z" fill="white"/>
<path d="M77.8981 18.962C78.8853 19.9492 78.8853 21.5505 77.8981 22.5455C76.9887 23.455 75.5428 23.5405 74.5323 22.7398C75.5584 23.6882 77.1597 23.626 78.108 22.5999C79.0563 21.5738 78.9941 19.9726 77.9681 19.0242C77.9448 19.0009 77.9214 18.9854 77.9059 18.962" fill="white"/>
<path d="M73.413 21.8381C73.3352 21.8848 73.3119 21.947 73.3586 22.0558C73.3974 22.1491 73.4518 22.1879 73.5218 22.1646C73.5762 22.1413 73.584 22.1024 73.5607 21.9858V21.9392C73.5296 21.8692 73.5296 21.7993 73.5373 21.7293C73.5451 21.6827 73.584 21.6438 73.6306 21.6205C73.7472 21.5738 73.856 21.6438 73.9182 21.807C73.9882 21.978 73.9493 22.1102 73.8172 22.1646L73.7861 22.0791C73.8794 22.0402 73.9027 21.947 73.856 21.8226C73.8172 21.7215 73.7472 21.6749 73.6773 21.6982C73.6228 21.7215 73.6073 21.7759 73.6306 21.8925V21.9392L73.6462 21.9858C73.6617 22.0402 73.6617 22.0869 73.6462 22.1413C73.6384 22.1879 73.5995 22.2268 73.5607 22.2423C73.4518 22.289 73.3508 22.219 73.2886 22.0791C73.2264 21.9236 73.2575 21.7993 73.3819 21.7526L73.413 21.8381Z" fill="white"/>
<path d="M73.343 20.9286L73.7239 20.6022L73.7317 20.7188L73.4052 20.9908L73.5063 21.1074L73.7395 21.0997V21.2007L73.0865 21.2085V21.1152H73.343H73.3819L73.413 21.1074L73.3897 21.0919L73.3663 21.0686L73.0787 20.7576V20.6333L73.343 20.9286Z" fill="white"/>
<path d="M73.6306 19.9181L73.8794 20.0037L73.8483 20.0969L73.5996 20.0037L73.1487 20.1436L73.1876 20.0347L73.4674 19.957H73.4985C73.5141 19.9415 73.5218 19.9415 73.5451 19.9337C73.5296 19.9104 73.5141 19.8948 73.4985 19.8715L73.3275 19.6383L73.3586 19.5373L73.6306 19.9181Z" fill="white"/>
<path d="M74.0737 18.7133L73.9338 18.8843L74.3458 19.2186L74.2447 19.343L73.8405 19.0009L73.7006 19.1719L73.6073 19.0942L73.9804 18.6356L74.0737 18.7133Z" fill="white"/>
<path d="M74.9521 18.0992L74.6256 18.2935L74.6956 18.4101L74.9987 18.2314L75.0531 18.3324L74.75 18.5034L74.8355 18.6433L75.1697 18.449L75.2319 18.5501L74.7577 18.8299L74.4313 18.2624L74.8899 17.9904L74.9521 18.0992Z" fill="white"/>
<path d="M76.2191 18.348L76.0481 18.3635L75.9626 18.2236L75.6983 18.2702L75.6595 18.4335L75.4962 18.4723L75.6672 17.7572L75.8305 17.7339L76.2114 18.3557L76.2191 18.348ZM75.846 18.0137C75.8227 17.9749 75.7994 17.9282 75.7761 17.8816C75.7761 17.9282 75.7605 17.9826 75.745 18.0293L75.7216 18.1536L75.9082 18.1225L75.846 18.0137Z" fill="white"/>
<path d="M77.2685 18.5579L77.1286 18.5035L77.183 18.3091C77.183 18.2858 77.1985 18.2547 77.2063 18.2158C77.2141 18.177 77.2219 18.1459 77.2296 18.1226C77.2374 18.0992 77.2452 18.0682 77.2529 18.0371L77.2685 17.9904C77.2296 18.0526 77.2141 18.0759 77.183 18.1303C77.1674 18.1537 77.1519 18.177 77.1441 18.1925L76.9653 18.4568L76.8487 18.4257L76.8099 18.1148C76.8099 18.0915 76.8099 18.0682 76.8099 18.0448C76.8099 18.006 76.8099 17.9749 76.8099 17.9516C76.8099 17.9282 76.8099 17.8971 76.8099 17.8738L76.7943 17.9516C76.7788 18.0371 76.7632 18.0759 76.7399 18.177L76.6855 18.3869L76.5378 18.3635L76.701 17.7261L76.9187 17.765L76.9498 18.0682C76.9498 18.1381 76.9576 18.2081 76.9498 18.2858C76.9653 18.2469 76.9887 18.2158 77.012 18.177L77.0664 18.0992L77.2374 17.8505L77.4473 17.9205L77.2763 18.5579H77.2685Z" fill="white"/>
<path d="M76.017 19.8171C75.9393 19.8871 75.7838 20.0347 75.6283 20.1824L75.4573 20.3457C75.3174 20.3224 75.1775 20.3068 75.0376 20.3068C74.7189 20.3068 74.4313 20.3923 74.2991 20.5322C74.2525 20.5711 74.2214 20.6333 74.2214 20.6955C74.2214 20.8509 74.4002 20.9287 74.4546 20.9442C74.7111 21.053 75.0065 21.0142 75.2241 20.8432C75.3796 20.7266 75.5195 20.6022 75.6516 20.47C75.7527 20.4934 75.8693 20.5245 75.9859 20.5633L76.1025 20.5944C75.9548 20.7421 75.8071 20.8898 75.6672 21.0142H75.6594C75.4651 21.193 75.3252 21.3173 75.1231 21.364C75.0298 21.3873 74.9365 21.3795 74.8432 21.3484C74.9521 21.4572 75.1075 21.5117 75.263 21.4883C75.4495 21.4728 75.6594 21.3562 75.8693 21.1541L76.1569 20.8743L76.359 20.6722L76.771 20.7965L76.5145 21.0453L76.2968 21.2629C76.1491 21.4184 75.9859 21.5583 75.8227 21.6827C75.605 21.8381 75.4184 21.9159 75.263 21.9236C75.1542 21.9314 75.0453 21.9159 74.9521 21.8615H74.9443C75.0687 21.9936 75.2397 22.0636 75.4184 22.0636C75.6827 22.0636 75.9159 21.9314 76.2813 21.5972C76.4445 21.4417 76.6078 21.2707 76.7554 21.123L77.0275 20.8509C77.1985 20.8898 77.3695 20.9053 77.5405 20.9053C77.7971 20.9053 78.0147 20.7732 78.0147 20.6411C78.0147 20.5556 77.9603 20.4856 77.8826 20.4467C77.7893 20.3845 77.6805 20.3534 77.5716 20.3534C77.3773 20.3534 77.183 20.439 76.9731 20.6022L76.8409 20.7266L76.7865 20.711L76.4134 20.6022C76.5222 20.5011 76.6155 20.4079 76.701 20.3379C76.8565 20.1902 77.0586 20.0969 77.2685 20.0736C77.3618 20.0736 77.5328 20.0736 77.6027 20.128C77.4706 20.0037 77.2996 19.9337 77.1208 19.9415C76.9886 19.9415 76.7865 19.9803 76.53 20.1824C76.3979 20.299 76.2735 20.4156 76.1491 20.5478L75.9548 20.4856L75.9082 20.47L75.7061 20.4079L75.8227 20.299C75.9548 20.1669 76.0792 20.0425 76.1802 19.957C76.5378 19.6539 76.771 19.615 76.9265 19.615C77.0741 19.6072 77.2141 19.6461 77.3384 19.7238C77.1363 19.5373 76.9886 19.4828 76.7399 19.4828C76.5222 19.4828 76.258 19.6072 76.0014 19.8326M74.6023 20.8976C74.4857 20.8976 74.4313 20.8432 74.4313 20.7499C74.4313 20.6566 74.4313 20.4545 75.092 20.4156C75.1853 20.4156 75.2785 20.4156 75.3796 20.4156C75.3563 20.439 75.3329 20.4545 75.3096 20.4778L75.2708 20.5167C75.1153 20.6566 74.851 20.8976 74.61 20.882M77.2529 20.6644C77.4395 20.54 77.595 20.47 77.696 20.47C77.7504 20.47 77.8204 20.4856 77.8204 20.5633C77.8204 20.6411 77.7504 20.6955 77.6105 20.7499C77.4473 20.7965 77.2762 20.8043 77.1052 20.781C77.1519 20.7421 77.1985 20.7032 77.2452 20.6644" fill="white"/>
<path d="M77.5328 18.037C77.5561 17.9826 77.6183 17.9593 77.6727 17.9826C77.7271 18.006 77.7505 18.0681 77.7271 18.1226C77.7038 18.177 77.6416 18.2003 77.5872 18.177C77.5328 18.1536 77.5095 18.0915 77.5328 18.037ZM77.7116 18.1226C77.7349 18.0759 77.7116 18.0215 77.6727 17.9982C77.6339 17.9671 77.5794 17.9749 77.5484 18.0137C77.5173 18.0526 77.525 18.107 77.5639 18.1381C77.5639 18.1381 77.5794 18.1459 77.5872 18.1536C77.6339 18.177 77.6883 18.1614 77.7116 18.1226ZM77.6494 18.1536H77.6339C77.6339 18.1459 77.6339 18.0759 77.6339 18.0759H77.6183C77.6183 18.0681 77.595 18.1148 77.595 18.1148H77.5795C77.5795 18.107 77.6339 18.006 77.6339 18.006L77.6805 18.0293C77.696 18.0448 77.7116 18.0526 77.7038 18.0759C77.696 18.0915 77.6727 18.0992 77.6572 18.0915V18.1536H77.6494ZM77.6339 18.0681C77.6494 18.0681 77.665 18.0915 77.6727 18.0681C77.6805 18.0448 77.6727 18.0448 77.6572 18.0448L77.6261 18.0293L77.6105 18.0526H77.6261L77.6339 18.0681Z" fill="white"/>
</g>
</g>
<defs>
<clipPath id="clip0_3955_5264">
<rect width="83" height="42" rx="8" fill="white"/>
</clipPath>
<clipPath id="clip1_3955_5264">
<rect width="85.0001" height="15.6086" fill="white" transform="translate(-1 13)"/>
</clipPath>
</defs>
</svg>
