<svg width="83" height="43" viewBox="0 0 83 43" fill="none" xmlns="http://www.w3.org/2000/svg">
<g clip-path="url(#clip0_3952_10779)">
<path d="M84 -1H-1V44H84V-1Z" fill="white"/>
<g clip-path="url(#clip1_3952_10779)">
<path d="M8.67952 12.9998H77.216V29.3928H5.00012V27.955L5.14022 27.9456C7.32475 28.6085 9.58727 29.0187 11.9256 29.1769C12.5012 28.9956 13.102 28.9956 13.7296 29.1769C13.8018 29.1061 13.8978 29.1061 14.0184 29.1769C14.0907 29.109 14.2351 29.0852 14.451 29.1047L14.6843 28.9963C15.5386 29.0519 16.3943 29.0606 17.2508 29.0216L17.2999 28.8895C17.2942 28.9451 17.2775 29.0238 17.2364 29.0296C16.9648 29.0657 16.2355 29.1018 16.1098 28.8895C16.0593 28.8649 15.9885 28.8187 16 28.7804C16.0701 28.5414 16.6529 26.9635 16.7468 26.8855C16.8486 26.801 18.9847 26.8111 19.1169 26.9042C19.2924 27.0277 19.7589 28.4706 19.826 28.7638L19.7163 28.8895C19.6469 29.1285 18.7464 29.1097 18.6338 28.8895C18.8338 28.9162 18.8136 29.1155 18.6338 29.1769C18.6403 29.1205 18.6598 29.0361 18.7002 29.0332C19.0923 29.0064 21.8438 28.9826 21.9745 29.0808C22.0005 29.1003 22.0142 29.1364 22.0236 29.1769C21.7499 29.0223 21.3953 28.9602 20.9606 28.9906C20.1106 26.7288 19.2794 24.4597 18.4669 22.1835L18.4258 22.2261L15.9069 28.9725C15.4685 29.3112 13.9246 28.1016 13.6213 27.7932C11.5667 25.7033 12.1979 23.3303 13.3598 21.0056C13.6436 19.8018 11.4779 16.6178 10.7593 15.6111C10.1513 14.759 9.48906 13.9119 8.7178 13.2193L8.67735 13.0706C8.61453 13.0503 8.61525 13.0258 8.67735 12.9984L8.67952 12.9998Z" fill="#FEFEFE"/>
<path d="M8.6794 13V13.0722L8.74223 13.2282C8.29016 13.759 8.04029 14.2848 8.61152 14.8596C9.60593 15.9132 10.3108 17.0867 10.7253 18.3787C10.8119 18.8762 10.9051 19.6814 10.5556 20.0469L10.3765 19.9667C10.1967 19.5912 7.0271 16.2692 6.73535 16.3826C6.64363 16.418 6.47537 17.2001 6.54181 17.3395L7.92402 18.5469C8.78122 19.3875 8.80433 20.4368 8.813 21.5482L8.68012 21.6999L8.49886 21.6804C7.56439 20.9734 6.58586 20.3285 5.56473 19.7464C5.27731 20.2216 5.57051 20.678 6.4436 21.1157C6.94188 21.4197 7.73193 23.181 7.62071 23.6555C7.5745 23.8526 7.47556 23.8281 7.29358 23.7429C6.89567 23.5089 6.4797 23.267 6.03269 23.1709C6.33311 23.9675 6.83645 24.6578 7.37229 25.3251L7.38096 25.5829L7.26325 25.6876C6.7339 25.5028 6.19734 25.3193 5.642 25.2363C6.08324 25.8198 6.6328 26.3275 7.28924 26.7586C7.44162 26.9247 7.36146 27.1457 7.12892 27.1406C6.49487 26.9781 5.85215 26.8871 5.20076 26.8684L5 26.7333V13H8.6794Z" fill="#FEFEFE"/>
<path d="M7.38088 25.5822C7.45526 25.5331 7.53903 25.5013 7.60763 25.5598C8.98551 27.0373 10.4869 28.1899 12.5198 28.7084C12.8996 28.777 13.2549 28.8853 13.5849 29.0334C13.6052 28.9294 13.6694 28.9438 13.7294 29.0334C13.8456 29.0919 13.8687 29.1583 13.7294 29.1771C13.1307 29.18 12.5234 29.1944 11.9254 29.1771C11.8792 29.167 11.8481 29.1569 11.8532 29.1049C11.6813 29.089 11.5123 29.0652 11.3484 29.0327C11.3412 29.1251 11.2401 29.1164 11.204 29.0327C11.0762 29.0363 10.9563 29.0124 10.8429 28.9604C10.8249 29.0233 10.801 29.0218 10.7707 28.9604C10.6429 28.9641 10.523 28.9402 10.4096 28.8882C10.2702 29.0312 9.99437 28.9987 9.90482 28.816C9.77339 28.8211 9.65351 28.7965 9.54374 28.7438C9.49175 28.7712 9.43903 28.7958 9.38342 28.811C9.096 28.8911 7.24367 28.3878 7.04579 28.1682C7.0068 28.1256 6.97574 28.0758 6.94686 28.0245C6.8277 28.0159 6.68833 28 6.65799 27.8808C6.05788 27.8274 5.23173 27.4432 4.99847 26.8741V26.7304C5.75891 26.6763 6.49912 26.8597 7.23428 27.0178C7.26461 26.8792 7.16351 26.846 7.08335 26.7738C6.53306 26.2747 5.63181 25.8494 5.43105 25.0774C5.54009 24.9741 7.16134 25.4666 7.37871 25.58L7.38088 25.5822Z" fill="#CAAD9D"/>
<path d="M6.51504 27.9552C6.65297 27.953 6.79668 27.9768 6.94761 28.0274C7.79615 28.3776 8.64468 28.5791 9.54449 28.7467C9.65643 28.7994 9.77631 28.8232 9.90557 28.8189C10.0782 28.8478 10.2407 28.8651 10.4104 28.8911C10.5223 28.9424 10.6429 28.9669 10.7714 28.9633C10.7953 28.9669 10.8198 28.9597 10.8437 28.9633C10.9556 29.0146 11.0762 29.0384 11.2047 29.0355C11.251 29.042 11.303 29.029 11.3492 29.0355L11.854 29.1077C11.8821 29.1236 11.9031 29.1568 11.9262 29.18C10.466 29.1374 8.94871 28.9908 7.51234 28.7257C6.63131 28.5632 5.8001 28.3719 5.00067 27.9573V27.8851C5.39497 27.6295 6.13229 27.693 6.51576 27.9573L6.51504 27.9552Z" fill="#959E99"/>
<path d="M6.65952 27.883C6.72379 27.9509 6.67613 27.9747 6.51509 27.9552C6.01824 27.8801 5.50262 27.8779 5 27.883V26.8763C5.48818 27.3146 6.06735 27.6107 6.65952 27.883Z" fill="#FDFDFD"/>
<path d="M8.67938 13.0722C8.82093 13.0708 8.88014 13.169 8.96897 13.2506C10.3873 14.5505 12.7762 18.1208 13.3713 19.9356C13.7641 21.1322 13.3698 21.2514 12.9726 22.2046C12.0367 24.4513 12.2042 26.6048 14.24 28.1292C14.4798 28.309 15.5572 29.0471 15.8121 28.8817L18.3094 22.1317L18.5614 21.9165L21.0066 28.8478C21.133 29.029 22.1375 28.6449 22.0249 29.1778H18.6343C18.6199 29.1778 18.6199 28.8904 18.6343 28.8904H19.7169C19.6107 28.5957 19.1745 27.072 18.9961 26.9839L16.8282 26.9817L16.1097 28.8897H17.2998C17.3771 28.8897 17.4377 29.0969 17.4074 29.1771C16.4303 29.1244 15.4092 29.2818 14.4502 29.1056C14.2848 29.146 13.9909 29.1381 13.9454 28.9619C11.7912 28.3018 10.1006 26.6127 9.98288 24.2772L10.1215 24.0729L10.0493 23.5695C9.90922 23.5038 9.90922 23.4193 10.0493 23.3536C10.1107 23.168 10.1049 22.9644 10.0493 22.7788C9.91428 22.5094 9.90705 22.1953 10.0277 21.8371C10.1129 21.2629 10.2356 20.4996 10.5541 20.0468C11.0365 17.4962 9.53225 16.4808 8.28653 14.6494C7.88429 14.058 8.31469 13.5546 8.67866 13.0722H8.67938Z" fill="#782D90"/>
<path d="M24.4788 23.5695L25.669 27.5248L26.9674 23.5695H28.879V23.7847L28.0839 23.8266V28.9626H28.879V29.1778H26.2091V28.9626H27.075V23.7861L25.3794 29.1799L25.1923 29.1359L23.5393 23.8584V28.9633C23.8224 29.0081 24.3915 28.8124 24.4052 29.1792H22.4575V28.964H23.3234V23.7876H22.4575V23.5717H24.4774L24.4788 23.5695Z" fill="#010101"/>
<path d="M38.5826 23.5695C40.0399 23.7407 40.5078 25.4023 38.9978 25.9967C38.7292 26.1021 38.3609 26.1079 38.1854 26.3007C38.7198 26.3253 39.3076 26.6618 39.5365 27.1478C39.8059 27.7198 39.6044 28.2679 39.8391 28.842L40.5656 29.0687C40.211 29.3497 39.4123 29.3157 39.0541 29.0673C38.2504 28.5083 38.9357 27.3449 38.3305 26.625C37.9716 26.1982 37.2459 26.318 36.7425 26.3022V28.9626C37.0386 29.0146 37.6589 28.8001 37.6806 29.1785H34.8671V28.9633H35.7329V23.7869H34.8671V23.5709C36.0413 23.6713 37.4351 23.4359 38.5826 23.5709V23.5695Z" fill="black"/>
<path d="M71.3721 24.7553C71.38 24.842 71.5714 25.289 71.2334 25.0745C71.1771 25.0391 71.1186 24.2469 70.5828 23.9602C70.5171 23.9248 70.148 23.7847 70.109 23.7847H68.4134V26.1577C68.9399 26.1245 69.5848 26.3462 69.8014 25.7071C69.8895 25.4464 69.7689 25.0947 70.1452 25.1511V27.5241C69.7501 27.5804 69.8924 27.2034 69.8231 26.9463C69.6375 26.2603 68.4134 26.3145 68.4134 26.4813V28.9619H70.1813C70.2094 28.9619 70.6463 28.7907 70.7012 28.7611C71.3548 28.4029 71.3013 27.3739 71.3721 27.3081C71.3873 27.2937 71.5295 27.3175 71.588 27.3081L71.5165 29.1778H66.5387V28.9626H67.4046V23.7862H66.5387V23.5703H71.2638C71.2717 23.5703 71.3721 23.6706 71.3721 23.6779C71.3721 24.0216 71.3411 24.4238 71.3721 24.756V24.7553Z" fill="black"/>
<path d="M34.2185 23.5695L34.29 25.0795C33.9903 25.1676 34.0344 24.7481 33.9102 24.4874C33.7585 24.1682 33.3165 23.7847 32.9555 23.7847H31.2598V26.1577C31.7285 26.1303 32.4037 26.3173 32.6471 25.7786C32.767 25.5143 32.6485 25.0593 32.9909 25.151V27.524C32.6493 27.6172 32.7496 27.111 32.6355 26.8358C32.4175 26.3115 31.2598 26.2985 31.2598 26.4812V28.9618H33.0277C33.0826 28.9618 33.4696 28.8059 33.5476 28.7611C34.0329 28.4838 34.1969 27.8324 34.2178 27.3074H34.4337V29.0694C34.4337 29.0774 34.3333 29.1771 34.3254 29.1771H29.3837V28.9618H30.3218V23.7854H29.3837V23.5695H34.2171H34.2185Z" fill="black"/>
<path d="M66.611 21.9158V22.131H65.6729V27.272C65.6729 27.3536 65.5328 27.9184 65.4916 28.026C65.0814 29.0912 63.2984 29.5988 62.4333 28.7748C61.6671 28.0447 62.5625 27.2042 63.0767 27.7732C63.5057 28.2484 62.4492 28.8521 63.5533 28.9576C64.0668 29.0067 64.5189 28.5676 64.5189 28.0621V22.1303H63.4363V21.9143H66.611V21.9158Z" fill="black"/>
<path d="M56.3302 23.5695L58.9632 27.4518V23.7847H58.0251V23.5688H60.045V23.784H59.1791V29.3201L58.9322 29.1706L55.2831 23.784V28.9604C55.5929 29.0196 56.2631 28.7878 56.2934 29.1763H54.2735V28.9611H55.0672V23.7847H54.2013V23.5688H56.3295L56.3302 23.5695Z" fill="#010101"/>
<path d="M76.9992 23.5695L77.1429 25.5114C77.0837 25.5013 76.9479 25.5273 76.9284 25.5114C76.8627 25.4579 76.7941 24.3913 76.2423 24.0013C75.8914 23.7536 75.5353 23.7717 75.1237 23.7861V28.9626C75.4335 29.0218 76.1037 28.79 76.134 29.1785H73.1038V28.9626H74.1141V23.7861C72.7601 23.6388 72.6431 24.27 72.2871 25.3106C72.165 25.6688 72.0358 25.5496 72.0538 25.2254C72.0834 24.6737 72.1773 24.1241 72.1665 23.5702H76.9999L76.9992 23.5695Z" fill="#010101"/>
<path d="M48.3584 29.1771L48.3577 28.9619L49.1593 28.9171L51.2087 23.4244L51.3929 23.6006L53.272 28.9532L54.0584 28.9619L54.0577 29.1771H51.3886L51.3878 28.9619L52.2537 28.9612L51.7013 27.4482L49.9428 27.4851L49.3687 28.9619H50.3783V29.1771H48.3584Z" fill="black"/>
<path d="M48.2139 29.1417C48.1063 29.5151 47.9381 29.0283 47.8875 28.964C47.6369 28.6434 47.4737 28.9857 47.1813 29.1193C45.2401 30.004 43.7972 27.8035 43.9662 26.0588C44.1078 24.5935 45.3751 23.0127 46.987 23.5341C47.2715 23.6266 47.4607 23.8512 47.7077 23.9284C47.7554 23.7696 47.8673 23.4872 48.0695 23.4973V25.151C47.7698 25.0781 47.777 24.5639 47.5972 24.291C47.0859 23.5139 45.7839 23.3428 45.3636 24.2881C45.0364 25.0232 45.0328 27.2417 45.2004 28.0462C45.5485 29.7173 47.3553 29.2623 47.9287 27.8498C48.019 27.6281 47.915 27.4634 48.2139 27.5241C48.1367 27.9465 48.3187 28.7777 48.2139 29.1417Z" fill="black"/>
<path d="M43.7409 23.5695L43.7416 23.7847H42.8035V28.9618H43.7416L43.7409 29.1771H40.9274V28.9618H41.7932V23.7847H40.9274V23.5695H43.7409Z" fill="#010101"/>
<path d="M13.9461 28.9618C14.1179 28.9994 14.279 29.0738 14.4509 29.1056C14.3721 29.2269 14.1541 29.1749 14.0183 29.1778C13.8695 29.1619 13.7735 29.1142 13.7294 29.0341C13.6825 29.0297 13.6327 29.0355 13.585 29.0341C13.4211 29.0247 13.3488 28.9763 13.3683 28.8904C13.4846 28.7893 13.6774 28.8131 13.9453 28.9626L13.9461 28.9618Z" fill="#E2917C"/>
<path d="M14.0184 29.1771C13.9223 29.1785 13.8263 29.1771 13.7295 29.1771V29.0334C13.8104 29.0413 13.9534 29.1164 14.0184 29.1771Z" fill="#E1957E"/>
<path d="M8.67936 21.6998L8.85123 21.9844C9.0491 24.8181 10.479 27.3969 13.1112 28.6325C13.2896 28.6773 13.6695 28.7842 13.3683 28.8896C13.4348 28.9597 13.4882 29.0073 13.585 29.0333C12.3003 29.0008 10.2277 28.0411 9.21014 27.2814C8.71908 26.9153 7.77594 25.788 7.38092 25.5821C7.03572 25.0925 6.60893 24.6159 6.31284 24.0945C6.23341 23.9551 5.85066 23.1846 5.86583 23.1037C5.90193 22.9051 6.34967 23.1131 6.46233 23.155C6.8328 23.2936 7.18738 23.511 7.52463 23.7132C7.32459 22.921 7.11661 22.0277 6.55188 21.4117C5.98715 20.7957 4.77898 20.6072 5.47369 19.5456C6.64287 20.0988 7.66617 20.9083 8.67936 21.6998Z" fill="#E1957E"/>
<path d="M10.5548 20.0461C10.3844 20.9481 10.1114 21.8602 10.05 22.778C10.1071 22.9643 10.1129 23.1673 10.05 23.3529C10.05 23.4251 10.0493 23.4966 10.05 23.5688L10.1223 24.0721C10.1295 25.6862 11.0343 27.2402 12.3653 28.1278C12.8657 28.4614 13.4305 28.66 13.9461 28.9611C13.759 28.92 13.5626 28.8824 13.3691 28.8889C13.359 28.8781 13.3951 28.7864 13.359 28.7582C13.3128 28.7214 13.1611 28.751 13.0802 28.712C10.1266 27.2872 8.95525 24.9734 8.67938 21.6991C8.56384 20.3248 8.82598 19.8092 7.81568 18.6415C7.57303 18.3613 6.44358 17.5113 6.40242 17.39C6.32298 17.1553 6.48835 16.3985 6.65589 16.2656C6.744 16.1955 6.82777 16.2779 6.89998 16.319C7.25673 16.5212 7.82001 17.0239 8.14065 17.312C9.03396 18.1143 9.84278 19.0835 10.5556 20.0461H10.5548Z" fill="#983D67"/>
<path d="M6.94759 28.0267C6.78077 28.0938 6.61684 27.9703 6.51501 27.9544L6.65945 27.8822C6.75549 27.9263 6.86526 27.992 6.94831 28.0259L6.94759 28.0267Z" fill="#EBD9D3"/>
<path d="M11.854 29.1056C11.6958 29.089 11.451 29.1698 11.3492 29.0334C11.5543 29.0615 11.6352 28.9806 11.854 29.1056Z" fill="#C1B9B1"/>
<path d="M9.90563 28.8182C9.79009 28.8138 9.60666 28.8629 9.54456 28.7459C9.66299 28.7683 9.79876 28.8001 9.90563 28.8182Z" fill="#C0B9B2"/>
<path d="M10.7715 28.9619C10.6559 28.9576 10.4725 29.0067 10.4104 28.8897C10.5426 28.9099 10.6928 28.9503 10.7715 28.9619Z" fill="#C3B8B0"/>
<path d="M11.204 29.0334C11.0885 29.029 10.9051 29.0781 10.843 28.9612C10.9831 28.9814 11.1203 29.0204 11.204 29.0334Z" fill="#C0B9B2"/>
<path d="M18.9239 26.7326H16.9041L17.9497 23.9277L18.9239 26.7326Z" fill="#FEFDFE"/>
<path d="M10.05 23.3536C10.05 23.1637 10.0377 22.9672 10.05 22.7787C10.1713 22.8921 10.1706 23.2438 10.05 23.3536Z" fill="#864198"/>
<path d="M10.1222 24.0721C9.99653 23.9739 10.0521 23.7262 10.05 23.5688C10.1749 23.6663 10.1215 23.9147 10.1222 24.0721Z" fill="#894599"/>
<path d="M36.743 26.0855V23.7847H38.222C38.9579 23.7847 38.9969 25.4811 38.5427 25.9021C38.5131 25.9295 38.2401 26.0855 38.222 26.0855H36.743Z" fill="#FEFEFE"/>
<path d="M51.6044 27.2359H50.0171L50.8468 25.0066C51.1249 25.7346 51.4441 26.4798 51.6044 27.2359Z" fill="#FDFDFD"/>
</g>
</g>
<defs>
<clipPath id="clip0_3952_10779">
<rect width="83" height="43" rx="8" fill="white"/>
</clipPath>
<clipPath id="clip1_3952_10779">
<rect width="72.2159" height="16.393" fill="white" transform="translate(5 13)"/>
</clipPath>
</defs>
</svg>
