<svg width="83" height="42" viewBox="0 0 83 42" fill="none" xmlns="http://www.w3.org/2000/svg">
<rect width="83" height="42" rx="8" fill="#0074C9"/>
<g clip-path="url(#clip0_3955_5022)">
<path d="M81 1H3V40H81V1Z" fill="#0074C9"/>
<path d="M15.1158 14.2602C15.0638 14.1562 14.9598 14.0522 14.8558 13.9482C14.7518 13.8962 14.6478 13.8442 14.4918 13.7922C14.3878 13.7922 14.2318 13.7922 14.1278 13.7922C14.0238 13.7922 13.8678 13.7922 13.7638 13.7922C13.6078 13.7922 13.5038 13.8442 13.3478 13.9482C13.1918 14.0002 13.0878 14.1042 12.9838 14.2082C12.8798 14.3122 12.7758 14.4682 12.6718 14.6242L9.18781 20.9682C9.18781 20.9682 9.18781 21.0722 9.18781 21.1242C9.18781 21.1762 9.18781 21.2802 9.29181 21.3322C9.34381 21.3322 9.39581 21.3842 9.49981 21.3842H10.2278C10.2798 21.3842 10.3838 21.3842 10.4358 21.3322C10.4878 21.3322 10.5398 21.2282 10.5918 21.1762L11.7878 18.7322H14.6998L14.9598 21.1762C14.9598 21.2282 14.9598 21.2802 15.0118 21.3322C15.0118 21.3842 15.1158 21.4362 15.2198 21.4362H15.9478C16.0518 21.4362 16.1038 21.4362 16.1558 21.3322C16.2078 21.2802 16.2598 21.1762 16.2598 21.1242L15.3758 14.7282C15.3758 14.5202 15.3238 14.4162 15.2198 14.2602M12.1518 17.7442L13.6598 15.0402C13.7118 14.9362 13.8678 14.9362 13.9718 14.9362C14.1798 14.9362 14.1798 15.0402 14.1798 15.0402L14.4918 17.7442H12.1518ZM21.7718 15.7682C21.5638 15.5602 21.3558 15.4042 21.0438 15.3002C20.7838 15.1962 20.4198 15.1442 20.0558 15.1442C19.1718 15.1442 18.4438 15.4042 17.9238 15.8722C17.3518 16.3402 16.9878 17.0682 16.8318 17.9522L16.6758 18.7322C16.6758 18.9922 16.6238 19.2002 16.6238 19.4602C16.6238 19.8242 16.6758 20.1882 16.8318 20.4482C16.9878 20.7082 17.1438 20.9162 17.4038 21.1242C17.6118 21.2802 17.8718 21.4362 18.1838 21.4882C18.4438 21.5402 18.7558 21.5922 19.0678 21.5922C19.4838 21.5922 19.8478 21.5922 20.1598 21.5922C20.4718 21.5922 20.8358 21.4882 21.1478 21.4362C21.2518 21.4362 21.3558 21.4362 21.4078 21.3322C21.4598 21.2802 21.5118 21.1762 21.5118 21.1242V20.7602C21.5638 20.7602 21.5638 20.7602 21.5638 20.7602C21.5638 20.6562 21.5638 20.5522 21.4598 20.5522C21.4078 20.5522 21.3558 20.5522 21.3038 20.5522H21.2518C20.9398 20.5522 20.6278 20.6042 20.2638 20.6562C19.8998 20.6562 19.5358 20.6562 19.1718 20.6562C18.8078 20.6562 18.3918 20.5522 18.1318 20.3962C17.9238 20.2402 17.7678 19.9802 17.7678 19.5642C17.7678 19.4602 17.7678 19.3562 17.7678 19.2522C17.7678 19.1482 17.7678 19.0442 17.8198 18.9402C17.8198 18.8882 21.7198 18.8882 21.7198 18.8882C21.8238 18.8882 21.9278 18.8882 21.9798 18.7842C21.9798 18.7322 22.0838 18.6282 22.0838 18.5762L22.1878 18.1082C22.1878 17.8482 22.2398 17.6402 22.2398 17.4322C22.2398 17.2242 22.2398 16.8602 22.0838 16.6002C21.9798 16.3402 21.8238 16.0802 21.6678 15.9242M21.0438 17.7962H18.1318C18.1838 17.5882 18.2358 17.3802 18.3398 17.1722C18.4438 16.9642 18.5478 16.8082 18.7038 16.6522C18.8598 16.4962 19.0158 16.3922 19.2238 16.2882C19.4318 16.1842 19.6398 16.1842 19.8998 16.1842C20.7318 16.1842 21.0438 16.4962 21.0438 17.2242C21.0438 17.3802 21.0438 17.5882 20.9918 17.7962M26.5558 15.9242L26.6598 15.4562C26.6598 15.3002 26.6598 15.2482 26.5558 15.1962C26.5038 15.1962 26.3998 15.1442 26.3478 15.1442C26.0878 15.1442 25.7758 15.1442 25.4638 15.2482C25.2038 15.3002 24.9958 15.4042 24.7358 15.5602C24.7358 15.4042 24.7358 15.3522 24.6838 15.3002C24.6318 15.2482 24.5278 15.2482 24.4758 15.2482H23.9038C23.7998 15.2482 23.7478 15.2482 23.6438 15.3522C23.5918 15.4042 23.5398 15.4562 23.4878 15.5602L22.4478 21.1762C22.4478 21.3322 22.4478 21.3842 22.4998 21.4362C22.5518 21.4882 22.6558 21.4882 22.7078 21.4882H23.2798C23.3838 21.4882 23.4358 21.4882 23.5398 21.3842C23.5918 21.3322 23.6438 21.2802 23.6958 21.1762L24.5278 16.6002C24.7878 16.4442 25.0478 16.3402 25.2558 16.2882C25.5158 16.2362 25.7758 16.1842 26.0878 16.1842C26.2958 16.1842 26.4518 16.0802 26.5038 15.9242M31.3398 15.7162C31.1318 15.5082 30.9238 15.3522 30.6118 15.2482C30.2998 15.1442 29.9878 15.0922 29.6238 15.0922C27.8038 15.0922 26.7118 16.0282 26.3478 17.8482L26.1918 18.6802C26.1918 18.7842 26.1918 18.8882 26.1918 18.9922C26.1918 19.0962 26.1918 19.2002 26.1918 19.3042C26.1918 19.6162 26.1918 19.9282 26.3478 20.1882C26.4518 20.4482 26.6078 20.7082 26.7638 20.8642C26.9718 21.0722 27.1798 21.2282 27.4918 21.3322C27.8038 21.4362 28.1158 21.4882 28.4798 21.4882C28.8438 21.4882 29.3638 21.4362 29.7798 21.2802C30.1438 21.1762 30.4558 20.9682 30.7678 20.7082C31.0278 20.4482 31.2358 20.1882 31.4438 19.8242C31.5998 19.4602 31.7558 19.0962 31.8078 18.6802L31.9638 17.8482C31.9638 17.7442 31.9638 17.6402 31.9638 17.5362C31.9638 17.4322 31.9638 17.3282 31.9638 17.2242C31.9638 16.9122 31.9638 16.6002 31.8078 16.3402C31.7038 16.0802 31.5478 15.8202 31.3918 15.6642M30.6638 17.5882C30.6638 17.6922 30.6638 17.7962 30.6638 17.9002L30.5078 18.7322C30.5078 18.9922 30.4038 19.2522 30.2998 19.4602C30.1958 19.6682 30.0398 19.8762 29.8838 20.0322C29.7278 20.1882 29.5718 20.2922 29.3638 20.3962C29.1558 20.5002 28.9478 20.5522 28.6878 20.5522C28.2198 20.5522 27.9598 20.4482 27.7518 20.2922C27.5958 20.1362 27.4918 19.8762 27.4918 19.4602C27.4918 19.2522 27.4918 19.0442 27.5438 18.8362L27.6998 18.0042C27.8038 17.4322 28.0118 17.0162 28.3238 16.7042C28.6358 16.3922 29.0518 16.2362 29.5198 16.2362C29.9878 16.2362 30.2478 16.3402 30.4558 16.4962C30.6118 16.6522 30.7158 16.9642 30.7158 17.3282C30.7158 17.4322 30.7158 17.5362 30.7158 17.6402M34.7718 13.5842C34.7718 13.5322 34.7718 13.4282 34.7198 13.3762C34.6678 13.3242 34.6158 13.3242 34.5118 13.3242H33.8878C33.6798 13.3242 33.5238 13.4282 33.5238 13.6362L32.1198 21.1762C32.1198 21.3322 32.1198 21.3842 32.1718 21.4362C32.1718 21.4882 32.2758 21.5402 32.3798 21.5402H33.0038C33.1078 21.5402 33.1598 21.5402 33.2638 21.4362C33.3158 21.3842 33.3678 21.3322 33.3678 21.2282L34.7718 13.6882V13.5842ZM36.5398 15.1962H35.9678C35.8638 15.1962 35.8118 15.1962 35.7078 15.3002C35.6558 15.3522 35.6038 15.4042 35.5518 15.5082L34.5118 21.1242C34.5118 21.2802 34.5118 21.3322 34.6158 21.3842C34.6678 21.4362 34.7718 21.4362 34.8238 21.4362H35.3958C35.4998 21.4362 35.5518 21.4362 35.6558 21.3322C35.7078 21.2802 35.7598 21.2282 35.8118 21.1242L36.8518 15.5082C36.8518 15.3522 36.8518 15.3002 36.7478 15.2482C36.6958 15.1962 36.5918 15.1962 36.5398 15.1962ZM36.0718 14.6242H36.6958C36.7478 14.6242 36.8518 14.6242 36.9038 14.5722C36.9038 14.5722 37.0078 14.5202 37.0598 14.4162L38.2558 13.4282C38.3078 13.4282 38.3598 13.3242 38.3598 13.2202C38.3598 13.0642 38.2038 13.0642 38.1518 13.0642H37.3718C37.2678 13.0642 37.2158 13.0642 37.1638 13.1162C37.1638 13.1162 37.0598 13.1682 37.0078 13.2722L36.0198 14.2602C35.9678 14.3122 35.9158 14.3642 35.9158 14.4682C35.9158 14.5722 36.0198 14.6242 36.1238 14.6242M42.3638 15.6642C42.2078 15.5082 41.9998 15.3522 41.7918 15.2482C41.5318 15.1442 41.2718 15.0922 40.9598 15.0922C40.5438 15.0922 40.1798 15.1442 39.8678 15.2482C39.6598 15.3522 39.3998 15.4042 39.1918 15.5082C39.1918 15.4042 39.1918 15.3002 39.1398 15.2482C39.0878 15.1962 38.9838 15.1442 38.9318 15.1442H38.3598C38.2558 15.1442 38.2038 15.1442 38.0998 15.2482C38.0478 15.3002 37.9958 15.3522 37.9438 15.4562L36.9038 21.0722C36.9038 21.1762 36.9038 21.2802 36.9558 21.3322C36.9558 21.3842 37.1118 21.4362 37.1638 21.4362H37.7358C37.8398 21.4362 37.8918 21.4362 37.9958 21.3322C38.0478 21.2802 38.0998 21.2282 38.1518 21.1242L39.0358 16.5482C39.3998 16.3922 39.6598 16.2882 39.9198 16.2362C40.1798 16.1842 40.3878 16.1322 40.5958 16.1322C41.0118 16.1322 41.2718 16.1842 41.3758 16.3402C41.4798 16.4442 41.5838 16.6522 41.5838 16.8602C41.5838 16.9642 41.5838 17.0162 41.5838 17.1202C41.5838 17.2242 41.5838 17.3282 41.5838 17.4322L40.9598 21.0202C40.9598 21.1762 40.9598 21.2282 41.0638 21.2802C41.1158 21.3322 41.2198 21.3322 41.2718 21.3322H41.8438C41.9478 21.3322 41.9998 21.3322 42.1038 21.2282C42.1558 21.1762 42.2078 21.1242 42.2598 21.0202L42.8838 17.4322C42.8838 17.2242 42.9358 17.0162 42.9358 16.8082C42.9358 16.5482 42.9358 16.3402 42.8318 16.1322C42.7798 15.9242 42.6238 15.7162 42.5198 15.5602M48.3438 15.7682C48.1358 15.5602 47.9278 15.4042 47.6158 15.3002C47.3558 15.1962 46.9918 15.1442 46.6278 15.1442C45.7438 15.1442 45.0678 15.4042 44.4958 15.8722C43.9238 16.3402 43.5598 17.0682 43.4038 17.9522L43.2478 18.7322C43.2478 18.9922 43.1958 19.2002 43.1958 19.4082C43.1958 19.7722 43.2478 20.1362 43.4038 20.3962C43.5598 20.6562 43.7158 20.8642 43.9758 21.0722C44.1838 21.2282 44.4438 21.3842 44.7558 21.4362C45.0678 21.4882 45.3278 21.5402 45.6398 21.5402C46.0558 21.5402 46.4198 21.5402 46.7318 21.5402C47.0438 21.5402 47.4078 21.4362 47.7198 21.3842C47.8238 21.3842 47.9278 21.3842 47.9798 21.2802C48.0318 21.2282 48.0838 21.1242 48.0838 21.0722V20.7082C48.1358 20.7082 48.1358 20.7082 48.1358 20.7082C48.1358 20.6042 48.1358 20.5002 48.0318 20.5002C47.9798 20.5002 47.9278 20.5002 47.8758 20.5002H47.8238C47.5118 20.5002 47.1998 20.5522 46.8358 20.6042C46.4718 20.6042 46.1078 20.6042 45.7438 20.6042C45.3798 20.6042 44.9638 20.5002 44.7038 20.3442C44.4958 20.1882 44.3398 19.9282 44.3398 19.5122C44.3398 19.4082 44.3398 19.3042 44.3398 19.2002C44.3398 19.0962 44.3398 18.9922 44.3918 18.8882C44.3918 18.8362 48.2918 18.8362 48.2918 18.8362C48.3958 18.8362 48.4998 18.8362 48.5518 18.7322C48.5518 18.6802 48.6558 18.5762 48.6558 18.5242L48.7598 18.0562C48.7598 17.7962 48.8118 17.5882 48.8118 17.3802C48.8118 17.1722 48.8118 16.8082 48.6558 16.5482C48.5518 16.2882 48.3958 16.0802 48.2398 15.8722M47.5638 17.7962H44.6518C44.7038 17.5882 44.7558 17.3802 44.8598 17.1722C44.9638 16.9642 45.1198 16.8082 45.2238 16.6522C45.3798 16.4962 45.5358 16.3922 45.7438 16.2882C45.9518 16.1842 46.1598 16.1842 46.4198 16.1842C47.2518 16.1842 47.5638 16.4962 47.6158 17.2242C47.6158 17.3802 47.6158 17.5882 47.5638 17.7962ZM54.9998 15.6642C54.9998 15.5082 54.8438 15.4042 54.6878 15.4042C54.3758 15.3522 54.0638 15.2482 53.6998 15.1962C53.3358 15.1962 52.9718 15.1442 52.6078 15.1442C52.2438 15.1442 51.8798 15.1442 51.5678 15.2482C51.2038 15.3522 50.8918 15.5082 50.6318 15.6642C50.3718 15.8722 50.1118 16.1322 49.9038 16.4442C49.6958 16.7562 49.5398 17.1722 49.4358 17.6922L49.2278 18.7842C49.2278 18.9922 49.1758 19.2522 49.1758 19.4602C49.1758 19.8242 49.1758 20.1362 49.3318 20.3962C49.4358 20.6562 49.5918 20.8642 49.7478 21.0202C49.9038 21.1762 50.1118 21.3322 50.3718 21.3842C50.6318 21.4882 50.8398 21.4882 51.0998 21.4882C51.3078 21.4882 51.4638 21.4882 51.6718 21.4882C51.8278 21.4882 51.9838 21.4362 52.1398 21.3842C52.2958 21.3322 52.4518 21.2802 52.6078 21.1762C52.7118 21.1762 52.7638 21.0722 52.8678 21.0202V21.1242C52.8678 21.2802 52.8678 21.3322 52.9198 21.3842C52.9718 21.4882 53.0758 21.4882 53.1278 21.4882H53.5958C53.6998 21.4882 53.7518 21.4882 53.8558 21.3842C53.9078 21.3322 53.9598 21.2802 54.0118 21.1762L55.0518 15.7682C55.0518 15.7682 55.0518 15.7162 55.0518 15.6642M52.9198 19.9282C52.6078 20.1362 52.3478 20.2402 52.0878 20.3442C51.8278 20.4482 51.5678 20.5002 51.3078 20.5002C51.0478 20.5002 50.8398 20.4482 50.6318 20.2922C50.4758 20.1362 50.3718 19.8762 50.3718 19.5122C50.3718 19.1482 50.3718 19.3562 50.3718 19.2522C50.3718 19.1482 50.3718 19.0962 50.3718 18.9922L50.5798 17.8482C50.6838 17.2762 50.8918 16.8602 51.2038 16.5482C51.5158 16.2882 51.9318 16.1322 52.5558 16.1322C52.8158 16.1322 53.0238 16.1322 53.1798 16.1322C53.3358 16.1322 53.4398 16.1322 53.5438 16.1842L52.8678 19.8242L52.9198 19.9282ZM59.7838 15.2482C59.6798 15.2482 59.5238 15.2482 59.4198 15.1962C59.3158 15.1962 59.1598 15.1962 59.0558 15.1962C58.8998 15.1962 58.7958 15.1962 58.5878 15.1962C58.4318 15.1962 58.2238 15.1962 58.0158 15.1962C57.8078 15.1962 57.3918 15.1962 57.1318 15.3002C56.8198 15.3522 56.5598 15.4562 56.2998 15.6122C56.0398 15.7682 55.8838 15.9242 55.7278 16.1842C55.5718 16.4442 55.4678 16.7042 55.4678 17.0682C55.4678 17.5882 55.8318 18.0562 56.5078 18.4722L57.5998 19.0962C57.8598 19.2522 58.0678 19.4082 58.1198 19.5122C58.2238 19.6162 58.2238 19.7202 58.2238 19.8242C58.2238 19.9802 58.2238 20.1362 58.1198 20.1882C58.0678 20.2922 57.9638 20.3962 57.8598 20.4482C57.7558 20.5002 57.5998 20.5522 57.4438 20.6042C57.2878 20.6042 57.1318 20.6042 56.9758 20.6042C56.8198 20.6042 56.7678 20.6042 56.6118 20.6042C56.4558 20.6042 56.2998 20.6042 56.1438 20.6042C55.9878 20.6042 55.8318 20.6042 55.6238 20.6042C55.4678 20.6042 55.3118 20.6042 55.1558 20.6042H55.0518C54.8958 20.6042 54.7398 20.7082 54.7398 20.8642V21.2282C54.6878 21.2282 54.6878 21.2282 54.6878 21.2282C54.6878 21.3322 54.6878 21.4362 54.7918 21.4882C54.7918 21.4882 54.8958 21.5402 54.9478 21.5402C55.1038 21.5402 55.2598 21.5922 55.4158 21.6442C55.5718 21.6442 55.7278 21.6442 55.9358 21.6442C56.0918 21.6442 56.2478 21.6442 56.4038 21.6442C56.5598 21.6442 56.7158 21.6442 56.8198 21.6442C57.1318 21.6442 57.4438 21.6442 57.7558 21.5402C58.0678 21.4882 58.3798 21.3842 58.5878 21.2282C58.8478 21.0722 59.0558 20.8642 59.2118 20.6042C59.3678 20.3442 59.4198 20.0322 59.4198 19.6682C59.4198 19.4082 59.3158 19.1482 59.1598 18.9402C59.0038 18.6802 58.6918 18.4722 58.2758 18.2122L57.1838 17.5882C56.9758 17.4842 56.8198 17.3282 56.7158 17.2762C56.6118 17.1722 56.5598 17.0682 56.5598 16.9642C56.5598 16.8602 56.5598 16.7042 56.6638 16.6522C56.7158 16.5482 56.8198 16.4962 56.9238 16.4442C57.0278 16.3922 57.1838 16.3402 57.2878 16.3402C57.4438 16.3402 57.5478 16.3402 57.7038 16.3402C58.0158 16.3402 58.3278 16.3402 58.6398 16.3402C58.9518 16.3402 59.2118 16.3402 59.4198 16.3922C59.5758 16.3922 59.7318 16.2882 59.7838 16.1322V15.7682C59.8358 15.7682 59.8358 15.7682 59.8358 15.7682C59.8358 15.5602 59.7318 15.4562 59.5758 15.4562" fill="white"/>
<path d="M23.4879 23.7239C23.2279 23.6719 22.9159 23.6199 22.4999 23.5679C22.1359 23.5159 21.7719 23.4639 21.4079 23.4639C21.0439 23.4639 20.5759 23.4639 20.2119 23.6199C19.8479 23.7239 19.5359 23.8799 19.2759 24.0879C19.0159 24.2959 18.8079 24.6079 18.5999 24.9199C18.4439 25.2839 18.2879 25.6999 18.1839 26.1679L18.0279 26.9479C18.0279 27.2079 17.9759 27.4679 17.9759 27.6759C17.9759 28.0399 18.0279 28.3519 18.1319 28.6119C18.2359 28.8719 18.3919 29.0799 18.5999 29.2359C18.8079 29.3919 19.0159 29.4959 19.3279 29.5999C19.5879 29.6519 19.8999 29.7039 20.2119 29.7039C20.5239 29.7039 20.4199 29.7039 20.5239 29.7039C20.6279 29.7039 20.7839 29.7039 20.8879 29.7039C21.0439 29.7039 21.1479 29.7039 21.2519 29.7039C21.3559 29.7039 21.4079 29.7039 21.4599 29.7039C21.4599 30.0159 21.3559 30.2239 21.3039 30.3799C21.2519 30.5359 21.1479 30.6919 21.0439 30.7439C20.9399 30.8479 20.7839 30.8999 20.5759 30.9519C20.4199 30.9519 20.1599 31.0039 19.8999 31.0039C19.6399 31.0039 19.5879 31.0039 19.3799 31.0039C19.1719 31.0039 19.0159 31.0039 18.8079 31.0039C18.5999 31.0039 18.4439 31.0039 18.2879 31.0039C18.1319 31.0039 17.9759 31.0039 17.9239 31.0039C17.8719 31.0039 17.7679 31.0039 17.7159 31.0559C17.6639 31.0559 17.6119 31.1599 17.6119 31.2119L17.5599 31.5759C17.5599 31.6799 17.6639 31.7839 17.8199 31.7839C17.9759 31.7839 18.2359 31.8879 18.5999 31.9399C18.9639 31.9399 19.3799 31.9919 19.7959 31.9919C20.2119 31.9919 20.5759 31.9919 20.9399 31.8879C21.2519 31.8359 21.5639 31.6799 21.7719 31.5239C21.9799 31.3679 22.1879 31.1079 22.3439 30.8479C22.4999 30.5359 22.6039 30.2239 22.7079 29.7559L23.7999 24.1399C23.7999 24.1399 23.7999 24.1399 23.7999 24.0879C23.7999 23.9839 23.6959 23.8799 23.5399 23.8799M21.7199 28.7159C21.6159 28.7159 21.5639 28.7159 21.4599 28.7159C21.3559 28.7159 21.1999 28.7159 21.0959 28.7159C20.9919 28.7159 20.8359 28.7159 20.7319 28.7159C20.6279 28.7159 20.5239 28.7159 20.4199 28.7159C19.9519 28.7159 19.6399 28.6119 19.4319 28.5079C19.2239 28.3519 19.1199 28.0919 19.1199 27.6759C19.1199 27.5719 19.1199 27.4679 19.1199 27.3119C19.1199 27.2079 19.1199 27.0519 19.1719 26.8959L19.3279 26.1159C19.4319 25.4919 19.6919 25.0239 19.9519 24.7119C20.2639 24.3999 20.6799 24.2959 21.1999 24.2959C21.4599 24.2959 21.6679 24.2959 21.9279 24.2959C22.1359 24.2959 22.2919 24.2959 22.4479 24.3479L21.6679 28.5599L21.7199 28.7159ZM41.8439 22.3199C41.8439 22.1119 41.7399 22.0599 41.5839 22.0599H40.9599C40.9079 22.0599 40.8039 22.0599 40.7519 22.1119C40.6999 22.1119 40.6479 22.2159 40.6479 22.3199V22.7879C40.5959 22.7879 40.5959 22.7879 40.5959 22.7879C40.5959 22.9439 40.6999 22.9959 40.8559 22.9959H41.4799C41.5319 22.9959 41.6359 22.9959 41.6879 22.8919C41.7399 22.8919 41.7919 22.7879 41.7919 22.6839V22.2159L41.8439 22.3199ZM18.0799 24.3999C18.2359 24.3999 18.3919 24.3479 18.4439 24.1919L18.5479 23.7239C18.5479 23.5159 18.4439 23.4639 18.2879 23.4639C18.0279 23.4639 17.7159 23.4639 17.4559 23.5679C17.1959 23.6199 16.9359 23.7759 16.6239 23.9319V23.8279C16.6239 23.6199 16.5199 23.5679 16.4159 23.5679H15.8439C15.7919 23.5679 15.6879 23.5679 15.6359 23.6719C15.5839 23.6719 15.5319 23.7759 15.5319 23.8279L14.4919 29.4439C14.4919 29.6519 14.5959 29.7039 14.6999 29.7039H15.2719C15.3239 29.7039 15.4279 29.7039 15.4799 29.6519C15.5319 29.6519 15.5839 29.5479 15.5839 29.4439L16.4679 24.8679C16.7279 24.7119 16.9879 24.6079 17.2479 24.5559C17.5079 24.5039 17.7679 24.4519 18.1319 24.4519L18.0799 24.3999ZM38.0479 24.4519H39.2959C39.3479 24.4519 39.4519 24.4519 39.5039 24.3479C39.5559 24.3479 39.6079 24.2439 39.6079 24.1919V23.8279C39.6599 23.8279 39.6599 23.8279 39.6599 23.8279C39.6599 23.6199 39.5559 23.5679 39.3999 23.5679H38.2039L38.3599 22.6319C38.3599 22.4759 38.2559 22.3719 38.1519 22.3719L37.5279 22.4759C37.3719 22.4759 37.2679 22.5799 37.2159 22.7359L37.0599 23.5679H36.2799C36.2279 23.5679 36.1239 23.5679 36.0719 23.6719C36.0199 23.6719 35.9679 23.7759 35.9679 23.8279V24.1399C35.9159 24.1399 35.9159 24.1399 35.9159 24.1399C35.9159 24.2959 36.0199 24.3999 36.1759 24.3999L36.9039 24.5039L36.1759 28.2999C36.1759 28.4039 36.1759 28.4559 36.1759 28.5079C36.1759 28.5599 36.1759 28.6639 36.1759 28.7159C36.1759 29.1319 36.3319 29.3919 36.5919 29.5479C36.8519 29.7039 37.2159 29.8079 37.6319 29.8079C38.0479 29.8079 37.8919 29.8079 37.9959 29.8079C38.1519 29.8079 38.2559 29.8079 38.3599 29.8079C38.4639 29.8079 38.5159 29.8079 38.5679 29.7039C38.5679 29.7039 38.6199 29.5999 38.6719 29.5479V29.1319C38.7239 29.1319 38.7239 29.1319 38.7239 29.1319C38.7239 29.0279 38.7239 28.9759 38.6199 28.9239C38.6199 28.9239 38.5159 28.9239 38.4639 28.9239H37.7359C37.5279 28.9239 37.4239 28.9239 37.3199 28.9239C37.2679 28.9239 37.2159 28.8199 37.2159 28.6639C37.2159 28.5079 37.2159 28.5079 37.2159 28.3519L37.9439 24.5559L38.0479 24.4519ZM53.5439 23.9319C53.5439 23.8279 53.4399 23.7239 53.2839 23.7239C52.9719 23.6719 52.6599 23.5679 52.2959 23.5159C51.9319 23.5159 51.5679 23.4639 51.2039 23.4639C50.8399 23.4639 50.4759 23.4639 50.1639 23.5679C49.8519 23.6719 49.5399 23.7759 49.2279 23.9839C48.9679 24.1919 48.7079 24.4519 48.4999 24.7639C48.2919 25.0759 48.1359 25.4919 48.0319 25.9599L47.8239 27.0519C47.8239 27.2599 47.7719 27.5199 47.7719 27.7279C47.7719 28.0919 47.7719 28.3519 47.9279 28.6119C48.0319 28.8719 48.1879 29.0799 48.3439 29.2359C48.4999 29.3919 48.7079 29.4959 48.9679 29.5999C49.1759 29.7039 49.4359 29.7039 49.6959 29.7039C49.9559 29.7039 50.0599 29.7039 50.2159 29.7039C50.3719 29.7039 50.5279 29.6519 50.6839 29.5999C50.8399 29.5479 50.9959 29.4959 51.1519 29.3919C51.2559 29.3399 51.4119 29.2359 51.5159 29.1839V29.3919C51.5159 29.4959 51.5159 29.5479 51.5159 29.5999C51.5159 29.6519 51.6199 29.6519 51.7239 29.6519H52.1919C52.2439 29.6519 52.3479 29.6519 52.3999 29.5479C52.4519 29.5479 52.5039 29.4439 52.5039 29.3919L53.5439 23.9839C53.5439 23.9839 53.5439 23.9319 53.5439 23.8799M51.6199 28.2479C51.3079 28.4559 50.9959 28.6119 50.7359 28.7159C50.4759 28.8199 50.2159 28.8719 49.9559 28.8719C49.6959 28.8719 49.4359 28.7679 49.2799 28.6119C49.1239 28.4559 49.0199 28.1959 49.0199 27.7799C49.0199 27.3639 49.0199 27.6239 49.0199 27.5199C49.0199 27.4159 49.0199 27.3639 49.0199 27.2599L49.2279 26.1159C49.3319 25.5439 49.5399 25.1279 49.8519 24.8159C50.1639 24.5039 50.6319 24.3999 51.2039 24.3999C51.7759 24.3999 51.6719 24.3999 51.8279 24.3999C51.9839 24.3999 52.1399 24.3999 52.2959 24.4519L51.5679 28.1959L51.6199 28.2479ZM58.5879 23.8279C58.5879 23.7239 58.4839 23.6199 58.3799 23.6199C58.2759 23.6199 58.1199 23.6199 58.0159 23.5679C57.9119 23.5679 57.7559 23.5679 57.6519 23.5679C57.4959 23.5679 57.3919 23.5679 57.2359 23.5679C57.0799 23.5679 56.8719 23.5679 56.6639 23.5679C56.3519 23.5679 56.0919 23.5679 55.7799 23.6199C55.4679 23.6719 55.2079 23.7759 54.9999 23.8799C54.7399 24.0359 54.5839 24.1919 54.4279 24.3999C54.2719 24.6079 54.2199 24.9199 54.2199 25.2319C54.2199 25.7519 54.5839 26.2199 55.2079 26.5839L56.2999 27.2079C56.5599 27.3639 56.7679 27.5199 56.8199 27.6239C56.9239 27.7279 56.9239 27.8319 56.9239 27.9359C56.9239 28.0919 56.9239 28.2479 56.8199 28.3519C56.7679 28.4559 56.6639 28.5599 56.5599 28.6119C56.4559 28.6639 56.2999 28.7159 56.1439 28.7679C55.9879 28.7679 55.8319 28.7679 55.6759 28.7679C55.5199 28.7679 55.4679 28.7679 55.3119 28.7679C55.1559 28.7679 54.9999 28.7679 54.8439 28.7679C54.6879 28.7679 54.5319 28.7679 54.3239 28.7679C54.1679 28.7679 54.0119 28.7679 53.8559 28.7679H53.8039C53.6479 28.7679 53.5439 28.8199 53.5439 28.9759V29.3399C53.4919 29.3399 53.4919 29.3399 53.4919 29.3399C53.4919 29.4439 53.4919 29.4959 53.5959 29.5479C53.5959 29.5479 53.6999 29.5479 53.7519 29.5999C53.9079 29.5999 54.0639 29.6519 54.2199 29.6519C54.3759 29.6519 54.5319 29.6519 54.7399 29.6519C54.8959 29.6519 55.0519 29.6519 55.2079 29.6519C55.3639 29.6519 55.5199 29.6519 55.6239 29.6519C55.9359 29.6519 56.2479 29.6519 56.5599 29.5479C56.8719 29.4959 57.1319 29.3919 57.3919 29.2359C57.6519 29.0799 57.8079 28.8719 57.9639 28.6639C58.1199 28.4039 58.1719 28.0919 58.1719 27.7799C58.1719 27.4679 58.1199 27.3119 57.9639 27.0519C57.8079 26.8439 57.5479 26.5839 57.1319 26.3239L56.0399 25.6999C55.8319 25.5959 55.6759 25.4399 55.5719 25.3359C55.4679 25.2319 55.4159 25.1279 55.4159 25.0239C55.4159 24.9199 55.4159 24.7639 55.5199 24.6599C55.5719 24.5559 55.6759 24.5039 55.7799 24.4519C55.8839 24.3999 56.0399 24.3479 56.1439 24.3479C56.2999 24.3479 56.4039 24.3479 56.5599 24.3479C56.8719 24.3479 57.2359 24.3479 57.5479 24.3479C57.8599 24.3479 58.1199 24.3479 58.3279 24.3999C58.4839 24.3999 58.5879 24.2959 58.6399 24.1919V23.8279C58.6919 23.8279 58.6919 23.8279 58.6919 23.8279H58.5879ZM47.0439 23.9839C46.8879 23.8279 46.6799 23.6719 46.4719 23.6199C46.2639 23.5159 45.9519 23.4639 45.6399 23.4639C45.3279 23.4639 44.8599 23.5159 44.5999 23.6199C44.3399 23.7239 44.0799 23.8279 43.8199 23.9319V23.8279V23.7759C43.8199 23.7239 43.8199 23.6719 43.7679 23.6199C43.7679 23.5679 43.6639 23.5679 43.6119 23.5679H43.0399C42.9879 23.5679 42.8839 23.5679 42.8319 23.6719C42.7799 23.6719 42.7279 23.7759 42.7279 23.8799L41.6879 29.4959C41.6879 29.5999 41.6879 29.6519 41.7399 29.7039C41.7399 29.7559 41.8439 29.7559 41.8959 29.7559H42.4679C42.5199 29.7559 42.6239 29.7559 42.6759 29.7039C42.7279 29.7039 42.7799 29.5999 42.7799 29.4959L43.6639 24.8679C44.0279 24.7119 44.3399 24.6079 44.5999 24.5559C44.8599 24.5039 45.0679 24.4519 45.3279 24.4519C45.7439 24.4519 46.0559 24.5039 46.1599 24.6599C46.3159 24.8159 46.3679 24.9719 46.3679 25.2319C46.3679 25.3359 46.3679 25.3879 46.3679 25.4919C46.3679 25.5959 46.3679 25.6999 46.3679 25.8039L45.6919 29.4439C45.6919 29.6519 45.7959 29.7039 45.9519 29.7039H46.5239C46.5759 29.7039 46.6799 29.7039 46.7319 29.6519C46.7839 29.6519 46.8359 29.5479 46.8359 29.4439L47.5119 25.8039C47.5119 25.5959 47.5639 25.3879 47.5639 25.1799C47.5639 24.9199 47.5639 24.7119 47.4599 24.5039C47.4079 24.2959 47.3039 24.0879 47.1479 23.9319M34.9799 23.9839C34.8239 23.8279 34.6159 23.6719 34.4079 23.6199C34.1999 23.5159 33.8879 23.4639 33.5759 23.4639C33.1599 23.4639 32.7959 23.5159 32.5359 23.6199C32.2759 23.7239 32.0159 23.8279 31.7559 23.9319V23.8279V23.7759C31.7559 23.7239 31.7559 23.6719 31.7039 23.6199C31.7039 23.5679 31.5999 23.5159 31.5479 23.5679H30.9759C30.9239 23.5679 30.8199 23.5679 30.7679 23.6719C30.7159 23.6719 30.6639 23.7759 30.6639 23.8799L29.6239 29.4959C29.6239 29.5999 29.6239 29.6519 29.6759 29.7039C29.6759 29.7559 29.7799 29.7559 29.8319 29.7559H30.4039C30.4559 29.7559 30.5599 29.7559 30.6119 29.7039C30.6639 29.7039 30.7159 29.5999 30.7159 29.4959L31.5999 24.8679C31.9639 24.7119 32.2759 24.6079 32.5359 24.5559C32.7959 24.5039 33.0039 24.4519 33.2639 24.4519C33.6799 24.4519 33.9919 24.5039 34.0959 24.6599C34.2519 24.8159 34.3039 24.9719 34.3039 25.2319C34.3039 25.3359 34.3039 25.3879 34.3039 25.4919C34.3039 25.5959 34.3039 25.6999 34.3039 25.8039L33.6279 29.4439C33.6279 29.6519 33.7319 29.7039 33.8879 29.7039H34.4599C34.5119 29.7039 34.6159 29.7039 34.6679 29.6519C34.7199 29.6519 34.7719 29.5479 34.7719 29.4439L35.4479 25.8039C35.4479 25.5959 35.4999 25.3879 35.4999 25.1799C35.4999 24.9199 35.4999 24.7119 35.3959 24.5039C35.3439 24.2959 35.2399 24.0879 35.0839 23.9319M28.8959 24.0879C28.6879 23.8799 28.4799 23.7759 28.2199 23.6199C27.9599 23.5159 27.5959 23.4639 27.2319 23.4639C26.3999 23.4639 25.6719 23.7239 25.1519 24.1919C24.6319 24.6599 24.2679 25.3359 24.0599 26.2199L23.9039 26.9999C23.9039 27.2599 23.8519 27.4679 23.8519 27.6759C23.8519 28.0399 23.9039 28.4039 24.0599 28.6639C24.2159 28.9239 24.3719 29.1319 24.5799 29.2879C24.7879 29.4439 25.0479 29.5479 25.3599 29.6519C25.6199 29.7039 25.9319 29.7559 26.2439 29.7559C26.6599 29.7559 27.0239 29.7559 27.3359 29.7559C27.6479 29.7559 27.9599 29.6519 28.3239 29.5999C28.4279 29.5999 28.5319 29.5999 28.5839 29.4959C28.5839 29.4959 28.6359 29.3919 28.6879 29.2879V28.9239C28.7399 28.9239 28.7399 28.9239 28.7399 28.9239C28.7399 28.7679 28.6359 28.7159 28.5319 28.7159H28.4799C28.2199 28.7159 27.8559 28.7679 27.4919 28.8199C27.1279 28.8199 26.7639 28.8199 26.3999 28.8199C25.9319 28.8199 25.6199 28.7159 25.3599 28.5599C25.0999 28.4039 24.9959 28.0919 24.9959 27.7279C24.9959 27.6239 24.9959 27.5199 24.9959 27.4159C24.9959 27.3119 24.9959 27.2079 25.0479 27.0519V26.9479H28.9999C29.1039 26.9479 29.1559 26.9479 29.2079 26.8439C29.2079 26.7919 29.2599 26.7399 29.3119 26.6359L29.4159 26.1679C29.4159 25.9079 29.4679 25.6999 29.4679 25.4919C29.4679 25.1799 29.4679 24.9199 29.3119 24.6599C29.2079 24.3999 29.1039 24.1919 28.8959 23.9839M28.2199 26.1159H25.2039C25.2559 25.8559 25.3599 25.6479 25.4639 25.4399C25.5679 25.2319 25.7239 25.0759 25.8799 24.8679C26.0359 24.7119 26.2439 24.6079 26.3999 24.5039C26.6079 24.3999 26.8159 24.3999 27.0759 24.3999C27.9079 24.3999 28.2719 24.7639 28.3239 25.4919C28.3239 25.6479 28.3239 25.8559 28.2719 26.0639M41.2719 23.7239H40.6999C40.6479 23.7239 40.5439 23.7239 40.4919 23.7759C40.4399 23.7759 40.3879 23.8799 40.3879 23.9319L39.3479 29.3919C39.3479 29.5999 39.4519 29.6519 39.6079 29.6519H40.1799C40.2319 29.6519 40.3359 29.6519 40.3879 29.5999C40.4399 29.5999 40.4919 29.4959 40.4919 29.3919L41.5319 23.9319C41.5319 23.7239 41.4279 23.6719 41.2719 23.6719M12.8279 22.5279C12.7759 22.4239 12.6719 22.3199 12.5679 22.2159C12.4639 22.1639 12.3599 22.1119 12.2039 22.0599C12.0999 22.0599 11.9439 22.0599 11.8399 22.0599C11.7359 22.0599 11.5799 22.0599 11.4759 22.0599C11.3199 22.0599 11.2159 22.1119 11.0599 22.2159C10.9039 22.2679 10.7999 22.3719 10.6959 22.4759C10.5919 22.5799 10.4879 22.7359 10.3839 22.8919L6.89993 29.2359C6.89993 29.2359 6.89993 29.3399 6.89993 29.3919C6.89993 29.4439 6.89993 29.5479 7.00393 29.5999C7.05593 29.5999 7.10793 29.6519 7.21193 29.6519H7.93993C7.99193 29.6519 8.09593 29.6519 8.14793 29.5999C8.19993 29.5999 8.25193 29.4959 8.30393 29.4439L9.49993 26.9999H12.4119L12.6719 29.4439C12.6719 29.4959 12.6719 29.5479 12.7239 29.5999C12.7239 29.6519 12.8279 29.7039 12.9319 29.7039H13.6599C13.7639 29.7039 13.8159 29.7039 13.8679 29.5999C13.9199 29.5479 13.9719 29.4439 13.9719 29.3919C13.9719 29.3399 13.0879 22.9959 13.0879 22.9959C13.0879 22.8399 13.0359 22.6839 12.9319 22.5279M9.91593 25.9599L11.4239 23.2559C11.4759 23.1519 11.6319 23.1519 11.7359 23.1519C11.9439 23.1519 11.9439 23.2559 11.9439 23.2559L12.2559 25.9599H9.91593Z" fill="white"/>
<path d="M54.844 10.6721C52.504 11.0881 49.332 11.4001 46.992 12.0761H63.632C63.528 11.5041 63.112 10.8801 61.812 10.9321H61.084C61.292 11.4521 60.72 11.8161 60.304 11.5041C60.148 11.3481 59.992 11.0361 60.408 10.7761C60.72 10.5681 61.188 10.2561 61.448 10.1001C62.436 9.47607 62.28 8.59207 60.98 8.48807C57.86 8.28007 52.296 7.91607 49.956 7.76007C51.776 8.74807 53.492 8.85207 55.312 9.52807C56.352 9.94407 56.144 10.4641 54.896 10.6721H54.844Z" fill="white"/>
<path d="M64.1522 25.7001C63.9442 25.8561 63.9442 25.9601 64.0482 26.2201C64.1522 26.4281 64.3082 26.5321 64.4642 26.4801C64.5682 26.4281 64.5162 26.1161 64.4642 25.9601C64.4642 25.8041 64.4122 25.5441 64.4642 25.4401C64.4642 25.2841 64.6202 25.1281 64.7242 25.1281C65.0362 25.0241 65.2962 25.2321 65.4522 25.5961C65.6082 26.0121 65.6082 26.3761 65.1922 26.5841L65.0882 26.3241C65.2962 26.2201 65.3482 26.0121 65.2442 25.7001C65.1402 25.4401 65.0362 25.3361 64.8282 25.4401C64.7242 25.4921 64.7242 25.7001 64.7762 25.9601C64.8282 26.1681 64.8282 26.4801 64.8282 26.5321C64.8282 26.6361 64.7242 26.7401 64.6202 26.7921C64.3602 26.8961 64.0482 26.7921 63.8922 26.4281C63.7362 26.0641 63.7882 25.7001 64.1002 25.5961L64.2042 25.8041L64.1522 25.7001Z" fill="white"/>
<path d="M63.8401 23.3081L64.8281 22.4761V22.8401L64.0481 23.5161L64.2561 23.7761L64.8281 23.7241L64.8801 24.0361L63.2161 24.0881V23.7761H63.9441L63.1641 22.9441V22.5801L63.8401 23.3081Z" fill="white"/>
<path d="M65.1921 21.0199L65.1401 21.2799L64.5161 21.0719L63.3201 21.4359L63.4761 21.0719L64.3081 20.8639L63.7881 20.1359L63.8921 19.8239L64.5681 20.8119L65.1921 21.0199Z" fill="white"/>
<path d="M65.6601 17.8481L65.2961 18.2641L66.3361 19.0961L66.0761 19.4081L65.0881 18.5761L64.7241 18.9921L64.5161 18.7841L65.4521 17.6401L65.6601 17.8481Z" fill="white"/>
<path d="M67.8441 16.3399L67.0121 16.8079L67.1681 17.1199L67.9481 16.6519L68.1041 16.9119L67.3241 17.3279L67.5321 17.6919L68.3641 17.1719L68.5201 17.4319L67.3761 18.1079L66.5441 16.7559L67.6881 16.0799L67.8441 16.3399Z" fill="white"/>
<path d="M69.8722 15.7681L69.7162 16.4441L70.1842 16.3401L69.8722 15.7681ZM70.9642 16.9641H70.5482L70.3402 16.6521L69.7162 16.7561L69.6122 17.1721L69.1962 17.2761L69.6122 15.5081H70.0282C70.0282 15.4561 70.9642 17.0161 70.9642 17.0161V16.9641Z" fill="white"/>
<path d="M73.5642 17.4839L73.2522 17.3279L73.6162 16.0799C73.5122 16.2359 72.8362 17.2239 72.8362 17.2239L72.5242 17.1199C72.5242 17.1199 72.4202 15.8199 72.4202 15.7679L72.1082 17.0679H71.7442C71.7442 17.0159 72.1602 15.4039 72.1602 15.4039L72.6802 15.5079L72.7842 16.8079L73.5122 15.7679L74.0322 15.9239L73.6162 17.4839H73.5642Z" fill="white"/>
<path d="M73.6162 22.6319C73.7722 22.5279 74.1882 22.3199 74.5522 22.2679C74.7082 22.2679 74.9682 22.3199 74.9682 22.4759C74.9682 22.6839 74.7602 22.8399 74.3962 22.9439C74.1362 23.0479 73.7202 23.0479 73.2522 22.9439C73.3562 22.8399 73.4602 22.7359 73.6682 22.6319H73.6162ZM66.9602 23.2559C66.6482 23.2559 66.5442 23.0999 66.5442 22.8919C66.5442 22.6839 66.5442 22.1639 68.2082 22.0599C68.3642 22.0599 68.5722 22.0599 68.8322 22.0599C68.8322 22.1119 68.6242 22.2679 68.6242 22.2679C68.2082 22.6319 67.5842 23.2039 66.9602 23.1519V23.2559ZM70.4962 20.6039C70.2882 20.7599 69.9242 21.1759 69.5602 21.5399L69.1962 21.9039C69.1962 21.9039 69.1442 21.9039 69.0922 21.9039C68.7802 21.8519 68.4162 21.7999 68.1042 21.7999C67.3242 21.7999 66.5962 22.0079 66.2842 22.3199C66.1282 22.4759 66.0762 22.5799 66.0762 22.7359C66.0762 23.0999 66.5442 23.3079 66.6482 23.3599C67.3242 23.6199 67.9482 23.5679 68.5722 23.0999C68.8842 22.8919 69.2482 22.5279 69.5602 22.2159C69.5602 22.2159 69.6642 22.1639 69.7162 22.2159C69.9762 22.2679 70.6522 22.4759 70.7042 22.5279C70.7042 22.5279 70.7562 22.5279 70.7042 22.5799C70.3402 22.9439 70.0282 23.2559 69.7162 23.5159C69.2482 23.9839 68.8842 24.2439 68.3642 24.3999C68.0522 24.4519 67.7922 24.3999 67.6362 24.3999C67.8962 24.6079 68.2602 24.7639 68.6762 24.7119C69.1442 24.7119 69.6642 24.3999 70.1842 23.8799L70.9122 23.1519C70.9122 23.1519 71.2762 22.7359 71.3282 22.7359C71.3282 22.7359 71.3802 22.7359 71.4322 22.7359L72.3162 23.0479C72.3162 23.0479 72.3162 23.0479 72.3162 23.0999C72.1602 23.2039 71.7962 23.6199 71.7962 23.6199L71.2762 24.1399C70.7562 24.7119 70.4442 24.9719 70.0802 25.1799C69.5602 25.5959 69.0922 25.7519 68.6762 25.8039C68.4682 25.8039 68.1562 25.8039 67.9482 25.6999C68.2082 25.9079 68.5722 26.2199 69.0922 26.1679C69.7162 26.1679 70.3402 25.8559 71.2242 25.0239C71.6402 24.6599 72.0562 24.2439 72.4202 23.8279L73.0442 23.2039C73.0442 23.2039 73.0962 23.1519 73.2002 23.2039C73.6162 23.3079 73.9802 23.3079 74.3962 23.3079C75.0202 23.3079 75.5922 22.9959 75.5922 22.6319C75.5922 22.3719 75.3842 22.2159 75.2802 22.1639C75.1762 22.1119 74.8642 21.9559 74.5002 21.9559C74.0322 21.9559 73.5122 22.1639 72.9922 22.5799L72.7322 22.8399C72.7322 22.8399 72.6802 22.8399 72.6282 22.8399C72.1602 22.7359 71.6922 22.5799 71.6922 22.5799C71.6922 22.5799 71.6402 22.5799 71.6922 22.5279C71.9522 22.3199 72.1602 22.1119 72.3682 21.9039C72.8882 21.4359 73.4082 21.2799 73.7722 21.2279C73.9802 21.2279 74.3962 21.2279 74.5522 21.3319C74.0842 20.9679 73.7202 20.9159 73.4082 20.9159C73.0962 20.9159 72.5762 21.0199 71.9522 21.4879C71.6922 21.6959 71.3802 22.0079 71.0682 22.3199C71.0682 22.3199 71.0162 22.3199 70.9642 22.3199C70.8082 22.3199 70.4442 22.1639 70.4442 22.1639L69.9762 22.0599C70.0802 22.0079 70.2362 21.8519 70.2362 21.8519C70.6002 21.5399 70.8602 21.2279 71.1202 21.0199C72.0042 20.2919 72.5762 20.1879 72.9402 20.1879C73.3562 20.1879 73.6682 20.2919 73.8762 20.3959C73.4082 19.9799 73.0442 19.8239 72.4202 19.8239C71.9002 19.8239 71.2242 20.1359 70.6002 20.7079L70.4962 20.6039Z" fill="white"/>
<path d="M74.5001 16.028H74.4481V16.236C74.3961 16.236 74.3441 16.236 74.3441 16.236V16.028H74.5521H74.5001Z" fill="white"/>
<path d="M74.6041 16.288V16.132L74.5522 16.34L74.6562 16.028H74.7081V16.236L74.8122 16.08H74.8641L74.7602 16.392L74.8122 16.184L74.7081 16.288H74.6041Z" fill="white"/>
<path d="M75.3321 18.4201C78.3481 21.1761 77.7241 25.1281 76.1641 27.0521C73.8761 30.0681 69.5081 30.4321 66.7521 27.8841C66.6481 27.7801 66.6481 27.6761 66.8561 27.8841C69.4561 29.9121 73.4601 29.4441 75.5921 26.6881C76.5801 25.4401 78.1921 21.8521 75.2801 18.4721C75.1241 18.3161 75.2281 18.2641 75.3841 18.4201H75.3321Z" fill="white"/>
</g>
<defs>
<clipPath id="clip0_3955_5022">
<rect width="78" height="39" fill="white" transform="translate(3 1)"/>
</clipPath>
</defs>
</svg>
