<svg width="83" height="42" viewBox="0 0 83 42" fill="none" xmlns="http://www.w3.org/2000/svg">
<g clip-path="url(#clip0_3952_12925)">
<path d="M85 0H-1V42H85V0Z" fill="white"/>
<g clip-path="url(#clip1_3952_12925)">
<path d="M68.2626 28.2716H54.0894V14.0981H68.2626V28.2716Z" fill="#31639C"/>
<path d="M59.2158 17.8067C59.4087 17.8193 59.5953 17.836 59.776 17.859C58.9035 17.5947 57.9795 17.4515 57.0219 17.4515C55.9986 17.4515 55.0147 17.6162 54.0905 17.916V18.0086C55.0465 17.7574 56.0583 17.6189 57.106 17.6189C57.8281 17.6188 58.5342 17.6848 59.2158 17.8067Z" fill="white"/>
<path d="M60.065 17.9935C59.7868 17.9211 59.5025 17.859 59.2157 17.8067C58.4867 17.7586 57.6689 17.7778 56.8097 17.8779C55.7979 17.9959 54.8682 18.2108 54.0901 18.4812V18.9369C54.8975 18.4974 56.0708 18.1421 57.4026 17.9871C58.3801 17.873 59.2955 17.8844 60.065 17.9935Z" fill="white"/>
<path d="M63.1439 19.705C63.1391 19.6937 63.1313 19.6849 63.125 19.6745C62.8315 19.4284 62.5229 19.1999 62.2007 18.9903C62.2161 19.0323 62.2273 19.0742 62.2335 19.1187C62.2335 19.1237 62.2326 19.1288 62.2326 19.1327C62.2195 19.0781 62.2007 19.0258 62.1767 18.9738C62.0433 18.8877 61.9085 18.805 61.7717 18.7264C60.6343 18.3581 58.9733 18.3337 57.1948 18.7465C55.9921 19.027 54.9232 19.4627 54.0903 19.9729V20.1597C54.9904 19.7014 56.132 19.3165 57.4079 19.0868C59.9479 18.6258 62.2219 18.9104 63.1439 19.705Z" fill="white"/>
<path d="M64.799 21.5015C64.5666 21.17 64.3139 20.853 64.0424 20.5532C62.4387 19.5042 59.5984 19.3977 56.7125 20.4579C55.7386 20.8159 54.8563 21.2729 54.0894 21.7909V22.1757C54.9299 21.6475 55.9051 21.1866 56.9803 20.8389C60.2818 19.7735 63.4444 20.1038 64.799 21.5015Z" fill="white"/>
<path d="M66.0286 23.9343C65.8787 23.4899 65.6986 23.0605 65.4889 22.648C63.9743 21.1626 60.6746 20.9517 57.3859 22.2963C56.0997 22.8206 54.9827 23.5177 54.0901 24.2974V24.6976C55.098 23.9218 56.3868 23.2503 57.8558 22.7893C61.4514 21.6616 64.8835 22.1937 66.0286 23.9343Z" fill="white"/>
<path d="M57.5637 25.4057C61.3447 23.6398 65.2731 24.0535 66.3398 26.3328C66.4223 26.5106 66.4754 26.6972 66.5176 26.8863C66.5137 26.3149 66.459 25.7552 66.3578 25.2118C65.2636 23.1153 61.3224 22.9632 57.5245 24.8764C56.1433 25.5738 54.974 26.4482 54.0902 27.3804V27.8794C54.9725 26.9319 56.1582 26.0649 57.5637 25.4057Z" fill="white"/>
<path d="M66.2828 27.5604C65.5603 25.7739 62.5868 25.2942 59.6401 26.4865C58.5215 26.9381 57.5732 27.5681 56.8606 28.2715H57.2709C57.941 27.7587 58.7663 27.3139 59.7061 27.003C62.4993 26.0737 65.2076 26.6464 65.8384 28.2715H66.4226C66.4252 28.255 66.4291 28.2396 66.4313 28.2232C66.4151 27.9961 66.3692 27.7726 66.2828 27.5604Z" fill="white"/>
<path d="M66.0137 17.4171C59.9371 16.4572 55.5299 18.1702 54.0903 18.8469V19.5922C59.2668 16.6796 66.0137 17.4171 66.0137 17.4171Z" fill="#F3F3F3"/>
<path d="M66.8569 18.9355C60.322 17.7511 55.4627 20.035 54.0892 20.7865V21.6043C59.0066 18.1801 66.8569 18.9355 66.8569 18.9355Z" fill="#F3F3F3"/>
<path d="M68.0386 20.7346C60.8661 19.3737 55.7852 22.1502 54.0901 23.2728V24.1513C60.0142 19.5677 68.0386 20.7346 68.0386 20.7346Z" fill="white"/>
<path d="M32.4273 14.361C32.5501 14.4145 32.7409 14.408 32.8589 14.3419C32.9503 14.2706 32.9987 14.1794 33.0025 14.074C33.071 14.0359 33.1663 14.06 33.2501 14.0538L33.2704 16.1054C32.8463 16.2906 33.0354 15.8122 32.8997 15.6545C32.7155 15.0376 32.0936 14.4957 31.4421 14.4217C30.7859 14.3471 30.1706 14.5627 29.8017 15.0997C29.1272 16.0812 29.0986 17.7354 29.8221 18.7121C30.2554 19.2972 30.9379 19.5254 31.6695 19.4077C32.2799 19.3095 32.7815 18.9428 33.2502 18.4858C33.3161 18.5317 33.3848 18.5823 33.4535 18.6296C32.591 20.0288 31.0536 20.2767 29.5977 19.8394C28.7128 19.5736 27.9359 18.7244 27.73 17.8498C27.4789 16.7834 27.7404 15.6805 28.4054 14.8939C29.3373 13.7914 31.2044 13.8292 32.4273 14.361Z" fill="#31639C"/>
<path d="M39.0777 16.4939C38.7177 16.0332 38.2425 15.7292 37.7216 15.6115C36.5448 15.3455 35.1814 15.4977 34.3963 16.5576C33.9638 17.1417 33.9257 17.9921 34.1716 18.6499C34.5629 19.6961 35.6859 20.0738 36.6958 20.1063C37.6971 20.1385 38.7037 19.786 39.1981 18.8136C39.5496 18.1227 39.5571 17.1073 39.0777 16.4939ZM37.4769 19.3078C37.0579 19.967 36.2869 19.8017 35.9163 19.2252C35.4005 18.4226 35.3969 16.9756 36.0394 16.2301C36.4826 15.7161 37.1229 15.7983 37.4769 16.2908C38.0447 17.0812 37.9972 18.4891 37.4769 19.3078Z" fill="#31639C"/>
<path d="M44.3062 15.7564C43.3778 15.3574 42.417 15.7704 41.7022 16.3301L41.6804 15.5721L39.649 15.736L39.6083 15.7767C39.422 15.963 39.9462 15.8854 40.1022 16.0028C40.3336 16.1772 40.3913 16.4293 40.3891 16.7011C40.3772 18.1764 40.4047 19.7113 40.3674 21.2162C40.3625 21.4152 40.1607 21.6298 39.9585 21.6872C39.8344 21.7224 39.6843 21.6933 39.5877 21.79C39.5776 21.8432 39.597 21.9116 39.6486 21.9119L42.419 21.9337C42.4791 21.934 42.4875 21.8638 42.4812 21.8106C42.3645 21.7141 42.1535 21.7587 42.0102 21.6875C41.8019 21.5839 41.6494 21.3698 41.6395 21.1528L41.6801 19.4921C41.7565 19.6026 41.8516 19.7245 41.9671 19.7992C42.7162 20.2553 43.9063 20.2866 44.636 19.7791C45.2587 19.346 45.4774 18.6827 45.5185 17.9939C45.5742 17.0712 45.1975 16.1394 44.3062 15.7564ZM43.7324 19.244C43.4738 19.6385 42.9896 19.7216 42.5427 19.6149C42.2023 19.5336 41.8661 19.2912 41.6806 18.9571L41.7023 16.988C42.0122 16.5031 42.534 16.11 43.1371 16.2301C43.4405 16.2904 43.731 16.5464 43.8761 16.8242C44.2464 17.5339 44.153 18.6023 43.7324 19.244Z" fill="#31639C"/>
<path d="M50.5057 19.5944C50.3561 19.5138 50.342 19.2669 50.3458 19.1208C50.3677 18.2011 50.693 17.0415 50.1162 16.2692C49.704 15.7174 49.0206 15.6132 48.3517 15.6547C47.6227 15.6998 46.7427 16.0216 46.546 16.8241C46.5788 16.8674 46.6196 16.8875 46.6705 16.8848C47.0576 16.4038 47.649 16.1777 48.2703 16.3506C48.5671 16.4329 48.7968 16.7229 48.8861 17.0081C48.9188 17.1129 48.9264 17.285 48.802 17.3169C47.9031 17.5479 46.9148 17.6151 46.2794 18.4253C46.083 18.6755 46.0778 19.0849 46.1762 19.3877C46.2976 19.7603 46.6553 19.9956 47.0167 20.0858C47.7042 20.2573 48.3882 19.9831 48.925 19.5729H48.9656C49.1968 19.9932 49.6239 20.2469 50.0959 20.1697C50.4773 20.1071 50.8793 19.8813 51.0606 19.4917C50.9845 19.0789 50.712 19.7056 50.5057 19.5944ZM48.905 18.957C48.9166 19.1449 48.7442 19.2949 48.5976 19.3877C48.3949 19.5159 48.0623 19.544 47.8601 19.3684C47.6523 19.1883 47.6278 18.8953 47.6947 18.6498C47.8348 18.1387 48.3983 17.8296 48.8858 17.7473L48.9049 17.7674C48.8757 18.1523 48.8813 18.5747 48.905 18.957Z" fill="#31639C"/>
<path d="M22.6187 21.8708C22.8561 22.0837 22.947 22.446 22.823 22.7534C22.703 23.0506 22.4177 23.2453 22.1058 23.2244C21.8553 23.2074 21.5939 23.0894 21.4699 22.8359C21.3374 22.5664 21.3505 22.2331 21.5306 21.9941C21.7731 21.6722 22.3368 21.6181 22.6187 21.8708Z" fill="#31639C"/>
<path d="M33.6794 22.1394C33.7998 22.3104 33.8044 22.5652 33.7608 22.7743C33.7054 23.0401 33.4115 23.2986 33.145 23.3288C32.8997 23.3569 32.6386 23.3069 32.4466 23.1039C32.2435 22.8893 32.179 22.6086 32.2421 22.3221C32.2984 22.0667 32.57 21.8215 32.8173 21.7698C33.1704 21.6957 33.4772 21.8519 33.6794 22.1394Z" fill="#31639C"/>
<path d="M30.4564 27.5757C30.4996 27.7055 30.6063 27.8247 30.7243 27.906C30.8473 27.9403 31.015 27.9122 31.0938 28.0061C31.1001 28.0593 31.0911 28.1244 31.0316 28.1306L28.4046 28.151C28.3602 28.1258 28.3398 28.1231 28.3232 28.0699C28.3387 27.8576 28.6356 27.9834 28.7347 27.8017C28.8515 27.7016 28.8744 27.5631 28.919 27.4326L28.8986 22.6305C28.8034 22.3692 28.5278 22.3713 28.3031 22.3425C28.2891 22.2838 28.2373 22.232 28.3031 22.1786L28.3438 22.1391C29.0423 22.0985 29.7405 22.0552 30.4363 22.0146L30.4564 27.5757Z" fill="#31639C"/>
<path d="M22.8865 27.535L22.8432 23.759L20.8321 23.8631C20.7851 23.8988 20.7598 23.9429 20.7712 24.0066C21.0023 24.0716 21.302 24.0914 21.387 24.3748L21.4074 27.3512C21.3706 27.507 21.3326 27.662 21.203 27.7827C21.0367 27.902 20.7917 27.8982 20.5872 27.8627C20.106 27.7041 19.9874 27.1807 19.8293 26.776L18.0414 22.1986L17.036 22.1785L14.7796 27.4525C14.6507 27.7534 14.3289 27.8827 14.0201 27.9059C13.9744 27.9514 14.0138 28.0125 14.0608 28.0493L16.0327 28.0697L16.1125 28.006C16.1557 27.742 15.8481 27.9071 15.7227 27.8015C15.6297 27.7232 15.5575 27.6293 15.559 27.5149C15.5653 26.9958 15.832 26.57 15.9693 26.0991H17.8574C18.0376 26.4481 18.1638 26.8214 18.3094 27.1873C18.3795 27.3636 18.3712 27.6138 18.2281 27.7623C18.0728 27.9235 17.7583 27.7573 17.6734 27.9872C17.714 28.006 17.6734 28.0759 17.7341 28.0697L23.4591 28.0493L23.4809 27.926C23.2354 27.9059 22.9829 27.7775 22.8865 27.535ZM16.1966 25.586L16.9545 23.6992L17.6731 25.566L16.1966 25.586Z" fill="#31639C"/>
<path d="M28.2405 23.9228L27.9129 25.3397C27.8012 25.2929 27.7104 25.1915 27.6058 25.1354C27.3626 25.0049 27.0706 24.8825 26.783 24.992C26.5693 25.0732 26.4035 25.2699 26.2713 25.463L26.251 27.5757C26.2498 27.7026 26.3842 27.83 26.5164 27.8627C26.6407 27.8933 26.7894 27.8688 26.8871 27.9667L26.8668 28.1103H24.137C24.0863 28.0836 24.0964 28.0325 24.0964 27.9873C24.2474 27.8754 24.4698 27.9317 24.6078 27.7828C24.7085 27.6743 24.7727 27.5569 24.7718 27.412L24.7515 24.3749C24.6829 24.0357 24.3046 24.1441 24.1167 24.0067C24.0901 23.9409 24.1574 23.8989 24.1992 23.8822L26.2294 23.7791L26.2512 24.9081C26.6969 24.4192 27.0917 23.6118 27.8929 23.7791C28.0094 23.8277 28.1378 23.8465 28.2405 23.9228Z" fill="#31639C"/>
<path d="M49.9721 24.0253C50.2613 24.1287 50.3033 23.7816 50.5456 23.8413L50.5863 23.9226L50.6283 25.1123C50.6396 25.2407 50.4811 25.1937 50.4228 25.1756C50.2257 24.7708 49.8827 24.2717 49.4386 24.1296C49.0533 24.0065 48.4651 23.9715 48.2274 24.3744C48.159 24.4904 48.1458 24.683 48.2069 24.8051C48.4822 25.3544 49.15 25.2389 49.6227 25.4626C50.0706 25.6744 50.6842 26.0208 50.7918 26.5493C50.9115 27.1364 50.6901 27.7226 50.1776 28.0893C49.3809 28.6595 48.2654 28.3318 47.4069 28.13C47.2217 28.13 47.2217 28.4372 47.0362 28.3143C46.9332 27.8417 46.9864 27.3022 46.9132 26.816C46.9272 26.7753 46.9639 26.7447 46.9968 26.7133C47.1746 26.7705 47.1479 26.9838 47.2636 27.1043C47.605 27.6717 48.182 28.084 48.8213 28.0489C49.0557 28.0359 49.2983 27.9436 49.4383 27.6984C49.5635 27.4788 49.4805 27.2123 49.3152 27.0636C48.8257 26.624 48.1283 26.6126 47.5912 26.2423C47.3272 26.0603 47.0329 25.8369 46.9766 25.5236C46.883 25.0027 47.0201 24.473 47.4681 24.1495C48.1639 23.6481 49.2141 23.7547 49.9721 24.0253Z" fill="#31639C"/>
<path d="M40.0008 24.3966C40.1287 24.5849 40.2434 24.8014 40.2472 25.0325L40.2879 27.6174C40.3259 27.7366 40.4212 27.8523 40.5329 27.9259C40.632 28.001 40.7996 27.9119 40.8821 28.0276C40.9088 28.1317 40.8262 28.1889 40.7386 28.193L38.2144 28.17C38.1486 28.1473 38.1687 28.0634 38.1928 28.0281C38.3198 27.9215 38.5164 27.9923 38.6245 27.8426C38.7553 27.708 38.8178 27.5389 38.8097 27.3513L38.8154 25.5245C38.8437 25.2888 38.7523 25.0486 38.6041 24.8679C38.3942 24.612 38.0269 24.5907 37.7218 24.6621C37.4785 24.719 37.1998 24.9287 37.1263 25.1969L37.1466 27.5559C37.1809 27.7131 37.3028 27.8731 37.4552 27.9469C37.5518 27.9812 37.6723 27.9517 37.7422 28.0497C37.7499 28.1017 37.7422 28.1655 37.6813 28.1703L35.0949 28.1515C35.067 28.1183 35.067 28.0598 35.0949 28.0284C35.217 27.9583 35.3869 28.0093 35.4862 27.8833C35.6614 27.764 35.6436 27.5663 35.6904 27.3922L35.6701 24.7853C35.6738 24.6446 35.6597 24.469 35.5659 24.3345C35.4249 24.1314 35.1462 24.275 35.0136 24.1304C34.9683 24.081 35.0378 24.002 35.0949 23.9866C35.7997 24.0006 36.451 23.8888 37.1265 23.842L37.1468 24.4781C37.5925 24.1123 38.1146 23.8981 38.6664 23.8228C39.1947 23.7503 39.7031 23.9579 40.0008 24.3966Z" fill="#31639C"/>
<path d="M33.7818 27.5555C33.816 27.7128 33.931 27.9052 34.0889 27.9467C34.1976 27.9749 34.3377 27.9402 34.3962 28.028C34.4241 28.0911 34.3581 28.1346 34.3162 28.151L31.8733 28.1698C31.7884 28.1812 31.6829 28.1418 31.6689 28.0696C31.6727 27.8181 31.9954 28.0345 32.1196 27.8626C32.3176 27.5893 32.2866 27.2317 32.2836 26.8798L32.3039 24.7036C32.3058 24.4977 32.2066 24.3007 32.0169 24.1704C31.8942 24.0861 31.4721 24.1912 31.669 23.9863L31.7299 23.9227C32.4079 23.8974 33.0973 23.8988 33.7615 23.8413L33.7818 27.5555Z" fill="#31639C"/>
<path d="M45.2127 27.4944C44.7464 27.8 44.0642 27.6904 43.6118 27.4119C43.0245 27.0503 42.8413 26.4408 42.8512 25.7906L42.8943 25.7512H46.0532C46.0204 25.1493 45.7991 24.6091 45.3143 24.2112C44.8303 23.8135 44.187 23.6982 43.5293 23.7386C42.8043 23.7832 42.0967 24.0609 41.6615 24.7252C41.1773 25.4647 41.2007 26.5785 41.6615 27.3304C42.1173 28.0739 42.9085 28.4531 43.7766 28.4171C44.7011 28.3792 45.6939 27.9257 46.0126 26.9798L45.7853 26.8569C45.6521 27.0756 45.451 27.3384 45.2127 27.4944ZM43.3247 24.1893C43.6341 24.0156 44.1487 24.0585 44.3707 24.4166C44.5323 24.6769 44.5472 24.9959 44.555 25.3195H42.8728C42.8485 24.8703 42.9244 24.4145 43.3247 24.1893Z" fill="#31639C"/>
</g>
</g>
<defs>
<clipPath id="clip0_3952_12925">
<rect width="83" height="42" rx="8" fill="white"/>
</clipPath>
<clipPath id="clip1_3952_12925">
<rect width="54.2629" height="14.4196" fill="white" transform="translate(14 14.0001)"/>
</clipPath>
</defs>
</svg>
