<svg width="83" height="42" viewBox="0 0 83 42" fill="none" xmlns="http://www.w3.org/2000/svg">
<g clip-path="url(#clip0_3952_12912)">
<path d="M84 -1H-1V43H84V-1Z" fill="white"/>
<g clip-path="url(#clip1_3952_12912)">
<path d="M19.3704 24.9072L12.9408 21.8112V15L19.3704 24.9072ZM19.8816 26.088L12.9408 23.1576V26.088H19.8816Z" fill="#98002E"/>
<path d="M6.51144 24.9072L12.941 15V21.8112L6.51144 24.9072Z" fill="#E31837"/>
<path d="M6 26.0883H12.9408V23.1579L6 26.0883Z" fill="#E31837"/>
<path d="M20.4433 24.0576C20.6953 24.0576 20.9041 24.2592 20.9041 24.5112C20.9041 24.7632 20.7025 24.972 20.4505 24.972C20.1985 24.972 19.9897 24.7704 19.9897 24.5184C19.9897 24.2592 20.1913 24.0576 20.4433 24.0576ZM20.4433 24.9C20.6593 24.9 20.8321 24.7272 20.8321 24.5112C20.8321 24.2952 20.6593 24.1224 20.4433 24.1224C20.2273 24.1224 20.0545 24.2952 20.0545 24.5112C20.0545 24.7272 20.2273 24.9 20.4433 24.9ZM20.3425 24.7776H20.2777V24.252H20.4793C20.6017 24.252 20.6449 24.3024 20.6449 24.396C20.6521 24.4752 20.5873 24.54 20.5153 24.5472L20.6737 24.7776H20.6017L20.4433 24.5472H20.3497L20.3425 24.7776ZM20.3425 24.4824H20.4289C20.5009 24.4824 20.5801 24.4752 20.5801 24.3888C20.5801 24.324 20.5153 24.3024 20.4649 24.3024H20.3497V24.4824H20.3425Z" fill="#98002E"/>
<path d="M25.3033 24.9071H28.4209C31.6321 24.9071 33.5401 23.2439 33.5401 20.4863C33.5401 17.7287 31.6321 16.0727 28.4209 16.0727H25.3033V24.9071ZM27.2761 17.6063H28.4209C30.5017 17.6063 31.5457 18.6359 31.5457 20.4863C31.5457 22.3367 30.5017 23.3663 28.4209 23.3663H27.2761V17.6063Z" fill="#003D79"/>
<path d="M40.2505 21.0767H44.0017V19.5431H40.2505V17.6063H44.4913V16.0727H38.2705V24.9071H44.6281V23.3735H40.2505V21.0767Z" fill="#003D79"/>
<path d="M55.8747 23.3735H52.0659V16.0727H50.0859V24.9071H55.8747V23.3735Z" fill="#003D79"/>
<path d="M66.5306 16.0727H58.6033V17.6063H61.5697V24.9071H63.557V17.6063H66.5306V16.0727Z" fill="#003D79"/>
<path d="M78 24.9074H75.9336L75.0696 22.697H71.4768L70.6128 24.9074H68.6832L72.3768 16.037H74.3712L78 24.9074ZM74.508 21.2138L73.2768 18.0746L72.0384 21.2138H74.508Z" fill="#003D79"/>
</g>
</g>
<defs>
<clipPath id="clip0_3952_12912">
<rect width="83" height="42" rx="8" fill="white"/>
</clipPath>
<clipPath id="clip1_3952_12912">
<rect width="72" height="11.088" fill="white" transform="translate(6 15)"/>
</clipPath>
</defs>
</svg>
