<svg width="83" height="42" viewBox="0 0 83 42" fill="none" xmlns="http://www.w3.org/2000/svg">
<g clip-path="url(#clip0_3955_5011)">
<path d="M87 -12H-9V45H87V-12Z" fill="#D71C23"/>
<path d="M35.109 26.5459C34.3333 26.5459 33.6222 26.5459 32.9111 26.5459C32.5878 26.5459 32.4585 26.3513 32.3292 26.1567C32.1353 25.7675 32.0707 25.3135 32.0707 24.8594C32.0707 23.4324 32.0707 22.0054 32.0707 20.5135C32.0707 19.9946 31.8121 19.6054 31.3595 19.3459C30.907 19.1513 30.4545 19.1513 30.0666 19.4757C29.7434 19.6702 29.5494 19.9946 29.5494 20.3838C29.5494 21.7459 29.5494 23.1081 29.5494 24.4702C29.5494 25.2486 29.7434 25.8973 30.3252 26.4811C30.2606 26.6108 30.1959 26.5459 30.1313 26.5459C29.5494 26.5459 28.903 26.5459 28.3212 26.5459C27.9979 26.5459 27.804 26.4162 27.6747 26.1567C27.5454 25.8973 27.4808 25.573 27.4808 25.3135C27.4161 23.7567 27.4808 22.2 27.4161 20.6432C27.4161 20.4486 27.4161 20.254 27.3515 20.0594C27.1575 19.6054 26.8343 19.2811 26.3171 19.2162C25.7353 19.1513 25.2828 19.4108 25.0242 19.8648C24.9595 19.9946 24.9595 20.1243 24.9595 20.3189C24.9595 21.6811 24.9595 23.0432 24.9595 24.4054C24.9595 25.1838 25.1535 25.8973 25.8646 26.5459C25.1535 26.5459 24.5717 26.5459 23.9898 26.5459C23.3434 26.5459 23.2141 26.4162 23.0201 25.8324C22.8909 25.4432 22.8909 25.1189 22.8909 24.7297C22.8909 23.0432 22.8909 21.2919 22.8909 19.6054C22.8909 18.9567 22.7616 18.3081 22.2444 17.854C22.8909 17.854 23.5373 17.7243 24.1191 17.9838C24.5717 18.1784 24.7656 18.5675 24.8303 19.0216C24.8949 19.1513 24.8949 19.2811 24.8949 19.4108C25.3474 18.3081 26.1878 17.7243 27.3515 17.854C28.3858 17.9838 29.0969 18.4378 29.4848 19.4108C29.5494 19.4108 29.5494 19.3459 29.6141 19.2811C30.1959 17.9838 31.101 17.5946 32.4585 17.9189C33.5575 18.1784 34.204 18.9567 34.204 20.1243C34.204 21.5513 34.204 22.9135 34.204 24.3405C34.204 25.1189 34.3333 25.8973 35.109 26.5459Z" fill="white"/>
<path d="M12.9999 15.5838C13.1292 15.5838 13.1939 15.5838 13.2585 15.5838C15.004 15.5838 16.7494 15.5838 18.4949 15.5838C19.1414 15.5838 19.7232 15.6486 20.305 15.973C20.8868 16.2324 21.2747 16.6865 21.5333 17.2702C21.5333 17.3351 21.5979 17.4 21.5333 17.4648C20.6282 16.8811 19.5939 16.7513 18.5595 16.7513C17.8484 16.7513 17.1373 16.7513 16.3616 16.7513C16.2969 16.7513 16.103 16.6865 16.1676 16.8811C16.4262 17.5297 16.3616 18.2432 16.3616 18.9567C16.3616 19.2811 16.4262 19.3459 16.7494 19.3459C17.2666 19.3459 17.8484 19.2811 18.3656 19.4108C18.9474 19.6054 19.4646 19.9297 19.7878 20.4486C19.8525 20.5784 19.8525 20.5784 19.8525 20.773C19.3999 20.5135 18.8181 20.4486 18.301 20.4486C17.7191 20.4486 17.1373 20.4486 16.4909 20.4486C16.3616 20.4486 16.2323 20.4486 16.2969 20.6432C16.3616 21.9405 16.2323 23.2378 16.3616 24.5351C16.4262 25.2486 16.6201 25.3784 17.3313 25.3784C18.107 25.3784 18.9474 25.3784 19.7232 25.3784C20.4343 25.3784 21.1454 25.2486 21.6626 24.6648C21.8565 25.7675 21.21 26.5459 20.1757 26.5459C18.3656 26.5459 16.5555 26.5459 14.6808 26.5459C14.3575 26.5459 14.2282 26.3513 14.0989 26.0919C13.905 25.6378 13.905 25.1838 13.905 24.6648C13.905 22.4594 13.905 20.3189 13.905 18.1135C13.8404 17.0757 13.6464 16.427 12.9999 15.5838Z" fill="white"/>
<path d="M69.5656 19.8648C69.4363 19.6702 69.3717 19.6054 69.307 19.4757C68.7898 18.827 68.1434 18.5675 67.3676 18.7621C66.6565 18.9567 66.4626 19.5405 66.9151 20.1243C67.0444 20.3189 67.2383 20.4486 67.4323 20.5784C67.9494 20.9027 68.4666 21.227 68.9838 21.6162C69.6302 22.1351 70.0828 22.8486 70.0828 23.6919C70.1474 24.8594 69.307 25.9621 68.0787 26.3513C66.9797 26.7405 65.9454 26.5459 64.9111 26.027C64.8464 25.9621 64.7171 25.9621 64.7171 25.8324C64.7171 25.3784 64.7171 24.9892 64.7171 24.5351C64.9111 24.7946 65.0404 24.9892 65.2989 25.1838C66.01 25.7675 67.109 25.7027 67.6909 25.054C68.208 24.5351 68.208 23.8216 67.6909 23.3027C67.4969 23.1081 67.2383 22.9784 66.9797 22.7838C66.4626 22.4594 65.8808 22.1351 65.4929 21.6811C64.9757 21.1621 64.7171 20.5135 64.7171 19.7351C64.7171 19.0865 65.0403 18.6324 65.5575 18.2432C66.7212 17.4 68.3373 17.6594 69.3717 18.3081C69.501 18.373 69.501 18.4378 69.501 18.5675C69.5656 19.0216 69.5656 19.4108 69.5656 19.8648Z" fill="white"/>
<path d="M56.3131 26.5459C55.5373 26.5459 54.8262 26.5459 54.1151 26.5459C53.8565 26.5459 53.7272 26.4162 53.5979 26.2216C53.404 25.9621 53.3393 25.6378 53.3393 25.3135C53.2747 24.2756 53.3393 23.1729 53.3393 22.1351C53.3393 21.0973 53.3393 20.0594 53.3393 19.0216C53.3393 18.827 53.2747 18.7621 53.0808 18.7621C52.6929 18.7621 52.3696 18.7621 51.9818 18.7621C52.6282 18.3729 53.2747 18.0486 53.8565 17.5946C54.4383 17.1405 54.9555 16.5567 55.408 15.8432C55.408 16.4919 55.408 17.0108 55.408 17.5297C55.408 17.7892 55.4727 17.854 55.7313 17.854C56.1838 17.854 56.6363 17.854 57.0888 17.854C57.2181 17.854 57.2828 17.854 57.2828 18.0486C57.2828 18.4378 57.2828 18.7621 57.2828 19.1513C56.701 18.8919 56.1838 18.827 55.602 18.827C55.408 18.827 55.3434 18.8919 55.3434 19.0865C55.3434 20.9675 55.3434 22.9135 55.3434 24.7946C55.4727 25.4432 55.7313 26.027 56.3131 26.5459Z" fill="white"/>
<path d="M39.6343 17.854C40.2161 17.854 40.7979 17.7892 41.3797 17.854C41.7676 17.9189 42.0262 18.1135 42.2201 18.5027C42.3494 18.7621 42.3494 19.0216 42.4141 19.3459C42.5434 19.2811 42.5434 19.1513 42.608 19.0865C42.9959 18.1135 43.7717 17.7243 44.6767 17.9189C45.1939 18.0486 45.3878 18.3081 45.3878 18.827C45.3878 19.1513 45.3878 19.4757 45.3878 19.8648C45.2585 19.8 45.1939 19.7351 45.1292 19.6702C44.5474 19.2162 43.8363 19.1513 43.1898 19.5405C42.6727 19.8 42.4787 20.1892 42.4787 20.773C42.4787 22.0054 42.4787 23.2378 42.4787 24.4702C42.4787 25.5081 42.608 25.8324 43.3191 26.6108C42.5434 26.6108 41.8323 26.6108 41.0565 26.6108C40.8626 26.6108 40.7333 26.4162 40.604 26.2216C40.41 25.8324 40.3454 25.4432 40.3454 25.054C40.3454 23.3027 40.3454 21.5513 40.3454 19.8C40.3454 19.6054 40.3454 19.4108 40.2807 19.2162C40.2161 18.6324 40.0222 18.1784 39.6343 17.854Z" fill="white"/>
<path d="M35.4323 17.7892C36.0787 17.7892 36.6606 17.7243 37.2424 17.854C37.6302 17.9189 37.8888 18.1784 38.0828 18.5675C38.2121 18.8919 38.2767 19.2162 38.2767 19.6054C38.2767 21.1621 38.2767 22.7189 38.2767 24.2757C38.2767 25.1189 38.406 25.9621 39.1818 26.6108C38.3414 26.6108 37.6302 26.6108 36.8545 26.6108C36.5959 26.6108 36.5313 26.4162 36.402 26.2216C36.208 25.8324 36.1434 25.5081 36.1434 25.054C36.1434 23.3675 36.1434 21.6162 36.1434 19.9297C36.1434 18.7621 36.0787 18.5675 35.4323 17.7892Z" fill="white"/>
<path d="M36.1434 16.0378C36.1434 15.454 36.5959 15 37.1777 15C37.7595 15 38.2767 15.5189 38.2121 16.0378C38.2121 16.6216 37.6949 17.0757 37.1777 17.0757C36.5959 17.0757 36.1434 16.6216 36.1434 16.0378Z" fill="white"/>
<path d="M51.206 24.3405C51.2707 22.9135 51.206 21.5513 51.206 20.1243C51.206 19.2811 50.8828 18.7621 50.2363 18.3081C49.202 17.6594 47.5858 17.6594 46.5515 18.3729C46.4222 18.3729 46.3575 18.3729 46.3575 18.5027C46.3575 18.9567 46.3575 19.3459 46.3575 19.8C46.4868 19.7351 46.4868 19.6702 46.5515 19.6702C47.004 18.9567 47.6505 18.6973 48.4262 18.827C48.7494 18.8919 49.1373 19.0216 49.2666 19.4108C49.4606 19.9946 49.202 20.7081 48.6848 20.9675C48.3616 21.1621 48.0383 21.2919 47.7151 21.4216C47.1979 21.6811 46.6161 21.8756 46.1636 22.2648C45.3232 22.8486 44.9353 23.627 44.9999 24.6648C45.1292 25.5081 45.3878 26.2216 46.2929 26.4811C46.81 26.6756 47.3272 26.6757 47.8444 26.5459C48.4262 26.4162 48.8141 26.0919 49.1373 25.5729C49.202 25.8324 49.2666 26.027 49.3313 26.2216C49.4605 26.4162 49.5898 26.6108 49.7838 26.6108C50.4949 26.6108 51.2707 26.6108 52.0464 26.6108C51.3353 25.8973 51.1414 25.1838 51.206 24.3405ZM48.9434 25.1838C48.5555 25.5081 48.0383 25.6378 47.5858 25.5081C47.1333 25.4432 46.8747 24.9892 46.81 24.4054C46.81 23.4324 47.1333 22.654 47.9737 22.1351C48.2969 21.8757 48.6848 21.6811 49.0727 21.4216C49.0727 22.5892 49.0727 23.7567 49.0727 24.9243C49.0727 24.9892 49.008 25.1189 48.9434 25.1838Z" fill="white"/>
<path d="M62.7777 25.3784C61.6141 25.8973 60.3858 25.2486 59.9979 23.8865C59.9333 23.627 59.9333 23.4324 60.1919 23.2378C60.6444 22.8486 61.0969 22.654 61.6141 22.4594C62.3898 22.0702 63.0363 21.5513 63.4888 20.8378C64.1353 19.8 63.8121 18.6324 62.6484 18.1135C61.2262 17.4 59.4161 17.854 58.5111 19.1513C57.4767 20.6432 57.2181 22.2648 57.7353 24.0162C58.1878 25.6378 59.4807 26.6108 61.1616 26.6108C61.9373 26.6108 62.7777 26.5459 63.4888 26.1567C63.6181 26.0919 63.8121 26.027 63.8121 25.8324C63.8121 25.4432 63.8121 25.054 63.8121 24.6C63.2949 25.054 63.101 25.2486 62.7777 25.3784ZM60.1272 19.3459C60.1919 19.1513 60.2565 19.0216 60.3858 18.8919C60.6444 18.5027 61.0323 18.3729 61.4201 18.5027C61.808 18.6324 62.002 18.8919 62.002 19.3459C62.0666 20.3189 61.7434 21.0973 60.9676 21.7459C60.7737 21.8757 60.5797 22.0054 60.3858 22.1351C60.1919 22.2648 60.0626 22.3946 59.804 22.5243C59.7393 21.4216 59.7393 20.3838 60.1272 19.3459Z" fill="white"/>
</g>
<defs>
<clipPath id="clip0_3955_5011">
<rect width="83" height="42" rx="8" fill="white"/>
</clipPath>
</defs>
</svg>
