<svg width="83" height="42" viewBox="0 0 83 42" fill="none" xmlns="http://www.w3.org/2000/svg">
<g clip-path="url(#clip0_3955_8612)">
<path d="M87 -12H-9V45H87V-12Z" fill="white"/>
<g clip-path="url(#clip1_3955_8612)">
<path d="M74.0524 14.9765C73.9641 14.9756 73.8749 14.9837 73.7621 15.0161C72.416 15.4277 67.5155 17.1429 61.745 17.9645C61.4872 17.9993 61.5546 18.1236 61.8611 18.1426C65.7174 18.5154 67.1765 18.5565 68.9437 18.5383C70.6388 18.4821 71.909 18.7228 73.3363 17.173C74.6483 15.7844 74.6699 14.9831 74.0524 14.9765ZM21.0688 16.0846L18.9788 16.7179L19.8496 17.3511V24.5143L18.9788 25.1277H21.9202L21.0688 24.5143V20.7348L21.8622 20.161C22.541 19.6069 23.1889 19.4882 23.6425 19.4882C24.3917 19.4882 24.6294 19.9631 24.6294 20.2401V25.1277H26.7193L25.8679 24.5143V20.2401C25.8679 19.3908 25.3887 18.7362 24.0101 18.7362C23.4846 18.7362 22.6625 18.8605 21.7654 19.5475L21.0688 20.1016V16.0846ZM7.19395 16.3419L8.0454 16.9751V24.5143L7.19395 25.1277H14.0636V23.5051L12.8445 24.5143H9.28388V20.7348H11.7415L12.709 21.4867V19.3496L11.7415 20.1016H9.28388V16.9751H12.709L13.8121 17.8458V16.3419H7.19395ZM28.3835 17.0938C28.0174 17.0938 27.7062 17.3107 27.7062 17.5885C27.7062 17.8656 28.0174 18.103 28.3835 18.103C28.7558 18.103 29.0608 17.8656 29.0608 17.5885C29.0608 17.3107 28.7558 17.0938 28.3835 17.0938ZM46.922 17.0938C46.5504 17.0938 46.2447 17.3107 46.2447 17.5885C46.2447 17.8656 46.5504 18.103 46.922 18.103C47.2943 18.103 47.5993 17.8656 47.5993 17.5885C47.5993 17.3107 47.2943 17.0938 46.922 17.0938ZM16.7728 17.5885L14.3152 19.3496H15.5343V23.9998C15.5343 24.747 16.1404 25.3256 17.005 25.3256C17.8147 25.3248 18.4416 24.8642 18.6112 24.5143L18.2435 24.2571C18.1669 24.3425 17.9153 24.7715 17.1985 24.7715C16.8974 24.7715 16.7728 24.633 16.7728 24.633V19.3496H18.6112V18.855H16.7728V17.5885ZM33.7244 18.7362C31.5416 18.737 30.0284 20.3066 30.0284 22.0012C30.0339 23.688 31.5416 25.2662 33.7244 25.2662C35.9235 25.2639 37.4012 23.688 37.4012 22.0012C37.3956 20.3066 35.9235 18.7331 33.7244 18.7362ZM42.2003 18.7362C41.4673 18.7362 40.317 18.8439 39.7427 19.6069V18.855L37.6527 19.4882L38.5042 20.1016V27.0076L37.6527 27.6408H40.478L39.7427 27.0076V24.3758C40.382 25.1032 41.4673 25.2662 42.2003 25.2662C44.0054 25.2639 45.1417 23.5146 45.1417 22.0012C45.1417 20.366 44.0054 18.7338 42.2003 18.7362ZM52.1468 18.7362C51.3588 18.7362 50.2527 18.9096 49.6892 19.2309V20.6161L51.1405 19.5277C51.4246 19.3085 51.7311 19.2309 52.1468 19.2309C52.9015 19.2309 53.5014 19.6568 53.5014 20.2401V21.368H51.7791C50.1977 21.3704 48.8377 22.3962 48.8377 23.6238C48.8377 24.6267 49.5599 25.2662 50.4245 25.2662C50.6273 25.2662 50.9524 25.2132 51.1599 25.1277L53.5014 24.1185V25.1277H55.5913L54.7205 24.5143V20.2401C54.7205 19.2705 53.8481 18.7362 52.1468 18.7362ZM60.7387 18.7362C60.2844 18.7362 59.429 18.7782 58.4166 19.5673L57.7973 20.1016V18.855L55.7074 19.4882L56.5782 20.1016V24.5143L55.7074 25.1277H58.6681L57.7973 24.5143V20.7348L58.5327 20.1016C59.3207 19.4613 59.9384 19.4882 60.3711 19.4882C61.361 19.4882 61.6095 19.9306 61.6095 20.2401V25.1277H63.6995L62.8287 24.5143V20.2401C62.8287 19.6615 62.4618 18.7362 60.7387 18.7362ZM29.0608 18.855L26.9709 19.4882L27.8223 20.1016V24.5143L26.9709 25.1277H29.9123L29.0608 24.5143V18.855ZM47.5993 18.855L45.5093 19.4882L46.3801 20.1016V24.5143L45.5093 25.1277H48.4701L47.5993 24.5143V18.855ZM33.7244 19.2309C35.36 19.2309 35.9305 20.6849 35.9305 22.0012C35.9305 23.3112 35.36 24.7518 33.7244 24.7518C32.1051 24.7518 31.5184 23.3112 31.5184 22.0012C31.5184 20.6857 32.1051 19.2317 33.7244 19.2309ZM41.7165 19.3496C43.27 19.3465 43.671 20.8314 43.671 22.0012C43.671 23.1648 43.27 24.633 41.7165 24.633C40.8852 24.6346 40.1413 24.3077 39.7427 23.6238V20.3588C40.1359 19.6576 40.8852 19.3512 41.7165 19.3496ZM52.1468 21.8627H53.5014V23.5051L51.7791 24.2571C51.5872 24.3425 51.2133 24.5143 51.0438 24.5143C50.6715 24.5143 50.173 24.2951 50.173 23.5051C50.173 22.5015 50.9656 21.8627 52.1468 21.8627ZM34.5952 28.5906C33.7964 28.5906 32.9419 28.8645 32.6795 29.4811C32.6245 29.6077 32.5936 29.7534 32.5827 29.8966C32.5883 30.3209 32.4697 30.9699 32.9891 31.3807L33.7244 31.9744L34.3824 32.4888C34.4807 32.5545 34.6146 32.6369 34.6146 32.845V33.3991L34.0921 33.7751H35.8337L35.3306 33.3991V32.8055C35.3306 32.5102 35.2888 32.2997 35.021 32.0931L34.2856 31.4995C34.0232 31.3071 34.0271 31.2865 33.8793 31.1828C33.8793 31.1828 34.4706 31.209 34.7501 31.2026C35.86 31.2208 36.3717 30.9414 36.5304 30.609C36.6178 30.4238 36.6434 30.1895 36.6271 29.8373C36.6108 29.4708 36.5791 29.4162 36.4917 29.2436C36.2347 28.764 35.4599 28.5906 34.5952 28.5906ZM38.7171 28.5906L37.4979 28.9666L38.0011 29.3426V29.6394H39.0073L37.885 31.1235C37.7154 31.3586 37.5753 31.6285 37.5753 31.9942V33.3991L37.0529 33.7751H38.7945L38.2913 33.3991V31.9942C38.2913 31.687 38.4074 31.539 38.4461 31.4797C38.5065 31.3973 38.5406 31.3538 38.5622 31.3214C38.6063 31.2628 38.6784 31.2422 38.6784 31.2422C38.8641 31.1923 40.3813 30.9763 40.3813 31.7369V33.3199C40.3813 33.6176 40.5291 33.7751 40.6715 33.7751C40.7482 33.7751 40.8194 33.7696 40.9618 33.6959C41.1089 33.6223 41.4069 33.3991 41.4069 33.3991V33.7751H42.626L42.1229 33.3991V32.7461H41.7745L41.1166 33.1814V31.6775C41.0949 30.8069 40.0368 30.738 38.8719 30.886L39.8201 29.6394V29.3426H38.7171V28.5906ZM44.445 28.5906L43.2065 28.9666L43.7097 29.3426V29.6394H44.445V30.886H42.4131V31.6182L41.91 31.9942H43.1485V31.1828H44.445V33.3991L43.9419 33.7751H45.6641L45.161 33.3991V31.1828H46.4575V31.9942H47.696L47.1929 31.6182V30.886H45.161V29.6987C45.161 29.4027 45.0317 29.3426 44.8127 29.3426H44.445V28.5906ZM49.9408 28.5906C49.1474 28.5906 48.282 28.8653 48.025 29.4811C47.9646 29.6077 47.9251 29.7534 47.9089 29.8966C47.9197 30.3209 47.8152 30.9699 48.3346 31.3807L49.07 31.9744L49.7279 32.4888C49.8262 32.5545 49.9462 32.6377 49.9408 32.845V33.3991L49.4376 33.7751H51.1792L50.6567 33.3991V32.8055C50.6567 32.5102 50.6203 32.2997 50.3471 32.0931L49.6311 31.4995C49.3687 31.3071 49.3726 31.2865 49.2248 31.1828C49.2248 31.1828 49.803 31.209 50.0762 31.2026C51.1924 31.2216 51.7033 30.9414 51.8565 30.609C51.8898 30.5393 51.9176 30.4618 51.9339 30.3715H52.2435V31.1828H53.482L52.9789 30.8069V30.0747H51.9726V29.8373C51.9502 29.47 51.9246 29.4162 51.8372 29.2436C51.5802 28.7632 50.81 28.5906 49.9408 28.5906ZM56.1525 28.5906L54.9334 28.9666L55.4365 29.3426C54.6926 29.3426 53.9209 29.6528 53.8884 30.3715C53.8605 31.0562 54.349 31.4013 55.0108 31.4203L54.2754 31.6775C53.893 31.8311 53.6175 32.0013 53.6175 32.6669V33.3991L53.1143 33.7751H54.856L54.3528 33.3991V32.7263C54.3528 32.5142 54.3149 32.3456 54.6431 32.2316C54.6431 32.2316 55.8212 31.8121 55.8816 31.7963C56.4559 31.839 56.9459 31.8723 56.9459 32.5284V33.3991L56.4428 33.7751H58.1844L57.6812 33.3991V32.5284C57.6812 31.6855 57.0759 31.5723 56.5782 31.5192C56.6432 31.4955 56.8282 31.4219 56.8878 31.4005C57.5442 31.1543 57.7037 30.8718 57.7199 30.3913V30.3715H58.0102V31.1828H59.2293L58.7262 30.8069V30.0747H57.6812C57.5775 29.7011 57.2083 29.3608 56.1525 29.3426V28.5906ZM61.6482 28.5906C60.8548 28.5906 60.0088 28.8645 59.7518 29.4811C59.6976 29.6077 59.6465 29.7534 59.6357 29.8966C59.6413 30.3209 59.5475 30.9699 60.0614 31.3807L61.6482 32.6867L59.3454 32.8846V33.3991L58.8423 33.7751H60.5646L60.0614 33.3991V33.1221L62.6739 32.8846V32.5878L60.9516 31.1828C60.9516 31.1828 61.5236 31.209 61.803 31.2026C62.913 31.2208 63.4355 30.9414 63.5834 30.609C63.6708 30.4238 63.7157 30.1887 63.6995 29.8373C63.6821 29.47 63.6567 29.4162 63.564 29.2436C63.3124 28.7632 62.5175 28.5906 61.6482 28.5906ZM34.5952 28.8874C35.312 28.8795 35.8639 29.0442 35.8531 29.7779V30.0549C35.8475 30.4515 35.6952 30.7736 35.1371 30.8267C34.4095 30.886 34.1773 30.9011 33.6083 30.8464C33.3018 30.7855 33.3514 30.2512 33.3568 30.0747V29.8373C33.3676 29.2175 33.8514 28.8938 34.5952 28.8874ZM49.9408 28.8874C50.6567 28.8787 51.1901 29.0442 51.1792 29.7779V30.0549C51.1737 30.4515 51.0213 30.7728 50.4632 30.8267C49.7411 30.8852 49.522 30.9011 48.9538 30.8464C48.6527 30.7847 48.6914 30.2512 48.7023 30.0747V29.8373C48.7085 29.2175 49.2015 28.893 49.9408 28.8874ZM61.6482 28.8874C62.3643 28.8795 62.9169 29.045 62.9061 29.7779V30.0549C62.9061 30.4515 62.7427 30.7736 62.1901 30.8267C61.4625 30.886 61.2496 30.9011 60.6807 30.8464C60.3796 30.7855 60.4237 30.2512 60.4291 30.0747V29.8373C60.4347 29.2175 60.9098 28.8938 61.6482 28.8874ZM55.8042 29.6196C56.7888 29.599 56.9761 29.9275 56.9652 30.2726C56.9597 30.4942 56.9628 30.7032 56.4815 30.886C56.3886 30.9216 56.0194 31.0538 55.7074 31.1631C54.8978 31.1433 54.6624 31.0095 54.6624 30.3518C54.6624 29.7027 55.3993 29.6291 55.8042 29.6196Z" fill="#C52528"/>
<path d="M60.552 17.7256C64.4958 16.699 74.3696 11.2732 75.8356 10.3083C76.5578 9.84843 77.3566 10.1215 76.0818 12.2467C75.2125 13.5527 74.6157 14.3126 72.2967 15.0313C70.7044 15.6479 64.7915 17.4074 60.6503 17.9187C60.3438 17.9449 60.2455 17.8293 60.552 17.7256Z" fill="#FFC92D"/>
<path d="M60.9459 17.4415C64.3865 16.2068 71.8808 12.1732 74.4352 10.5704C76.2736 9.42662 77.6955 8.58128 78.2482 7.14784C79.4348 3.87254 78.5268 2.53962 77.3998 3.56227C75.9616 4.99333 69.1841 12.261 60.5139 17.3703C60.3824 17.4471 60.3661 17.6244 60.9459 17.4415Z" fill="#5E8F4D"/>
</g>
</g>
<defs>
<clipPath id="clip0_3955_8612">
<rect width="83" height="42" rx="8" fill="white"/>
</clipPath>
<clipPath id="clip1_3955_8612">
<rect width="72" height="31" fill="white" transform="translate(7 3)"/>
</clipPath>
</defs>
</svg>
