<svg width="83" height="43" viewBox="0 0 83 43" fill="none" xmlns="http://www.w3.org/2000/svg">
<g clip-path="url(#clip0_3952_12895)">
<path d="M83.0001 0.499969H0.000106812V42.5H83.0001V0.499969Z" fill="#FDBE15"/>
<path d="M18.7191 16.3161C18.0727 16.3161 17.5555 16.5107 17.103 16.8999C16.6505 17.2891 16.4565 17.808 16.4565 18.4567V18.9107H17.8787V20.5972H16.4565V26.3053H14.7111V20.5972H14V18.9107H14.7111V18.4567C14.7111 17.4188 15.0989 16.5107 15.9393 15.7323C16.7151 15.0188 17.6848 14.6296 18.7191 14.6296C18.7191 14.5648 18.7191 16.3161 18.7191 16.3161Z" fill="white"/>
<path d="M19.6242 14.5648H21.305V26.1756H19.6242V14.5648Z" fill="white"/>
<path d="M48.7151 21.8296C48.7151 23.0621 48.2626 24.1648 47.3575 25.008C46.4525 25.8513 45.4181 26.3702 44.1252 26.3702C42.8969 26.3702 41.7979 25.9161 40.8929 25.008C39.9878 24.0999 39.5353 23.0621 39.5353 21.8296C39.5353 20.5972 39.9878 19.4945 40.8929 18.6513C41.7979 17.7432 42.8323 17.2891 44.1252 17.2891C45.4181 17.2891 46.4525 17.7432 47.3575 18.6513C48.2626 19.5594 48.7151 20.5972 48.7151 21.8296ZM47.0343 21.8296C47.0343 21.0513 46.7757 20.4026 46.1939 19.8188C45.6121 19.2351 44.9656 18.9756 44.1899 18.9756C43.4141 18.9756 42.7676 19.2351 42.1858 19.8188C41.604 20.4026 41.3454 21.0513 41.3454 21.8296C41.3454 22.608 41.604 23.2567 42.1858 23.8405C42.7676 24.4242 43.4141 24.6837 44.1899 24.6837C44.9656 24.6837 45.6121 24.4242 46.1939 23.8405C46.7757 23.2567 47.0343 22.608 47.0343 21.8296Z" fill="white"/>
<path d="M55.3737 21.1161C55.3737 20.5323 55.1798 20.0134 54.7272 19.6242C54.3394 19.235 53.8222 18.9756 53.2404 18.9756C52.6585 18.9756 52.1414 19.1702 51.7535 19.6242C51.3656 20.0134 51.107 20.5323 51.107 21.1161V26.2405H49.4262V21.1161C49.4262 20.0783 49.8141 19.1702 50.5899 18.4567C51.3656 17.7432 52.2707 17.2891 53.2404 17.2891C54.2101 17.2891 55.1151 17.6783 55.8909 18.4567C56.6666 19.2351 57.0545 20.1432 57.0545 21.1161V26.2405H55.3737V21.1161Z" fill="white"/>
<path d="M66.8161 21.8296C66.8161 23.0621 66.3636 24.1648 65.4585 25.008C64.5535 25.8513 63.5191 26.3702 62.2262 26.3702C60.9979 26.3702 59.8989 25.9161 58.9939 25.008C58.0888 24.0999 57.6363 23.0621 57.6363 21.8296C57.6363 20.5972 58.0888 19.4945 58.9293 18.6513C59.7697 17.808 60.804 17.2891 62.0323 17.2891C63.1959 17.2891 64.1656 17.6783 65.006 18.5215V14.6296H66.8161V21.8296ZM65.1353 21.8296C65.1353 21.0513 64.8767 20.4026 64.2949 19.8188C63.7131 19.2351 63.0666 18.9756 62.2909 18.9756C61.5151 18.9756 60.8686 19.2351 60.2868 19.8188C59.705 20.4026 59.4464 21.0513 59.4464 21.8296C59.4464 22.608 59.705 23.2567 60.2868 23.8405C60.8686 24.4242 61.5151 24.6837 62.2909 24.6837C63.0666 24.6837 63.7131 24.4242 64.2949 23.8405C64.8121 23.2567 65.1353 22.608 65.1353 21.8296Z" fill="white"/>
<path d="M67.7212 17.4188H69.402V26.1756H67.7212V17.4188Z" fill="white"/>
<path d="M27.5757 17.2891L25.7656 21.8296L23.9555 17.2891H22.0808L24.7959 24.3594L23.1151 28.2513H25.0545L29.5151 17.2891H27.5757Z" fill="white"/>
<path d="M68.5616 16.1864C69.0257 16.1864 69.402 15.8089 69.402 15.3432C69.402 14.8774 69.0257 14.4999 68.5616 14.4999C68.0974 14.4999 67.7212 14.8774 67.7212 15.3432C67.7212 15.8089 68.0974 16.1864 68.5616 16.1864Z" fill="white"/>
<path d="M37.8545 18.6513C37.0141 17.7432 35.9151 17.2891 34.7515 17.2891C33.5878 17.2891 32.6181 17.6783 31.7777 18.5215V14.6296H30.0969V21.8945C30.0969 22.608 30.2262 23.3215 30.5494 23.9053C30.8727 23.9702 31.1959 24.0351 31.5191 24.0351H31.5838C31.907 23.7756 32.7474 23.2567 33.0707 22.9972C33.006 22.9972 32.4242 22.608 31.4545 22.0242C31.2606 21.8945 31.1959 21.8945 31.3899 21.6999C31.5191 21.5702 31.5838 21.5053 31.7131 21.4405C31.8424 21.3107 31.9717 21.3107 32.101 21.3107C32.6181 21.3107 33.9757 21.7648 34.4929 21.7648C34.5575 21.7648 34.6222 21.7648 34.6868 21.6999C35.0747 21.4405 35.9151 20.9864 36.3676 20.7269C36.7555 20.5323 37.6606 20.0783 37.9838 20.5972C38.1131 20.7269 38.3717 21.1161 37.2727 21.8296C36.8848 22.154 32.2949 24.8134 31.5191 25.2675C32.3596 26.0459 33.3939 26.4351 34.5575 26.4351C35.7858 26.4351 36.8848 25.981 37.7899 25.0729C38.6949 24.1648 39.1474 23.1269 39.1474 21.8296C39.1474 20.6621 38.6949 19.5594 37.8545 18.6513Z" fill="white"/>
</g>
<defs>
<clipPath id="clip0_3952_12895">
<rect y="0.5" width="83" height="42" rx="8" fill="white"/>
</clipPath>
</defs>
</svg>
