<svg width="83" height="43" viewBox="0 0 83 43" fill="none" xmlns="http://www.w3.org/2000/svg">
<g clip-path="url(#clip0_3952_12887)">
<path d="M86 -0.5H-2V44.5H86V-0.5Z" fill="white"/>
<path d="M45.0183 12.6945C44.5011 12.6945 43.9193 12.7594 43.4021 12.8242C47.4102 13.6026 50.4486 16.781 50.4486 20.9972C50.4486 23.981 47.992 26.7702 45.0183 26.7702C44.4365 26.7702 43.9193 26.7053 43.4021 26.5107C41.2042 25.7972 39.588 23.7864 39.588 21.3215C39.588 18.8567 41.2042 16.781 43.4021 16.1323C42.885 16.0026 42.3678 15.8729 41.786 15.8729C38.8122 15.8729 36.3557 18.5972 36.3557 21.6459C36.3557 25.8621 39.3941 29.0405 43.3375 29.8188C43.8547 29.8837 44.3718 29.9486 44.9536 29.9486C48.6385 29.9486 51.8062 27.6134 52.9698 24.3702V18.2729C51.8062 15.0296 48.7031 12.6945 45.0183 12.6945Z" fill="#D0CFCD"/>
<path d="M43.4021 12.8242C42.885 12.7594 42.3678 12.6945 41.786 12.6945C37.6486 12.6945 34.2223 15.6134 33.3819 19.5053C33.3819 19.635 33.2526 19.6999 33.1233 19.6999H28.9213C28.792 19.6999 28.6627 19.8296 28.6627 19.9594V22.554C28.6627 22.6837 28.792 22.8134 28.9213 22.8134H32.6062C32.7355 22.8134 32.8648 22.9432 32.8648 23.0729V24.3702C32.8648 24.4999 32.8001 24.6296 32.7355 24.7594C31.7658 25.9269 30.2789 26.6405 28.5981 26.6405C25.6243 26.6405 23.1678 24.1756 23.1678 21.1918C23.1678 18.208 25.6243 15.7432 28.5981 15.7432C29.4385 15.7432 30.2142 15.9378 30.9254 16.2621C31.0547 16.3269 31.2486 16.2621 31.3132 16.1323L32.6708 13.8621C32.7355 13.7323 32.6708 13.5378 32.5415 13.4729C31.3779 12.8891 30.0203 12.4999 28.5981 12.4999C23.8789 12.4999 20.0001 16.3918 20.0001 21.1269C20.0001 25.8621 23.8789 29.754 28.5981 29.754C31.1193 29.754 33.3819 28.6513 34.9334 26.8999C35.0627 26.7702 35.2567 26.7702 35.386 26.8999C36.9375 28.6513 39.2001 29.754 41.7213 29.754C42.2385 29.754 42.8203 29.6891 43.3375 29.6242C39.4587 29.0405 36.4203 25.8621 36.4203 21.6459C36.4203 18.6621 38.8769 15.8729 41.8506 15.8729C42.4324 15.8729 42.9496 15.9378 43.4668 16.1323C45.6648 16.8459 47.2809 18.8567 47.2809 21.3215C47.2809 23.7864 45.6648 25.8621 43.4668 26.5107C43.9839 26.6405 44.5011 26.7702 45.0829 26.7702C48.0567 26.7702 50.5132 24.0459 50.5132 20.9972C50.4486 16.781 47.4102 13.6026 43.4021 12.8242ZM62.1496 26.5107H56.5254C56.3961 26.5107 56.2668 26.381 56.2668 26.2513V13.2134C56.2668 13.0837 56.1375 12.954 56.0082 12.954H53.4223C53.293 12.954 53.1637 13.0837 53.1637 13.2134V29.1053C53.1637 29.4296 53.4223 29.6891 53.7456 29.6891H62.2789C62.4082 29.6891 62.5375 29.5594 62.5375 29.4296V26.835C62.4728 26.6405 62.3435 26.5107 62.1496 26.5107Z" fill="#FF6B00"/>
</g>
<defs>
<clipPath id="clip0_3952_12887">
<rect y="0.5" width="83" height="42" rx="8" fill="white"/>
</clipPath>
</defs>
</svg>
