<svg width="83" height="42" viewBox="0 0 83 42" fill="none" xmlns="http://www.w3.org/2000/svg">
<g clip-path="url(#clip0_3952_12857)">
<path d="M83 -1H-1V43H83V-1Z" fill="#D81A2E"/>
<path fill-rule="evenodd" clip-rule="evenodd" d="M47.4869 16.1676C46.9697 16.8163 46.5172 17.6595 45.8707 18.6325C45.2889 19.6703 44.7717 20.7081 44.4485 21.5514H46.3879C46.5172 21.2271 46.6465 20.8379 46.7758 20.5784H49.9434C50.0727 20.9027 50.202 21.2271 50.3313 21.5514H52.2707C51.8828 20.7081 51.4303 19.6703 50.8485 18.6325C50.396 17.6595 49.8788 16.8163 49.3616 16.1676H47.4869ZM48.4566 17.4649C48.8444 18.1135 49.2323 18.7622 49.6202 19.6054H47.2929C47.6808 18.8271 48.0687 18.1135 48.4566 17.4649ZM33.5232 16.1676C33.3939 17.0108 33.3939 17.9838 33.3939 18.8919C33.3939 19.7352 33.4586 20.6433 33.5232 21.6163H35.398C35.3333 20.9027 35.2687 20.319 35.2687 19.6054H37.1434C37.2727 19.7352 37.5313 19.9946 37.7253 20.319C37.9838 20.7081 38.2424 21.0973 38.4364 21.6163H40.5051C40.2465 21.1622 39.9232 20.7081 39.5354 20.1244C39.2768 19.8 39.0182 19.5406 38.8242 19.346C39.6 19.0865 40.0525 18.5027 40.0525 17.7892C40.0525 17.4 39.9232 17.0108 39.6 16.6865C39.2121 16.2973 38.5657 16.1676 37.5313 16.1676H33.5232ZM35.2687 17.2054H36.8848C37.4667 17.2054 37.7899 17.2703 37.9838 17.4649C38.1131 17.5946 38.1778 17.7244 38.1778 17.919C38.1778 18.1784 37.9838 18.4379 37.7253 18.6325H35.2687C35.204 18.1784 35.204 17.7892 35.2687 17.2054ZM26.0889 16.1676C26.0242 17.0108 25.9596 17.9838 25.9596 18.8919C25.9596 19.7352 26.0242 20.773 26.0889 21.6163H31.7778C31.7778 21.2271 31.7131 20.9027 31.7131 20.5135H27.8343C27.8343 20.1244 27.7697 19.7352 27.7697 19.346H31.3253V18.3081H27.7697C27.7697 17.9838 27.7697 17.5946 27.8343 17.2054H31.7131C31.7131 16.8163 31.7778 16.4919 31.7778 16.1027L26.0889 16.1676ZM17.9434 16.1676C17.8141 17.0108 17.8141 17.9838 17.8141 18.8919C17.8141 19.7352 17.8788 20.6433 17.9434 21.6163H21.499C22.7273 21.6163 23.503 21.4865 24.0202 21.1622C24.4081 20.9027 24.602 20.4487 24.602 19.9946C24.602 19.4108 24.2141 18.9568 23.5677 18.6973C24.0202 18.4379 24.2788 18.0487 24.2788 17.5946C24.2788 17.1406 24.1495 16.8811 23.8263 16.6217C23.3091 16.2325 22.3394 16.1676 21.3697 16.1676H17.9434ZM19.6889 17.2054H21.2404C21.8869 17.2054 22.0808 17.2703 22.2747 17.4C22.404 17.4649 22.404 17.6595 22.404 17.7892C22.404 18.0487 22.2747 18.2433 22.1455 18.373H19.6242C19.6889 17.9838 19.6889 17.5946 19.6889 17.2054ZM19.6889 19.346H21.9515C22.2747 19.346 22.4687 19.4108 22.598 19.4757C22.7273 19.6054 22.7919 19.7352 22.7919 19.8649C22.7919 20.0595 22.7273 20.1892 22.598 20.319C22.404 20.4487 22.1455 20.5135 21.7576 20.5135H19.7535C19.6889 20.1892 19.6889 19.7352 19.6889 19.346ZM41.798 16.1676C41.6687 16.946 41.6687 17.9838 41.6687 18.8919C41.6687 19.8 41.7333 20.7081 41.798 21.5514H43.4141C43.5434 20.7081 43.5434 19.8 43.5434 18.8919C43.5434 17.919 43.4788 16.946 43.4141 16.1676H41.798ZM14.1293 16.1676C14 16.946 14 17.9838 14 18.8919C14 19.8 14.0646 20.7081 14.1293 21.5514H15.7455C15.8747 20.7081 15.8747 19.8 15.8747 18.8919C15.8747 17.919 15.8101 16.946 15.7455 16.1676H14.1293Z" fill="white"/>
<path fill-rule="evenodd" clip-rule="evenodd" d="M55.2444 24.0811L52.4646 27.0649C62.1616 27.0649 64.4242 24.6649 65.7818 21.4217L66.8808 18.3081C63.5838 18.373 58.6707 20.4487 55.2444 24.0811Z" fill="url(#paint0_linear_3952_12857)"/>
<path fill-rule="evenodd" clip-rule="evenodd" d="M62.1616 17.2703L59.3172 20.1244C62.0323 18.1784 64.6828 17.0108 67.398 16.6865L68.0444 15C64.101 15 63.5838 15.8433 62.1616 17.2703Z" fill="white"/>
</g>
<defs>
<linearGradient id="paint0_linear_3952_12857" x1="53.4977" y1="27.489" x2="61.3291" y2="14.7666" gradientUnits="userSpaceOnUse">
<stop stop-color="#EE751A"/>
<stop offset="0.85" stop-color="#FACD0C"/>
<stop offset="1" stop-color="#FACD0C"/>
</linearGradient>
<clipPath id="clip0_3952_12857">
<rect width="83" height="42" rx="8" fill="white"/>
</clipPath>
</defs>
</svg>
