<svg width="83" height="42" viewBox="0 0 83 42" fill="none" xmlns="http://www.w3.org/2000/svg">
<g clip-path="url(#clip0_3952_12820)">
<path d="M94 -7H-5V50H94V-7Z" fill="white"/>
<path fill-rule="evenodd" clip-rule="evenodd" d="M12 21.4162H22.7313V16.0973H12V21.4162Z" fill="#0DAADC"/>
<path fill-rule="evenodd" clip-rule="evenodd" d="M12 26.7351H22.7313V21.4162H12V26.7351Z" fill="#3FA74C"/>
<path fill-rule="evenodd" clip-rule="evenodd" d="M34.7778 24.9514H30.1232C29.9939 24.9514 29.8646 24.8216 29.8646 24.7568V16.3243C29.8646 16.1946 29.7354 16.0649 29.6061 16.0649H27.9899C27.8606 16.0649 27.7313 16.1946 27.7313 16.3243V26.5081C27.7313 26.6378 27.8606 26.7676 27.9899 26.7676H34.8424C34.9717 26.7676 35.101 26.6378 35.101 26.5081V25.1459C35.0364 25.0162 34.9071 24.9514 34.7778 24.9514ZM38.1394 18.2054C38.1394 18.0757 38.2687 17.9459 38.398 17.9459H43.0525C43.1818 17.9459 43.3111 17.8162 43.3111 17.6865V16.3243C43.3111 16.1946 43.1818 16.0649 43.0525 16.0649H36.2C36.0707 16.0649 35.9414 16.1946 35.9414 16.3243V26.5081C35.9414 26.6378 36.0707 26.7676 36.2 26.7676H43.0525C43.1818 26.7676 43.3111 26.6378 43.3111 26.5081V25.1459C43.3111 25.0162 43.1818 24.8865 43.0525 24.8865H38.398C38.2687 24.8865 38.1394 24.7568 38.1394 24.6919V22.2919C38.1394 22.1622 38.2687 22.0324 38.398 22.0324H42.6646C42.7939 22.0324 42.9232 21.9027 42.9232 21.773V20.4757C42.9232 20.3459 42.7939 20.2162 42.6646 20.2162H38.3333C38.204 20.2162 38.1394 20.0865 38.1394 20.0216V18.2054ZM52.2323 16.3243L49.5172 23.4595C49.5172 23.5243 49.3879 23.5892 49.3232 23.5243C49.2586 23.5243 49.2586 23.4595 49.2586 23.4595L46.5434 16.3243C46.4788 16.1946 46.3495 16.0649 46.2202 16.0649H44.5394C44.4101 16.0649 44.2808 16.1946 44.2808 16.2595V16.3243L48.1596 26.4432C48.2242 26.573 48.3535 26.6378 48.4828 26.6378H50.3576C50.4869 26.6378 50.6162 26.573 50.6808 26.4432L54.5596 16.3243C54.6242 16.1946 54.5596 16.0649 54.4303 16H54.3657H52.5556C52.4263 16.1297 52.2323 16.1946 52.2323 16.3243ZM57.598 17.9459C57.4687 17.9459 57.3394 18.0757 57.3394 18.2054V20.0216C57.3394 20.1514 57.404 20.2162 57.5333 20.2162H61.8647C61.9939 20.2162 62.1232 20.3459 62.1232 20.4757V21.8378C62.1232 21.9676 61.9939 22.0973 61.8647 22.0973H57.598C57.4687 22.0973 57.3394 22.227 57.3394 22.3568V24.7568C57.3394 24.8865 57.4687 25.0162 57.598 24.9514H62.2525C62.3818 24.9514 62.5111 25.0811 62.5111 25.2108V26.573C62.5111 26.7027 62.3818 26.8324 62.2525 26.8324H55.4646C55.3354 26.8324 55.2061 26.7027 55.2061 26.573V16.3243C55.2061 16.1946 55.3354 16.0649 55.4646 16.0649H62.3172C62.4465 16.0649 62.5758 16.1946 62.5758 16.3243V17.6865C62.5758 17.8162 62.4465 17.9459 62.3172 17.9459H57.598ZM65.8727 24.9514H70.5273C70.6566 24.9514 70.7859 25.0811 70.7859 25.2108V26.573C70.7859 26.7027 70.6566 26.8324 70.5273 26.8324H63.7394C63.6101 26.8324 63.4808 26.7027 63.4808 26.573V16.3243C63.4808 16.1946 63.6101 16.0649 63.7394 16.0649H65.4202C65.5495 16.0649 65.6788 16.1946 65.6788 16.3243V24.6919C65.6788 24.8216 65.7434 24.9514 65.8727 24.9514Z" fill="#1D1D1C"/>
</g>
<defs>
<clipPath id="clip0_3952_12820">
<rect width="83" height="42" rx="8" fill="white"/>
</clipPath>
</defs>
</svg>
