<svg width="83" height="43" viewBox="0 0 83 43" fill="none" xmlns="http://www.w3.org/2000/svg">
<g clip-path="url(#clip0_3952_12952)">
<path d="M84 -0.5H-1V42.5H84V-0.5Z" fill="white"/>
<g clip-path="url(#clip1_3952_12952)">
<path fill-rule="evenodd" clip-rule="evenodd" d="M51.6525 21.025C46.2829 26.9599 50.2815 22.5493 44.401 29.0154H43.0075L50.5948 20.6644C51.2178 19.9893 50.6618 19.9746 50.6157 19.9746L50.1508 19.9776L50.6396 19.4403L52.8858 19.4382C53.4266 19.4382 53.5884 19.5196 53.6466 19.9806L54.814 29.0156H52.6714C52.1126 24.2623 52.3795 26.5642 51.6526 21.0252L51.6525 21.025Z" fill="#002C58"/>
<path fill-rule="evenodd" clip-rule="evenodd" d="M31.4257 24.0796C32.6039 24.2287 33.2651 24.4896 33.5053 24.8407C33.8404 25.3248 33.7474 25.8918 33.5348 26.3922C33.3183 26.8827 32.9786 27.3386 32.4639 27.7058C31.9862 28.0458 31.4301 28.3115 30.8102 28.5049C30.1727 28.7036 29.5032 28.8355 28.8155 28.9072C28.321 28.9589 27.8225 28.9912 27.322 29.0064V28.3995C27.6088 28.3867 27.8944 28.3636 28.1779 28.3313C28.6176 28.2789 29.0462 28.1924 29.4525 28.0607C30.6692 27.8632 32.4821 25.7225 30.8157 24.8195C30.5134 24.6941 30.1787 24.5977 29.8349 24.5548C29.4386 24.504 29.0362 24.4803 28.6333 24.4803H27.3218V23.8841H27.7493C28.3381 23.8841 28.3913 23.8917 28.9588 23.8512C30.1666 23.7188 31.0561 23.4388 31.7277 22.7576C32.2708 22.2039 32.8528 20.9095 32.0786 20.3879C31.6147 20.0995 30.9333 20.0012 30.348 19.9746H27.3218V19.4403L30.2702 19.4382C30.8845 19.4382 31.5 19.4729 32.1052 19.5475C32.6531 19.6146 33.1957 19.7395 33.6573 19.9638C34.0912 20.1742 34.3926 20.4596 34.5617 20.8123C34.6223 20.9397 34.6528 21.0725 34.6573 21.2069V21.3006C34.6464 21.5916 34.5321 21.887 34.3926 22.1491C34.0419 22.9755 32.8321 23.8027 31.4255 24.0798L31.4257 24.0796ZM27.322 29.0064C27.1178 29.0124 26.9138 29.0154 26.7092 29.0154H20.8055L24.2361 20.7145C24.2962 20.5682 24.4036 20.2571 24.2676 20.1167C24.1385 19.9829 24.0704 19.9755 23.9801 19.9746H23.4746L23.7192 19.4446L27.322 19.4401V19.9744H26.6558L25.0855 23.8841H27.322V24.4803H24.8139L23.1677 28.4123H26.7887C26.9676 28.4123 27.145 28.4079 27.3222 28.3995V29.0064H27.322Z" fill="#002C58"/>
<path fill-rule="evenodd" clip-rule="evenodd" d="M39.1218 22.6598C39.5685 22.6194 40.0241 22.602 40.4746 22.602C42.4488 22.602 44.9283 22.93 44.137 24.7482L43.1749 26.9564C42.5858 28.3141 40.91 28.8302 39.1216 28.9828V28.2089C40.0328 28.0404 40.7167 27.633 41.0519 26.8764L42.0149 24.668C42.4782 23.6284 41.6505 23.3341 40.2897 23.3341C39.8721 23.3341 39.4797 23.3637 39.1216 23.4293V22.6598H39.1218ZM34.2838 26.8764L35.2204 24.6686C35.7983 23.3439 37.3864 22.819 39.1218 22.6598V23.4293C38.2143 23.5963 37.5253 23.9992 37.1906 24.7495L36.2287 26.9562C35.7641 28.0062 36.6058 28.3026 37.978 28.3026C38.3887 28.3026 38.7718 28.2739 39.1216 28.2087V28.9826C38.6814 29.0197 38.2337 29.035 37.7928 29.035C36.0709 29.035 34.1548 28.7683 34.1277 27.5652V27.5218C34.1302 27.3306 34.1795 27.1163 34.2836 26.8763L34.2838 26.8764Z" fill="#002C58"/>
<path d="M20.4808 31.9873C20.6208 32.0426 20.7104 32.1291 20.7493 32.2476C20.788 32.366 20.7692 32.5175 20.6925 32.7022C20.6252 32.8643 20.5372 32.9965 20.4283 33.0986C20.3194 33.2007 20.1979 33.2817 20.0636 33.3417C19.9293 33.4017 19.7888 33.443 19.6422 33.4657C19.4954 33.4885 19.3492 33.4997 19.2033 33.4997H18.0003L19.0474 30.9756C19.093 30.8654 19.1043 30.7868 19.0809 30.7397C19.0575 30.6927 18.9965 30.6693 18.8979 30.6693H18.8271L18.8735 30.5574H20.3405C20.4691 30.5574 20.5931 30.5688 20.7124 30.5914C20.8318 30.6142 20.9281 30.6555 21.0019 30.7154C21.0757 30.7754 21.1214 30.8564 21.1391 30.9585C21.1568 31.0606 21.1284 31.1912 21.0539 31.35C20.9261 31.658 20.735 31.8703 20.4808 31.9871V31.9873ZM18.9658 32.1187L18.5079 33.2227H19.2865C19.3851 33.2227 19.4852 33.2138 19.587 33.1959C19.6886 33.1782 19.786 33.1481 19.8784 33.106C19.9708 33.0639 20.0559 33.0063 20.1335 32.9333C20.2109 32.8603 20.2725 32.7688 20.3182 32.6585C20.3626 32.5515 20.3766 32.4632 20.3605 32.3935C20.3444 32.3239 20.3071 32.2688 20.249 32.2281C20.1907 32.1876 20.1199 32.1592 20.0366 32.1429C19.9531 32.1268 19.8666 32.1185 19.7765 32.1185H18.9658V32.1187ZM19.0708 31.8657H19.6627C19.8086 31.8657 19.9367 31.8569 20.047 31.839C20.1573 31.8212 20.2537 31.7904 20.3362 31.7465C20.4187 31.7028 20.489 31.6444 20.5472 31.5714C20.6053 31.4985 20.6565 31.4086 20.7009 31.3015C20.7655 31.1459 20.7599 31.0275 20.6842 30.9465C20.6085 30.8654 20.4767 30.8184 20.2891 30.8054H19.5105L19.0708 31.8656V31.8657Z" fill="#002C58"/>
<path d="M20.9485 32.7366L21.3016 31.8856C21.5114 31.3798 21.9831 31.1268 22.7165 31.1268C23.4499 31.1268 23.7119 31.3798 23.502 31.8856L23.149 32.7366C22.9379 33.2457 22.4656 33.5001 21.732 33.5001C20.9985 33.5001 20.7374 33.2455 20.9485 32.7366ZM21.8047 33.325C22.2423 33.325 22.5424 33.1288 22.7051 32.7366L23.0581 31.8856C23.2195 31.4964 23.0815 31.3019 22.644 31.3019C22.2064 31.3019 21.9006 31.4964 21.7391 31.8856L21.3861 32.7366C21.2233 33.1288 21.3629 33.325 21.8047 33.325Z" fill="#002C58"/>
<path d="M25.0939 30.436L23.8228 33.5H23.3852L24.6058 30.5576L25.0938 30.436H25.0939Z" fill="#002C58"/>
<path d="M25.8046 31.1266L24.82 33.4999H24.3824L25.3671 31.1266H25.8046ZM26.0225 30.6016L25.9236 30.8398H25.4861L25.585 30.6016H26.0225Z" fill="#002C58"/>
<path d="M28.3766 31.1315L26.7095 33.32C26.6941 33.3363 26.675 33.354 26.652 33.3735C26.6289 33.393 26.5954 33.4116 26.5516 33.4294C26.5077 33.4473 26.4533 33.4618 26.3887 33.4732C26.3239 33.4846 26.2529 33.4903 26.1757 33.4903C26.0512 33.4903 25.9627 33.4814 25.91 33.4636C25.8573 33.4458 25.8179 33.4271 25.7917 33.4077C25.7654 33.3882 25.7523 33.3679 25.7525 33.3469C25.7525 33.3258 25.7534 33.3136 25.7547 33.3105L26.0023 31.1316H26.3819L26.1681 33.043C26.1671 33.0657 26.1681 33.0843 26.1706 33.0988C26.1731 33.1134 26.1806 33.1264 26.1931 33.1378C26.2054 33.1492 26.2247 33.1549 26.2503 33.1549H26.3854C26.4239 33.1549 26.4565 33.1435 26.4832 33.1208C26.5097 33.0982 26.5355 33.0722 26.5605 33.043L27.9904 31.1316H28.3765L28.3766 31.1315Z" fill="#002C58"/>
<path d="M29.1763 31.1266L28.1916 33.4999H27.7541L28.7387 31.1266H29.1763ZM29.3942 30.6016L29.2953 30.8398H28.8577L28.9566 30.6016H29.3942Z" fill="#002C58"/>
<path d="M30.1564 33.4319C30.0604 33.4774 29.9352 33.5 29.7808 33.5H29.768C29.0345 33.5 28.7734 33.2455 28.9845 32.7365C29.1944 32.2308 29.6659 31.9778 30.3995 31.9778H31.0557L31.0941 31.8853C31.2555 31.4962 31.1175 31.3017 30.68 31.3017C30.4311 31.3017 30.2275 31.3633 30.0692 31.4864L29.9011 31.287C30.1256 31.18 30.4094 31.1264 30.7527 31.1264C31.4862 31.1264 31.748 31.3794 31.5382 31.8852L30.8683 33.4999H30.4244L30.9834 32.1527H30.3271C29.8853 32.1527 29.5838 32.3473 29.4223 32.7364C29.2595 33.1286 29.399 33.3248 29.8409 33.3248C30.0223 33.3216 30.1531 33.2956 30.2334 33.2471L30.1567 33.4318L30.1564 33.4319Z" fill="#002C58"/>
<path d="M33.4338 31.3019C33.0048 31.3019 32.7066 31.4884 32.5391 31.8612L31.8591 33.5001H31.4216L32.4062 31.1268H32.8438L32.7731 31.297C32.9746 31.1835 33.2191 31.1268 33.5065 31.1268C34.2401 31.1268 34.5019 31.3798 34.2921 31.8856L33.6222 33.5002H33.1783L33.8482 31.8856C34.0095 31.4964 33.8716 31.3019 33.434 31.3019H33.4338Z" fill="#002C58"/>
<path d="M35.6641 33.4319C35.5681 33.4774 35.4429 33.5 35.2885 33.5H35.2757C34.5422 33.5 34.2811 33.2455 34.4922 32.7365C34.7021 32.2308 35.1736 31.9778 35.9072 31.9778H36.5634L36.6018 31.8853C36.7632 31.4962 36.6252 31.3017 36.1877 31.3017C35.9388 31.3017 35.7352 31.3633 35.5769 31.4864L35.4088 31.287C35.6333 31.18 35.9171 31.1264 36.2604 31.1264C36.9939 31.1264 37.2556 31.3794 37.0459 31.8852L36.376 33.4999H35.9321L36.4911 32.1527H35.8348C35.393 32.1527 35.0913 32.3473 34.93 32.7364C34.7672 33.1286 34.9067 33.3248 35.3486 33.3248C35.53 33.3216 35.6608 33.2956 35.7411 33.2471L35.6645 33.4318L35.6641 33.4319Z" fill="#002C58"/>
<path d="M41.0599 32.6926L41.637 31.3016H40.9808C40.5389 31.3016 40.2373 31.4962 40.0759 31.8853L39.7229 32.7363C39.5601 33.1286 39.6997 33.3247 40.1415 33.3247C40.3302 33.3247 40.4759 33.294 40.5787 33.2323C40.5719 33.3003 40.5487 33.3717 40.5092 33.4463C40.4 33.4821 40.2575 33.4998 40.0818 33.4998H40.069C39.3354 33.4998 39.0744 33.2452 39.2855 32.7363L39.6385 31.8853C39.8484 31.3795 40.3201 31.1265 41.0534 31.1265H41.7097L41.9458 30.5576L42.4402 30.436L41.1691 33.5H40.7252L41.0601 32.6926H41.0599Z" fill="#002C58"/>
<path d="M43.8068 31.1268C44.5404 31.1268 44.8022 31.3798 44.5924 31.8856L44.3786 32.4011H42.6157L42.4765 32.7367C42.3137 33.129 42.4532 33.3251 42.8951 33.3251C43.3369 33.3251 43.6125 33.1776 43.7349 32.8825H44.1788C44.008 33.2943 43.5559 33.5002 42.8224 33.5002C42.0888 33.5002 41.8278 33.2457 42.0389 32.7367L42.3919 31.8857C42.6018 31.3799 43.0735 31.127 43.8068 31.127V31.1268ZM43.7343 31.3019C43.2925 31.3019 42.991 31.4964 42.8295 31.8856L42.6882 32.2261H44.0072L44.1485 31.8856C44.3098 31.4964 44.1719 31.3019 43.7343 31.3019Z" fill="#002C58"/>
<path d="M46.8497 33.5001H46.5152L48.4191 30.8495C48.4824 30.7069 48.3966 30.65 48.1615 30.6793L48.2119 30.5577H49.0226C49.1555 30.5577 49.2231 30.6016 49.2255 30.689L49.0309 33.4999H48.6514L48.6844 32.6294H47.5005L46.8499 33.4999L46.8497 33.5001ZM48.7869 30.8933L47.638 32.3912H48.6868L48.7869 30.8933Z" fill="#002C58"/>
<path d="M52.581 31.1315L50.9139 33.32C50.8985 33.3363 50.8794 33.354 50.8563 33.3735C50.8333 33.393 50.7998 33.4116 50.756 33.4294C50.7121 33.4473 50.6579 33.4618 50.5931 33.4732C50.5283 33.4846 50.4573 33.4903 50.3801 33.4903C50.2555 33.4903 50.167 33.4814 50.1144 33.4636C50.0616 33.4458 50.0223 33.4271 49.9961 33.4077C49.9697 33.3882 49.9567 33.3679 49.9569 33.3469C49.9569 33.3258 49.9578 33.3136 49.9591 33.3105L50.2067 31.1316H50.5863L50.3725 33.043C50.3715 33.0657 50.3725 33.0843 50.375 33.0988C50.3775 33.1134 50.385 33.1264 50.3974 33.1378C50.4098 33.1492 50.4291 33.1549 50.4547 33.1549H50.5898C50.6283 33.1549 50.6609 33.1435 50.6876 33.1208C50.7141 33.0982 50.7399 33.0722 50.7648 33.043L52.1948 31.1316H52.5808L52.581 31.1315Z" fill="#002C58"/>
<path d="M53.3807 31.1266L52.396 33.4999H51.9585L52.9431 31.1266H53.3807ZM53.5986 30.6016L53.4997 30.8398H53.0621L53.161 30.6016H53.5986Z" fill="#002C58"/>
<path d="M54.3608 33.4319C54.2647 33.4774 54.1396 33.5 53.9852 33.5H53.9724C53.2389 33.5 52.9778 33.2455 53.1889 32.7365C53.3988 32.2308 53.8703 31.9778 54.6039 31.9778H55.2601L55.2985 31.8853C55.4599 31.4962 55.3219 31.3017 54.8844 31.3017C54.6355 31.3017 54.4319 31.3633 54.2736 31.4864L54.1055 31.287C54.33 31.18 54.6138 31.1264 54.957 31.1264C55.6906 31.1264 55.9524 31.3794 55.7426 31.8852L55.0727 33.4999H54.6288L55.1878 32.1527H54.5315C54.0897 32.1527 53.7881 32.3473 53.6266 32.7364C53.4639 33.1286 53.6034 33.3248 54.0453 33.3248C54.2267 33.3216 54.3575 33.2956 54.4378 33.2471L54.3611 33.4318L54.3608 33.4319Z" fill="#002C58"/>
<path d="M56.7333 31.8856L56.3803 32.7366C56.2175 33.1288 56.357 33.325 56.7989 33.325C57.2407 33.325 57.5103 33.192 57.6206 32.9262H58.0645C57.9058 33.3088 57.4597 33.5001 56.7262 33.5001C55.9926 33.5001 55.7316 33.2455 55.9427 32.7366L56.2957 31.8856C56.5056 31.3798 56.9773 31.1268 57.7107 31.1268C58.444 31.1268 58.7321 31.3165 58.5749 31.6959H58.131C58.2399 31.4333 58.0757 31.3021 57.6381 31.3021C57.2006 31.3021 56.8946 31.4966 56.7333 31.8857V31.8856Z" fill="#002C58"/>
<path d="M59.7375 31.1266L58.7528 33.4999H58.3153L59.2999 31.1266H59.7375ZM59.9554 30.6016L59.8565 30.8398H59.4189L59.5178 30.6016H59.9554Z" fill="#002C58"/>
<path d="M59.5457 32.7364L59.8988 31.8854C60.1086 31.3796 60.5803 31.1267 61.3137 31.1267C62.0471 31.1267 62.3091 31.3796 62.0992 31.8854L61.7462 32.7364C61.5351 33.2455 61.0628 33.4999 60.3292 33.4999C59.5957 33.4999 59.3346 33.2454 59.5457 32.7364ZM60.4019 33.3248C60.8395 33.3248 61.1396 33.1287 61.3023 32.7364L61.6553 31.8854C61.8167 31.4963 61.6787 31.3018 61.2412 31.3018C60.8036 31.3018 60.4978 31.4963 60.3363 31.8854L59.9833 32.7364C59.8205 33.1287 59.9601 33.3248 60.4019 33.3248ZM61.3377 31.0537L61.4199 30.9176C61.4706 30.8884 61.5294 30.8552 61.5964 30.8178C61.6632 30.7806 61.7288 30.7441 61.793 30.7084C61.857 30.6728 61.9151 30.6412 61.9674 30.6136C62.0196 30.5861 62.0585 30.5674 62.0839 30.5577C62.0856 30.574 62.0897 30.5926 62.0961 30.6136C62.1022 30.6347 62.1079 30.6549 62.1127 30.6744L62.1294 30.7425L61.3376 31.0537H61.3377Z" fill="#002C58"/>
<path d="M63.9948 31.3019C63.5658 31.3019 63.2676 31.4884 63.1001 31.8612L62.4202 33.5001H61.9826L62.9672 31.1268H63.4048L63.3342 31.297C63.5356 31.1835 63.7801 31.1268 64.0675 31.1268C64.8011 31.1268 65.0628 31.3798 64.8531 31.8856L64.1832 33.5002H63.7393L64.4092 31.8856C64.5705 31.4964 64.4326 31.3019 63.995 31.3019H63.9948Z" fill="#002C58"/>
<path d="M48.7791 24.815C48.7791 24.815 49.4586 25.8054 50.7168 25.8054C53.2705 25.8054 54.4414 22.9984 57.1867 16.4279C58.9285 11.2032 60.2612 8.77472 61.9364 8.51669C61.9364 8.51669 58.6511 7.89551 56.0295 14.2329C54.305 18.4018 53.4206 24.5488 50.607 24.9938C49.8368 25.0918 49.9719 24.8326 49.6331 24.7277C49.3893 24.6521 49.0334 24.9129 48.7791 24.815Z" fill="url(#paint0_linear_3952_12952)"/>
<path d="M60.1157 18.6712C60.1157 18.6712 60.849 18.0053 61.19 18.0426C61.9326 18.1236 62.7105 19.7044 62.9782 20.181C62.9782 20.181 62.5475 18.406 61.9018 18.0524C61.3021 17.7237 60.8501 18.0858 60.8501 18.0858C60.8501 18.0858 60.2171 18.5046 60.1155 18.6712H60.1157Z" fill="url(#paint1_linear_3952_12952)"/>
<path d="M60.7975 13.6894C60.7975 13.6894 61.6856 12.7135 62.1996 12.698C63.4442 12.6606 64.8155 15.1098 65.2456 15.7722C65.2456 15.7722 64.2555 13.179 63.3024 12.6218C62.452 12.1246 61.6848 12.8007 61.6848 12.8007C61.6848 12.8007 60.9498 13.4396 60.7975 13.6892V13.6894Z" fill="url(#paint2_linear_3952_12952)"/>
<path d="M59.8433 10.3413C59.8433 10.3413 60.8863 9.05737 61.3975 9.11325C62.5109 9.23482 63.8914 11.2011 64.311 11.8455C64.311 11.8455 63.5428 9.50251 62.4719 8.94212C61.5633 8.46675 60.7501 9.21725 60.7501 9.21725C60.7501 9.21725 59.9957 10.0915 59.8433 10.3412V10.3413Z" fill="url(#paint3_linear_3952_12952)"/>
<path d="M50.037 25.3071C50.037 25.3071 50.7699 26.3074 52.0274 26.2672C53.7056 26.2135 55.7272 24.2498 58.4725 17.6795C60.2519 13.8763 61.4536 12.23 62.9925 12.1893C62.9925 12.1893 59.807 10.9028 56.8139 17.1674C54.8691 21.2378 53.7445 25.0771 51.7847 25.5303C51.249 25.6375 51.2291 25.4204 50.8905 25.3155C50.6466 25.24 50.2914 25.4051 50.037 25.3072V25.3071Z" fill="url(#paint4_linear_3952_12952)"/>
<path d="M51.4397 25.8531C51.4397 25.8531 52.0353 26.7213 53.1941 26.7213C54.4925 26.7213 55.9234 25.2886 57.9532 21.9527C59.6948 18.7173 60.3664 17.8011 61.7349 17.6749C61.7349 17.6749 59.5335 16.8888 57.0991 20.6858C54.6648 24.4827 54.0319 25.8513 52.6642 26.0775C52.412 26.1035 52.3044 25.8945 52.1394 25.8197C51.9518 25.7345 51.6764 25.902 51.4399 25.8531H51.4397Z" fill="url(#paint5_linear_3952_12952)"/>
</g>
</g>
<defs>
<linearGradient id="paint0_linear_3952_12952" x1="48.7791" y1="17.1526" x2="61.9364" y2="17.1526" gradientUnits="userSpaceOnUse">
<stop stop-color="#7F1918"/>
<stop offset="1" stop-color="#DB3530"/>
</linearGradient>
<linearGradient id="paint1_linear_3952_12952" x1="60.1157" y1="19.0478" x2="62.9782" y2="19.0478" gradientUnits="userSpaceOnUse">
<stop stop-color="#8F8800"/>
<stop offset="1" stop-color="#CCCD36"/>
</linearGradient>
<linearGradient id="paint2_linear_3952_12952" x1="60.7975" y1="14.1057" x2="65.2456" y2="14.1057" gradientUnits="userSpaceOnUse">
<stop stop-color="#EF7D00"/>
<stop offset="1" stop-color="#FEC823"/>
</linearGradient>
<linearGradient id="paint3_linear_3952_12952" x1="59.8433" y1="10.3151" x2="64.311" y2="10.3151" gradientUnits="userSpaceOnUse">
<stop stop-color="#7F1918"/>
<stop offset="1" stop-color="#DB3530"/>
</linearGradient>
<linearGradient id="paint4_linear_3952_12952" x1="53.3934" y1="22.6764" x2="61.4483" y2="14.6356" gradientUnits="userSpaceOnUse">
<stop stop-color="#EF7D00"/>
<stop offset="1" stop-color="#FEC823"/>
</linearGradient>
<linearGradient id="paint5_linear_3952_12952" x1="51.4397" y1="22.1643" x2="61.7347" y2="22.1643" gradientUnits="userSpaceOnUse">
<stop stop-color="#8F8800"/>
<stop offset="1" stop-color="#CCCD36"/>
</linearGradient>
<clipPath id="clip0_3952_12952">
<rect y="0.5" width="83" height="42" rx="8" fill="white"/>
</clipPath>
<clipPath id="clip1_3952_12952">
<rect width="47.2458" height="25" fill="white" transform="translate(18 8.5)"/>
</clipPath>
</defs>
</svg>
