<svg width="84" height="43" viewBox="0 0 84 43" fill="none" xmlns="http://www.w3.org/2000/svg">
<rect x="0.595581" y="0.900024" width="83" height="42" rx="8" fill="white"/>
<g clip-path="url(#clip0_3955_5169)">
<path d="M14.7053 15.5717C17.2335 15.849 19.2056 18.1013 19.2063 20.8396C19.2075 23.7661 16.9573 26.1392 14.1815 26.1404C11.4057 26.1416 9.15365 23.7697 9.15289 20.8432C9.15177 17.9167 11.4019 15.5436 14.1777 15.5424C14.3555 15.5424 14.5317 15.5527 14.7053 15.5717ZM14.9646 25.77C17.5473 25.3129 19.2886 22.7354 18.8546 20.0137C18.4939 17.7488 16.7416 16.0974 14.6756 15.8696C14.2585 15.8233 13.8279 15.8359 13.3931 15.9124C12.8779 16.0035 12.3977 16.1802 11.9603 16.4246C14.2367 17.2386 15.4606 18.4756 15.5452 19.7432C15.5869 20.5259 15.2419 21.092 14.7884 21.5534L18.0069 21.3165C18.0978 21.3098 18.1264 21.4215 18.0163 21.4552L10.3392 23.7756C11.1204 24.9101 12.3346 25.6651 13.6821 25.8136C14.0992 25.8592 14.5302 25.8473 14.9646 25.77ZM12.8524 20.9573C13.2732 19.2896 12.793 17.542 11.6443 16.6159C10.0796 17.66 9.17732 19.6236 9.50311 21.6691C9.61059 22.3452 9.84319 22.9668 10.1705 23.5114C11.394 23.1525 12.4698 22.4728 12.8524 20.9573Z" fill="white"/>
<path d="M18.8546 20.0137C19.2886 22.7354 17.5473 25.3129 14.9646 25.77C14.5302 25.8473 14.0992 25.8592 13.6821 25.8128C12.3345 25.6643 11.1208 24.9097 10.3392 23.7748L18.0162 21.4544C18.1267 21.4211 18.0982 21.3094 18.0068 21.3157L14.7883 21.5526C15.2419 21.0912 15.5869 20.5251 15.5451 19.7424C15.4606 18.4748 14.2363 17.2378 11.9603 16.4238C12.3977 16.1794 12.8779 16.0027 13.3931 15.9116C13.8275 15.8351 14.2585 15.8225 14.6756 15.8688C16.7416 16.0974 18.4938 17.7484 18.8546 20.0137ZM9.50308 21.6695C9.61056 22.3456 9.84316 22.9671 10.1705 23.5118C11.394 23.1525 12.4698 22.4728 12.8524 20.9573C13.2732 19.2896 12.793 17.542 11.6442 16.6159C10.0795 17.66 9.17729 19.624 9.50308 21.6695Z" fill="#DC0000"/>
<path d="M45.2417 22.9191V21.177H43.5849V22.9191H42.6748V18.7694H43.5849V20.4228H45.2417V18.7694H46.1582V22.9191H45.2417Z" fill="black"/>
<path d="M25.638 18.7695V21.3676C25.638 21.6548 25.6783 21.9031 25.7572 22.1056C25.8357 22.306 25.9499 22.4724 26.0957 22.6007C26.2434 22.7298 26.4215 22.8253 26.6248 22.8839C26.8311 22.9441 27.0645 22.9746 27.3178 22.9746C27.571 22.9746 27.8017 22.9441 28.0043 22.8839C28.2031 22.8249 28.3729 22.7302 28.509 22.6015C28.645 22.4735 28.7517 22.3068 28.8265 22.106C28.9013 21.9043 28.9392 21.656 28.9392 21.3672V18.7691H28.0881V21.3395C28.0881 21.6013 28.0265 21.8128 27.9047 21.9681C27.7803 22.1262 27.583 22.2062 27.3178 22.2062C27.057 22.2062 26.8608 22.1262 26.7346 21.9685C26.6105 21.8136 26.5474 21.6021 26.5474 21.3395V18.7691H25.638V18.7695Z" fill="black"/>
<path d="M23.014 22.9199V19.5442H21.9442V18.7694H24.9996V19.141C24.9996 19.3636 24.8278 19.5442 24.617 19.5442H23.9234V22.9199H23.014Z" fill="black"/>
<path d="M38.5443 18.7691H37.6345V22.9192H38.5443V18.7691Z" fill="black"/>
<path d="M34.6047 20.9841L34.6356 21.0253L35.7974 22.6042C35.9455 22.805 36.1687 22.9203 36.41 22.9203H37.1345L35.4694 20.6878L35.445 20.6549L35.4694 20.622L36.8383 18.7678H35.8914L34.6359 20.5567L34.6044 20.5998L34.604 20.525V18.7678H33.6942V22.9179H34.604V21.0581L34.6047 20.9841Z" fill="black"/>
<path d="M32.5086 22.9187C32.2392 22.9187 31.9851 22.7678 31.8457 22.5249L31.1381 21.293H30.6895V22.9187H29.7805V18.7694H31.4016C31.8179 18.7694 32.1441 18.8839 32.3711 19.1101C32.5973 19.3355 32.7119 19.6444 32.7119 20.0279C32.7119 20.2227 32.6627 20.42 32.5657 20.6145C32.4699 20.8054 32.3 20.9619 32.061 21.0791L32.0084 21.1049L33.1128 22.9187H32.5086ZM30.6891 20.6688H31.2197C31.4106 20.6688 31.556 20.6137 31.6522 20.5048C31.7469 20.397 31.795 20.2572 31.795 20.0893C31.795 19.9173 31.748 19.7755 31.6556 19.6678C31.5616 19.5585 31.4151 19.503 31.2197 19.503H30.6891V20.6688Z" fill="black"/>
<path d="M39.2914 22.7432V21.9474C39.5811 22.0877 39.9539 22.2283 40.3402 22.2283C40.784 22.2283 41.0094 22.0679 41.0094 21.7601C41.0094 21.3992 40.707 21.3592 40.1023 21.0851C39.6905 20.8914 39.2982 20.5904 39.2982 19.8952C39.2982 19.0863 39.8836 18.7053 40.6942 18.7053C41.1252 18.7053 41.4919 18.8122 41.6979 18.8926V19.6678C41.4919 19.5676 41.1252 19.4472 40.7584 19.4472C40.3597 19.4472 40.173 19.6009 40.173 19.8682C40.173 20.1491 40.3981 20.2362 40.8035 20.3963C41.3247 20.6704 41.9293 20.7908 41.9293 21.7268C41.9293 22.5357 41.3183 22.9769 40.501 22.9769C39.999 22.9769 39.6003 22.8835 39.2914 22.7432Z" fill="black"/>
<path d="M67.3933 22.9192V18.7691H69.8588V19.1454C69.8588 19.3653 69.6893 19.5439 69.4807 19.5439H68.3031V20.4363H69.6254V21.1291H68.3031V22.1444H69.8588V22.9188H67.3933V22.9192Z" fill="black"/>
<path d="M58.3987 22.9187V18.7687H58.841C59.0988 18.7687 59.3085 18.9897 59.3085 19.2614V22.1713H60.7605V22.9187H58.3987Z" fill="black"/>
<path d="M53.6767 18.7711H52.767V22.9184H53.6767V18.7711Z" fill="black"/>
<path d="M57.2399 22.9184C56.9704 22.9184 56.7164 22.7675 56.577 22.5246L55.8694 21.2927H55.4208V22.9184H54.5118V18.7691H56.1329C56.5492 18.7691 56.8754 18.8836 57.1023 19.1098C57.3286 19.3351 57.4432 19.6441 57.4432 20.0276C57.4432 20.2224 57.3939 20.4197 57.297 20.6142C57.2012 20.8051 57.0313 20.9616 56.7923 21.0788L56.7397 21.1046L57.8441 22.9184H57.2399ZM55.4204 20.6685H55.951C56.1419 20.6685 56.2873 20.6134 56.3835 20.5045C56.4782 20.3967 56.5263 20.2569 56.5263 20.0889C56.5263 19.917 56.4793 19.7752 56.3869 19.6675C56.2929 19.5582 56.1464 19.5027 55.951 19.5027H55.4204V20.6685Z" fill="black"/>
<path d="M50.7641 18.7687H49.7195L48.2348 22.9187H48.8905C49.057 22.9187 49.2039 22.807 49.2557 22.6403L49.4083 22.1535H51.005L51.2387 22.9187H52.224L50.7641 18.7687ZM49.6402 21.4068L49.9975 20.3579C50.0768 20.1218 50.1565 19.873 50.2091 19.6892H50.2222C50.2685 19.8794 50.3477 20.1155 50.4274 20.3579L50.7716 21.4068H49.6402Z" fill="black"/>
<path d="M70.5892 22.7432V21.9474C70.8789 22.0877 71.2517 22.2283 71.6379 22.2283C72.0817 22.2283 72.3072 22.0679 72.3072 21.7601C72.3072 21.3992 72.0047 21.3592 71.4001 21.0851C70.9882 20.8914 70.5959 20.5904 70.5959 19.8952C70.5959 19.0863 71.1814 18.7053 71.9919 18.7053C72.4229 18.7053 72.7897 18.8122 72.9956 18.8926V19.6678C72.7897 19.5676 72.4229 19.4472 72.0562 19.4472C71.6575 19.4472 71.4707 19.6009 71.4707 19.8682C71.4707 20.1491 71.6958 20.2362 72.1013 20.3963C72.6225 20.6704 73.2271 20.7908 73.2271 21.7268C73.2271 22.5357 72.6161 22.9769 71.7988 22.9769C71.2967 22.9769 70.8981 22.8835 70.5892 22.7432Z" fill="black"/>
<path d="M63.0884 18.7694H63.6521C63.92 18.7694 64.1688 18.9152 64.3101 19.1548L65.4081 21.0142C65.5321 21.2206 65.676 21.4939 65.7609 21.6872H65.7805C65.7673 21.5006 65.7609 21.2408 65.7609 21.0542V18.7694H66.5583V22.9191H65.561L64.2255 20.6743C64.1011 20.4679 63.9707 20.2216 63.8791 20.035H63.8659C63.8723 20.2148 63.8854 20.4279 63.8854 20.6276V22.9191H63.0884V18.7694Z" fill="black"/>
<path d="M62.2553 18.7711H61.3456V22.9184H62.2553V18.7711Z" fill="black"/>
<path d="M43.113 27.061C43.1127 27.285 43.1698 27.4507 43.2834 27.5824C43.4338 27.7581 43.702 27.847 44.0376 27.847C44.2259 27.847 44.871 27.7983 44.871 27.1781C44.871 26.6319 44.4413 26.5814 44.0622 26.5367C43.671 26.491 43.3818 26.4412 43.3818 26.1328C43.3818 25.9802 43.4493 25.8694 43.589 25.7943C43.7329 25.7182 43.8877 25.7065 44.0486 25.7065C44.1723 25.7065 44.4 25.7285 44.5281 25.877C44.5871 25.9455 44.617 26.056 44.617 26.1635L44.8145 26.1661C44.8145 26.0003 44.7691 25.8328 44.6779 25.7278C44.5129 25.5357 44.236 25.4958 44.0328 25.4958C43.7531 25.4958 43.4771 25.5657 43.3077 25.7621C43.219 25.865 43.1745 25.989 43.1745 26.1328C43.1745 26.6674 43.6436 26.7116 44.012 26.7497C44.1865 26.768 44.3508 26.7848 44.4729 26.847C44.6019 26.9129 44.6625 27.0208 44.6625 27.1884C44.6625 27.2945 44.6319 27.3841 44.5716 27.4536C44.429 27.6194 44.1322 27.6373 44.0246 27.6373C43.7587 27.6373 43.5446 27.5704 43.4313 27.4386C43.3493 27.3442 43.3077 27.2268 43.3067 27.0607L43.113 27.061ZM45.1848 25.5382V25.76C45.1848 25.76 45.8655 25.76 45.9415 25.76C45.9415 25.854 45.9415 27.8049 45.9415 27.8049H46.1428C46.1428 27.8049 46.1428 25.854 46.1428 25.76C46.2188 25.76 46.8989 25.76 46.8989 25.76V25.5382H45.1848ZM47.8528 25.5382L46.9547 27.8049H47.1752C47.1752 27.8049 47.4323 27.1576 47.4528 27.1053C47.5039 27.1053 48.3859 27.1053 48.437 27.1053C48.4581 27.1584 48.7111 27.8049 48.7111 27.8049H48.9372L48.0382 25.5382H47.8528ZM47.9443 25.8522C48.0064 26.0077 48.3079 26.7735 48.3531 26.8862C48.2464 26.8862 47.6443 26.8862 47.538 26.8862C47.5824 26.7735 47.8827 26.0073 47.9443 25.8522ZM49.5009 25.5382V27.8049H49.7044C49.7044 27.8049 49.7044 26.9092 49.7044 26.8192C49.781 26.8192 50.4958 26.8192 50.4958 26.8192C50.8437 26.8192 50.9254 26.9001 50.9346 27.2528C50.9418 27.6212 50.9557 27.7412 50.9983 27.7899L51.0109 27.8049H51.221L51.1882 27.7325C51.1563 27.6618 51.1447 27.521 51.1421 27.1547C51.139 26.9301 51.0333 26.7669 50.8652 26.6955C51.0844 26.5817 51.1743 26.3512 51.1743 26.1617C51.1743 25.7417 50.9532 25.5382 50.499 25.5382H49.5009ZM50.5081 25.76C50.8169 25.76 50.9668 25.8895 50.9668 26.1547C50.9668 26.4529 50.8068 26.5978 50.4791 26.5978C50.4791 26.5978 49.781 26.5978 49.7044 26.5978C49.7044 26.5137 49.7044 25.8448 49.7044 25.76C49.7813 25.76 50.5081 25.76 50.5081 25.76ZM53.4924 25.5382L52.5938 27.8049H52.818C52.818 27.8049 53.0713 27.1584 53.0928 27.1053C53.1433 27.1053 54.0258 27.1053 54.0769 27.1053C54.0978 27.1576 54.3545 27.8049 54.3545 27.8049H54.5766L53.6817 25.5382H53.4924ZM53.5871 25.8522C53.6483 26.0077 53.9486 26.7735 53.993 26.8862C53.8861 26.8862 53.2846 26.8862 53.178 26.8862C53.2231 26.7735 53.5256 26.0073 53.5871 25.8522ZM60.6033 25.5382L59.7056 27.8049H59.9295C59.9295 27.8049 60.1831 27.1584 60.2043 27.1053C60.2548 27.1053 61.1377 27.1053 61.1881 27.1053C61.2089 27.1576 61.466 27.8049 61.466 27.8049H61.6878L60.7926 25.5382H60.6033ZM60.6983 25.8522C60.7588 26.0077 61.0597 26.7735 61.1039 26.8862C60.9982 26.8862 60.3958 26.8862 60.2891 26.8862C60.3339 26.7735 60.6364 26.0073 60.6983 25.8522ZM55.2072 25.5382V27.8049H56.6143V27.5832C56.6143 27.5832 55.4901 27.5832 55.4103 27.5832C55.4103 27.4877 55.4103 25.5382 55.4103 25.5382H55.2072ZM57.0502 25.5382V27.8049H58.4558V27.5832C58.4558 27.5832 57.3332 27.5832 57.254 27.5832C57.254 27.4877 57.254 25.5382 57.254 25.5382H57.0502ZM58.8772 25.5382V27.8049H59.0782V25.5382H58.8772ZM63.8567 25.5382C63.8567 25.5382 63.8567 27.1928 63.8567 27.4299C63.7309 27.2528 62.442 25.5382 62.442 25.5382H62.2392V27.8049H62.4398C62.4398 27.8049 62.4398 26.1394 62.4398 25.9144C62.565 26.0904 63.8532 27.8049 63.8532 27.8049H64.057V25.5382H63.8567ZM67.3738 25.5382V27.8049H68.951V27.5832C68.951 27.5832 67.6571 27.5832 67.5766 27.5832C67.5766 27.4987 67.5766 26.8258 67.5766 26.7416C67.6571 26.7416 68.8806 26.7416 68.8806 26.7416V26.5239C68.8806 26.5239 67.6568 26.5239 67.5766 26.5239C67.5766 26.4412 67.5766 25.8434 67.5766 25.7603C67.6571 25.7603 68.9346 25.7603 68.9346 25.7603V25.5386H67.3738V25.5382ZM64.6907 26.6747C64.6907 27.3907 65.1197 27.8525 65.75 27.8525C66.3373 27.8525 66.6918 27.3933 66.7388 26.9377L66.7448 26.8821H66.5326L66.5262 26.9238C66.4597 27.36 66.1616 27.6311 65.75 27.6311C65.1424 27.6311 64.9002 27.1364 64.9002 26.6728C64.9002 26.1072 65.2519 25.7117 65.7572 25.7117C66.142 25.7117 66.4187 25.9239 66.4975 26.2817L66.5057 26.3187H66.7171L66.7054 26.2579C66.6095 25.7698 66.2641 25.4892 65.7572 25.4892C65.0399 25.4899 64.6907 26.105 64.6907 26.6747Z" fill="black"/>
<path d="M71.0461 25.8188C71.1445 25.6597 71.2542 25.5075 71.3744 25.3622C71.4952 25.2162 71.6246 25.0838 71.7583 24.9634L71.6148 25.6297L71.0461 25.8188Z" fill="black"/>
<path d="M72.0415 26.107C71.873 26.0865 71.704 26.0525 71.5352 26.0038C71.3661 25.9552 71.2024 25.893 71.0463 25.8183L71.615 25.6288L72.0415 26.107Z" fill="black"/>
<path d="M71.7586 24.9629C71.828 25.1414 71.8876 25.3284 71.9349 25.5216C71.9832 25.7163 72.0182 25.9116 72.0416 26.107L71.6151 25.6288L71.7586 24.9629Z" fill="black"/>
<path d="M70.8447 27.1885C70.745 27.0315 70.6529 26.8636 70.5718 26.6843C70.4895 26.5061 70.4201 26.3239 70.363 26.138L70.8652 26.5024L70.8447 27.1885Z" fill="black"/>
<path d="M71.3885 26.1791C71.3197 26.3588 71.2402 26.5348 71.1481 26.706C71.0557 26.8773 70.9541 27.039 70.8447 27.1883L70.8652 26.5022L71.3885 26.1791Z" fill="black"/>
<path d="M70.3631 26.138C70.5303 26.1168 70.7022 26.1091 70.8763 26.1161C71.0501 26.1241 71.2217 26.145 71.3886 26.1794L70.8653 26.5025L70.3631 26.138Z" fill="black"/>
<path d="M71.9062 27.8351C71.7456 27.8959 71.5791 27.9449 71.4081 27.98C71.2365 28.0151 71.0655 28.0353 70.8952 28.0415L71.3497 27.5999L71.9062 27.8351Z" fill="black"/>
<path d="M71.2469 26.9225C71.3725 27.0535 71.4917 27.1962 71.6043 27.3509C71.7163 27.5053 71.8169 27.6671 71.9065 27.835L71.3497 27.6001L71.2469 26.9225Z" fill="black"/>
<path d="M70.8949 28.0417C70.9302 27.8496 70.9762 27.6583 71.0359 27.4688C71.0955 27.2774 71.1668 27.0956 71.2469 26.9225L71.3497 27.6001L70.8949 28.0417Z" fill="black"/>
<path d="M72.7628 26.8632C72.7634 27.0589 72.753 27.2576 72.7284 27.457C72.7038 27.6579 72.6679 27.8529 72.6199 28.0413L72.3978 27.4047L72.7628 26.8632Z" fill="black"/>
<path d="M71.8125 27.3085C71.9585 27.2101 72.1118 27.1223 72.2733 27.0476C72.4355 26.9712 72.5989 26.9101 72.7632 26.8636L72.3986 27.4051L71.8125 27.3085Z" fill="black"/>
<path d="M72.6203 28.0417C72.474 27.9448 72.3311 27.8335 72.1945 27.7095C72.0569 27.5851 71.9286 27.4508 71.8125 27.3085L72.3982 27.4051L72.6203 28.0417Z" fill="black"/>
<path d="M72.2316 25.6177C72.3922 25.6766 72.5515 25.7516 72.7079 25.8398C72.8647 25.9283 73.0127 26.0278 73.154 26.1387L72.5622 26.187L72.2316 25.6177Z" fill="black"/>
<path d="M72.3031 26.8043C72.2675 26.6126 72.2429 26.4161 72.2312 26.2149C72.2192 26.0125 72.2192 25.8131 72.2321 25.6177L72.563 26.1871L72.3031 26.8043Z" fill="black"/>
<path d="M73.1537 26.1383C73.0288 26.2704 72.8944 26.3941 72.7496 26.5068C72.6045 26.6191 72.4553 26.719 72.303 26.8039L72.5626 26.1866L73.1537 26.1383Z" fill="black"/>
</g>
<defs>
<clipPath id="clip0_3955_5169">
<rect width="66.8077" height="18" fill="white" transform="translate(8.59558 12.9)"/>
</clipPath>
</defs>
</svg>
