<svg width="84" height="42" viewBox="0 0 84 42" fill="none" xmlns="http://www.w3.org/2000/svg">
<g clip-path="url(#clip0_3952_12648)">
<rect x="0.595581" width="83" height="42" rx="8" fill="white"/>
<path d="M65.2764 6.99988H-0.404373V33.6593H65.2764V6.99988Z" fill="white"/>
<path d="M59.6885 21.5783C59.4299 21.3837 58.8481 20.9945 58.8481 20.9945V20.4756C59.3006 19.8918 59.3006 19.1783 58.9774 18.854C58.9128 18.854 58.9128 18.7891 58.8481 18.7891V18.5297C58.8481 18.5297 59.3653 18.1405 59.8178 17.9459C59.9471 17.9459 60.0118 17.9459 60.0764 18.0107C59.4299 18.2702 58.9774 18.5945 58.9774 18.6594C59.0421 18.7243 59.1067 18.7243 59.1067 18.7243C59.1067 18.7243 59.7532 18.3351 60.3996 18.0756C60.4643 18.1405 60.5936 18.1405 60.6582 18.2053C59.9471 18.3999 59.236 18.7891 59.236 18.7891C59.3006 18.854 59.3006 18.854 59.3653 18.9188C60.141 18.5945 60.9168 18.4648 60.9168 18.4648C60.9814 18.5297 61.0461 18.6594 61.0461 18.7243C61.0461 18.7243 60.335 18.7891 59.4299 19.1134C59.4946 19.2432 59.4946 19.308 59.4946 19.308C59.4946 19.308 60.335 19.1134 61.1754 19.1134C61.1754 19.2432 61.1754 19.3729 61.1754 19.5026C60.7229 19.5026 59.5592 19.5675 59.5592 19.5675C59.5592 19.5675 59.5592 19.7621 59.4946 19.8918C59.4946 19.8918 60.335 19.8918 61.0461 20.0864C60.9814 20.281 60.9168 20.4107 60.8522 20.6053C60.335 20.4756 59.6239 20.281 59.4299 20.2161C59.3653 20.3459 59.3006 20.4756 59.236 20.6053C59.236 20.6053 60.141 20.9945 60.5289 21.1891C60.3996 21.4486 60.0764 21.7729 60.0764 21.7729C59.8825 21.708 59.8178 21.6432 59.6885 21.5783ZM59.1067 18.0107C59.0421 18.0756 58.9774 18.1405 58.9128 18.1405V18.3351C59.1067 18.2053 59.3653 18.0107 59.5592 17.881C59.3653 17.9459 59.236 17.9459 59.1067 18.0107ZM58.9128 21.7729V22.681C59.0421 22.5513 59.236 22.4864 59.3653 22.3567L58.9128 21.7729ZM61.1754 17.2324C60.3996 17.2324 59.6239 17.3621 58.9128 17.6216V17.881C58.9774 17.881 59.0421 17.8161 59.1713 17.8161C59.236 17.8161 59.3006 17.8161 59.3653 17.7513H59.4299C60.141 17.6216 60.7875 17.8161 61.1107 18.2053C61.9511 19.1134 61.24 21.0594 59.6239 22.4864C59.4299 22.681 59.1713 22.8107 58.9774 23.0053V23.4594C59.0421 23.3945 59.1067 23.3945 59.1713 23.3297C59.236 23.4594 59.8825 24.4324 59.8825 24.4324C59.9471 24.4324 60.0764 24.3026 60.2057 24.2378C60.3996 24.108 60.5936 23.9783 60.7875 23.7837L59.8825 22.7459C59.9471 22.681 60.2703 22.3567 60.5289 22.0324C60.5936 22.0972 61.3693 22.681 61.6279 22.9405C61.8865 22.681 62.0804 22.4216 62.2744 22.0972C61.8865 21.8378 60.9814 21.3188 60.9814 21.3188C61.1107 21.0594 61.24 20.8648 61.3693 20.6053C61.3693 20.6053 62.4037 20.9945 62.7915 21.1891C62.9208 20.9945 62.9855 20.7351 63.0501 20.5405C63.0501 20.4756 63.0501 20.4756 63.0501 20.4107C62.533 20.4107 61.6279 20.1513 61.5633 20.1513C61.6279 19.9567 61.6279 19.7621 61.6926 19.5675C62.4037 19.6324 63.1148 19.827 63.2441 19.827C63.2441 19.6324 63.2441 19.4378 63.2441 19.2432C62.4037 19.1134 61.7572 19.1134 61.6926 19.1134C61.6926 18.9837 61.6279 18.854 61.5633 18.7243C61.5633 18.7243 62.2744 18.6594 63.0501 18.7243C62.9855 18.6594 62.9855 18.5297 62.9208 18.4648C62.8562 18.3999 62.7915 18.2702 62.7915 18.2702C62.7915 18.2702 62.1451 18.2053 61.3693 18.3351C61.3047 18.2053 61.24 18.1405 61.1107 18.0756C61.1107 18.0756 61.6926 17.9459 62.4037 17.9459C62.2097 17.8161 62.0158 17.7513 62.0158 17.7513C61.4986 17.7513 60.9168 17.881 60.9168 17.9459C60.7875 17.881 60.6582 17.8161 60.6582 17.8161C60.7229 17.8161 61.1107 17.6864 61.434 17.6216C61.0461 17.5567 60.4643 17.6864 60.3996 17.6864C60.335 17.6864 60.2057 17.6216 60.0764 17.6216C60.0764 17.6216 60.3996 17.5567 60.7875 17.4918C61.1754 17.427 62.4037 17.2972 63.1794 18.3351C63.8905 19.308 63.632 20.8648 62.6623 22.3567C62.4037 22.7459 62.0804 23.1351 61.6926 23.5243C61.3693 23.8486 61.0461 24.108 60.7875 24.3675C60.335 24.7567 59.8178 25.081 59.3006 25.3405C59.1713 25.4053 59.1067 25.4702 58.9774 25.5351V25.9891C59.8178 25.5999 60.335 25.2107 60.335 25.2107L61.0461 26.2486C61.0461 26.2486 61.6279 25.9243 62.1451 25.4053L61.3047 24.4324C61.6279 24.108 61.9511 23.8486 62.2097 23.5243C62.2097 23.5243 63.1148 24.3026 63.1794 24.4324C63.438 24.108 63.6966 23.7837 63.9552 23.3945C63.5027 23.0053 62.8562 22.6161 62.8562 22.6161C62.8562 22.6161 63.2441 22.0324 63.3734 21.6432C63.3734 21.6432 63.9552 21.9675 64.537 22.3567C64.6663 22.0324 64.7956 21.708 64.8602 21.3837C64.4724 21.1891 63.632 20.7999 63.632 20.7999C63.6966 20.5405 63.7612 20.281 63.7612 20.0216C63.7612 20.0216 64.3431 20.2161 64.9249 20.5405C64.9249 20.281 64.9249 20.0215 64.8602 19.7621C64.3431 19.5026 63.6966 19.3729 63.6966 19.3729C63.632 19.1783 63.632 18.9837 63.5027 18.7891C63.5027 18.7891 64.0845 18.9188 64.6663 19.1134C64.537 18.7891 64.3431 18.6594 64.3431 18.6594C64.0198 18.4648 63.1794 18.3351 63.1794 18.3351C63.1148 18.2053 62.9855 18.1405 62.9208 18.0107C63.1794 18.0756 63.5673 18.1405 63.5673 18.1405C63.1148 17.9459 62.6623 17.8161 62.6623 17.8161C62.6623 17.8161 62.5976 17.7513 62.4683 17.6864C62.4683 17.6864 63.632 17.9459 64.2784 18.3999C64.3431 18.4648 64.4077 18.4648 64.4724 18.5297C64.537 18.5945 64.6016 18.6594 64.6663 18.7243C65.9592 20.4756 64.8602 23.9134 61.6926 26.3134H62.8562C62.7915 26.2486 62.6623 26.054 62.5976 26.054C62.9855 25.7297 63.3734 25.3405 63.6966 24.9513L64.4724 25.7297C64.7956 25.4053 65.0542 25.0161 65.3128 24.627C65.3128 24.627 64.9249 24.2378 64.4724 23.8486C64.7956 23.2648 65.0542 22.7459 65.0542 22.7459C65.1188 22.7459 65.5067 23.0702 65.9592 23.5243C66.1532 23.0702 66.2825 22.4864 66.2825 22.4864C65.7653 21.9675 65.3128 21.708 65.3128 21.708C65.3774 21.3837 65.4421 21.0594 65.4421 20.7351C65.4421 20.7351 65.9592 21.0594 66.3471 21.3837C66.3471 21.1243 66.3471 20.7999 66.2825 20.5405C65.8299 20.1513 65.3774 19.9567 65.3774 19.9567C65.3774 19.9567 65.3128 19.6324 65.1835 19.308C65.1835 19.308 65.4421 19.4378 65.8299 19.6972C65.5067 19.308 64.9895 18.9188 64.9895 18.9188C64.9249 18.854 64.8602 18.7243 64.7956 18.6594C65.2481 18.9837 65.636 19.308 65.9592 19.6972C66.0885 19.8918 66.2178 20.0864 66.2825 20.281C66.2825 20.3459 66.3471 20.4107 66.3471 20.4756C66.6057 21.4486 66.4764 22.5513 66.1532 23.4594C65.7653 24.4972 65.1835 25.4702 64.4077 26.3134H65.7653C65.8946 26.1188 66.0239 25.9243 66.1532 25.7297C66.0885 25.5999 65.636 25.081 65.636 25.081C65.8946 24.6918 66.0885 24.3026 66.2178 23.8486C66.2178 23.8486 66.4764 24.1729 66.735 24.4972C66.9289 23.9783 67.0582 23.4594 67.0582 23.4594C66.9289 23.1999 66.6057 22.8107 66.6057 22.8107C66.6703 22.4864 66.735 22.1621 66.735 21.7729C66.9289 21.9675 67.1229 22.2918 67.1229 22.2918C67.0582 21.6432 66.735 21.1243 66.6703 20.9945C66.6703 20.9945 66.6703 20.9945 66.6703 20.9297C66.6703 20.7999 66.6057 20.5405 66.6057 20.4107C66.9936 20.9297 67.1875 21.5134 67.1875 21.5134C67.3168 21.9026 67.4461 22.3567 67.4461 22.9405C67.4461 23.1999 67.3814 24.6918 66.2825 26.3134H66.6057C66.7996 25.9243 67.0582 25.4702 67.1875 25.0161C67.1875 25.0161 67.2522 25.2107 67.3168 25.4702C67.4461 25.081 67.5107 24.627 67.5754 24.1729C67.5754 24.108 67.5107 24.0432 67.5107 23.9783C67.5107 23.9783 67.5754 23.5891 67.64 23.1351C67.7047 23.4594 67.7047 23.7188 67.7047 24.0432C67.7047 24.5621 67.64 25.081 67.5107 25.5999C67.4461 25.8594 67.3814 26.1188 67.3168 26.3134H67.64C67.8986 25.5999 68.0279 24.8216 68.0279 24.0432C67.9633 20.281 64.9249 17.2324 61.1754 17.2324Z" fill="white"/>
<path d="M13.5956 21.254V18.5945H15.1471V21.1891C15.1471 22.1621 15.5996 22.6162 16.5047 22.6162C17.4097 22.6162 17.8622 22.227 17.8622 21.1891V18.5945H19.4138V21.254C19.4138 23.0702 18.5087 23.9135 16.5047 23.9135C14.5006 23.9135 13.5956 23.0702 13.5956 21.254ZM26.2663 21.5783L23.4218 18.5945H21.935V23.7837H23.3572V20.4756L26.4602 23.7837H27.6885V18.5945H26.2663V21.5783ZM30.4037 23.7837H31.9552V18.5945H30.4037V23.7837ZM49.4097 18.5945H52.3835C54.4521 18.5945 55.3572 19.5026 55.3572 21.1891C55.3572 22.8756 54.3875 23.7837 52.3835 23.7837H49.4097V18.5945ZM50.8966 22.3567H52.2542C53.2239 22.3567 53.6764 21.9675 53.6764 21.1891C53.6764 20.4107 53.2239 20.0216 52.2542 20.0216H50.8966V22.3567ZM43.5269 21.708H46.6946V20.6053H43.5269V19.827H46.9532V18.5297H41.9754V23.7189H46.9532V22.4216H43.4622L43.5269 21.708ZM34.2178 19.9567H36.2218V23.7189H37.7734V19.9567H39.7774V18.5945H34.2824L34.2178 19.9567ZM69.9026 25.7297V25.8594H70.0319C70.0966 25.8594 70.0966 25.8594 70.0966 25.7945C70.0966 25.7297 70.0966 25.7297 70.0319 25.7297H69.9026ZM69.838 25.6648H70.0319C70.0966 25.6648 70.1612 25.7297 70.1612 25.7945C70.1612 25.8594 70.0966 25.9243 70.0319 25.9243L70.1612 26.1189H70.0966L69.9673 25.9243H69.9026V26.1189H69.838V25.6648ZM69.9673 25.5351C70.1612 25.5351 70.3552 25.6648 70.3552 25.9243C70.3552 26.1837 70.1612 26.3135 69.9673 26.3135C69.7734 26.3135 69.5794 26.1837 69.5794 25.9243C69.5794 25.6648 69.7734 25.5351 69.9673 25.5351ZM69.9673 25.4702C69.7087 25.4702 69.5148 25.6648 69.5148 25.9243C69.5148 26.1837 69.7087 26.3783 69.9673 26.3783C70.2259 26.3783 70.4198 26.1837 70.4198 25.9243C70.4198 25.6648 70.2259 25.4702 69.9673 25.4702ZM66.6057 26.3135C66.7996 25.9243 67.0582 25.4702 67.1875 25.081C67.1875 25.081 67.2521 25.2756 67.3168 25.4702C67.4461 25.081 67.5107 24.627 67.5754 24.1729C67.5754 24.108 67.5107 24.0432 67.5107 23.9783C67.5107 23.9783 67.5754 23.5891 67.64 23.1999C67.7047 23.5243 67.7047 23.7837 67.7047 24.108C67.7047 24.627 67.64 25.1459 67.5107 25.6648C67.4461 25.9243 67.3814 26.1189 67.3168 26.3783L66.6057 26.3135ZM65.8299 26.3135H66.2178C67.3168 24.6918 67.3814 23.2648 67.3814 22.9405C67.3814 22.4216 67.3168 21.9675 67.1229 21.5783C67.1229 21.5783 66.8643 20.9945 66.541 20.4756C66.6057 20.6053 66.6703 20.7999 66.6703 21.0594C66.6703 21.0594 66.6703 21.0594 66.6703 21.1243C66.735 21.254 67.0582 21.7729 67.1229 22.4216C67.1229 22.4216 66.9289 22.0972 66.735 21.8378C66.735 22.1621 66.6703 22.4864 66.6057 22.8107C66.6057 22.8107 66.9289 23.1999 67.0582 23.4594C67.0582 23.4594 66.9289 23.9783 66.735 24.4972C66.541 24.1729 66.2178 23.8486 66.2178 23.8486C66.0239 24.2378 65.8299 24.6918 65.636 25.0162C65.636 25.0162 66.0239 25.5351 66.1532 25.6648C66.0885 25.9891 65.9592 26.1189 65.8299 26.3135ZM64.4723 26.3135C65.1835 25.4702 65.8299 24.5621 66.2178 23.5243C66.541 22.6162 66.735 21.5135 66.4117 20.5405C66.4117 20.4756 66.3471 20.4107 66.3471 20.3459C66.2824 20.0864 66.1532 19.8918 66.0239 19.7621C65.7006 19.3729 65.2481 19.0486 64.8602 18.7243C64.9249 18.7891 64.9895 18.9189 65.0542 18.9837C65.0542 18.9837 65.5713 19.3729 65.8946 19.7621C65.5067 19.5026 65.2481 19.3729 65.2481 19.3729C65.3774 19.7621 65.442 20.0216 65.442 20.0216C65.442 20.0216 65.8946 20.281 66.3471 20.6053C66.4117 20.8648 66.4117 21.1243 66.4117 21.4486C65.9592 21.0594 65.5067 20.7999 65.5067 20.7999C65.5067 21.1243 65.442 21.4486 65.3774 21.7729C65.3774 21.7729 65.8299 22.0972 66.2824 22.4864C66.2824 22.4864 66.1532 23.0702 65.9592 23.5243C65.442 23.0702 64.9895 22.7459 64.9895 22.7459C64.9895 22.7459 64.7956 23.3297 64.4077 23.8486C64.8602 24.2378 65.2481 24.627 65.2481 24.627C64.9895 25.0162 64.7309 25.4053 64.4077 25.7297L63.6319 24.9513C63.3087 25.3405 62.9855 25.7297 62.5976 26.054C62.5976 26.054 62.7915 26.2486 62.8562 26.3135H64.4723ZM64.6663 18.7891C64.6016 18.7243 64.537 18.6594 64.4723 18.5945C64.4077 18.5297 64.3431 18.4648 64.2784 18.4648C63.6319 17.9459 62.4683 17.7513 62.4683 17.7513C62.5976 17.8162 62.6623 17.881 62.6623 17.881C62.6623 17.881 63.1148 18.0107 63.5673 18.2053C63.5673 18.2053 63.1794 18.1405 62.9208 18.0756C63.0501 18.1405 63.1148 18.2702 63.1794 18.3999C63.1794 18.3999 63.9552 18.5297 64.3431 18.7243C64.3431 18.7243 64.537 18.9189 64.6663 19.1783C64.1491 18.9837 63.5027 18.854 63.5027 18.854C63.5673 19.0486 63.6319 19.2432 63.6966 19.4378C63.6966 19.4378 64.3431 19.6324 64.8602 19.827C64.9249 20.0864 64.9249 20.3459 64.9249 20.5405C64.3431 20.2162 63.7612 20.0216 63.7612 20.0216C63.7612 20.281 63.6966 20.5405 63.6319 20.7999C63.6319 20.7999 64.4723 21.1891 64.7956 21.3837C64.7309 21.708 64.6016 22.0324 64.4723 22.3567C63.8905 21.9675 63.3087 21.6432 63.3087 21.6432C63.1794 21.9675 62.7915 22.5513 62.7915 22.5513C62.7915 22.5513 63.438 23.0053 63.8905 23.3297C63.6319 23.654 63.3734 24.0432 63.1148 24.3675C62.9855 24.3026 62.1451 23.4594 62.1451 23.4594C61.8865 23.7837 61.5633 24.108 61.24 24.3675L62.0804 25.4702C61.4986 25.9243 60.9814 26.2486 60.9814 26.2486L60.2703 25.2107C60.2703 25.2107 59.7532 25.5999 58.9128 25.9891V26.3135H61.6926C64.8602 23.9783 65.9592 20.5405 64.6663 18.7891ZM63.0501 18.4648C62.2744 17.427 61.0461 17.5567 60.7229 17.6216C60.335 17.6864 60.0117 17.7513 60.0117 17.7513C60.0764 17.7513 60.2057 17.7513 60.335 17.8162C60.3996 17.8162 60.9814 17.6864 61.3693 17.7513C61.0461 17.7513 60.6582 17.881 60.5936 17.9459C60.5936 17.9459 60.7229 18.0107 60.8521 18.0756C60.9168 18.0756 61.434 17.9459 61.9511 17.881C61.9511 17.881 62.1451 17.9459 62.339 18.0756C61.6279 18.0756 61.1107 18.2053 61.0461 18.2053C61.1107 18.2702 61.1754 18.3351 61.3047 18.4648C62.0804 18.3351 62.7269 18.3999 62.7269 18.3999C62.7269 18.3999 62.7915 18.5297 62.8562 18.5945C62.9208 18.6594 62.9855 18.7891 62.9855 18.854C62.2097 18.7891 61.4986 18.854 61.4986 18.854C61.5633 18.9837 61.5633 19.1135 61.6279 19.2432C61.6926 19.2432 62.339 19.2432 63.1794 19.3729C63.1794 19.5675 63.1794 19.7621 63.1794 19.9567C63.0501 19.8918 62.339 19.7621 61.6279 19.6972C61.6279 19.8918 61.5633 20.0864 61.4986 20.281C61.5633 20.281 62.4683 20.5405 62.9855 20.7351V20.7999C62.9208 20.9945 62.7915 21.254 62.7269 21.4486C62.339 21.1891 61.3047 20.7999 61.3047 20.7999C61.1754 20.9945 61.1107 21.254 60.9168 21.5135C60.9168 21.5135 61.7572 22.0324 62.2097 22.2918C62.0158 22.5513 61.8218 22.8107 61.5633 23.0702C61.24 22.8107 60.5289 22.227 60.4643 22.1621C60.2057 22.4216 59.8825 22.7459 59.8178 22.8756L60.7229 23.9135C60.5289 24.108 60.335 24.2378 60.141 24.3675C60.0117 24.4972 59.8825 24.5621 59.8178 24.5621C59.8178 24.5621 59.236 23.5891 59.1067 23.4594C59.042 23.5243 58.9774 23.5243 58.9128 23.5891V25.5351C59.042 25.4702 59.1067 25.4053 59.236 25.4053C59.7532 25.1459 60.2703 24.8216 60.7229 24.4324C61.0461 24.1729 61.3047 23.9135 61.6279 23.5891C62.0158 23.1999 62.339 22.8107 62.5976 22.4216C63.5673 20.9945 63.8259 19.4378 63.0501 18.4648ZM61.0461 18.3999C60.6582 17.9459 60.0764 17.8162 59.3653 17.9459H59.3006C59.236 17.9459 59.1713 17.9459 59.1067 18.0107C58.9774 18.0107 58.9128 18.0756 58.8481 18.0756V18.2702C58.9128 18.2053 58.9774 18.1405 59.042 18.1405C59.1713 18.1405 59.3006 18.0756 59.4299 18.0756C59.236 18.2053 58.9774 18.3351 58.7835 18.5297V18.7243C58.7835 18.7243 59.3006 18.3351 59.7532 18.1405C59.8825 18.1405 59.9471 18.1405 60.0117 18.2053C59.3653 18.4648 58.9128 18.7891 58.9128 18.854C58.9774 18.9189 59.042 18.9189 59.042 18.9189C59.042 18.9189 59.6239 18.5297 60.335 18.3351C60.3996 18.3999 60.5289 18.3999 60.5936 18.4648C59.8824 18.6594 59.1713 19.0486 59.1713 19.0486C59.236 19.1135 59.236 19.1135 59.3006 19.1783C60.0117 18.854 60.8521 18.7243 60.8521 18.7243C60.9168 18.7891 60.9814 18.9189 60.9814 18.9837C60.9814 18.9837 60.2703 19.0486 59.3653 19.3729C59.4946 19.308 59.4946 19.4378 59.4946 19.4378C59.4946 19.4378 60.335 19.2432 61.1107 19.2432C61.1107 19.3729 61.1107 19.5026 61.1107 19.6324C60.6582 19.6324 59.5592 19.6972 59.4946 19.6972C59.4946 19.6972 59.4946 19.827 59.4299 20.0216C59.4299 20.0216 60.2703 20.0216 60.9814 20.2162C60.9168 20.4107 60.8521 20.5405 60.7875 20.7351C60.2703 20.6053 59.5592 20.4107 59.3653 20.3459C59.3006 20.4756 59.236 20.6053 59.1713 20.7351C59.1713 20.7351 60.0764 21.1243 60.4643 21.3189C60.335 21.5783 60.0117 21.8378 60.0117 21.8378C59.9471 21.7729 59.8178 21.708 59.7532 21.6432C59.4946 21.4486 58.9128 21.0594 58.9128 21.0594V21.8378L59.3653 22.4216C59.236 22.5513 59.042 22.681 58.9128 22.7459V23.1999C59.1067 23.0702 59.3653 22.8756 59.5592 22.681C61.1754 21.1891 61.8865 19.308 61.0461 18.3999ZM58.9128 20.5405C59.3006 19.9567 59.3653 19.2432 59.042 18.9189C58.9774 18.9189 58.9774 18.854 58.9128 18.854V20.5405ZM61.1754 17.3621C64.9249 17.3621 67.8986 20.3459 67.8986 24.108C67.8986 24.8864 67.7693 25.5999 67.5107 26.3135H69.1915V15.9999H58.9128V17.7513C59.6239 17.4918 60.3996 17.3621 61.1754 17.3621Z" fill="#2E4395"/>
</g>
<defs>
<clipPath id="clip0_3952_12648">
<rect x="0.595581" width="83" height="42" rx="8" fill="white"/>
</clipPath>
</defs>
</svg>
