<svg width="83" height="42" viewBox="0 0 83 42" fill="none" xmlns="http://www.w3.org/2000/svg">
<g clip-path="url(#clip0_3952_12827)">
<path d="M83 -1H-1V42H83V-1Z" fill="white"/>
<g clip-path="url(#clip1_3952_12827)">
<path d="M29.8586 21.092C29.8975 20.9546 29.9239 20.8139 29.9374 20.6717C30.1738 19.6999 30.8304 19.122 31.7498 18.8331C32.3557 18.6625 32.9887 18.609 33.6147 18.6755C34.2504 18.7282 34.8769 18.8606 35.4796 19.0695C35.4994 19.0732 35.5181 19.0812 35.5345 19.0929C35.5509 19.1046 35.5645 19.1197 35.5745 19.1372C35.5845 19.1547 35.5906 19.1741 35.5923 19.1941C35.5941 19.2142 35.5915 19.2344 35.5847 19.2533L35.3483 20.8293C35.1119 20.7768 34.8755 20.698 34.6391 20.6455C34.0239 20.476 33.3826 20.4226 32.7479 20.4879C32.5364 20.5088 32.3311 20.5713 32.1438 20.6717C32.0442 20.7318 31.9606 20.815 31.9001 20.9144C31.8395 21.0137 31.8039 21.1261 31.7962 21.2422C31.7884 21.3582 31.8088 21.4744 31.8556 21.5809C31.9024 21.6874 31.9742 21.781 32.065 21.8537C32.2987 22.0208 32.5552 22.1535 32.8267 22.2477C33.3732 22.4144 33.9084 22.6162 34.4289 22.8518C34.8874 23.0536 35.2792 23.3815 35.5584 23.7974C35.8065 24.1802 35.9346 24.6284 35.9261 25.0845C35.9606 25.7337 35.7587 26.3734 35.3579 26.8852C34.9571 27.3971 34.3845 27.7465 33.746 27.8687C33.5141 27.9293 33.2763 27.9646 33.0368 27.9738C33.0106 27.9738 33.0106 27.9738 32.9843 28.0001H32.1438C32.0056 27.9696 31.8649 27.9521 31.7235 27.9475C31.0923 27.8685 30.4793 27.6819 29.9111 27.3959C29.8586 27.2909 29.8323 27.2646 29.8586 27.1595C29.9374 26.6342 30.0162 26.0826 30.095 25.5573C30.1475 25.5573 30.2 25.6098 30.2526 25.6361C31.0315 26.0367 31.8985 26.2354 32.7742 26.2139C33.019 26.2121 33.2607 26.1584 33.4834 26.0563C33.5897 26.0116 33.6853 25.9449 33.764 25.8605C33.8427 25.7762 33.9026 25.6761 33.9398 25.5669C33.977 25.4578 33.9907 25.3419 33.98 25.2271C33.9692 25.1122 33.9342 25.001 33.8773 24.9006C33.7631 24.7514 33.6202 24.6263 33.4571 24.5329C33.0834 24.3484 32.6972 24.1904 32.3014 24.0601C31.8054 23.8952 31.3296 23.6749 30.883 23.4034C30.6176 23.2169 30.3866 22.9858 30.2001 22.7205C30.1055 22.5438 30.0264 22.3592 29.9637 22.1689C29.877 21.8706 29.8415 21.5598 29.8586 21.2496C29.8849 21.1708 29.8849 21.1183 29.8586 21.092Z" fill="#153E69"/>
<path d="M20.2975 14C20.2975 14.0263 20.3238 14.0263 20.35 14.0263C20.541 14.0816 20.704 14.2072 20.8063 14.3777C20.9086 14.5482 20.9426 14.751 20.9016 14.9456C20.8228 15.4972 20.7703 16.0225 20.7178 16.5741C20.639 17.1782 20.5864 17.7561 20.5076 18.3602C20.4551 18.8593 20.4026 19.3846 20.35 19.8837C20.2712 20.4353 20.1924 21.0131 20.1136 21.5647C20.0443 22.1698 19.9212 22.7676 19.7459 23.3508C19.537 24.1106 19.17 24.8177 18.669 25.4259C18.3539 25.8011 17.9531 26.0948 17.5005 26.2823C17.0478 26.4698 16.5567 26.5454 16.0686 26.5028C15.1127 26.4661 14.1893 26.1461 13.4157 25.5835C12.6788 25.0488 12.1794 24.2478 12.0236 23.3508C11.9754 23.1578 11.994 22.9542 12.0761 22.773C12.1647 22.6312 12.2981 22.5232 12.4552 22.466C12.6123 22.4089 12.784 22.406 12.9429 22.4578C13.0363 22.4883 13.1198 22.5434 13.1845 22.6174C13.2492 22.6913 13.2928 22.7814 13.3106 22.878C13.3632 23.0356 13.3894 23.1932 13.442 23.3508C13.5564 23.6962 13.7484 24.0108 14.0034 24.2704C14.2584 24.5299 14.5696 24.7275 14.9129 24.848C15.3758 25.0474 15.8835 25.1199 16.3838 25.0582C16.6921 25.0251 16.9883 24.9198 17.2484 24.751C17.5085 24.5822 17.7252 24.3544 17.881 24.0863C18.2057 23.5663 18.4202 22.9852 18.5114 22.379C18.669 21.4071 18.774 20.4353 18.8791 19.4634C18.9316 18.8593 19.0104 18.2552 19.0892 17.6248C19.168 16.9418 19.2206 16.2326 19.2731 15.5497C19.2994 15.2871 19.3256 14.9981 19.3519 14.7355C19.3657 14.5648 19.4346 14.4033 19.5484 14.2753C19.6621 14.1474 19.8144 14.06 19.9823 14.0263C19.9893 14.0263 19.9959 14.0235 20.0009 14.0186C20.0058 14.0136 20.0086 14.007 20.0086 14H20.2975Z" fill="#9E202D"/>
<path d="M71.3596 18.8329C71.2546 19.2794 71.1232 19.7522 71.0182 20.1987C70.9919 20.3038 70.9656 20.4089 70.9394 20.5402C70.9394 20.619 70.8868 20.619 70.8343 20.619H68.7855C68.6805 20.619 68.6542 20.6453 68.6542 20.7241V27.6059C68.6542 27.7372 68.6542 27.7372 68.5229 27.7372H66.7367C66.6579 27.7372 66.6317 27.7109 66.6317 27.6321V20.7241C66.6317 20.619 66.6054 20.5927 66.5003 20.5927H64.4778C64.399 20.5927 64.3728 20.5665 64.3465 20.4877C64.2152 19.9361 64.0838 19.4107 63.9525 18.8592C63.9262 18.7541 63.9525 18.7541 64.0313 18.7541H69.6523C70.2302 18.8066 70.7818 18.8066 71.3596 18.8329ZM44.6204 22.2213C44.5679 22.2475 44.5679 22.2738 44.5416 22.3001C43.885 24.0862 43.1232 25.8723 42.4403 27.6584C42.414 27.7372 42.3878 27.7635 42.2827 27.7635H41.127C41.0745 27.7635 41.0482 27.7372 41.0219 27.6847C40.3915 26.0824 39.7611 24.4802 39.1307 22.9042C39.0519 22.6941 38.9731 22.4577 38.8681 22.2213C38.8485 22.2805 38.8396 22.3428 38.8418 22.4051C38.8681 24.165 38.8418 25.8986 38.8418 27.6584C38.8418 27.7372 38.8155 27.7372 38.763 27.7372H37.1608C37.082 27.7372 37.082 27.7109 37.082 27.6584V18.8854C37.082 18.8066 37.1082 18.7804 37.187 18.7804H39.2095C39.2883 18.7804 39.3146 18.8066 39.3409 18.8854C40.1289 20.8817 40.9431 22.8517 41.6786 24.8479C41.6786 24.8742 41.6786 24.9267 41.7311 24.9267C41.7836 24.9267 41.7574 24.8742 41.7574 24.8479C42.4403 23.0355 43.202 21.2231 43.9112 19.4107C43.9927 19.2314 44.0629 19.0472 44.1214 18.8592C44.1476 18.8066 44.1739 18.7804 44.2264 18.7804H46.2752C46.354 18.7804 46.3803 18.8066 46.3803 18.8854V27.6584C46.3815 27.6691 46.3804 27.6799 46.3769 27.69C46.3733 27.7001 46.3676 27.7093 46.36 27.7169C46.3524 27.7245 46.3432 27.7303 46.3331 27.7338C46.3229 27.7373 46.3121 27.7385 46.3015 27.7372H44.6204C44.5416 27.7372 44.5416 27.7109 44.5416 27.6584V22.7466C44.5373 22.5973 44.5461 22.4478 44.5679 22.3001C44.6204 22.3001 44.6204 22.2738 44.6204 22.2213ZM62.0088 24.0336C62.6917 25.2682 63.4009 26.5289 64.0838 27.7635C64.0576 27.7897 64.005 27.7635 63.9788 27.7635H61.8249C61.7973 27.7675 61.7691 27.7619 61.7452 27.7475C61.7212 27.7332 61.703 27.711 61.6936 27.6847C61.1945 26.634 60.6955 25.5571 60.1964 24.5064C60.187 24.4801 60.1688 24.4579 60.1448 24.4436C60.1209 24.4292 60.0927 24.4236 60.0651 24.4276H58.9881C58.9093 24.4276 58.8831 24.4539 58.8831 24.5327V27.6584C58.8831 27.7372 58.8568 27.7635 58.778 27.7635H56.9656C56.8868 27.7635 56.8606 27.7372 56.8606 27.6584V18.9117C56.8606 18.8066 56.8868 18.7804 56.9656 18.7804H60.4328C60.9635 18.7718 61.4905 18.87 61.9825 19.0693C62.3392 19.2033 62.6562 19.4252 62.9042 19.7145C63.1522 20.0038 63.323 20.3511 63.4009 20.7241C63.5411 21.3225 63.523 21.9471 63.3484 22.5365C63.2907 22.8876 63.134 23.215 62.8967 23.4802C62.6594 23.7454 62.3514 23.9374 62.0088 24.0336ZM58.9093 21.6959V22.8254C58.9093 22.9042 58.9356 22.9042 58.9881 22.9042H59.6185C59.9252 22.9217 60.2327 22.9129 60.5379 22.8779C60.7311 22.8738 60.9171 22.8039 61.0652 22.6797C61.2132 22.5556 61.3145 22.3845 61.3521 22.195C61.4309 21.8581 61.4309 21.5075 61.3521 21.1706C61.3293 21.0158 61.2589 20.872 61.1506 20.759C61.0424 20.6461 60.9017 20.5696 60.748 20.5402C60.601 20.5098 60.4516 20.4922 60.3015 20.4877H59.0144C58.9356 20.4877 58.9093 20.5139 58.9093 20.5665V21.6959ZM55.9675 27.7635H53.8137C53.7349 27.7635 53.7086 27.7372 53.6823 27.6584C53.5247 27.1331 53.3934 26.6077 53.2358 26.1087C53.2095 26.0299 53.1833 26.0036 53.1045 26.0036H50.0576C49.9788 26.0036 49.9525 26.0299 49.9262 26.1087C49.7686 26.634 49.6373 27.1593 49.4797 27.6847C49.4534 27.7372 49.4534 27.7635 49.4009 27.7635H47.3259C47.4047 27.5533 47.4572 27.3432 47.536 27.1331L49.9788 20.0411L50.3728 18.8592C50.399 18.8066 50.4253 18.7804 50.4778 18.7804H52.7367C52.7893 18.7804 52.8155 18.7804 52.8418 18.8329C53.2621 20.0674 53.7086 21.3019 54.1289 22.5365C54.733 24.2438 55.3108 25.9248 55.915 27.6321C55.9675 27.7109 55.9675 27.7372 55.9675 27.7635ZM51.6598 20.3301H51.6335C51.2921 21.6697 50.8718 22.983 50.5041 24.3488H52.4741C52.5791 24.3488 52.7105 24.3751 52.763 24.3226C52.8155 24.27 52.7367 24.1387 52.7105 24.0336C52.4215 23.0092 52.1326 21.9849 51.8699 20.9605C51.7765 20.7589 51.706 20.5474 51.6598 20.3301Z" fill="#153E69"/>
<path d="M29.8585 21.092C29.8775 21.1331 29.8865 21.1781 29.8847 21.2233C29.8676 21.5335 29.9032 21.8443 29.9898 22.1426C30.0526 22.3329 30.1317 22.5175 30.2262 22.6942C29.9092 23.3038 29.4384 23.82 28.8603 24.1914C28.3862 24.4979 27.816 24.6195 27.2581 24.5329C26.9865 24.4907 26.7295 24.3824 26.5096 24.2175C26.2897 24.0526 26.1138 23.8362 25.9973 23.5873C25.9185 23.4297 25.866 23.2721 25.7872 23.1145C25.6296 23.2721 25.472 23.4034 25.3144 23.5347C24.8564 23.9408 24.3065 24.2292 23.7121 24.3753C23.218 24.5001 22.695 24.4343 22.2472 24.1909C21.7994 23.9475 21.4597 23.5445 21.2956 23.0619C21.2099 22.8326 21.1483 22.5949 21.1117 22.3528C21.1117 22.3002 21.0855 22.274 21.0329 22.2477C20.9489 22.1948 20.8806 22.1205 20.835 22.0323C20.7893 21.9442 20.7681 21.8454 20.7735 21.7463C20.7788 21.6472 20.8106 21.5513 20.8654 21.4686C20.9203 21.3859 20.9963 21.3193 21.0855 21.2758C21.119 21.2666 21.1481 21.2456 21.1674 21.2167C21.1867 21.1877 21.195 21.1528 21.1905 21.1182C21.3214 20.4917 21.6317 19.9167 22.0836 19.4635C22.2557 19.2808 22.4633 19.1353 22.6936 19.036C22.924 18.9366 23.1723 18.8854 23.4232 18.8856C23.6965 18.8757 23.9632 18.971 24.1684 19.1518C24.3736 19.3325 24.5017 19.5851 24.5264 19.8574C24.5624 20.1919 24.5193 20.5302 24.4007 20.845C24.2821 21.1597 24.0912 21.4423 23.8435 21.6698C23.4457 22.0914 22.919 22.3686 22.3463 22.4578C22.2937 22.4578 22.2937 22.4841 22.2937 22.5366C22.4513 22.9569 22.714 23.2721 23.2131 23.2983C23.4897 23.317 23.767 23.2749 24.0256 23.1751C24.2842 23.0753 24.5179 22.9201 24.7102 22.7205C25.0226 22.443 25.2964 22.1249 25.5245 21.7749C25.5508 21.7486 25.5508 21.7224 25.5508 21.6698C25.5557 21.0078 25.6261 20.348 25.7609 19.6998C25.8397 19.1745 25.9448 18.6492 26.0498 18.1239C26.0761 18.0451 26.0498 18.0188 25.971 18.0188C25.3406 18.0188 24.7102 17.9925 24.0799 17.9925H23.7647C23.6253 17.9925 23.4917 17.9372 23.3932 17.8387C23.2947 17.7401 23.2393 17.6065 23.2393 17.4672C23.2393 17.3279 23.2947 17.1943 23.3932 17.0957C23.4917 16.9972 23.6253 16.9419 23.7647 16.9419C24.395 16.9419 25.0517 16.9156 25.6821 16.9156H26.2074C26.2181 16.9169 26.2289 16.9157 26.239 16.9122C26.2492 16.9087 26.2584 16.9029 26.266 16.8953C26.2735 16.8877 26.2793 16.8785 26.2828 16.8684C26.2863 16.8583 26.2875 16.8475 26.2862 16.8368L26.6014 15.4972C26.6375 15.3536 26.7233 15.2274 26.8434 15.1409C26.9636 15.0544 27.1105 15.0131 27.2581 15.0244C27.3997 15.0383 27.532 15.1009 27.6326 15.2015C27.7332 15.3021 27.7958 15.4345 27.8097 15.576C27.8095 15.8233 27.783 16.0698 27.7309 16.3115L27.6521 16.7843C27.6258 16.8631 27.6521 16.9156 27.7572 16.8893C28.5451 16.8893 29.3331 16.8631 30.1211 16.8631C30.2935 16.8572 30.4648 16.8933 30.6202 16.9681C30.7048 17.0134 30.7745 17.082 30.8211 17.1659C30.8677 17.2497 30.8891 17.3452 30.8829 17.4409C30.8763 17.5371 30.8435 17.6297 30.7879 17.7084C30.7323 17.7872 30.6561 17.8491 30.5677 17.8875C30.3626 17.9836 30.1373 18.0287 29.911 18.0188H27.5996C27.4945 18.0188 27.4682 18.0451 27.442 18.1501C27.2581 19.1483 27.048 20.1201 26.8904 21.1445C26.812 21.7269 26.8659 22.3194 27.048 22.8781C27.0771 22.926 27.095 22.9799 27.1005 23.0357C27.1249 23.1108 27.1643 23.1803 27.2163 23.2398C27.2682 23.2993 27.3317 23.3477 27.4029 23.3821C27.4741 23.4164 27.5514 23.436 27.6304 23.4397C27.7093 23.4434 27.7882 23.431 27.8622 23.4034C28.1916 23.3233 28.4864 23.139 28.7027 22.8781C29.0769 22.4723 29.3869 22.0117 29.6221 21.5122C29.7271 21.3546 29.7797 21.2233 29.8585 21.092ZM22.4251 21.3546C22.6656 21.3282 22.8931 21.232 23.0798 21.078C23.2664 20.9241 23.404 20.7189 23.4757 20.4878C23.4949 20.4078 23.4978 20.3247 23.4843 20.2434C23.4708 20.1622 23.4411 20.0846 23.3969 20.015C23.3782 19.9779 23.3462 19.9492 23.3073 19.9346C23.2683 19.92 23.2253 19.9206 23.1868 19.9362C23.0723 19.9672 22.9651 20.0208 22.8716 20.0938C22.5414 20.3857 22.327 20.7866 22.2675 21.2233C22.2412 21.3546 22.2412 21.3809 22.4251 21.3546Z" fill="#9E202D"/>
</g>
</g>
<defs>
<clipPath id="clip0_3952_12827">
<rect width="83" height="42" rx="8" fill="white"/>
</clipPath>
<clipPath id="clip1_3952_12827">
<rect width="59.3595" height="14" fill="white" transform="translate(11.9999 14)"/>
</clipPath>
</defs>
</svg>
