<svg width="83" height="42" viewBox="0 0 83 42" fill="none" xmlns="http://www.w3.org/2000/svg">
<g clip-path="url(#clip0_3952_13120)">
<path d="M87 0H-1V42H87V0Z" fill="url(#paint0_linear_3952_13120)"/>
<path d="M83.4868 36.3446H-1V42.7148H83.4868V36.3446Z" fill="black"/>
<path d="M48.5706 38.7129C48.5706 39.4479 49.0589 39.9379 49.8729 39.9379C50.6868 39.9379 51.0124 39.4479 51.0938 38.9579H50.8496C50.8496 39.4479 50.4426 39.7746 49.9543 39.7746C49.2217 39.7746 48.8961 39.2845 48.8961 38.7945C48.8961 38.3045 49.3031 37.8145 49.9543 37.8145C50.6054 37.8145 50.7682 38.0595 50.8496 38.3862H51.0938C51.0124 37.8145 50.6054 37.4878 49.9543 37.4878C49.3031 37.4878 48.652 38.1412 48.652 38.7129M51.7449 37.4878V39.8562H53.617V39.6112H51.9891V38.7129H53.5356V38.4679H51.9891V37.6512H53.617V37.4062H51.7449V37.4878ZM47.5124 37.4878V39.4479C47.3497 39.2845 45.8032 37.4878 45.8032 37.4878H45.559V39.8562H45.8032V37.8962C45.966 38.0595 47.5124 39.8562 47.5124 39.8562H47.7566V37.4878H47.5124ZM41.5707 39.8562H41.8149V37.4878H41.5707V39.8562ZM39.3731 37.4878V39.8562H41.0823V39.6112H39.6172V37.4878H39.3731ZM37.1754 37.4878V39.8562H38.8847V39.6112H37.4196V37.4878H37.1754ZM43.7683 37.8145C43.7683 37.9778 44.1753 38.7945 44.2567 38.8762H43.28C43.28 38.7945 43.6869 37.9778 43.7683 37.8145ZM43.6055 37.4878L42.5474 39.8562H42.7916C42.7916 39.8562 43.1172 39.2029 43.1172 39.1212H44.2567L44.5823 39.8562H44.8264L43.7683 37.4878H43.5241H43.6055ZM35.222 37.8145C35.222 37.9778 35.6289 38.7945 35.7103 38.8762H34.7336C34.7336 38.7945 35.1406 37.9778 35.222 37.8145ZM35.1406 37.4878L34.0825 39.8562H34.3266C34.3266 39.8562 34.6522 39.2029 34.6522 39.1212H35.7917L36.1173 39.8562H36.3615L35.3034 37.4878H35.0592H35.1406ZM31.5593 37.7328C31.9662 37.7328 32.129 37.8962 32.129 38.1412C32.129 38.3862 31.9662 38.6312 31.5593 38.6312H30.6639V37.7328H31.6406H31.5593ZM30.3383 37.4878V39.8562H30.5825V38.7945H31.5593C31.9662 38.7945 32.0476 38.8762 32.0476 39.2845C32.0476 39.6929 32.0476 39.7746 32.0476 39.8562H32.2918C32.2918 39.6929 32.2918 39.5295 32.2918 39.2029C32.2918 38.9579 32.129 38.7945 31.9662 38.7129C32.2104 38.6312 32.3732 38.3862 32.3732 38.1412C32.3732 37.7328 32.129 37.4878 31.5593 37.4878H30.3383ZM28.4663 37.8145C28.4663 37.9778 28.8733 38.7945 28.9546 38.8762H27.9779C27.9779 38.7945 28.3849 37.9778 28.4663 37.8145ZM28.3849 37.4878L27.3268 39.8562H27.571C27.571 39.8562 27.8965 39.2029 27.8965 39.1212H29.036L29.3616 39.8562H29.6058L28.5477 37.4878H28.3035H28.3849ZM25.1291 37.4878V37.7328H26.0245V39.8562H26.2687V37.7328H27.164V37.4878H25.1291ZM22.6873 39.1212C22.6873 39.3662 22.6873 39.5295 22.8501 39.6929C23.0129 39.8562 23.3385 39.9379 23.7454 39.9379C24.1524 39.9379 24.7222 39.9379 24.7222 39.2029C24.7222 38.4679 24.2338 38.5495 23.7454 38.5495C23.2571 38.5495 22.9315 38.4679 22.9315 38.1412C22.9315 37.8145 22.9315 37.8962 23.1757 37.8145C23.3385 37.8145 23.5013 37.7328 23.7454 37.7328C23.9896 37.7328 24.1524 37.7328 24.3152 37.8962C24.3152 37.8962 24.3966 38.0595 24.3966 38.2228H24.6408C24.6408 38.0595 24.6408 37.8962 24.478 37.7328C24.3152 37.5695 23.9896 37.4878 23.664 37.4878C23.3385 37.4878 23.0129 37.4878 22.7687 37.7328C22.5245 37.9778 22.6059 37.9778 22.6059 38.1412C22.6059 38.7129 23.1757 38.7129 23.5827 38.7945C23.8268 38.7945 23.9896 38.7945 24.1524 38.8762C24.3152 38.8762 24.3966 39.0395 24.3966 39.2029C24.3966 39.3662 24.3966 39.3662 24.3152 39.4479C24.1524 39.6112 23.8268 39.6112 23.664 39.6112C23.3385 39.6112 23.0943 39.6112 22.9315 39.3662C22.8501 39.2845 22.7687 39.1212 22.7687 38.9579H22.5245L22.6873 39.1212Z" fill="white"/>
<path d="M56.1402 37.8145C56.2216 37.6512 56.3844 37.4878 56.5472 37.3245C56.71 37.1612 56.8727 36.9978 57.0355 36.9162L56.8727 37.5695L56.2216 37.7329L56.1402 37.8145Z" fill="#CCCFD0"/>
<path d="M57.3612 38.1413C57.1984 38.1413 56.9542 38.1413 56.7914 38.0596C56.6286 38.0596 56.3844 37.9779 56.2216 37.8962L56.8728 37.7329L57.3612 38.2229V38.1413Z" fill="#59595B"/>
<path d="M57.0356 36.9162C57.1169 37.0795 57.1983 37.3245 57.2797 37.4879C57.2797 37.6512 57.3611 37.8962 57.4425 38.0595L56.9542 37.5695L57.1169 36.9162H57.0356Z" fill="#8F9193"/>
<path d="M55.896 39.2028C55.8146 39.0395 55.6518 38.8761 55.5704 38.7128C55.489 38.5495 55.4076 38.3045 55.3262 38.1411L55.896 38.5495V39.2845V39.2028Z" fill="#8F9193"/>
<path d="M56.5473 38.2229C56.4659 38.3862 56.3845 38.6312 56.2217 38.7945C56.0589 38.9579 55.9775 39.1212 55.8961 39.2846V38.5495L56.5473 38.2229Z" fill="#59595B"/>
<path d="M55.3262 38.1413C55.489 38.1413 55.7332 38.1413 55.9774 38.1413C56.2216 38.1413 56.3844 38.1413 56.6285 38.1413L55.9774 38.468L55.4076 38.0597L55.3262 38.1413Z" fill="#CCCFD0"/>
<path d="M57.1982 39.938C57.0354 39.938 56.7912 40.0197 56.6284 40.1014C56.3842 40.1014 56.2214 40.1014 55.9773 40.1014L56.547 39.6114L57.1982 39.8564V39.938Z" fill="#59595B"/>
<path d="M56.3845 38.9577C56.5473 39.1211 56.7101 39.2027 56.7915 39.3661C56.9543 39.5294 57.0356 39.6928 57.117 39.8561L56.4659 39.6111L56.3031 38.8761L56.3845 38.9577Z" fill="#8F9193"/>
<path d="M55.9773 40.1012C55.9773 39.9379 56.0587 39.6929 56.14 39.5295C56.14 39.3662 56.3028 39.1212 56.3842 38.9579L56.547 39.6929L55.9773 40.1829V40.1012Z" fill="#CCCFD0"/>
<path d="M58.2565 38.8761C58.2565 39.0394 58.2565 39.2844 58.2565 39.5294C58.2565 39.7744 58.2566 39.9378 58.0938 40.1011L57.8496 39.4478L58.2565 38.8761Z" fill="#8F9193"/>
<path d="M57.1171 39.3662C57.2799 39.2845 57.4426 39.2029 57.6868 39.1212C57.8496 39.1212 58.0938 38.9579 58.2566 38.9579L57.8496 39.5295H57.1171C57.1171 39.4479 57.1171 39.4479 57.1171 39.4479V39.3662Z" fill="#CCCFD0"/>
<path d="M58.0938 40.1014C57.931 40.0197 57.7682 39.8564 57.6054 39.7747C57.4426 39.693 57.2799 39.5297 57.1171 39.3664H57.8496C57.8496 39.448 58.0938 40.1014 58.0938 40.1014Z" fill="#59595B"/>
<path d="M57.6052 37.5694C57.768 37.5694 58.0122 37.7327 58.1749 37.8144C58.3377 37.896 58.5005 37.9777 58.7447 38.141H58.0122L57.6052 37.5694Z" fill="#8F9193"/>
<path d="M57.6866 38.7944C57.6866 38.6311 57.6866 38.3861 57.6052 38.2227C57.6052 37.9777 57.6052 37.8144 57.6052 37.5694L58.0122 38.141L57.6866 38.7944Z" fill="#CCCFD0"/>
<path d="M58.6633 38.1411C58.5005 38.3045 58.3377 38.3861 58.1749 38.5495C58.0122 38.6311 57.8494 38.7945 57.6052 38.8761L57.9308 38.2228H58.6633V38.1411Z" fill="#59595B"/>
<path d="M25.9385 13.5544C25.3677 13.5544 24.8785 14.0453 24.8785 14.618C24.8785 15.1907 25.3677 15.6816 25.9385 15.6816C26.5093 15.6816 27.08 15.1907 27.08 14.618C27.08 14.0453 26.5908 13.5544 25.9385 13.5544Z" fill="white"/>
<path d="M54.966 18.9541C54.966 17.236 54.0691 16.336 52.1122 16.336C50.1553 16.336 50.0737 16.6633 49.3399 17.1542L49.9922 18.3814C50.6445 17.9723 51.2153 17.8087 51.786 17.8087C52.3568 17.8087 53.0907 17.9723 53.0907 18.8723C53.0907 18.9541 51.9491 19.0359 51.9491 19.0359C50.0737 19.0359 48.9322 19.9358 48.9322 21.4085C48.9322 22.8812 49.9107 23.6993 51.2968 23.6993C52.683 23.6993 52.683 23.4538 53.2537 22.963C53.4168 23.372 53.5799 23.5357 54.0691 23.5357H55.2107C55.1291 23.2084 55.0476 22.7175 55.0476 22.1448V18.8723L54.966 18.9541ZM53.0091 21.8176C52.683 22.063 52.2753 22.2266 51.8676 22.2266C51.2153 22.2266 50.8076 21.8994 50.8076 21.3267C50.8076 20.754 50.9707 20.5085 52.1122 20.5085H53.0091V21.8176Z" fill="white"/>
<path d="M24.9598 23.6177H26.8352V22.9632V16.4998H24.9598V23.6177Z" fill="white"/>
<path d="M20.72 23.6177H21.3723L24.3077 16.4998H22.3508L20.6384 21.0814L18.9261 16.4998H16.9692L19.5784 22.7995C19.7415 23.2904 20.0677 23.5359 20.6384 23.5359L20.72 23.6177Z" fill="white"/>
<path d="M41.5936 23.6176V18.9542C41.5936 17.0725 40.4521 16.4179 39.3106 16.4179C38.169 16.4179 37.7613 16.6634 36.9459 17.2361C36.7829 16.7452 36.4567 16.5816 35.8859 16.5816H35.1521V23.6994H37.109V18.7905C37.7613 18.2997 38.2506 18.136 38.8213 18.136C39.3921 18.136 39.7183 18.5451 39.7183 19.5269V23.6994H41.6752L41.5936 23.6176Z" fill="white"/>
<path d="M48.5247 23.0449L48.0354 21.654C47.6277 21.8995 47.057 22.1449 46.3231 22.1449C44.937 22.1449 44.3662 20.9995 44.3662 20.0178C44.3662 19.036 45.1816 17.8906 46.3231 17.8906C47.4647 17.8906 47.6277 18.136 48.117 18.4633V16.9088C47.5462 16.5816 46.8939 16.4179 46.16 16.4179C45.4262 16.4179 44.2031 16.827 43.5508 17.4815C42.8985 18.136 42.4908 19.1178 42.4908 20.1814C42.4908 21.245 42.817 22.1449 43.3877 22.7176C44.04 23.4539 44.937 23.7812 45.997 23.7812C47.057 23.7812 48.0354 23.3721 48.5247 23.0449Z" fill="white"/>
<path d="M34.0107 23.6175C33.9292 23.2902 33.8476 22.7993 33.8476 22.2266V18.9541C33.8476 17.236 32.9507 16.336 30.9938 16.336C29.0369 16.336 28.9553 16.6633 28.2215 17.1542L28.8738 18.3814C29.5261 17.9723 30.0969 17.8087 30.6676 17.8087C31.2384 17.8087 31.9723 17.9723 31.9723 18.8723C31.9723 18.9541 30.8307 19.0359 30.8307 19.0359C28.9553 19.0359 27.8953 19.9358 27.8953 21.4085C27.8953 22.8812 28.8738 23.6993 30.2599 23.6993C31.6461 23.6993 31.6461 23.4538 32.2169 22.963C32.3799 23.372 32.543 23.5357 33.0323 23.5357H34.1738L34.0107 23.6175ZM31.9723 21.8176C31.6461 22.063 31.2384 22.2266 30.8307 22.2266C30.1784 22.2266 29.7707 21.8994 29.7707 21.3267C29.7707 20.754 29.9338 20.5085 31.0753 20.5085H31.9723V21.8176Z" fill="white"/>
<path d="M16.7245 23.6175C16.643 23.2902 16.5614 22.7993 16.5614 22.2266V18.9541C16.5614 17.236 15.6645 16.336 13.7076 16.336C11.7507 16.336 11.6691 16.6633 10.9353 17.1542L11.5876 18.3814C12.2399 17.9723 12.8107 17.8087 13.3814 17.8087C13.9522 17.8087 14.6861 17.9723 14.6861 18.8723C14.6861 18.9541 13.5445 19.0359 13.5445 19.0359C11.6691 19.0359 10.6091 19.9358 10.6091 21.4085C10.6091 22.8812 11.5876 23.6993 12.9737 23.6993C14.3599 23.6993 14.3599 23.4538 14.9307 22.963C15.0938 23.372 15.2568 23.5357 15.7461 23.5357H16.8876L16.7245 23.6175ZM14.6045 21.8176C14.2784 22.063 13.8707 22.2266 13.463 22.2266C12.8107 22.2266 12.403 21.8994 12.403 21.3267C12.403 20.754 12.5661 20.5085 13.7076 20.5085H14.6045V21.8176Z" fill="white"/>
<path d="M65.8108 23.2903H67.1155C67.6862 23.2903 67.9308 23.2903 68.0939 23.3721C67.8493 22.6358 67.1155 22.0631 64.5062 21.8995C64.9139 22.3904 65.4032 22.8812 65.8108 23.2903Z" fill="white"/>
<path d="M64.5062 21.8995C61.9785 18.9542 60.2662 15.1089 59.5323 12C59.5323 12 58.1462 13.2272 58.0647 15.8453C57.9016 18.7087 59.4508 21.5722 64.5062 21.8995Z" fill="white"/>
<path d="M65.8107 23.2904H60.4292C60.4292 23.454 60.7554 23.5358 61.3261 23.6177C64.6692 23.7813 65.1584 26.4812 69.9692 26.4812C74.78 26.4812 70.6215 26.4812 70.9477 26.4812C69.0723 25.9085 67.36 24.7631 65.8923 23.3722L65.8107 23.2904Z" fill="white"/>
</g>
<defs>
<linearGradient id="paint0_linear_3952_13120" x1="-1" y1="20.9443" x2="87" y2="20.9443" gradientUnits="userSpaceOnUse">
<stop stop-color="#FC0100"/>
<stop offset="1" stop-color="#C10282"/>
</linearGradient>
<clipPath id="clip0_3952_13120">
<rect width="83" height="42" rx="8" fill="white"/>
</clipPath>
</defs>
</svg>
