<svg width="83" height="42" viewBox="0 0 83 42" fill="none" xmlns="http://www.w3.org/2000/svg">
<rect width="83" height="42" rx="8" fill="#020C41"/>
<g clip-path="url(#clip0_3955_5234)">
<path d="M78 8H6V34.9091H78V8Z" fill="#020C41"/>
<path d="M73.622 17.5348L73.5711 17.513L73.5856 17.4911L73.7092 17.5493L73.702 17.5711L73.6511 17.5493L73.5929 17.6875L73.5565 17.673L73.622 17.5348Z" fill="white"/>
<path d="M73.7381 17.5565L73.789 17.5856L73.7672 17.7238L73.869 17.622L73.9199 17.6438L73.8399 17.8111L73.8108 17.7965L73.8763 17.6583L73.7672 17.7747L73.7308 17.7529L73.7527 17.6002L73.6872 17.7383L73.6581 17.7165L73.7381 17.5565Z" fill="white"/>
<path d="M74.1237 18.96C74.7419 19.5854 75.1492 20.4218 75.2146 21.36C75.3601 23.44 73.7819 25.2363 71.6946 25.3818C70.7128 25.4472 69.7892 25.1418 69.0764 24.5745C69.8183 25.2654 70.8364 25.6582 71.9274 25.5854C74.0146 25.44 75.5928 23.6363 75.4474 21.5563C75.3746 20.5091 74.8728 19.5854 74.1237 18.9527" fill="white"/>
<path d="M67.3964 23.2509C67.2727 23.3163 67.2509 23.4182 67.3091 23.5709C67.3673 23.7163 67.4545 23.7745 67.5491 23.7382C67.6291 23.7091 67.6364 23.6436 67.6073 23.4763L67.5927 23.4109C67.5636 23.2436 67.5564 23.1709 67.5782 23.0982C67.6 23.0182 67.6436 22.9673 67.7164 22.9382C67.8909 22.8727 68.0509 22.9745 68.1455 23.2145C68.2473 23.4763 68.1964 23.6654 67.9927 23.7527L67.9418 23.6218C68.0873 23.5636 68.1164 23.4327 68.0436 23.2436C67.9782 23.0909 67.8836 23.0182 67.7818 23.0618C67.7018 23.0982 67.68 23.1709 67.7091 23.3454L67.7236 23.4182L67.7382 23.4836C67.76 23.6145 67.76 23.6582 67.7527 23.7163C67.7382 23.7891 67.6946 23.84 67.6218 23.8618C67.4618 23.9273 67.3091 23.8327 67.2218 23.6145C67.1273 23.3818 67.1782 23.2073 67.36 23.1273L67.4109 23.2509H67.3964Z" fill="white"/>
<path d="M67.2944 21.8838L67.8689 21.4038V21.5856L67.3817 21.9856L67.5417 22.1601L67.8835 22.1529V22.2911L66.9089 22.3129V22.1674L67.2871 22.1601H67.3453H67.3962L67.3598 22.1311L67.3307 22.0947L66.8944 21.6292L66.8871 21.4474L67.2944 21.8838Z" fill="white"/>
<path d="M67.7235 20.3783L68.1017 20.5092L68.0581 20.6401L67.6799 20.5092L67.0035 20.7129L67.0617 20.5529L67.4762 20.4365L67.5272 20.4219C67.5272 20.4219 67.5635 20.4219 67.5999 20.4074C67.5635 20.371 67.5635 20.3565 67.5272 20.3129L67.2726 19.9638L67.3235 19.811L67.7308 20.3783H67.7235Z" fill="white"/>
<path d="M68.3853 18.5964L68.1817 18.851L68.7999 19.3528L68.6471 19.5273L68.0362 19.0255L67.8253 19.28L67.6871 19.1637L68.2471 18.48L68.3853 18.5964Z" fill="white"/>
<path d="M69.7091 17.6726L69.2145 17.9635L69.3163 18.138L69.7745 17.8762L69.8545 18.0217L69.4036 18.2835L69.5272 18.4871L70.0291 18.1962L70.1236 18.3562L69.4181 18.7635L68.9236 17.9271L69.6145 17.5199L69.7091 17.6726Z" fill="white"/>
<path d="M71.04 17.5494C70.9818 17.4621 70.9673 17.4185 70.9309 17.353C70.9236 17.4185 70.9164 17.4766 70.8873 17.5712L70.8436 17.7603L71.1273 17.7166L71.0327 17.5494H71.04ZM71.6 18.0512L71.3455 18.0657L71.2218 17.8548L70.8291 17.913L70.7709 18.153L70.5236 18.2112L70.7855 17.1494L71.0255 17.113L71.6 18.0439V18.0512Z" fill="white"/>
<path d="M73.171 18.3637L72.9674 18.2837L73.0474 17.9928C73.0474 17.9928 73.0692 17.9128 73.0838 17.8546C73.0983 17.7964 73.1129 17.7455 73.1274 17.7091C73.142 17.6728 73.1565 17.6291 73.1638 17.5855L73.1856 17.5128C73.1274 17.6073 73.1056 17.6437 73.0547 17.7237C73.0329 17.76 73.011 17.7891 72.9965 17.811L72.7201 18.1964L72.5383 18.1528L72.4801 17.6873C72.4801 17.6873 72.4801 17.6291 72.4729 17.5855C72.4729 17.5273 72.4656 17.4764 72.4656 17.4473C72.4656 17.4182 72.4656 17.3819 72.4656 17.331L72.4438 17.4473C72.4147 17.5782 72.4001 17.6291 72.3638 17.7819L72.2838 18.0946L72.0656 18.0582L72.3129 17.1055L72.6401 17.171L72.6838 17.6219C72.6983 17.731 72.6983 17.8182 72.691 17.9419C72.7274 17.8691 72.7419 17.8473 72.7856 17.7819C72.8147 17.7382 72.8365 17.7019 72.8583 17.6655L73.1201 17.2946L73.4329 17.4037L73.1783 18.3491L73.171 18.3637Z" fill="white"/>
<path d="M73.1492 21.4983C73.4328 21.3092 73.6655 21.2074 73.811 21.2147C73.8983 21.2147 74.0001 21.2437 74.0001 21.3528C74.0001 21.4619 73.8983 21.5565 73.6946 21.6219C73.5128 21.6874 73.2437 21.7019 72.9383 21.6656C73.0183 21.5928 73.091 21.5347 73.1492 21.4983ZM69.1855 21.8474C69.011 21.8328 68.9237 21.7674 68.9237 21.6292C68.9237 21.6147 68.9383 21.1856 69.9128 21.1347C70.0219 21.1347 70.1528 21.1274 70.3419 21.1492C70.3346 21.1492 70.2328 21.2437 70.2328 21.2437L70.1674 21.2947C69.9274 21.5056 69.5346 21.8619 69.1783 21.8401M71.3019 20.2401C71.1855 20.3419 70.9455 20.5674 70.7201 20.7856L70.4655 21.0328C70.2546 20.9965 70.051 20.9747 69.8328 20.9747C69.3528 20.9747 68.9164 21.1056 68.7201 21.3092C68.6473 21.3892 68.6037 21.4692 68.611 21.5565C68.611 21.7819 68.8801 21.8983 68.9601 21.9274C69.3819 22.0874 69.7383 22.0365 70.1092 21.7819C70.3128 21.6365 70.5601 21.411 70.7564 21.2219C70.9092 21.2583 71.0764 21.3019 71.2583 21.3528L71.4255 21.4037C71.2073 21.6147 70.9819 21.8401 70.771 22.0292L70.7564 22.0437C70.4655 22.2983 70.2546 22.4801 69.9492 22.5528C69.7383 22.5965 69.5855 22.5528 69.5346 22.5237L69.5201 22.531C69.6946 22.6765 69.8619 22.7565 70.1455 22.7274C70.4146 22.7056 70.7346 22.5383 71.0546 22.2328L71.491 21.8037L71.7964 21.5056L72.4146 21.6874H72.4292L72.051 22.0583L71.7237 22.3783C71.3892 22.7056 71.2073 22.8728 71.011 23.011C70.6837 23.2365 70.4074 23.3601 70.1674 23.3747C70.0437 23.3819 69.8619 23.3747 69.7092 23.2874L69.6946 23.2947C69.8619 23.4328 70.0655 23.6001 70.4146 23.5928C70.8073 23.5783 71.1564 23.3892 71.7019 22.8947C71.9492 22.6692 72.1964 22.4147 72.4146 22.1892L72.8219 21.7819C73.091 21.8401 73.3237 21.8619 73.5855 21.8619C73.971 21.8547 74.2983 21.6728 74.2983 21.4619C74.2983 21.3092 74.1746 21.2292 74.0946 21.1783C74.0292 21.1347 73.8619 21.0401 73.6219 21.0401C73.331 21.0401 73.0328 21.1637 72.7273 21.411L72.5237 21.5856L72.451 21.5637L71.891 21.4037C72.0583 21.251 72.1964 21.1201 72.3273 21.0037C72.6328 20.7347 72.9746 20.6183 73.1783 20.6037C73.3237 20.5965 73.5783 20.6037 73.6801 20.6837L73.6946 20.6692C73.4183 20.4365 73.1783 20.4001 72.9819 20.4001C72.7855 20.4001 72.4728 20.4656 72.0946 20.7565C71.9346 20.8801 71.7383 21.0765 71.5201 21.2947L71.2364 21.2074L71.171 21.1856L70.8728 21.0983L71.0401 20.9383C71.2437 20.7419 71.4328 20.5528 71.5783 20.4292C72.1164 19.9783 72.4583 19.9201 72.6983 19.9201C72.9601 19.9201 73.1637 19.971 73.3092 20.0801L73.3237 20.0728C73.0183 19.8037 72.8001 19.7165 72.4292 19.7092C72.1019 19.7092 71.7019 19.891 71.3164 20.2256" fill="white"/>
<path d="M17.4691 19.4618C17.6727 19.4618 17.8109 19.5273 17.92 19.5782C18.1527 19.6873 18.4291 19.8182 18.7709 19.9782C18.7709 19.9782 19.3236 19.5855 19.3527 19.5709C19.5418 19.44 19.7236 19.5418 19.7818 19.6509C19.9927 20.0364 20.3709 20.8436 20.5672 21.5782C20.5891 21.6655 20.5672 21.8036 20.4218 21.8473C20.3418 21.8691 20.2036 21.8909 20.0581 21.9055C19.8618 21.9273 19.8618 22.0945 19.8618 22.1891C19.8618 22.3127 19.8618 23.12 19.8618 23.3964C19.8618 23.5709 19.7381 24.1236 19.0909 24.1236H17.6145C17.0545 24.1236 16.6036 23.6582 16.6036 23.1564C16.6036 22.8291 16.6036 20.5455 16.6036 20.2909C16.6036 19.7964 17.0545 19.4618 17.4545 19.4691" fill="white"/>
<path d="M15.1345 24.1164H10.3345V24.6473H15.9636C15.9636 24.6473 16.1672 24.1819 16.1672 23.6582C16.1672 23.6291 16.1672 20.0655 16.1672 20.0655C16.1672 19.7819 16.2836 19.3019 16.8727 19.1782C16.8872 19.1782 16.9018 19.1782 16.9236 19.171C18.5891 18.7782 20.2982 19.1346 21.2654 19.5491C21.44 19.6291 21.4836 19.491 21.4763 19.4328C21.4982 18.6255 20.88 17.7019 19.7454 17.651C18.8218 17.6291 18.3127 17.9564 18.1236 18.051C18.1091 18.0582 18.0872 18.051 18.0654 18.0291C17.8982 17.8619 17.5345 17.6146 17.12 17.4982C17.0618 17.4837 17.0545 17.3964 17.12 17.3891C17.9927 17.2946 18.7563 17.3891 19.0763 17.4473C19.1491 17.4619 19.2072 17.4182 19.1782 17.3455C19.1563 17.2946 19.1418 17.2728 19.0982 17.1928C19.0182 17.0255 18.8145 16.851 18.5527 16.7782C17.8691 16.5891 16.6982 16.4219 15.6509 16.4219C14.48 16.4219 13.2436 16.6473 12.9309 16.7128C12.8582 16.7273 12.7491 16.7564 12.7345 16.7564C12.6472 16.771 12.6327 16.851 12.6691 16.8946C12.6909 16.9237 12.7563 16.9746 12.7854 17.011C12.8218 17.0546 12.8436 17.1273 12.7709 17.2001L10.6036 19.1346H12.1018C12.1963 19.1346 12.2909 19.2219 12.2909 19.331C12.2909 19.4328 12.2109 19.5273 12.1091 19.5273H12.0945H10.1672L9.57816 20.0582H12.1163C12.2182 20.0582 12.2909 20.1601 12.2909 20.2546C12.2909 20.3419 12.2182 20.4437 12.1163 20.4437H12.1018H9.14907L8.55997 20.9746H13.6727C13.7745 20.9746 13.8545 21.0764 13.8545 21.1637C13.8545 21.2655 13.7818 21.3601 13.68 21.3601H13.6654H8.55997V21.891H13.6727C13.7891 21.891 13.8545 22.0001 13.8545 22.0946C13.8545 22.1819 13.7672 22.2764 13.6654 22.2764H13.6509H8.55997V22.8073H15.2072H15.2218C15.3309 22.8073 15.4036 22.9019 15.3963 23.011C15.3963 23.0982 15.3163 23.1928 15.2218 23.1928H15.2072H10.3418V23.7237H15.2363C15.3309 23.7237 15.4036 23.8328 15.4036 23.9273C15.4036 24.0219 15.3236 24.1164 15.2363 24.1164H15.1345Z" fill="white"/>
<path d="M12.1235 25.9492V26.4947C12.1235 26.4947 12.8435 26.4947 13.2508 26.4947C14.2617 26.4947 14.9308 25.9492 14.9308 25.9492H12.1235Z" fill="white"/>
<path d="M12.1235 25.0401V25.571H15.3817C15.5344 25.4183 15.7235 25.1419 15.7744 25.0401H12.1235Z" fill="white"/>
<path d="M62.4289 23.5565C62.3925 23.5565 62.3562 23.5565 62.3198 23.5565C62.2834 23.5565 62.2543 23.5565 62.2107 23.5565C62.0071 23.5346 61.8471 23.4692 61.7016 23.3528C61.658 23.3165 61.6216 23.2801 61.578 23.2365C61.3671 22.9965 61.2507 22.5892 61.2216 22.2692C61.1562 21.5201 61.3089 20.4292 62.2325 20.3565C62.2543 20.3565 62.2762 20.3565 62.298 20.3565H62.3198C62.3198 20.3565 62.3634 20.3565 62.3853 20.3565C63.3089 20.4292 63.4616 21.5201 63.3962 22.2692C63.3671 22.5892 63.2653 22.9892 63.0398 23.2365C62.9962 23.2801 62.9598 23.3237 62.9162 23.3528C62.7707 23.4619 62.5962 23.5419 62.4071 23.5565M64.6398 21.7601C64.6398 21.7601 64.6398 21.7383 64.6398 21.731C64.618 21.3165 64.4871 20.9528 64.2907 20.6619C63.8834 20.0292 63.178 19.6947 62.3271 19.7019C61.4762 19.6874 60.7707 20.0292 60.3634 20.6619C60.1671 20.9456 60.0289 21.3165 60.0143 21.731C60.0143 21.7383 60.0143 21.7456 60.0143 21.7601C59.898 23.1419 60.7125 24.0947 62.0871 24.2037C62.1671 24.2037 62.2471 24.211 62.3271 24.211C62.4071 24.211 62.4871 24.211 62.5671 24.2037C63.9489 24.0947 64.7562 23.1346 64.6398 21.7601Z" fill="white"/>
<path d="M55.4617 20.7346C55.4617 20.3928 55.4981 19.7892 55.4981 19.7892H54.3636C54.3636 19.7892 54.3999 20.3855 54.3999 20.7346V23.1928C54.3999 23.5346 54.3636 24.1164 54.3636 24.1164H55.4981C55.4981 24.1164 55.469 23.5346 55.469 23.1928V20.7346H55.4617Z" fill="white"/>
<path d="M48.851 23.4476C48.6182 23.4476 48.3055 23.4476 48.0655 23.4476C48.0583 23.0112 48.051 22.5894 48.051 22.2112V22.153L49.3601 22.1458V21.5348H48.051C48.051 20.8803 48.0655 20.4439 48.0655 20.4439H49.6873V19.7967C48.5528 19.7967 46.9164 19.7967 46.9164 19.7967C46.9164 19.7967 46.9383 20.393 46.9383 20.7348V23.193C46.9383 23.5058 46.9164 24.0367 46.9164 24.1239H49.7964V23.4403C49.7964 23.4403 49.2292 23.4621 48.851 23.4621" fill="white"/>
<path d="M29.9927 23.4476C29.7599 23.4476 29.4472 23.4476 29.2072 23.4476C29.1999 23.0112 29.1927 22.5894 29.1927 22.2112V22.153L30.5018 22.1458V21.5348H29.1999C29.1999 20.8803 29.2145 20.4439 29.2145 20.4439H30.8363V19.7967C29.7018 19.7967 28.0654 19.7967 28.0654 19.7967C28.0654 19.7967 28.0872 20.393 28.0872 20.7348V23.193C28.0872 23.5058 28.0654 24.0367 28.0654 24.1239H30.9454V23.4403C30.9454 23.4403 30.3854 23.4621 30.0072 23.4621" fill="white"/>
<path d="M52.5528 21.7892L53.8037 19.7892H52.9382V19.811C52.6692 20.2619 52.3419 20.8073 52.211 21.0037L52.1601 21.0837L51.4401 19.7892H50.1382L51.3892 22.0292L50.0801 24.1164H50.9382C51.4982 23.171 51.7819 22.7346 51.7819 22.7346L52.5601 24.1164H53.8546L52.5455 21.7892H52.5528Z" fill="white"/>
<path d="M58.989 23.5274C57.9854 23.5274 57.4399 22.7929 57.469 21.8838C57.4908 21.0911 57.8545 20.422 58.7199 20.3711C59.0472 20.3493 59.3163 20.4074 59.7818 20.5311L59.7308 19.8547C59.7308 19.8547 59.3381 19.7311 58.7708 19.7093C58.0508 19.6802 57.4036 19.8183 56.8872 20.2911C56.429 20.7129 56.1527 21.3383 56.1527 21.942C56.1527 22.6111 56.429 23.2293 56.9527 23.6583C57.4908 24.1093 58.0727 24.2111 58.7636 24.2111C59.2145 24.2111 59.4836 24.182 59.9199 24.0656L59.8545 23.4038C59.7599 23.4329 59.4472 23.5347 58.989 23.5347" fill="white"/>
<path d="M44.4579 19.142H45.716L45.7524 19.4329C46.036 22.3202 46.2033 24.1165 46.2033 24.1165H44.8942L44.7633 22.3275L44.6397 20.7275L43.5269 24.1165C43.2288 24.1165 42.8215 24.1165 42.8215 24.1165C42.8215 24.1165 42.4724 22.9165 42.4069 22.742L41.7669 20.7129C41.7669 20.7129 41.6724 21.8475 41.6288 22.3275C41.5488 23.2947 41.4833 24.1165 41.4833 24.1165H40.5015C40.5015 24.1165 40.9015 20.0729 40.9306 19.8256C40.9597 19.5711 41.0106 19.142 41.0106 19.142H42.2979L43.3669 22.0584L44.4433 19.142H44.4579Z" fill="white"/>
<path d="M37.7889 23.5565C37.7526 23.5565 37.7162 23.5565 37.6799 23.5565C37.6435 23.5565 37.6071 23.5565 37.5708 23.5565C37.3671 23.5347 37.2144 23.4693 37.0689 23.3529C37.0253 23.3165 36.9889 23.2802 36.9453 23.2365C36.7344 22.9965 36.618 22.5965 36.5962 22.2765C36.5308 21.5347 36.6835 20.4438 37.5999 20.3783C37.6217 20.3783 37.6435 20.3783 37.6726 20.3783H37.6944C37.6944 20.3783 37.738 20.3783 37.7671 20.3783C38.6835 20.4511 38.8362 21.5347 38.7708 22.2765C38.7417 22.5965 38.6399 22.9893 38.4217 23.2365C38.3853 23.2802 38.3417 23.3238 38.298 23.3529C38.1526 23.462 37.9853 23.5347 37.7889 23.5565ZM39.9853 21.7674C39.9853 21.7674 39.9853 21.7456 39.9853 21.7383C39.9708 21.3238 39.8326 20.9602 39.6362 20.6765C39.2362 20.0511 38.5308 19.7165 37.6799 19.7238C36.8289 19.7093 36.1308 20.0511 35.7235 20.6765C35.5344 20.9602 35.3962 21.3311 35.3744 21.7383C35.3744 21.7456 35.3744 21.7602 35.3744 21.7674C35.258 23.142 36.0653 24.0947 37.4399 24.2038C37.5199 24.2038 37.5999 24.2111 37.6799 24.2111C37.7599 24.2111 37.8399 24.2111 37.9199 24.2038C39.2944 24.0947 40.1017 23.142 39.9853 21.7674Z" fill="white"/>
<path d="M24.5745 21.9929L25.12 20.3856L25.1491 20.2911L25.7164 21.9929H24.5673H24.5745ZM27.7818 24.1165C27.7454 24.0293 27.5127 23.4765 27.3382 23.0329L25.8691 19.142H24.7273C24.7273 19.142 24.4 20.0511 24.3564 20.2038L23.28 23.222C23.1418 23.6075 22.9454 24.1165 22.9454 24.1165H23.8836C23.8836 24.1165 24.1454 23.2729 24.2036 23.1275L24.3491 22.7056H25.9709L26.1891 23.3456C26.2327 23.462 26.4291 24.1093 26.4291 24.1165H27.7891H27.7818Z" fill="white"/>
<path d="M33.4326 21.7019C33.2653 21.7892 32.8799 21.7673 32.6908 21.7528L32.7053 20.5164H32.8144C33.1635 20.4801 33.4108 20.531 33.5198 20.5746C33.6726 20.6401 33.7671 20.7928 33.7744 21.0328C33.7889 21.3964 33.6508 21.5928 33.4326 21.7019ZM35.4326 24.1164C35.1635 23.731 35.0617 23.571 34.858 23.2873L34.0798 22.0801C34.458 21.8982 34.8071 21.5855 34.858 20.9382C34.8944 20.5382 34.6762 20.1964 34.5453 20.0873C34.3562 19.9201 34.1744 19.8546 33.9126 19.8255C33.7017 19.7964 33.5562 19.7964 33.4253 19.7892H31.5853C31.5853 19.7892 31.6071 20.3855 31.6071 20.7273V23.171C31.6071 23.5128 31.5853 24.1092 31.5853 24.1092H32.7126C32.7126 24.1092 32.6762 23.5128 32.6762 23.171V22.3855C32.6762 22.3855 32.9308 22.3855 33.1053 22.3855L33.818 23.6873C33.9126 23.8546 34.0508 24.0582 34.0871 24.1092H35.4253L35.4326 24.1164Z" fill="white"/>
<path d="M64.8726 23.6585H64.9526C65.0035 23.6585 65.0544 23.6512 65.0544 23.5858C65.0544 23.5276 65.0035 23.5203 64.9526 23.5203H64.8726V23.6585ZM64.7853 23.4476H64.9671C65.0835 23.4476 65.1489 23.4912 65.1489 23.5931C65.1489 23.6731 65.1053 23.7167 65.0253 23.724L65.1562 23.9349H65.0617L64.938 23.724H64.8871V23.9349H64.7998V23.4549L64.7853 23.4476ZM65.2726 23.6949C65.2726 23.4985 65.1271 23.3531 64.9453 23.3531C64.7635 23.3531 64.6253 23.4985 64.6253 23.6949C64.6253 23.8912 64.7708 24.0367 64.9453 24.0367C65.1198 24.0367 65.2726 23.8912 65.2726 23.6949ZM64.5162 23.6949C64.5162 23.4621 64.7053 23.2658 64.9453 23.2658C65.1853 23.2658 65.3744 23.4549 65.3744 23.6949C65.3744 23.9349 65.1853 24.124 64.9453 24.124C64.7053 24.124 64.5162 23.9349 64.5162 23.6949Z" fill="white"/>
</g>
<defs>
<clipPath id="clip0_3955_5234">
<rect width="72" height="26.9091" fill="white" transform="translate(6 8)"/>
</clipPath>
</defs>
</svg>
