<svg width="84" height="42" viewBox="0 0 84 42" fill="none" xmlns="http://www.w3.org/2000/svg">
<g clip-path="url(#clip0_3952_12868)">
<path d="M85.9999 -1.00008H-3.00006V43.9999H85.9999V-1.00008Z" fill="#276EB6"/>
<path d="M22.6847 25.2485L23.2018 26.3512H22.1675L22.6847 25.2485ZM21.5857 27.5836L21.9736 26.8053H23.4604L23.7837 27.5836H24.4948L22.6847 23.9512L20.8746 27.6485H21.5857V27.5836ZM26.4988 24.0809H25.8523V27.5836H26.4988V24.0809ZM30.5715 25.1836C30.5715 24.4701 29.9897 24.0809 29.2786 24.0809H28.2443V27.5836H28.8907V26.2215H29.214L30.2483 27.5836H30.9594L29.9251 26.1566C30.3129 25.962 30.5715 25.6377 30.5715 25.1836ZM29.9251 25.1836C29.9251 25.5728 29.6665 25.7026 29.2786 25.7026H28.8907V24.5999H29.2786C29.6665 24.5999 29.9251 24.7944 29.9251 25.1836ZM34.1917 23.9512L33.222 26.2215L32.3816 24.0809H31.7352L33.222 27.7134L34.1917 25.3782L35.1614 27.7134L36.6483 24.0809H36.0018L35.1614 26.2215L34.1917 23.9512ZM38.6523 25.2485L39.1695 26.3512H38.1352L38.6523 25.2485ZM37.5534 27.5836L37.9412 26.8053H39.4281L39.7513 27.5836H40.4624L38.6523 23.8863L36.9069 27.5836H37.5534ZM41.6261 24.0809H40.915L42.2079 26.0269V27.6485H42.8544V26.0269L44.1473 24.0809H43.4362L42.5311 25.4431L41.6261 24.0809ZM46.6039 25.6377L46.0867 25.3782C45.8927 25.3134 45.7635 25.1836 45.7635 24.989C45.7635 24.6647 46.022 24.5999 46.2806 24.5999C46.6685 24.5999 46.9917 24.7944 47.2503 25.0539V24.4053C46.9917 24.1458 46.6685 24.0809 46.2806 24.0809C45.6342 24.0809 45.117 24.4053 45.117 25.1188C45.117 25.5728 45.3756 25.8323 45.8281 26.0269L46.4099 26.2863C46.6039 26.3512 46.7978 26.4809 46.7978 26.7404C46.7978 27.0647 46.4746 27.1944 46.216 27.1944C45.8281 27.1944 45.5049 26.9999 45.117 26.7404V27.389C45.3756 27.6485 45.8281 27.7782 46.1513 27.7782C46.7978 27.7782 47.3796 27.389 47.3796 26.7404C47.3796 26.0917 46.9917 25.8323 46.6039 25.6377ZM45.8281 21.6161L41.2382 15.3242L36.1311 22.3296H33.1574L38.0059 15.7134C38.3291 15.2593 38.8463 14.9999 39.4281 14.9999H44.018L49.3837 22.3296H47.2503C46.6685 22.3296 46.1513 22.0701 45.8281 21.6161ZM36.519 16.362C36.1958 16.7512 35.614 17.0755 35.0968 17.0755H30.7655V22.3296H28.3089V17.0755H22.2968V14.9999H37.4887L36.519 16.362ZM21.4564 20.5134V14.9999L20.2281 15.2593C19.3877 15.4539 18.9998 16.1026 18.9998 16.8161V22.3296L20.2281 22.0701C21.0685 21.8755 21.4564 21.2269 21.4564 20.5134Z" fill="white"/>
<path d="M38.6523 20.3188L37.1655 22.3296H40.1392L42.1432 19.6053H40.0746C39.4927 19.6053 38.9756 19.8647 38.6523 20.3188Z" fill="#C02518"/>
<path d="M64.5109 21.6809C64.3816 20.189 63.7352 18.8918 62.7008 18.0485C63.5412 18.8918 64.123 20.1242 64.2523 21.4215C64.4463 24.3404 62.2483 26.8701 59.3392 27.0647C57.9816 27.1945 56.6887 26.7404 55.719 25.962C56.7533 26.935 58.1756 27.4539 59.6624 27.389C62.5715 27.1296 64.7049 24.5999 64.5109 21.6809Z" fill="white"/>
<path d="M53.7796 23.562C53.6503 23.6269 53.5857 23.6918 53.5857 23.8215C53.5857 23.9512 53.5857 24.0161 53.5857 24.2755V24.3404C53.6503 24.5999 53.5857 24.6647 53.521 24.7296C53.3917 24.7945 53.2624 24.6647 53.1978 24.4701C53.1331 24.2755 53.1332 24.0809 53.3271 24.0161L53.2624 23.8215C53.0039 23.9512 52.9392 24.1458 53.0685 24.535C53.1978 24.8593 53.3917 24.9891 53.6503 24.8593C53.7796 24.7945 53.7796 24.7296 53.8443 24.6647C53.8443 24.5999 53.8443 24.535 53.8443 24.3404V24.2755V24.1458C53.7796 23.8863 53.8443 23.8215 53.9736 23.7566C54.1028 23.6918 54.2321 23.8215 54.3614 24.0161C54.4907 24.2755 54.4261 24.4701 54.2321 24.535L54.2968 24.7296C54.5554 24.5999 54.6847 24.3404 54.4907 23.9512C54.2321 23.6269 54.0382 23.4972 53.7796 23.562Z" fill="white"/>
<path d="M54.0382 22.5242H53.521L53.3271 22.2647L53.9736 21.6809V21.4215L53.1978 22.135L52.616 21.4863V21.7458L53.2624 22.3945V22.4593L53.3271 22.5242H53.1978H52.6806V22.7188H54.0382V22.5242Z" fill="white"/>
<path d="M54.2321 20.3836L54.2968 20.189L53.7796 19.9945L53.1978 19.2161L53.1331 19.4107L53.521 19.9296C53.5857 19.9945 53.5857 19.9945 53.6503 20.0593C53.5857 20.0593 53.5857 20.0593 53.521 20.0593H53.4564L52.8746 20.2539L52.8099 20.4485L53.7796 20.189L54.2321 20.3836Z" fill="white"/>
<path d="M54.2321 18.1134L55.0725 18.8269L55.2665 18.5674L54.4261 17.8539L54.6847 17.5296L54.4907 17.335L53.715 18.308L53.9089 18.4377L54.2321 18.1134Z" fill="white"/>
<path d="M57.1412 17.1404L57.0119 16.9458L56.3008 17.335L56.1069 17.0755L56.7533 16.6863L56.6241 16.4918L55.9776 16.8809L55.8483 16.6215L56.5594 16.2323L56.4301 15.9728L55.4604 16.5566L56.1069 17.7242L57.1412 17.1404Z" fill="white"/>
<path d="M58.1109 16.5566L58.6281 16.4917L58.822 16.8161H59.2099L58.4342 15.5188L58.1109 15.5836L57.723 17.0755L58.0463 17.0107L58.1109 16.5566ZM58.1756 16.0377C58.2402 15.908 58.2402 15.8431 58.2402 15.7782C58.3049 15.908 58.3049 15.908 58.3695 16.0377L58.4988 16.2972L58.1109 16.362L58.1756 16.0377Z" fill="white"/>
<path d="M60.2443 16.362C60.3089 16.1674 60.3089 16.0377 60.3736 15.908L60.4382 15.7134C60.4382 15.7782 60.4382 15.8431 60.4382 15.908C60.4382 15.9728 60.4382 16.0377 60.4382 16.1026C60.4382 16.1674 60.4382 16.2323 60.4382 16.2323L60.5028 16.8809L60.7614 16.9458L61.1493 16.4269C61.1493 16.362 61.214 16.362 61.214 16.2972C61.2786 16.1674 61.3433 16.1674 61.4079 15.9728V16.1026C61.4079 16.1674 61.3433 16.2323 61.3433 16.2972C61.3433 16.362 61.2786 16.4269 61.2786 16.4917C61.2786 16.5566 61.214 16.6215 61.214 16.6863L61.0847 17.0755L61.3433 17.2053L61.6665 15.8431L61.214 15.7134L60.8261 16.2323C60.8261 16.2972 60.7614 16.362 60.6968 16.4269C60.6321 16.4917 60.6321 16.5566 60.5675 16.6215C60.5675 16.4269 60.5675 16.2972 60.5675 16.1674L60.5028 15.5188L60.1796 15.4539L59.8564 16.8161L60.1796 16.8809L60.2443 16.362Z" fill="white"/>
<path d="M57.1412 21.9404C57.3998 21.7458 57.7877 21.4215 58.0463 21.162C58.2402 21.2269 58.4988 21.2917 58.7574 21.3566L59.016 21.4215C58.6927 21.7458 58.3695 22.0701 58.1109 22.3296C57.723 22.7188 57.3998 22.9134 57.0119 23.0431C56.6887 23.108 56.4948 23.0431 56.4301 22.9782C56.6887 23.1728 56.8826 23.3026 57.3352 23.2377C57.723 23.1728 58.1756 22.9782 58.6281 22.5242L59.2099 21.9404L59.6624 21.5512L60.5028 21.8107L59.9857 22.3296L59.5331 22.7836C59.0806 23.2377 58.822 23.4972 58.5635 23.6917C58.1109 24.0161 57.723 24.1458 57.3998 24.2107C57.2059 24.2107 56.9473 24.2107 56.7533 24.0809C57.0119 24.2755 57.2705 24.535 57.723 24.535C58.2402 24.535 58.7574 24.2755 59.5331 23.562C59.8564 23.2377 60.2443 22.9134 60.5028 22.589L61.0847 22.0053C61.4725 22.0701 61.7958 22.135 62.1837 22.135C62.7008 22.135 63.1533 21.8755 63.1533 21.5512C63.1533 21.3566 62.9594 21.2269 62.8948 21.162C62.8301 21.0972 62.5715 20.9674 62.2483 20.9674C61.8604 20.9674 61.4079 21.162 61.02 21.4863L60.7614 21.7458H60.6321L59.8564 21.5512C60.115 21.3566 60.3089 21.162 60.4382 20.9674C60.8907 20.5782 61.3432 20.4485 61.6018 20.3836C61.7958 20.3836 62.1837 20.3836 62.3129 20.5134C61.9251 20.189 61.6018 20.1242 61.3433 20.1242C61.0847 20.1242 60.6321 20.189 60.115 20.6431C59.921 20.8377 59.5978 21.0972 59.3392 21.4215L58.9513 21.2917H58.8867L58.4988 21.162L58.7574 20.9674C59.016 20.708 59.2746 20.4485 59.5331 20.2539C60.3089 19.6053 60.7614 19.5404 61.0847 19.5404C61.4725 19.5404 61.7311 19.6053 61.9251 19.735C61.5372 19.3458 61.214 19.2161 60.6968 19.2161C60.2443 19.2161 59.6624 19.4755 59.1453 19.9296C58.9513 20.0593 58.6281 20.3836 58.3695 20.708L57.5938 20.9026C57.2705 20.8377 57.0119 20.8377 56.6887 20.8377C56.0422 20.8377 55.3958 21.0323 55.1372 21.2917C55.0079 21.4215 55.0079 21.5512 55.0079 21.6161C55.0079 21.9404 55.3958 22.135 55.5251 22.135C56.1069 22.3944 56.5594 22.3296 57.1412 21.9404ZM61.3433 21.5512C61.7311 21.2917 62.0544 21.162 62.2483 21.162C62.3776 21.162 62.5069 21.2269 62.5069 21.3566C62.5069 21.4863 62.3776 21.6161 62.0544 21.7458C61.7958 21.8107 61.4079 21.8755 61.02 21.8107C61.1493 21.7458 61.2786 21.6161 61.3433 21.5512ZM55.8483 22.0701C55.5897 22.0701 55.4604 21.9404 55.4604 21.7458C55.4604 21.7458 55.4604 21.0972 56.818 21.0323C56.9473 21.0323 57.1412 21.0323 57.3998 21.0323L57.2705 21.162L57.2059 21.2269C56.8826 21.6161 56.3008 22.0701 55.8483 22.0701Z" fill="white"/>
<path d="M62.119 16.1674L62.1837 16.2972H62.2483V16.1674C62.3129 16.1674 62.3129 16.1674 62.3776 16.1674C62.3776 16.1026 62.3776 16.1026 62.3129 16.0377H62.119L61.9897 16.2323L62.119 16.1674ZM62.119 16.0377C62.1837 16.1026 62.2483 16.1026 62.1837 16.1026C62.1837 16.1674 62.119 16.1026 62.119 16.1026V16.0377Z" fill="white"/>
<path d="M62.0544 16.362C62.1837 16.4269 62.3129 16.362 62.3776 16.2323C62.4422 16.1026 62.3776 15.9728 62.2483 15.908C62.119 15.8431 61.9897 15.908 61.9251 16.0377C61.8604 16.1674 61.9251 16.2972 62.0544 16.362ZM61.9897 16.1026C62.0544 16.0377 62.1837 15.9728 62.2483 16.0377C62.3129 16.1026 62.3776 16.2323 62.3129 16.2972C62.2483 16.362 62.119 16.4269 62.0544 16.362C61.9251 16.2972 61.9251 16.1674 61.9897 16.1026Z" fill="white"/>
</g>
<defs>
<clipPath id="clip0_3952_12868">
<rect width="84" height="42" rx="8" fill="white"/>
</clipPath>
</defs>
</svg>
