<svg width="83" height="43" viewBox="0 0 83 43" fill="none" xmlns="http://www.w3.org/2000/svg">
<g clip-path="url(#clip0_3952_12994)">
<path d="M83 -0.5H-1V42.5H83V-0.5Z" fill="white"/>
<path d="M21.0025 23.6999C21.1617 23.6185 21.2328 23.4255 21.2328 23.2603V19.2087C21.2328 19.0373 21.1617 18.8499 21.0025 18.7637H22.9336C23.7948 18.7637 24.6349 19.1163 24.6349 20.0939C24.6349 20.6125 24.183 21.0215 23.6957 21.1134C24.3977 21.1071 25.076 21.5358 25.076 22.3105C25.076 23.4176 23.9149 23.7002 23.0981 23.7002L21.0025 23.6999ZM22.5657 19.1889C22.4763 19.1889 22.4141 19.1889 22.2493 19.2087V20.9365H22.4447C23.0366 20.9365 23.6086 20.7536 23.6086 20.0678C23.6086 19.3874 23.1513 19.1889 22.5657 19.1889ZM22.6889 21.3812C22.5477 21.3812 22.421 21.3812 22.2493 21.3941V23.2186C22.4633 23.2606 22.6949 23.2744 22.9084 23.2744C23.4038 23.2744 23.9077 23.0534 23.9077 22.2964C23.9077 21.5494 23.3119 21.3812 22.6889 21.3812ZM26.9857 19.1889C26.8975 19.1889 26.8197 19.2033 26.7326 19.2156V20.9227C26.8134 20.9284 26.8867 20.9368 26.9665 20.9368C27.522 20.9368 27.9331 20.6302 27.9331 20.0261C27.9331 19.4087 27.5289 19.1889 26.9857 19.1889ZM29.4747 23.729C29.2855 23.729 29.0768 23.7359 28.8961 23.6825C28.5601 23.5834 28.0961 22.8261 27.9118 22.5291C27.625 22.0463 27.3758 21.3812 26.7329 21.374V23.2603C26.7329 23.4255 26.8077 23.6254 26.9668 23.6999H25.4844C25.6402 23.6185 25.7144 23.433 25.7144 23.2603V19.2087C25.7144 19.0373 25.6399 18.8499 25.4844 18.7637H27.2692C28.0457 18.7637 29.0174 19.0619 29.0174 19.9948C29.0174 20.7777 28.3697 21.1788 27.6475 21.1788C28.6751 21.1848 29.2786 23.5951 30.413 23.602C30.1089 23.6921 29.7918 23.729 29.4747 23.729ZM30.4875 23.6999C30.61 23.6438 30.7382 23.4819 30.7382 23.2603V19.2087C30.7382 18.9838 30.61 18.8247 30.4875 18.7637H32.0066C31.8763 18.8247 31.7574 18.9838 31.7574 19.2087V23.2603C31.7574 23.4819 31.8763 23.6438 32.0066 23.6999H30.4875ZM33.7839 23.6999C33.9466 23.6254 34.0262 23.433 34.0262 23.2603V19.3297H32.9353C32.6837 19.3297 32.3837 19.3607 32.1675 19.4889L32.5065 18.7634H36.1248C36.4179 18.7634 36.7176 18.7571 37.0022 18.6965C36.8644 19.0679 36.4542 19.3433 36.2179 19.3433C35.9305 19.3367 35.4552 19.3174 35.0456 19.3174V23.26C35.0456 23.4327 35.1312 23.6251 35.291 23.6996L33.7839 23.6999ZM37.183 23.6999C37.3043 23.6438 37.4316 23.4819 37.4316 23.2603V19.2087C37.4316 18.9838 37.3043 18.8247 37.183 18.7637H38.7021C38.5729 18.8247 38.4492 18.9838 38.4492 19.2087V23.2603C38.4492 23.4819 38.5729 23.6438 38.7021 23.6999H37.183ZM41.6597 22.5832C41.6597 21.643 39.4452 21.4307 39.4452 19.93C39.4452 19.0009 40.3289 18.6968 41.106 18.6968C41.4528 18.6968 41.9546 18.7448 42.2717 18.8907L42.3269 19.8135C42.1321 19.406 41.6441 19.1108 41.191 19.1108C40.8328 19.1108 40.4574 19.288 40.4574 19.6976C40.4574 20.6726 42.7095 20.9107 42.7095 22.3322C42.7095 23.3639 41.8081 23.7912 40.8982 23.7912C40.4223 23.7912 39.7749 23.6996 39.3735 23.4252C39.3491 23.26 39.338 23.0873 39.338 22.9183C39.338 22.7168 39.3557 22.5147 39.3855 22.3159C39.6359 22.8868 40.1542 23.3333 40.8016 23.3333C41.2934 23.3336 41.6597 23.1192 41.6597 22.5832ZM46.404 23.6999C46.5112 23.6516 46.6259 23.4819 46.6259 23.2603V21.4235C46.3617 21.3938 45.9927 21.3809 45.5786 21.3809C45.1582 21.3809 44.7862 21.3938 44.5153 21.4235V23.2603C44.5153 23.4819 44.627 23.6438 44.7357 23.6999H43.2731C43.3815 23.6516 43.4971 23.4819 43.4971 23.2603V19.2087C43.4971 18.9838 43.3815 18.8181 43.2731 18.7637H44.7357C44.627 18.8184 44.5153 18.9838 44.5153 19.2087V20.8683C44.7862 20.8969 45.1516 20.9107 45.5786 20.9107C45.9927 20.9107 46.3617 20.8927 46.6259 20.8683V19.2087C46.6259 18.9838 46.5115 18.8181 46.404 18.7637H47.8646C47.7553 18.8184 47.6469 18.9838 47.6469 19.2087V23.2603C47.6469 23.4819 47.7553 23.6438 47.8646 23.6999H46.404Z" fill="#2E5C99"/>
<path d="M24.6635 30.5961C24.7106 30.5477 24.7533 30.5117 24.7533 30.4243C24.7533 30.3949 24.7422 30.3457 24.7061 30.2538C24.7061 30.2538 24.3008 29.1506 24.2533 29.0221C23.9489 28.9845 23.6315 28.9845 23.3207 28.9845C23.0258 28.9845 22.7264 28.9914 22.4343 29.0221C22.3928 29.1326 21.9584 30.2298 21.9584 30.2298C21.8998 30.3781 21.8797 30.4288 21.8797 30.4613C21.8797 30.5345 21.9427 30.5703 21.9962 30.5961H21.0026C21.1491 30.5216 21.2761 30.3685 21.3389 30.2159L22.9718 26.0013C22.9793 25.9839 22.982 25.9644 22.982 25.9407C22.982 25.8245 22.9048 25.7143 22.8009 25.6596H24.0819L25.7427 30.2117C25.8105 30.3946 25.9553 30.5279 26.0769 30.5958L24.6635 30.5961ZM23.3738 26.5995L22.6253 28.5212C22.8484 28.5458 23.0799 28.5515 23.3057 28.5515C23.5645 28.5515 23.8203 28.5515 24.072 28.5212L23.3738 26.5995ZM26.3297 30.5961C26.4522 30.5399 26.5789 30.3781 26.5789 30.1565V26.1049C26.5789 25.88 26.4522 25.7209 26.3297 25.6599H27.8479C27.7188 25.7209 27.5984 25.88 27.5984 26.1049V30.1565C27.5984 30.3781 27.7185 30.5399 27.8479 30.5961H26.3297ZM30.1558 26.0851C30.0738 26.0851 29.9951 26.0995 29.9099 26.1118V27.8189C29.9891 27.8246 30.0615 27.833 30.1387 27.833C30.6954 27.833 31.1055 27.5264 31.1055 26.9223C31.1052 26.3049 30.6996 26.0851 30.1558 26.0851ZM32.7687 30.6252C32.5796 30.6252 32.3754 30.6321 32.1904 30.5787C31.8538 30.4796 31.3911 29.7223 31.2064 29.4253C30.9209 28.9425 30.5491 28.2702 29.9099 28.2702V30.1565C29.9099 30.3216 29.9813 30.5216 30.1387 30.5961H28.6574C28.8166 30.5147 28.8907 30.3291 28.8907 30.1565V26.1049C28.8907 25.9335 28.8166 25.7461 28.6574 25.6599H30.4461C31.2205 25.6599 32.1907 25.9581 32.1907 26.891C32.1907 27.6738 31.483 28.075 30.9473 28.075C32.0124 28.1363 32.6546 30.4982 33.7113 30.4982C33.405 30.5883 33.0879 30.6252 32.7687 30.6252ZM38.9273 26.1419L37.4272 30.5961C37.3034 30.5961 37.1821 30.5534 37.1134 30.5051C36.965 30.3622 36.7317 29.7655 36.6477 29.5454L35.9696 27.8327L34.9932 30.5961H34.5283L32.8495 26.1307C32.7775 25.9407 32.6543 25.7584 32.4712 25.6599H33.9302C33.8686 25.7077 33.8263 25.762 33.8263 25.8659C33.8263 25.9157 33.8509 25.9845 33.8686 26.0377L34.9619 28.9917L36.1261 25.6599L37.4082 28.8719L38.3793 25.9644C38.4033 25.8854 38.4175 25.8563 38.4175 25.8065C38.4175 25.7461 38.3913 25.7077 38.3304 25.6599H39.2967C39.118 25.7536 38.9889 25.9581 38.9273 26.1419ZM40.7205 26.5995L39.9723 28.5212C40.1981 28.5458 40.429 28.5515 40.6542 28.5515C40.9103 28.5515 41.1691 28.5515 41.4193 28.5212L40.7205 26.5995ZM42.0087 30.5961C42.0598 30.5477 42.0985 30.5117 42.0985 30.4243C42.0985 30.3949 42.0835 30.3457 42.0538 30.2538C42.0538 30.2538 41.6511 29.1506 41.6021 29.0221C41.295 28.9845 40.9782 28.9845 40.6674 28.9845C40.3752 28.9845 40.0756 28.9914 39.7819 29.0221C39.7396 29.1326 39.3081 30.2298 39.3081 30.2298C39.2459 30.3781 39.2288 30.4288 39.2288 30.4613C39.2288 30.5345 39.2891 30.5703 39.342 30.5961H38.3481C38.4949 30.5216 38.6216 30.3685 38.6832 30.2159L40.3218 26.0013C40.3266 25.9839 40.3311 25.9644 40.3311 25.9407C40.3311 25.8245 40.2536 25.7143 40.147 25.6596H41.4292L43.0894 30.2117C43.1582 30.3946 43.3047 30.5279 43.4254 30.5958L42.0087 30.5961ZM46.4693 26.1782L45.3 28.2284V30.1565C45.3 30.3132 45.3643 30.5216 45.5204 30.5961H44.0656C44.2142 30.5147 44.2827 30.3081 44.2827 30.1565V28.2221L43.2663 26.5938C43.1753 26.4415 42.7513 25.732 42.2345 25.732C42.375 25.6785 42.8023 25.5972 43.0891 25.5972C43.5674 25.5972 43.8043 25.641 44.0971 26.0995L45.0376 27.5901C45.1165 27.4438 45.8612 26.1491 45.8612 26.1491C45.951 25.9914 46.0125 25.88 46.0125 25.8248C46.0125 25.7539 45.9819 25.7077 45.9098 25.6599H46.9578C46.7524 25.7584 46.5813 25.9842 46.4693 26.1782ZM49.2062 29.4794C49.2062 28.5392 46.9914 28.3269 46.9914 26.8262C46.9914 25.8971 47.8727 25.593 48.6501 25.593C48.9981 25.593 49.4969 25.641 49.8155 25.7869L49.8707 26.7097C49.6738 26.3022 49.1879 26.007 48.7345 26.007C48.3757 26.007 48.0027 26.1842 48.0027 26.5938C48.0027 27.5687 50.2548 27.8069 50.2548 29.2283C50.2548 30.2601 49.3597 30.6874 48.4432 30.6874C47.9676 30.6874 47.3187 30.5958 46.9167 30.3213C46.8905 30.1562 46.8779 29.9835 46.8779 29.8145C46.8779 29.613 46.8971 29.4109 46.9278 29.2121C47.1779 29.783 47.698 30.2295 48.3454 30.2295C48.8393 30.2298 49.2062 30.0154 49.2062 29.4794Z" fill="#2E5C99"/>
<path d="M62.0278 15.3088C61.1979 16.1336 59.3998 16.8417 58.5152 17.1732C57.3066 17.6272 56.7703 17.7878 56.0941 18.0079C55.3287 18.2563 53.7976 18.7196 53.7976 18.7196C56.9694 19.6666 59.2046 19.9522 59.2046 19.9522C59.2046 19.9522 60.246 19.6303 61.8957 18.7481C62.789 18.2941 63.2286 17.9884 63.543 17.6962C63.6589 17.5915 63.9583 17.2798 64.0327 16.881C64.0375 16.8519 64.0519 16.7756 64.0519 16.7005C64.0519 16.7005 64.0519 16.6477 64.0471 16.6018C64.0453 16.5489 64.036 16.5135 64.036 16.5135C64.036 16.5135 64.0183 16.4189 63.9949 16.3525C63.9706 16.2862 63.8685 16.0814 63.703 15.9484C63.5925 15.8586 63.4016 15.6349 62.7097 15.3917C62.4746 15.31 62.0939 15.2346 62.0939 15.2346L62.0278 15.3088Z" fill="url(#paint0_linear_3952_12994)"/>
<path d="M64.0514 16.6795C64.0514 16.6795 64.0466 16.5912 64.025 16.5165C64.0082 16.4498 63.9785 16.3861 63.9337 16.3192C63.8797 16.2396 63.8067 16.1462 63.6989 16.0429C63.6175 15.9661 63.5284 15.8982 63.4209 15.8261C62.9882 15.5427 62.4297 15.3829 61.9354 15.3154C61.1694 15.2136 60.2908 15.2316 60.2077 15.2286C59.9251 15.2247 58.0994 15.2397 57.6301 15.2481C55.5459 15.291 52.9945 15.2968 52.3261 15.2968C45.4262 15.3283 42.4229 15.1796 39.0802 14.5094C36.2366 13.9446 34.659 13.408 34.659 13.408C37.1672 13.3213 51.8018 12.7141 54.4716 12.6432C56.2194 12.594 57.4605 12.5835 58.4535 12.6408C58.9627 12.6694 59.4366 12.7126 60.0317 12.8138C60.5653 12.9051 61.0499 13.06 61.3322 13.1648C61.9267 13.3849 62.4279 13.7032 62.6756 14.0293C62.6756 14.0293 62.7489 14.1044 62.8482 14.2377C62.9596 14.3926 63.0891 14.5833 63.1329 14.6545C63.4947 15.2028 63.6665 15.5472 63.7262 15.6673C63.7908 15.7934 63.8479 15.9243 63.9034 16.0525C63.9578 16.1799 63.98 16.257 63.9974 16.3108C64.0355 16.4456 64.0448 16.5684 64.0466 16.596L64.0514 16.6795Z" fill="#CE210F"/>
</g>
<defs>
<linearGradient id="paint0_linear_3952_12994" x1="60.9705" y1="14.3071" x2="57.2663" y2="20.7228" gradientUnits="userSpaceOnUse">
<stop stop-color="#E6EBEF"/>
<stop offset="0.0764" stop-color="#BBCEE5"/>
<stop offset="0.1854" stop-color="#85A9D8"/>
<stop offset="0.2796" stop-color="#5D8FCF"/>
<stop offset="0.3543" stop-color="#457EC9"/>
<stop offset="0.4" stop-color="#3C78C7"/>
<stop offset="0.9" stop-color="#2E5C99"/>
</linearGradient>
<clipPath id="clip0_3952_12994">
<rect y="0.5" width="83" height="42" rx="8" fill="white"/>
</clipPath>
</defs>
</svg>
