<svg width="83" height="43" viewBox="0 0 83 43" fill="none" xmlns="http://www.w3.org/2000/svg">
<g clip-path="url(#clip0_3952_13154)">
<path d="M84 -1H-1V44H84V-1Z" fill="white"/>
<path d="M19.9112 24.866C19.9112 24.866 13.9637 20.1957 19.0708 14.9417C19.2647 16.9525 20.6223 18.1849 22.9495 18.4444C20.1697 19.5471 18.4889 22.1417 19.9112 24.866Z" fill="#4A286F"/>
<path d="M20.1698 22.9201C20.1698 22.9201 19.9112 20.1309 23.6607 18.7687C25.3415 19.3525 25.2768 21.8174 24.8243 22.7255C22.4324 23.9579 20.1698 22.9201 20.1698 22.9201Z" fill="#7F549E"/>
<path d="M21.2041 16.6282C19.394 16.1741 19.5233 13.9038 21.9152 12.6714C24.3071 11.439 29.4142 11.3741 33.0344 17.1471C30.901 15.4606 28.5091 14.0984 25.8586 14.293C23.2081 14.4876 23.9192 17.3417 21.2041 16.6282Z" fill="#4A286F"/>
<path d="M26.1819 15.266C26.1819 15.266 29.2202 14.9417 31.6768 17.0174C33.8748 18.8984 33.099 22.5309 33.099 22.5309C33.099 22.5309 32.4526 17.4714 26.1819 15.266Z" fill="#60C3DB"/>
<path d="M26.9576 16.8876C26.9576 16.8876 30.5778 17.7957 31.9354 22.0768C33.099 25.5795 30.7718 28.3039 30.7718 28.3039C30.7718 28.3039 32.194 21.6876 26.9576 16.8876Z" fill="#FDC510"/>
<path d="M26.8283 18.639C26.8283 18.639 29.9314 20.7147 29.8021 25.1255C29.6728 28.693 26.6344 30.4444 26.6344 30.4444C26.6344 30.4444 30.19 24.8011 26.8283 18.639Z" fill="#EB5C2D"/>
<path d="M25.4707 19.2227C25.4707 19.2227 26.9576 20.5849 27.1516 24.2822C27.3455 28.1092 24.5657 30.8984 22.1091 30.1849C24.9536 28.6282 26.6344 23.3741 25.4707 19.2227Z" fill="#92C67C"/>
<path d="M25.5354 17.5363C25.9638 17.5363 26.3112 17.1878 26.3112 16.7579C26.3112 16.328 25.9638 15.9795 25.5354 15.9795C25.107 15.9795 24.7596 16.328 24.7596 16.7579C24.7596 17.1878 25.107 17.5363 25.5354 17.5363Z" fill="#111F32"/>
<path d="M40.1455 24.9308C39.693 25.3849 39.3051 25.6444 38.9172 25.6444C38.5293 25.6444 38.2707 25.6444 38.0768 25.5795C37.8829 25.5146 37.6243 25.3849 37.495 25.1903C37.301 24.9957 37.1718 24.7363 37.1071 24.4119C37.0425 24.0876 36.9778 23.5687 36.9778 22.9849C36.9778 22.1417 37.301 21.6227 38.0122 21.2984L39.8869 20.7146C39.8869 20.066 39.8223 19.6119 39.693 19.4173C39.5637 19.2227 39.3697 19.1579 38.9819 19.1579C38.594 19.1579 38.3354 19.2227 38.0768 19.3525L37.6889 19.5471C37.6243 19.6119 37.5596 19.5471 37.495 19.4173C37.3657 19.0281 37.2364 18.7038 37.2364 18.5092C37.2364 18.3146 37.2364 18.1849 37.301 18.12L37.3657 18.0552C37.8182 17.7308 38.4 17.5363 39.1111 17.5363C39.8223 17.5363 40.3394 17.666 40.7273 17.8606C41.1152 18.0552 41.3738 18.4444 41.5677 19.0281C41.7617 19.6119 41.8263 20.3903 41.8263 21.493V25.2552C41.8263 25.32 41.8263 25.3849 41.8263 25.3849C41.7617 25.4498 41.6324 25.5146 41.3091 25.5146C40.792 25.5146 40.4687 25.4498 40.4687 25.2552L40.1455 24.9308ZM38.4647 22.9849C38.4647 23.6984 38.6586 24.0876 39.0465 24.1525C39.3051 24.1525 39.499 24.0876 39.6283 24.0227C39.8869 23.8281 40.0162 23.1146 40.0162 21.8822C39.5637 21.9471 39.1758 22.0768 38.9172 22.3363C38.594 22.466 38.4647 22.7254 38.4647 22.9849Z" fill="#4A286F"/>
<path d="M44.3475 18.5092C45.0586 17.9255 45.5758 17.666 45.7697 17.666C46.0283 17.666 46.2223 17.7309 46.4162 17.7957C46.6101 17.9255 46.7394 17.9903 46.8041 18.1201L46.9334 18.2498C46.8041 18.8984 46.6748 19.2876 46.6101 19.4822C46.5455 19.6768 46.4162 19.7417 46.3516 19.7417C46.2223 19.7417 46.093 19.6768 45.899 19.5471C45.7051 19.4174 45.5758 19.3525 45.3819 19.3525C45.1879 19.3525 44.9293 19.4822 44.4768 19.8065V25.3849C44.4768 25.4498 44.4768 25.5146 44.4768 25.5146C44.4122 25.5795 44.2829 25.6444 43.9596 25.6444C43.7011 25.6444 43.3778 25.6444 43.1192 25.5795C42.8606 25.5146 42.7314 25.4498 42.7314 25.3849V17.8606C42.7314 17.666 42.9253 17.6011 43.3132 17.6011C43.7011 17.6011 43.9596 17.666 44.0243 17.8606L44.3475 18.5092Z" fill="#4A286F"/>
<path d="M50.4889 24.9308C50.0364 25.3849 49.6485 25.6444 49.2607 25.6444C48.8728 25.6444 48.6142 25.6444 48.4202 25.5795C48.2263 25.5146 47.9677 25.3849 47.8384 25.1903C47.6445 24.9957 47.5152 24.7363 47.4506 24.4119C47.3859 24.0876 47.3213 23.5687 47.3213 22.9849C47.3213 22.1417 47.6445 21.6227 48.3556 21.2984L50.2303 20.7146C50.2303 20.066 50.1657 19.6119 50.0364 19.4173C49.9071 19.2227 49.7132 19.1579 49.3253 19.1579C48.9374 19.1579 48.6788 19.2227 48.4202 19.3525L48.0324 19.5471C47.9677 19.6119 47.9031 19.5471 47.8384 19.4173C47.7091 19.0281 47.5798 18.7038 47.5798 18.5092C47.5798 18.3146 47.5798 18.1849 47.6445 18.12L47.7091 18.0552C48.1617 17.7308 48.7435 17.5363 49.4546 17.5363C50.1657 17.5363 50.6829 17.666 51.0708 17.8606C51.4586 18.0552 51.7172 18.4444 51.9112 19.0281C52.1051 19.6119 52.1697 20.3903 52.1697 21.493V25.2552C52.1697 25.32 52.1697 25.3849 52.1697 25.3849C52.1051 25.4498 51.9758 25.5146 51.6526 25.5146C51.1354 25.5146 50.8122 25.4498 50.8122 25.2552L50.4889 24.9308ZM48.7435 22.9849C48.7435 23.6984 48.9374 24.0876 49.3253 24.1525C49.5839 24.1525 49.7778 24.0876 49.9071 24.0227C50.1657 23.8281 50.295 23.1146 50.295 21.8822C49.8425 21.9471 49.4546 22.0768 49.196 22.3363C48.9374 22.466 48.7435 22.7254 48.7435 22.9849Z" fill="#4A286F"/>
<path d="M53.9152 15.9146C53.2687 15.9146 52.9455 15.5254 52.9455 14.8119C52.9455 14.0984 53.2687 13.7092 53.9152 13.7092C54.5617 13.7092 54.8849 14.0984 54.8849 14.8119C54.8849 15.5254 54.5617 15.9146 53.9152 15.9146ZM53.0748 17.8606C53.0748 17.666 53.2041 17.6011 53.5273 17.6011C53.8505 17.6011 54.1738 17.6011 54.4324 17.666C54.6909 17.7309 54.8202 17.7957 54.8202 17.8606V28.7579C54.8202 28.8227 54.8202 28.8876 54.8202 28.8876C54.7556 28.9525 54.6263 29.0173 54.3031 29.0173C53.9798 29.0173 53.7859 29.0173 53.592 28.9525C53.398 28.8876 53.2687 28.8227 53.2687 28.7579L53.0748 25.3849V17.8606Z" fill="#4A286F"/>
<path d="M58.3111 25.6444C57.3414 25.6444 56.695 25.3849 56.3718 24.7363C55.9839 24.1525 55.8546 23.1146 55.8546 21.5579C55.8546 20.4552 55.9192 19.6119 56.1132 19.093C56.3071 18.5092 56.5657 18.1201 56.8889 17.9255C57.2122 17.7309 57.7293 17.6011 58.3758 17.6011C59.0223 17.6011 59.5394 17.7309 59.8627 17.9255C60.1859 18.1201 60.4445 18.5092 60.6384 19.093C60.7677 19.6768 60.897 20.4552 60.897 21.5579V21.7525C60.897 21.8174 60.7677 21.8822 60.5738 21.9471C60.3798 22.0119 60.1212 22.0119 59.798 22.0119H57.7293C57.7293 23.1795 57.794 23.8282 57.9879 24.0228C58.0526 24.0876 58.1819 24.1525 58.3758 24.1525C59.5394 24.1525 60.3152 24.0876 60.7677 23.9579C60.7677 23.9579 60.7677 23.9579 60.8324 23.9579C60.897 23.9579 60.9617 23.9579 60.9617 24.0876C61.0263 24.2174 61.0263 24.4119 61.0263 24.8011C61.0263 25.1903 60.9617 25.3849 60.8324 25.4498C60.3798 25.5146 59.5394 25.6444 58.3111 25.6444ZM57.7293 19.6119V20.7795H59.0869C59.0223 19.6119 58.9576 19.0282 58.7637 19.0282C58.4404 19.0282 58.2465 19.093 58.0526 19.1579C57.794 19.2876 57.7293 19.4174 57.7293 19.6119Z" fill="#4A286F"/>
<path d="M62.5132 19.093H61.4788C61.3495 19.093 61.2849 19.093 61.2849 19.0282C61.2849 18.9633 61.2849 18.8984 61.2849 18.8336C61.2849 18.3795 61.3495 18.1849 61.4788 18.12L62.5132 17.8606L63.2243 16.1741C63.3536 16.0444 63.5475 15.9146 63.8061 15.9146C63.8707 15.9146 63.9354 16.1092 64.0647 16.4336C64.1293 16.8228 64.194 17.2768 64.3233 17.7957H65.6162C65.7455 17.7957 65.8101 17.9903 65.8101 18.3795C65.8101 18.7687 65.7455 18.9633 65.6162 18.9633H64.3233V23.7633L64.5172 25.4498C64.5172 25.5146 64.5172 25.5795 64.5172 25.5795C64.4526 25.6444 64.2586 25.7092 63.8707 25.7092C63.4829 25.7092 63.2243 25.6444 63.1596 25.4498L62.5132 24.0227V19.093Z" fill="#4A286F"/>
</g>
<defs>
<clipPath id="clip0_3952_13154">
<rect width="83" height="43" rx="8" fill="white"/>
</clipPath>
</defs>
</svg>
