<svg width="84" height="43" viewBox="0 0 84 43" fill="none" xmlns="http://www.w3.org/2000/svg">
<g clip-path="url(#clip0_3952_12654)">
<path d="M84.5956 -0.0999756H-0.404419V42.9H84.5956V-0.0999756Z" fill="#671E75"/>
<path d="M64.0883 13.1582H59.7363L56.4083 19.3776L53.0803 13.1582H48.6003L54.2323 23.4034V29.055H58.3795V23.4034L64.0883 13.1582Z" fill="white"/>
<path d="M37.2339 13.1582H32.4467L38.2579 21.1066L32.4467 29.055H37.2339L43.0451 21.1066L37.2339 13.1582Z" fill="#00E200"/>
<path d="M47.1923 13.1582H43.0451V29.0808H47.1923V13.1582Z" fill="white"/>
<path d="M31.5763 24.3582C31.5763 21.9324 30.2707 20.384 27.3779 19.4808L24.9715 18.7582C24.1523 18.5001 23.6659 18.2163 23.6659 17.4937C23.6659 16.6937 24.5619 16.3582 25.7651 16.3582C27.5827 16.3582 29.1443 16.9518 30.5523 17.9324V14.0872C29.2467 13.3647 27.7107 12.9001 25.5859 12.9001C22.2579 12.9001 19.5955 14.6292 19.5955 17.8034C19.5955 20.4356 21.0547 21.7776 23.7171 22.5518L26.1235 23.2485C26.9683 23.5582 27.4547 23.8163 27.4547 24.5905C27.4547 25.5711 26.3283 25.855 24.9971 25.855C23.2051 25.855 21.2851 25.1324 19.9027 24.2034V28.0485C21.0547 28.7453 22.9747 29.3389 25.0995 29.3389C28.6579 29.313 31.5763 27.7905 31.5763 24.3582Z" fill="white"/>
</g>
<defs>
<clipPath id="clip0_3952_12654">
<rect x="0.595581" y="0.900024" width="83" height="42" rx="8" fill="white"/>
</clipPath>
</defs>
</svg>
