<svg width="83" height="43" viewBox="0 0 83 43" fill="none" xmlns="http://www.w3.org/2000/svg">
<g clip-path="url(#clip0_3952_12692)">
<path d="M83 0.5H0V42.5H83V0.5Z" fill="#2B2E71"/>
<g clip-path="url(#clip1_3952_12692)">
<path d="M75.5 -1.5H8V43.5H75.5V-1.5Z" fill="#2B2E71"/>
<path d="M44.225 24.5549H45.935V18.8849L48.95 18.6599V17.1749H41.165V18.6599L44.18 18.8849V24.5549H44.225ZM31.76 24.5549L32.48 22.8449H28.295V17.1749H26.495V24.5549H31.76ZM38.465 21.6749H36.125L37.295 18.7049L38.465 21.6749ZM54.08 21.6749H51.74L52.91 18.7049L54.08 21.6749ZM61.955 22.7549C62 23.0249 62.27 23.2049 62.585 23.2049H64.385L65.735 18.8399L66.995 24.5549H68.66L67.265 17.9849C67.13 17.3099 66.815 17.1299 66.32 17.1299H64.565L63.305 21.4499L62.315 17.7599C62.18 17.3099 61.955 17.0849 61.55 17.0849H59.57L57.95 24.4649H59.66L60.92 18.7499L62 22.6649L61.955 22.7549ZM55.25 24.5549H57.14L54.17 17.6249C54.035 17.2649 53.855 17.1749 53.495 17.1749H51.875L48.725 24.5549H50.615L51.155 23.2049H54.665L55.205 24.5549H55.25ZM39.59 24.5549H41.48L38.51 17.6249C38.375 17.2649 38.195 17.1749 37.835 17.1749H36.215L33.065 24.5549H34.955L35.495 23.2049H39.005L39.545 24.5549H39.59Z" fill="white"/>
<path d="M15.425 17.13L17.81 18.165C18.44 17.895 19.115 17.625 19.7 17.355C17.945 16.59 15.83 15.69 15.11 15.375C14.93 15.285 14.795 15.24 14.795 15.42V16.23C14.795 16.68 15.02 16.95 15.38 17.085M14.84 19.155C14.84 19.335 14.93 19.38 15.11 19.335C15.2 19.335 15.335 19.245 15.47 19.155C15.47 19.155 15.56 19.155 15.605 19.11C15.875 18.975 16.235 18.84 16.595 18.66C15.965 18.39 15.38 18.12 15.065 17.985C14.93 17.94 14.84 17.985 14.84 18.165V19.11V19.155ZM20.915 19.47C21.545 19.2 21.995 19.02 22.085 18.975C22.535 18.795 22.625 18.57 22.4 18.48C22.4 18.48 22.4 18.48 22.355 18.48C22.31 18.48 21.995 18.345 21.545 18.12C21.05 18.345 20.375 18.615 19.655 18.93L20.87 19.47H20.915ZM20.915 16.815L17.27 15.285C16.91 15.105 16.685 14.88 16.685 14.43V13.62C16.685 13.395 16.82 13.485 17 13.575C18.215 14.115 22.085 15.735 22.4 15.87C22.4 15.87 22.49 15.87 22.49 15.915C22.58 16.005 22.49 16.185 22.085 16.365C21.995 16.365 21.545 16.59 20.915 16.86" fill="#ED3850"/>
<path d="M22.4001 15.87C22.6251 15.96 22.5351 16.14 22.0851 16.32C21.8601 16.41 17.2701 18.39 15.6051 19.11C15.6051 19.11 15.5151 19.11 15.4701 19.155C15.2901 19.245 15.2001 19.29 15.1101 19.335C14.9301 19.38 14.8401 19.335 14.8401 19.155C14.8401 19.29 14.8401 19.515 15.0201 19.605L16.5051 20.235C16.5051 20.235 16.5951 20.235 16.7301 20.235C16.8651 20.19 22.3551 17.85 22.3551 17.85C22.6251 17.715 22.6251 17.445 22.6251 16.68C22.6251 15.915 22.6251 15.915 22.4451 15.87M19.7001 23.295C19.7001 22.935 19.7001 22.665 19.4751 22.755L16.6851 23.97V25.59L19.4301 24.42C19.7001 24.285 19.7001 24.06 19.7001 23.745V23.295ZM17.9901 26.67C17.9901 26.31 17.9901 26.04 17.7651 26.13L16.6851 26.625V28.245L17.7201 27.795C17.9901 27.66 17.9901 27.435 17.9901 27.12V26.67ZM22.3551 20.505L16.6851 22.935V21.315C16.6851 21.315 21.8151 19.11 22.1301 18.975C22.5801 18.795 22.6701 18.57 22.4451 18.48C22.6701 18.57 22.6251 18.615 22.6251 19.29C22.6251 19.965 22.6251 20.325 22.3551 20.46" fill="white"/>
</g>
</g>
<defs>
<clipPath id="clip0_3952_12692">
<rect y="0.5" width="83" height="42" rx="8" fill="white"/>
</clipPath>
<clipPath id="clip1_3952_12692">
<rect width="67.5" height="45" fill="white" transform="translate(8 -1.5)"/>
</clipPath>
</defs>
</svg>
