<svg width="83" height="42" viewBox="0 0 83 42" fill="none" xmlns="http://www.w3.org/2000/svg">
<g clip-path="url(#clip0_3952_12835)">
<path d="M86 0H0V45H86V0Z" fill="white"/>
<path d="M17.6577 17.3105H18.0879V16.8731H18.5163V16.4361H18.0879V16H17.6577V16.4361H17.2284V16.8731H17.6577V17.3105ZM20.4507 17.202C20.0345 17.202 19.6984 17.5448 19.6984 17.9675C19.6984 18.3903 20.0341 18.7312 20.4507 18.7312C20.8673 18.7312 21.2021 18.3898 21.2021 17.9675C21.2021 17.5452 20.8659 17.202 20.4507 17.202ZM15.2962 19.8244H20.4507V18.95H15.2962V19.8244ZM16.0472 17.9671C16.0472 17.5448 15.7106 17.2016 15.2962 17.2016C14.8818 17.2016 14.5444 17.5443 14.5444 17.9671C14.5444 18.3898 14.8801 18.7308 15.2962 18.7308C15.7123 18.7308 16.0472 18.3894 16.0472 17.9671ZM17.9798 17.9671C17.9798 18.3894 18.3168 18.7308 18.733 18.7308C19.1491 18.7308 19.4835 18.3894 19.4835 17.9671C19.4835 17.5448 19.1478 17.2016 18.733 17.2016C18.3181 17.2016 17.9798 17.5443 17.9798 17.9671ZM17.0139 18.7312C17.4283 18.7312 17.7658 18.3898 17.7658 17.9675C17.7658 17.5452 17.4283 17.202 17.0139 17.202C16.5995 17.202 16.2629 17.5448 16.2629 17.9675C16.2629 18.3903 16.5974 18.7312 17.0139 18.7312ZM22.5995 20.6992L21.9544 22.6667L21.3098 20.6992H19.1618V24.1964H20.4507V21.5741L21.3098 24.1964H22.5995L23.4581 21.5741V24.1964H24.7465V20.6992H22.5995ZM16.585 20.6992H15.2962V24.1964H18.7325V23.3149H16.5846V20.6992H16.585ZM14.866 20.6992H13.5785L12.2883 22.011V20.6992H10.9999V24.1964H12.2883V22.8863L13.5785 24.1964H15.2962L13.3627 22.2289L14.866 20.6992Z" fill="#00A1DE"/>
<path d="M29.4936 22.2979C29.6127 22.2979 29.7151 22.2784 29.8016 22.2388C29.8882 22.1997 29.9554 22.1397 30.0038 22.0597C30.0521 21.9792 30.0763 21.8805 30.0763 21.7636C30.0763 21.6467 30.0521 21.5516 30.0038 21.4733C29.9554 21.3955 29.8878 21.3377 29.8016 21.3C29.7151 21.2622 29.6122 21.2435 29.4936 21.2435H28.8011V22.2979H29.4936ZM28.1705 24.1903V20.7189H29.5982C29.8328 20.7189 30.0332 20.7594 30.1989 20.8408C30.3645 20.9217 30.4902 21.0355 30.5759 21.1813C30.6616 21.3275 30.7042 21.4991 30.7042 21.6965C30.7042 21.841 30.6792 21.9699 30.6291 22.0828C30.579 22.1957 30.5069 22.2908 30.4124 22.3668C30.318 22.4429 30.205 22.5011 30.0732 22.5416V22.5487C30.154 22.5713 30.2244 22.6105 30.2837 22.6665C30.343 22.7225 30.3953 22.7963 30.4397 22.887C30.4841 22.9776 30.5267 23.095 30.568 23.2395L30.8488 24.1903H30.2037L29.9493 23.3355C29.9097 23.2021 29.868 23.0999 29.8245 23.0283C29.781 22.9572 29.7212 22.9039 29.6461 22.8696C29.5709 22.8354 29.4694 22.8181 29.3424 22.8181H28.7997V24.1903H28.1692H28.1705Z" fill="#00A1DE"/>
<path d="M32.2636 23.7449C32.3967 23.7449 32.5141 23.7112 32.6156 23.644C32.7171 23.5765 32.7962 23.4773 32.8524 23.3453C32.9087 23.2137 32.9368 23.0555 32.9368 22.871C32.9368 22.6865 32.9091 22.5234 32.8533 22.3918C32.7979 22.2602 32.7193 22.1602 32.6178 22.0921C32.5163 22.0241 32.398 21.9899 32.2631 21.9899C32.1282 21.9899 32.0078 22.0241 31.9063 22.0921C31.8048 22.1602 31.7266 22.2606 31.6721 22.3931C31.6172 22.5256 31.5899 22.6847 31.5899 22.871C31.5899 23.0572 31.6176 23.2133 31.6734 23.344C31.7288 23.4747 31.8075 23.5742 31.909 23.6427C32.0105 23.7107 32.1287 23.7449 32.2636 23.7449ZM32.2636 24.2482C32.0144 24.2482 31.793 24.1917 31.5983 24.0783C31.4041 23.9654 31.2525 23.8045 31.1439 23.5956C31.0354 23.3871 30.9809 23.1453 30.9809 22.871C30.9809 22.5967 31.0345 22.35 31.1417 22.1415C31.2489 21.933 31.4001 21.7712 31.5952 21.6565C31.7903 21.5418 32.014 21.4845 32.2662 21.4845C32.5184 21.4845 32.7434 21.5414 32.9359 21.6556C33.1288 21.7694 33.2782 21.9308 33.3846 22.1397C33.4909 22.3482 33.5441 22.5923 33.5441 22.8714C33.5441 23.1506 33.4896 23.3893 33.381 23.5974C33.2725 23.8054 33.1213 23.9659 32.9276 24.0788C32.7338 24.1921 32.5127 24.2486 32.2636 24.2486V24.2482Z" fill="#00A1DE"/>
<path d="M33.8175 25.1268V24.6334H34.0389C34.1659 24.6334 34.2644 24.6107 34.3338 24.5658C34.4037 24.5209 34.459 24.4471 34.5003 24.3444L34.5596 24.1999L33.5648 21.542H34.1813L34.6836 23.0517C34.731 23.1993 34.782 23.3629 34.836 23.5429H34.8505C34.9011 23.3633 34.9494 23.1993 34.9956 23.0517L35.4904 21.542H36.1069L35.0219 24.496C34.9424 24.7111 34.8246 24.8698 34.6686 24.9725C34.5122 25.0752 34.3026 25.1268 34.0394 25.1268H33.8179H33.8175Z" fill="#00A1DE"/>
<path d="M37.1724 23.7688C37.3042 23.7688 37.4189 23.7382 37.5178 23.6773C37.6162 23.6164 37.6909 23.5328 37.7428 23.427C37.7946 23.3212 37.8201 23.2029 37.8201 23.0731V22.9696L37.2537 23.0251C37.0841 23.0429 36.9545 23.0829 36.8657 23.1456C36.7769 23.2083 36.7326 23.2963 36.7326 23.4105C36.7326 23.4861 36.7501 23.5501 36.7862 23.603C36.8218 23.6559 36.8727 23.6968 36.9395 23.7257C37.0059 23.7546 37.0837 23.7688 37.1724 23.7688ZM36.9945 24.236C36.8292 24.236 36.6842 24.2058 36.559 24.1458C36.4333 24.0858 36.3358 23.9964 36.265 23.8786C36.1943 23.7604 36.1591 23.6173 36.1591 23.4488C36.1591 23.2803 36.1982 23.134 36.2769 23.0202C36.3555 22.9064 36.4733 22.8171 36.6302 22.7531C36.7875 22.6891 36.9879 22.6446 37.2322 22.6206L37.8201 22.565V22.4254C37.8201 22.3419 37.7995 22.2676 37.7582 22.2027C37.7169 22.1378 37.6584 22.0867 37.5833 22.0498C37.5077 22.0129 37.4181 21.9942 37.3135 21.9942C37.2168 21.9942 37.1276 22.0116 37.0459 22.0458C36.9641 22.0805 36.8907 22.1272 36.8257 22.1867C36.7607 22.2463 36.7009 22.3174 36.6473 22.401L36.2426 22.0738C36.3107 21.9502 36.3968 21.8449 36.501 21.7573C36.6047 21.6697 36.726 21.6026 36.8639 21.555C37.0019 21.5079 37.1535 21.4839 37.3187 21.4839C37.5389 21.4839 37.7309 21.5235 37.8944 21.6031C38.0579 21.6826 38.1831 21.7933 38.2705 21.9351C38.358 22.0774 38.4015 22.2405 38.4015 22.425V24.1898H37.821V23.8H37.8135C37.7485 23.9284 37.6452 24.0333 37.5042 24.1142C37.3631 24.1952 37.1926 24.236 36.9945 24.236Z" fill="#00A1DE"/>
<path d="M39.4624 24.1903H38.8604V20.7189H39.4624V24.1903Z" fill="#00A1DE"/>
<path d="M42.2367 23.6729C42.4617 23.6729 42.6555 23.624 42.8177 23.5262C42.9794 23.4284 43.1033 23.2884 43.1885 23.1061C43.2742 22.9239 43.3173 22.7087 43.3173 22.4598C43.3173 22.2108 43.2742 21.9925 43.1885 21.8098C43.1029 21.6267 42.9789 21.4862 42.8159 21.3875C42.6533 21.2888 42.4595 21.2395 42.2341 21.2395H41.7318V23.6733H42.2363L42.2367 23.6729ZM41.1158 24.1903V20.7189H42.2389C42.6023 20.7189 42.9121 20.791 43.1683 20.9345C43.4245 21.0781 43.6187 21.2804 43.7501 21.5413C43.882 21.8023 43.9479 22.1081 43.9479 22.4598C43.9479 22.8114 43.882 23.1128 43.7501 23.3733C43.6183 23.6342 43.4245 23.8356 43.1683 23.9774C42.9121 24.1197 42.6023 24.1903 42.2389 24.1903H41.1158Z" fill="#00A1DE"/>
<path d="M46.6464 21.542V24.1901H46.044V23.8363H46.0347C45.957 23.9661 45.8506 24.0675 45.7157 24.1395C45.5808 24.2115 45.4226 24.2479 45.2398 24.2479C45.057 24.2479 44.8869 24.2088 44.7485 24.1301C44.6097 24.0515 44.5025 23.9332 44.4273 23.775C44.3522 23.6171 44.3144 23.4215 44.3144 23.1886V21.542H44.9164V23.1139C44.9164 23.3064 44.9617 23.4562 45.0531 23.5629C45.1445 23.6696 45.2732 23.7229 45.4397 23.7229C45.5637 23.7229 45.6709 23.6945 45.7623 23.6376C45.8537 23.5807 45.9231 23.5029 45.9715 23.4042C46.0198 23.3055 46.044 23.1935 46.044 23.0686V21.5425H46.6464V21.542Z" fill="#00A1DE"/>
<path d="M48.1313 24.2288C47.9375 24.2288 47.7828 24.1955 47.6672 24.1288C47.5512 24.0621 47.4695 23.9714 47.4207 23.8567C47.3724 23.7421 47.3482 23.6051 47.3482 23.4464V22.0381H46.9268V21.542H47.3482V20.8752H47.9476V21.542H48.5043V22.0381H47.9476V23.4153C47.9476 23.5131 47.9761 23.5874 48.0319 23.638C48.0882 23.6887 48.1752 23.7136 48.2925 23.7136C48.3545 23.7136 48.4235 23.7074 48.4995 23.6945V24.171C48.3725 24.2097 48.2499 24.2288 48.1308 24.2288H48.1313Z" fill="#00A1DE"/>
<path d="M50.0473 24.2481C49.795 24.2481 49.5687 24.1921 49.3679 24.0809C49.1671 23.9694 49.0102 23.8098 48.8968 23.6017C48.7835 23.3941 48.7268 23.1505 48.7268 22.8709C48.7268 22.5913 48.7839 22.345 48.8982 22.1356C49.0124 21.9263 49.1689 21.7649 49.3684 21.6515C49.5674 21.5386 49.7915 21.4817 50.0407 21.4817C50.2103 21.4817 50.368 21.5119 50.5144 21.572C50.6603 21.632 50.7868 21.716 50.894 21.8236C51.0013 21.9311 51.0839 22.0565 51.1428 22.1992L50.6884 22.4641C50.6458 22.3695 50.5944 22.2881 50.535 22.2197C50.4757 22.1516 50.4063 22.0983 50.3272 22.0596C50.2476 22.0209 50.1598 22.0018 50.0626 22.0018C49.9185 22.0018 49.7906 22.0369 49.6795 22.1076C49.5687 22.1783 49.4826 22.2788 49.4211 22.4099C49.36 22.5406 49.3297 22.6918 49.3297 22.8638C49.3297 23.0358 49.3604 23.1865 49.4211 23.3163C49.4822 23.4461 49.5692 23.5475 49.6817 23.6195C49.7942 23.6915 49.9229 23.728 50.067 23.728C50.1624 23.728 50.2494 23.7093 50.3276 23.6724C50.4063 23.6355 50.4757 23.5839 50.5363 23.5173C50.5965 23.4506 50.6488 23.3714 50.6932 23.2799L51.1428 23.547C51.0887 23.6786 51.0118 23.7969 50.9121 23.9022C50.8123 24.0071 50.6888 24.0912 50.5421 24.1538C50.3957 24.2165 50.2309 24.2476 50.0481 24.2476L50.0473 24.2481Z" fill="#00A1DE"/>
<path d="M51.4842 24.1903V20.7189H52.0863V21.9152H52.0959C52.1737 21.7787 52.28 21.6729 52.4149 21.5974C52.5498 21.5218 52.7085 21.484 52.8908 21.484C53.0732 21.484 53.2433 21.5231 53.3821 21.6018C53.521 21.6805 53.6282 21.7987 53.7033 21.957C53.7785 22.1152 53.8163 22.3104 53.8163 22.5433V24.1899H53.2143V22.618C53.2143 22.4255 53.169 22.2757 53.0776 22.169C52.9862 22.0623 52.8574 22.009 52.6909 22.009C52.567 22.009 52.4598 22.0374 52.3684 22.0943C52.277 22.1512 52.2071 22.229 52.1592 22.3282C52.1104 22.4269 52.0867 22.5389 52.0867 22.6638V24.1899H51.4847L51.4842 24.1903Z" fill="#00A1DE"/>
<path d="M56.2892 22.8905H57.3197L56.9387 21.7325C56.8943 21.5991 56.8521 21.4573 56.8126 21.3062H56.7981C56.7568 21.4569 56.7146 21.5991 56.672 21.7325L56.2888 22.8905H56.2892ZM55.1968 24.1903L56.4176 20.7189H57.1931L58.4139 24.1903H57.7402L57.4739 23.3813H56.1363L55.8696 24.1903H55.1964H55.1968Z" fill="#00A1DE"/>
<path d="M58.7127 24.1902V21.5421H59.3147V24.1902H58.7127ZM59.0124 21.2145C58.946 21.2145 58.8854 21.199 58.8318 21.1674C58.7777 21.1358 58.7351 21.0936 58.7044 21.0398C58.6736 20.986 58.6582 20.9247 58.6582 20.8558C58.6582 20.7869 58.6736 20.7273 58.7044 20.6726C58.7351 20.6179 58.7777 20.5753 58.8318 20.5437C58.8858 20.5126 58.946 20.4966 59.0124 20.4966C59.0788 20.4966 59.1412 20.5121 59.1948 20.5437C59.2479 20.5753 59.2901 20.6179 59.3209 20.6726C59.3521 20.7273 59.3675 20.7882 59.3675 20.8558C59.3675 20.9233 59.3521 20.986 59.3209 21.0398C59.2901 21.0936 59.2479 21.1363 59.1948 21.1674C59.1416 21.1985 59.0809 21.2145 59.0124 21.2145Z" fill="#00A1DE"/>
<path d="M59.8597 24.1903V21.5422H60.4617V22.0139H60.4665C60.5395 21.8565 60.6388 21.736 60.764 21.6516C60.8893 21.5675 61.0382 21.5253 61.2114 21.5253C61.2795 21.5253 61.3287 21.5284 61.3586 21.5351V22.1032C61.3397 22.0983 61.3164 22.0948 61.2896 22.0925C61.2628 22.0899 61.2364 22.089 61.2114 22.089C61.062 22.089 60.9306 22.1206 60.8176 22.1841C60.7038 22.2477 60.6164 22.3375 60.5544 22.454C60.4925 22.5704 60.4617 22.7065 60.4617 22.862V24.1908H59.8597V24.1903Z" fill="#00A1DE"/>
<path d="M62.4059 24.1991H61.8039V20.7277H62.4059V24.1991Z" fill="#00A1DE"/>
<path d="M62.9684 24.199V21.5509H63.5704V24.199H62.9684ZM63.2685 21.2233C63.2022 21.2233 63.1415 21.2077 63.0879 21.1762C63.0339 21.1446 62.9912 21.1024 62.9605 21.0486C62.9297 20.9948 62.9143 20.9334 62.9143 20.8645C62.9143 20.7956 62.9297 20.7361 62.9605 20.6814C62.9912 20.6267 63.0339 20.584 63.0879 20.5525C63.142 20.5214 63.2022 20.5054 63.2685 20.5054C63.3349 20.5054 63.3973 20.5209 63.4509 20.5525C63.5041 20.584 63.5462 20.6267 63.577 20.6814C63.6082 20.7361 63.6236 20.797 63.6236 20.8645C63.6236 20.9321 63.6082 20.9948 63.577 21.0486C63.5462 21.1024 63.5041 21.145 63.4509 21.1762C63.3977 21.2073 63.3371 21.2233 63.2685 21.2233Z" fill="#00A1DE"/>
<path d="M64.1334 24.1991V21.551H64.7354V21.9049H64.745C64.8228 21.7751 64.9292 21.6737 65.0641 21.6017C65.199 21.5297 65.3576 21.4932 65.54 21.4932C65.7223 21.4932 65.8924 21.5324 66.0312 21.611C66.1701 21.6897 66.2773 21.808 66.3525 21.9662C66.4276 22.1245 66.4654 22.3196 66.4654 22.5526V24.1991H65.8634V22.6273C65.8634 22.4348 65.8177 22.285 65.7263 22.1783C65.6349 22.0716 65.5061 22.0182 65.3396 22.0182C65.2157 22.0182 65.1084 22.0467 65.017 22.1036C64.9256 22.1605 64.8558 22.2383 64.8079 22.337C64.7591 22.4357 64.7354 22.5477 64.7354 22.6726V24.1987H64.1334V24.1991Z" fill="#00A1DE"/>
<path d="M68.7914 22.5983C68.7835 22.4636 68.7562 22.3471 68.7092 22.2493C68.6622 22.1515 68.5954 22.0764 68.508 22.0244C68.4205 21.9723 68.3151 21.9461 68.1916 21.9461C68.0681 21.9461 67.9701 21.9692 67.8796 22.0159C67.7891 22.0626 67.7148 22.1342 67.6568 22.2315C67.5988 22.3284 67.5606 22.4511 67.5412 22.5987H68.7905L68.7914 22.5983ZM68.2395 24.2568C67.9745 24.2568 67.7451 24.2013 67.5518 24.0906C67.358 23.9799 67.2095 23.8207 67.1053 23.6127C67.0016 23.4051 66.9498 23.1606 66.9498 22.8796C66.9498 22.5987 66.9998 22.3564 67.0996 22.1479C67.1993 21.9395 67.3435 21.7781 67.5316 21.6638C67.7196 21.55 67.9411 21.4927 68.1964 21.4927C68.4517 21.4927 68.6543 21.5469 68.8318 21.6549C69.0093 21.7634 69.1451 21.9159 69.2387 22.1124C69.3323 22.3089 69.3789 22.5374 69.3789 22.7974C69.3789 22.8312 69.3776 22.8685 69.3741 22.9094C69.371 22.9503 69.367 22.9939 69.3622 23.0406H67.539C67.5597 23.1948 67.6019 23.3237 67.6651 23.4282C67.7284 23.5327 67.8132 23.6105 67.9187 23.6616C68.0241 23.7132 68.1489 23.7385 68.2935 23.7385C68.3963 23.7385 68.4899 23.7238 68.573 23.6954C68.6565 23.6665 68.7294 23.6274 68.7931 23.5776C68.8564 23.5278 68.9144 23.4669 68.9667 23.3944L69.3306 23.7314C69.2638 23.8403 69.1781 23.9341 69.0722 24.0119C68.9667 24.0897 68.8432 24.1497 68.7022 24.1924C68.5611 24.235 68.4064 24.2564 68.2381 24.2564L68.2395 24.2568Z" fill="#00A1DE"/>
<path d="M70.8086 24.2569C70.5643 24.2569 70.3507 24.2063 70.1675 24.1053C69.9843 24.0044 69.8419 23.8591 69.7404 23.6697L70.1446 23.3447C70.229 23.4825 70.3248 23.5879 70.4325 23.6599C70.5401 23.7319 70.6601 23.7684 70.7919 23.7684C70.9347 23.7684 71.0446 23.7422 71.1219 23.6901C71.1988 23.6381 71.2375 23.5652 71.2375 23.4723C71.2375 23.4048 71.2212 23.3505 71.1887 23.3087C71.1562 23.2669 71.1013 23.2309 71.0244 23.2003C70.9475 23.1696 70.8359 23.1363 70.69 23.0994C70.4808 23.0496 70.3143 22.9922 70.1912 22.9273C70.0682 22.8624 69.9785 22.7815 69.9214 22.6842C69.8643 22.5872 69.8357 22.4646 69.8357 22.317C69.8357 22.1498 69.8779 22.0045 69.9627 21.88C70.048 21.7555 70.1662 21.6599 70.3187 21.5933C70.4711 21.5266 70.646 21.4932 70.8447 21.4932C71.0015 21.4932 71.1448 21.515 71.274 21.5581C71.4032 21.6017 71.5143 21.6639 71.6071 21.7457C71.6998 21.8275 71.7732 21.9249 71.8272 22.0369L71.4251 22.3548C71.3619 22.2374 71.2801 22.1463 71.1808 22.0805C71.0819 22.0147 70.9743 21.9818 70.8587 21.9818C70.7713 21.9818 70.6966 21.9929 70.6337 22.0156C70.5713 22.0382 70.523 22.0698 70.4887 22.1107C70.4544 22.1516 70.4373 22.2009 70.4373 22.2587C70.4373 22.3214 70.4518 22.3721 70.4813 22.4103C70.5103 22.449 70.5612 22.4823 70.6333 22.5112C70.7058 22.5401 70.8117 22.5708 70.951 22.6028C71.1782 22.6557 71.3557 22.7144 71.4845 22.7784C71.6128 22.8424 71.7064 22.9247 71.7653 23.0238C71.8241 23.1234 71.8536 23.2501 71.8536 23.4043C71.8536 23.5746 71.8136 23.7235 71.7332 23.852C71.6532 23.9804 71.5346 24.08 71.3777 24.1502C71.2204 24.2209 71.031 24.256 70.8091 24.256L70.8086 24.2569Z" fill="#00A1DE"/>
</g>
<defs>
<clipPath id="clip0_3952_12835">
<rect width="83" height="42" rx="8" fill="white"/>
</clipPath>
</defs>
</svg>
