<svg width="83" height="42" viewBox="0 0 83 42" fill="none" xmlns="http://www.w3.org/2000/svg">
<g clip-path="url(#clip0_3952_12701)">
<path d="M92 0H0V49H92V0Z" fill="#FF9C0A"/>
<path d="M71.3931 18.7971C69.8167 18.7971 69.0549 19.405 68.9914 20.5462H70.5467C70.5679 20.2476 70.7372 20.0237 71.3931 20.0237C71.9751 20.0237 72.2502 20.2156 72.2502 20.5036C72.2502 20.7596 72.0915 20.8556 71.7 20.8982L70.6843 21.0048C69.3089 21.1542 68.6845 21.7302 68.6845 22.7754C68.6845 23.746 69.2771 24.4926 70.5361 24.4926C71.3931 24.4926 71.9011 24.2152 72.3454 23.6606V24.3326H73.8055V20.8022C73.8055 19.3198 72.9485 18.7971 71.3931 18.7971ZM72.282 22.2422C72.282 22.8287 71.7317 23.266 70.8853 23.266C70.4727 23.266 70.2292 23.074 70.2292 22.7114C70.2292 22.4341 70.3986 22.1994 70.9381 22.1248L71.8588 21.9968C72.0174 21.9755 72.1867 21.9435 72.282 21.9115V22.2422ZM68.2826 22.69C68.2826 23.8207 67.489 24.4926 65.8067 24.4926C63.9763 24.4926 63.3309 23.7567 63.2992 22.6794H64.8756C64.918 23.074 65.193 23.266 65.8067 23.266C66.4309 23.266 66.6849 23.1167 66.6849 22.8181C66.6849 22.5408 66.4733 22.4128 65.9231 22.3381L65.3623 22.2634C64.1879 22.1035 63.5107 21.6448 63.5107 20.5782C63.5107 19.5543 64.262 18.797 65.8385 18.797C67.2985 18.797 68.0815 19.3837 68.1555 20.5462H66.6002C66.5473 20.237 66.378 20.045 65.8385 20.045C65.3094 20.045 65.1084 20.2263 65.1084 20.461C65.1084 20.6955 65.2354 20.8236 65.6903 20.8876L66.2511 20.9622C67.6054 21.1435 68.2826 21.5702 68.2826 22.69ZM62.8809 21.1861V24.3326H61.2831V21.2608C61.2831 20.5462 60.9763 20.2263 60.3097 20.2263C59.7066 20.2263 59.3469 20.5462 59.3469 21.2608V24.3326H57.7493V18.957H59.2517V19.5757C59.4739 19.1597 59.9288 18.797 60.7858 18.797C62.1719 18.797 62.8809 19.4156 62.8809 21.1861ZM54.6792 18.7971C53.1027 18.7971 52.3409 19.405 52.2774 20.5462H53.8328C53.8539 20.2476 54.0232 20.0236 54.6792 20.0236C55.2611 20.0236 55.5362 20.2156 55.5362 20.5035C55.5362 20.7596 55.3775 20.8556 54.9861 20.8982L53.9704 21.0048C52.5949 21.1541 51.9706 21.7301 51.9706 22.7754C51.9706 23.746 52.5631 24.4926 53.8222 24.4926C54.6792 24.4926 55.1871 24.2152 55.6315 23.6606V24.3326H57.0916V20.8022C57.0916 19.3197 56.2346 18.7971 54.6792 18.7971ZM55.568 22.2421C55.568 22.8287 55.0177 23.266 54.1714 23.266C53.7587 23.266 53.5153 23.074 53.5153 22.7114C53.5153 22.4341 53.6846 22.1994 54.2242 22.1248L55.1448 21.9968C55.3035 21.9754 55.4727 21.9435 55.568 21.9115V22.2421ZM51.4945 21.1861V24.3326H49.8968V21.2608C49.8968 20.5462 49.59 20.2263 48.9234 20.2263C48.3203 20.2263 47.9606 20.5462 47.9606 21.2608V24.3326H46.363V16.8772H47.9712V19.4796C48.2463 19.085 48.6801 18.797 49.4313 18.797C50.7856 18.797 51.4945 19.4156 51.4945 21.1861ZM44.6773 18.957H45.8941V20.2689H44.6773V22.3594C44.6773 22.9354 44.9736 23.0847 45.4391 23.0847C45.6295 23.0847 45.8941 23.0527 45.8941 23.0527V24.3433C45.8941 24.3433 45.5238 24.4286 45.1323 24.4286C43.8521 24.4286 43.0797 23.8419 43.0797 22.5408V20.2689H42.2755V18.957H43.0797V17.3892H44.6773V18.957ZM41.1858 16.7598C41.5985 16.7598 41.863 16.8238 41.863 16.8238V18.1251C41.863 18.1251 41.6408 18.1038 41.4503 18.1038C40.953 18.1038 40.6885 18.2744 40.6885 18.7437V18.957H41.863V20.2689H40.6885V24.3326H39.0909V20.2689H38.2868V18.957H39.0909V18.7544C39.0909 17.4532 39.9056 16.7598 41.1858 16.7598ZM36.2659 18.957H37.8635V24.3326H36.3611V23.714C36.1389 24.13 35.684 24.4926 34.8481 24.4926C33.4832 24.4926 32.7743 23.8739 32.7743 22.1034V18.957H34.372V22.0287C34.372 22.7434 34.6789 23.0633 35.3242 23.0633C35.9062 23.0633 36.2659 22.7434 36.2659 22.0287V18.957ZM29.2298 22.8287H32.4146V24.3326H27.5158V16.8665H29.2298V22.8287ZM16.6098 19.2221C17.5319 19.2221 18.3874 19.3005 19.1873 19.4572L18.9207 19.7148C18.2096 19.5803 17.4766 19.5132 16.6656 19.5132H16.4543L16.3323 19.7483H16.5209C17.2988 19.7483 18.0654 19.8157 18.6985 19.9275L18.443 20.1739C17.8763 20.0731 17.2543 20.0284 16.421 20.0284H16.1878L16.0432 20.2747C16.2433 20.2635 16.3989 20.2635 16.5209 20.2635C17.1099 20.2635 17.754 20.3084 18.2209 20.3868L17.9654 20.6331C17.5209 20.566 17.132 20.5436 16.5433 20.5436C16.3212 20.5436 15.9879 20.5548 15.8323 20.566L15.6324 20.8124C15.9101 20.7899 16.1766 20.7787 16.4767 20.7787C16.8432 20.7787 17.2764 20.8015 17.7321 20.8571L17.4653 21.1147C17.1544 21.081 16.8211 21.0587 16.5877 21.0587C15.71 21.0587 15.0768 21.2043 14.5657 21.5178C15.1768 22.1785 16.2321 22.5706 17.4099 22.5706H17.5209L17.0542 23.0185C15.2766 22.6602 13.9993 22.1002 12.566 21.0699C11.4661 20.2747 11.033 20.0059 9.98879 19.5244L9.97766 19.1996L10.7554 19.5244L11.0886 19.2668L13.2661 20.2635L13.0327 20.4427L11.9551 19.9724L11.8107 20.1068L12.2773 20.3756C12.7772 20.6444 13.1661 20.7787 13.477 20.7899C14.277 20.8015 14.9881 20.2411 15.4323 19.278C15.8101 19.2444 16.2101 19.2221 16.6098 19.2221ZM14.5548 15C11.4884 15 8.9999 17.4974 8.9999 20.5995C8.9999 23.6904 11.4884 26.199 14.5548 26.199C17.6321 26.199 20.1095 23.6904 20.1095 20.5995C20.1095 17.4974 17.6321 15 14.5548 15ZM14.5548 25.7959C11.7218 25.7959 9.39997 23.4553 9.39997 20.5995C9.39997 17.7325 11.7218 15.4031 14.5548 15.4031C17.3988 15.4031 19.7095 17.7325 19.7095 20.5995C19.7095 23.4553 17.3988 25.7959 14.5548 25.7959Z" fill="white"/>
<path d="M82.9999 37.406H-0.00010252V42.5951H82.9999V37.406Z" fill="black"/>
<path d="M24.178 40.4199C24.178 40.6572 24.2472 40.8315 24.3851 40.9709C24.5686 41.1573 24.895 41.2511 25.3029 41.2511C25.5328 41.2511 26.3171 41.1993 26.3171 40.5433C26.3171 39.9661 25.7944 39.9123 25.3326 39.8654C24.8574 39.8166 24.5053 39.7638 24.5053 39.4383C24.5053 39.2768 24.5874 39.1601 24.7575 39.0804C24.932 38.9996 25.1214 38.9877 25.3172 38.9877C25.4675 38.9877 25.7444 39.0105 25.9002 39.1681C25.9719 39.2398 26.008 39.3565 26.008 39.4713L26.2488 39.473C26.2488 39.2986 26.1934 39.1202 26.0832 39.0095C25.8819 38.8074 25.5452 38.7654 25.2975 38.7654C24.9568 38.7654 24.621 38.8381 24.4153 39.0465C24.307 39.1549 24.2526 39.2867 24.2526 39.4383C24.2526 40.0031 24.8238 40.0498 25.2727 40.0896C25.4843 40.1096 25.6846 40.1266 25.8335 40.1934C25.9907 40.2632 26.0644 40.377 26.0644 40.5542C26.0644 40.6661 26.0268 40.7607 25.9541 40.8344C25.7796 41.0098 25.4186 41.0288 25.2876 41.0288C24.9642 41.0288 24.7036 40.9581 24.5657 40.8184C24.4652 40.7189 24.4153 40.5941 24.4144 40.4188L24.178 40.4199ZM26.6993 38.8093V39.0444C26.6993 39.0444 27.5285 39.0444 27.6204 39.0444C27.6204 39.1441 27.6204 41.2062 27.6204 41.2062H27.8657C27.8657 41.2062 27.8657 39.1441 27.8657 39.0444C27.9587 39.0444 28.7859 39.0444 28.7859 39.0444V38.8093H26.6993ZM29.9464 38.8093L28.8536 41.2062H29.1226C29.1226 41.2062 29.4351 40.5224 29.4593 40.4665C29.5222 40.4665 30.5961 40.4665 30.6574 40.4665C30.6826 40.5224 30.9917 41.2062 30.9917 41.2062H31.2666L30.1724 38.8093H29.9464ZM30.0581 39.141C30.1333 39.3056 30.5002 40.1157 30.5556 40.234C30.4255 40.234 29.6932 40.234 29.5637 40.234C29.6176 40.1157 29.983 39.3056 30.0581 39.141ZM31.9525 38.8093V41.2062H32.2002C32.2002 41.2062 32.2002 40.2593 32.2002 40.1636C32.2941 40.1636 33.1634 40.1636 33.1634 40.1636C33.5866 40.1636 33.6865 40.2493 33.6974 40.622C33.7058 41.0118 33.7231 41.1394 33.7755 41.1903L33.7903 41.2062H34.046L34.0054 41.1296C33.9674 41.0547 33.953 40.9063 33.9496 40.5184C33.9456 40.2811 33.8171 40.1088 33.6124 40.0329C33.8789 39.9123 33.9886 39.669 33.9886 39.4691C33.9886 39.0245 33.7197 38.8093 33.1674 38.8093H31.9525ZM33.1782 39.0444C33.554 39.0444 33.737 39.181 33.737 39.4611C33.737 39.7767 33.5416 39.9302 33.1436 39.9302C33.1436 39.9302 32.2941 39.9302 32.2002 39.9302C32.2002 39.8405 32.2002 39.1342 32.2002 39.0444C32.2941 39.0444 33.1782 39.0444 33.1782 39.0444ZM36.8106 38.8093L35.7163 41.2062H35.9907C35.9907 41.2062 36.2983 40.5224 36.3245 40.4665C36.3863 40.4665 37.4603 40.4665 37.5216 40.4665C37.5473 40.5224 37.8598 41.2062 37.8598 41.2062H38.1298L37.041 38.8093H36.8106ZM36.9252 39.141C37.0004 39.3056 37.3653 40.1157 37.4192 40.234C37.2902 40.234 36.5574 40.234 36.4273 40.234C36.4822 40.1157 36.8511 39.3056 36.9252 39.141ZM45.4647 38.8093L44.3719 41.2062H44.6448C44.6448 41.2062 44.9529 40.5224 44.9791 40.4665C45.0404 40.4665 46.1149 40.4665 46.1762 40.4665C46.2014 40.5224 46.5144 41.2062 46.5144 41.2062H46.7844L45.6951 38.8093H45.4647ZM45.5804 39.141C45.6545 39.3056 46.02 40.1157 46.0733 40.234C45.9448 40.234 45.212 40.234 45.0814 40.234C45.1373 40.1157 45.5052 39.3056 45.5804 39.141ZM38.8972 38.8093V41.2062H40.61V40.9721C40.61 40.9721 39.2414 40.9721 39.1444 40.9721C39.1444 40.8714 39.1444 38.8093 39.1444 38.8093H38.8972ZM41.1401 38.8093V41.2062H42.8509V40.9721C42.8509 40.9721 41.4847 40.9721 41.3878 40.9721C41.3878 40.8714 41.3878 38.8093 41.3878 38.8093H41.1401ZM43.3642 38.8093V41.2062H43.6085V38.8093H43.3642ZM49.4243 38.8093C49.4243 38.8093 49.4243 40.5592 49.4243 40.8095C49.2711 40.622 47.7021 38.8093 47.7021 38.8093H47.4549V41.2062H47.6996C47.6996 41.2062 47.6996 39.4453 47.6996 39.2072C47.8514 39.3934 49.4189 41.2062 49.4189 41.2062H49.6676V38.8093H49.4243ZM53.7054 38.8093V41.2062H55.6234V40.9721C55.6234 40.9721 54.0496 40.9721 53.9516 40.9721C53.9516 40.8822 53.9516 40.1704 53.9516 40.0819C54.0496 40.0819 55.5389 40.0819 55.5389 40.0819V39.8516C55.5389 39.8516 54.0496 39.8516 53.9516 39.8516C53.9516 39.7638 53.9516 39.1323 53.9516 39.0444C54.0496 39.0444 55.6042 39.0444 55.6042 39.0444V38.8093H53.7054ZM50.4385 40.0109C50.4385 40.7679 50.9611 41.2571 51.7285 41.2571C52.4435 41.2571 52.8747 40.7705 52.9316 40.2891L52.939 40.2302H52.6804L52.674 40.2754C52.5919 40.7368 52.2294 41.0231 51.7285 41.0231C50.9898 41.0231 50.6936 40.4994 50.6936 40.0099C50.6936 39.4124 51.1218 38.9936 51.7375 38.9936C52.2057 38.9936 52.5424 39.2178 52.6384 39.5967L52.6482 39.6351H52.9054L52.8915 39.5718C52.7748 39.0555 52.354 38.7585 51.7375 38.7585C50.8642 38.7585 50.4385 39.4083 50.4385 40.0109Z" fill="white"/>
<path d="M58.1744 39.1062C58.2941 38.9376 58.4276 38.7761 58.5735 38.6226C58.7208 38.4682 58.8786 38.3285 59.0413 38.2009L58.8667 38.9047L58.1744 39.1062Z" fill="#D0D2D3"/>
<path d="M59.3854 39.4113C59.1802 39.3892 58.9755 39.3534 58.7693 39.3016C58.5626 39.2507 58.3643 39.1837 58.1744 39.1062L58.8667 38.9047L59.3854 39.4113Z" fill="#595A5B"/>
<path d="M59.0411 38.2009C59.1257 38.3892 59.1974 38.5878 59.2547 38.7922C59.3146 38.9975 59.3571 39.2048 59.3852 39.4113L58.8666 38.9047L59.0411 38.2009Z" fill="#929496"/>
<path d="M57.9291 40.554C57.807 40.3874 57.6952 40.2102 57.5963 40.0208C57.4969 39.8325 57.4119 39.6399 57.3427 39.443L57.9538 39.8293L57.9291 40.554Z" fill="#929496"/>
<path d="M58.5901 39.4879C58.5075 39.6767 58.4106 39.8632 58.2979 40.0436C58.1862 40.2251 58.0625 40.3965 57.929 40.554L57.9537 39.8293L58.5901 39.4879Z" fill="#595A5B"/>
<path d="M57.3427 39.4429C57.5459 39.4211 57.756 39.4131 57.9676 39.4201C58.1788 39.429 58.3874 39.4509 58.5902 39.4879L57.9538 39.8292L57.3427 39.4429Z" fill="#D0D2D3"/>
<path d="M59.2207 41.2378C59.0259 41.3017 58.8231 41.3535 58.6145 41.3916C58.4058 41.4283 58.1976 41.4504 57.9905 41.4562L58.5433 40.9897L59.2207 41.2378Z" fill="#595A5B"/>
<path d="M58.4185 40.2728C58.5718 40.4115 58.7162 40.5619 58.8536 40.7256C58.9901 40.8888 59.1113 41.0604 59.2206 41.2377L58.5432 40.9896L58.4185 40.2728Z" fill="#929496"/>
<path d="M57.9905 41.4562C58.0335 41.253 58.0894 41.0505 58.1616 40.8501C58.2347 40.6477 58.3202 40.4563 58.4187 40.2728L58.5433 40.9896L57.9905 41.4562Z" fill="#D0D2D3"/>
<path d="M60.264 40.2101C60.265 40.4174 60.2521 40.6277 60.2224 40.8382C60.1912 41.0505 60.1483 41.2568 60.0899 41.4562L59.8199 40.7832L60.264 40.2101Z" fill="#929496"/>
<path d="M59.1069 40.6805C59.2844 40.5769 59.4718 40.4842 59.6676 40.4054C59.8654 40.3247 60.0627 40.2598 60.2639 40.2101L59.8199 40.7832L59.1069 40.6805Z" fill="#D0D2D3"/>
<path d="M60.0899 41.4563C59.9119 41.3536 59.7374 41.2361 59.5712 41.1053C59.4041 40.9739 59.2478 40.8313 59.1069 40.6806L59.8199 40.7833L60.0899 41.4563Z" fill="#595A5B"/>
<path d="M59.6173 38.893C59.8131 38.9556 60.0069 39.0343 60.1967 39.128C60.3871 39.2217 60.5671 39.3275 60.7397 39.444L60.0197 39.4949L59.6173 38.893Z" fill="#929496"/>
<path d="M59.7039 40.1475C59.6609 39.9449 59.6312 39.7366 59.6159 39.5248C59.601 39.3106 59.601 39.1001 59.6174 38.893L60.0199 39.4949L59.7039 40.1475Z" fill="#D0D2D3"/>
<path d="M60.7396 39.4439C60.5873 39.5834 60.4236 39.7147 60.2471 39.8333C60.0706 39.9521 59.8896 40.0575 59.7037 40.1474L60.0197 39.4947L60.7396 39.4439Z" fill="#595A5B"/>
</g>
<defs>
<clipPath id="clip0_3952_12701">
<rect width="83" height="42" rx="8" fill="white"/>
</clipPath>
</defs>
</svg>
