<svg width="84" height="43" viewBox="0 0 84 43" fill="none" xmlns="http://www.w3.org/2000/svg">
<g clip-path="url(#clip0_3955_5046)">
<rect x="0.595581" y="0.900024" width="83" height="42" rx="8" fill="white"/>
<g clip-path="url(#clip1_3955_5046)">
<path d="M91.4344 6.89996H-6.4043V37.2267H91.4344V6.89996Z" fill="white"/>
<path d="M56.0985 26.0287H54.0325V18.0717H56.0985V26.0287ZM51.2072 18.0717L49.8777 23.4047L48.3216 18.0717H46.3243L44.7695 23.4047L43.4363 18.0717H41.4174L43.6135 26.0287H45.747L47.3211 20.5721L48.8977 26.0287H51.0288L53.2322 18.0717H51.2072ZM41.2438 23.779C41.2438 22.2536 40.435 21.7425 38.6644 21.1652C37.8302 20.8934 37.0528 20.6836 37.0528 20.0358C37.0528 19.4668 37.6302 19.2782 38.0629 19.2782C38.4293 19.2782 39.1188 19.3554 39.1742 20.1997H41.1281C41.0943 18.5882 39.7841 17.8867 38.0978 17.8867C37.0528 17.8867 36.1886 18.1826 35.6438 18.7183C35.2653 19.0926 35.0339 19.6404 35.0339 20.2112C35.0339 21.6937 36.0235 22.2868 37.142 22.6266C38.398 23.0099 39.2285 23.2396 39.2285 23.9308C39.2285 24.3925 38.862 24.853 38.14 24.853C37.2204 24.853 36.8865 24.3051 36.8648 23.7657H34.888C34.888 25.599 36.4333 26.2704 38.14 26.2704C40.3181 26.2704 41.2438 25.0301 41.2438 23.779ZM63.4077 23.779C63.4077 22.024 62.1313 21.5605 60.5872 21.0995C59.8435 20.8807 59.1757 20.6836 59.1757 20.0358C59.1757 19.4668 59.7531 19.2782 60.187 19.2782C60.5547 19.2782 61.2405 19.3554 61.296 20.1997H63.251C63.2185 18.5882 61.9083 17.8867 60.2196 17.8867C59.1757 17.8867 58.3091 18.1826 57.7679 18.7183C57.3894 19.0926 57.1568 19.6404 57.1568 20.2112C57.1568 21.6937 58.1439 22.2868 59.2661 22.6266C60.5209 23.0099 61.3538 23.2396 61.3538 23.9308C61.3538 24.3925 60.9886 24.853 60.2653 24.853C59.3433 24.853 59.0094 24.3051 58.9901 23.7657H57.0122C57.0122 25.599 58.5574 26.2704 60.2653 26.2704C62.441 26.2704 63.4077 25.0301 63.4077 23.779ZM70.5162 23.779C70.5162 22.024 69.2338 21.5605 67.6915 21.0995C66.9466 20.8807 66.2824 20.6836 66.2824 20.0358C66.2824 19.4668 66.8574 19.2782 67.2902 19.2782C67.6566 19.2782 68.3448 19.3554 68.4014 20.1997H70.362C70.327 18.5882 69.0114 17.8867 67.3263 17.8867C66.2824 17.8867 65.4158 18.1826 64.8698 18.7183C64.4937 19.0926 64.2611 19.6404 64.2611 20.2112C64.2611 21.6937 65.2495 22.2868 66.3693 22.6266C67.6252 23.0099 68.4569 23.2396 68.4569 23.9308C68.4569 24.3925 68.0917 24.853 67.3697 24.853C66.4488 24.853 66.1149 24.3051 66.0932 23.7657H64.1152C64.1152 25.599 65.6581 26.2704 67.3697 26.2704C69.5496 26.2704 70.5162 25.0301 70.5162 23.779Z" fill="#CC0000"/>
<path d="M20.6849 28.2803H7.07772L17.0507 15.8466H23.7494L20.6849 28.2803Z" fill="#CC0000"/>
<path d="M18.6032 20.9162V18.2391H16.3081V20.9162H13.6311V23.2105H16.307V25.8882H18.6007V23.2105H18.6032H21.2802V20.9162H18.6032Z" fill="white"/>
<path d="M91.4292 37.2281H-6.40947V43.296H91.4292V37.2281Z" fill="black"/>
<path d="M22.0913 40.7521C22.0913 41.0296 22.1729 41.2334 22.3354 41.3965C22.5517 41.6145 22.9364 41.7241 23.4172 41.7241C23.6883 41.7241 24.6127 41.6635 24.6127 40.8964C24.6127 40.2215 23.9966 40.1586 23.4522 40.1037C22.8921 40.0467 22.4771 39.9849 22.4771 39.6043C22.4771 39.4155 22.5739 39.279 22.7744 39.1858C22.9801 39.0913 23.2033 39.0774 23.4342 39.0774C23.6113 39.0774 23.9377 39.1041 24.1213 39.2883C24.2059 39.3722 24.2484 39.5086 24.2484 39.6429L24.5323 39.6449C24.5323 39.441 24.467 39.2323 24.337 39.1029C24.0998 38.8666 23.7029 38.8175 23.4108 38.8175C23.0093 38.8175 22.6135 38.9024 22.371 39.1462C22.2433 39.273 22.1792 39.427 22.1792 39.6043C22.1792 40.2648 22.8525 40.3194 23.3817 40.3659C23.6311 40.3893 23.8673 40.4091 24.0427 40.4873C24.228 40.5688 24.3149 40.702 24.3149 40.9092C24.3149 41.0401 24.2706 41.1507 24.1849 41.2368C23.9792 41.442 23.5537 41.4641 23.3992 41.4641C23.018 41.4641 22.7109 41.3815 22.5482 41.2182C22.4299 41.1017 22.371 40.9558 22.3699 40.7508L22.0913 40.7521ZM25.0633 38.8688V39.1437C25.0633 39.1437 26.0408 39.1437 26.1491 39.1437C26.1491 39.2603 26.1491 41.6716 26.1491 41.6716H26.4383C26.4383 41.6716 26.4383 39.2603 26.4383 39.1437C26.5478 39.1437 27.523 39.1437 27.523 39.1437V38.8688H25.0633ZM28.8909 38.8688L27.6028 41.6716H27.9199C27.9199 41.6716 28.2883 40.872 28.3168 40.8066C28.3909 40.8066 29.6568 40.8066 29.7291 40.8066C29.7588 40.872 30.1231 41.6716 30.1231 41.6716H30.4472L29.1573 38.8688H28.8909ZM29.0226 39.2567C29.1113 39.4492 29.5437 40.3965 29.609 40.5348C29.4557 40.5348 28.5925 40.5348 28.4398 40.5348C28.5033 40.3965 28.9341 39.4492 29.0226 39.2567ZM31.2556 38.8688V41.6716H31.5476C31.5476 41.6716 31.5476 40.5643 31.5476 40.4524C31.6584 40.4524 32.6831 40.4524 32.6831 40.4524C33.182 40.4524 33.2997 40.5527 33.3125 40.9885C33.3224 41.4443 33.3428 41.5935 33.4046 41.653L33.4221 41.6716H33.7235L33.6756 41.582C33.6308 41.4944 33.6139 41.3209 33.6098 40.8673C33.6052 40.5898 33.4536 40.3883 33.2123 40.2995C33.5264 40.1586 33.6558 39.8741 33.6558 39.6403C33.6558 39.1204 33.3388 38.8688 32.6877 38.8688H31.2556ZM32.7006 39.1437C33.1435 39.1437 33.3592 39.3035 33.3592 39.631C33.3592 40 33.1289 40.1795 32.6597 40.1795C32.6597 40.1795 31.6584 40.1795 31.5476 40.1795C31.5476 40.0746 31.5476 39.2487 31.5476 39.1437C31.6584 39.1437 32.7006 39.1437 32.7006 39.1437ZM36.9823 38.8688L35.6924 41.6716H36.0158C36.0158 41.6716 36.3784 40.872 36.4093 40.8066C36.4822 40.8066 37.7481 40.8066 37.8204 40.8066C37.8507 40.872 38.2191 41.6716 38.2191 41.6716H38.5374L37.2539 38.8688H36.9823ZM37.1174 39.2567C37.2061 39.4492 37.6362 40.3965 37.6997 40.5348C37.5477 40.5348 36.6838 40.5348 36.5305 40.5348C36.5952 40.3965 37.0301 39.4492 37.1174 39.2567ZM47.1835 38.8688L45.8954 41.6716H46.2171C46.2171 41.6716 46.5803 40.872 46.6112 40.8066C46.6835 40.8066 47.95 40.8066 48.0223 40.8066C48.052 40.872 48.421 41.6716 48.421 41.6716H48.7392L47.4552 38.8688H47.1835ZM47.3199 39.2567C47.4074 39.4492 47.8381 40.3965 47.901 40.5348C47.7495 40.5348 46.8857 40.5348 46.7318 40.5348C46.7977 40.3965 47.2314 39.4492 47.3199 39.2567ZM39.442 38.8688V41.6716H41.461V41.3978C41.461 41.3978 39.8476 41.3978 39.7334 41.3978C39.7334 41.2801 39.7334 38.8688 39.7334 38.8688H39.442ZM42.0858 38.8688V41.6716H44.1025V41.3978C44.1025 41.3978 42.492 41.3978 42.3778 41.3978C42.3778 41.2801 42.3778 38.8688 42.3778 38.8688H42.0858ZM44.7075 38.8688V41.6716H44.9955V38.8688H44.7075ZM51.8511 38.8688C51.8511 38.8688 51.8511 40.9151 51.8511 41.2077C51.6705 40.9885 49.821 38.8688 49.821 38.8688H49.5295V41.6716H49.8181C49.8181 41.6716 49.8181 39.6125 49.8181 39.334C49.997 39.5518 51.8447 41.6716 51.8447 41.6716H52.1379V38.8688H51.8511ZM56.8976 38.8688V41.6716H59.1585V41.3978C59.1585 41.3978 57.3033 41.3978 57.1878 41.3978C57.1878 41.2928 57.1878 40.4604 57.1878 40.3568C57.3033 40.3568 59.0588 40.3568 59.0588 40.3568V40.0875C59.0588 40.0875 57.3033 40.0875 57.1878 40.0875C57.1878 39.9849 57.1878 39.2465 57.1878 39.1437C57.3033 39.1437 59.1358 39.1437 59.1358 39.1437V38.8688H56.8976ZM53.0466 40.2739C53.0466 41.159 53.6627 41.7311 54.5673 41.7311C55.4101 41.7311 55.9183 41.1621 55.9854 40.5992L55.9941 40.5304H55.6893L55.6817 40.5831C55.585 41.1227 55.1577 41.4574 54.5673 41.4574C53.6965 41.4574 53.3473 40.8451 53.3473 40.2727C53.3473 39.574 53.8521 39.0843 54.5778 39.0843C55.1298 39.0843 55.5267 39.3464 55.6398 39.7895L55.6514 39.8344H55.9545L55.9382 39.7604C55.8006 39.1567 55.3046 38.8093 54.5778 38.8093C53.5484 38.8093 53.0466 39.5692 53.0466 40.2739Z" fill="white"/>
<path d="M62.1655 39.2164C62.3066 39.0192 62.4639 38.8304 62.6359 38.6508C62.8096 38.4703 62.9956 38.3069 63.1873 38.1577L62.9815 38.9808L62.1655 39.2164Z" fill="#D0D2D3"/>
<path d="M63.5929 39.5728C63.3511 39.547 63.1098 39.5052 62.8667 39.4445C62.6231 39.3851 62.3893 39.3067 62.1655 39.216L62.9815 38.9805L63.5929 39.5728Z" fill="#595A5B"/>
<path d="M63.1872 38.1577C63.2869 38.3779 63.3714 38.6102 63.4389 38.8492C63.5095 39.0893 63.5596 39.3316 63.5928 39.5731L62.9814 38.9808L63.1872 38.1577Z" fill="#929496"/>
<path d="M61.8764 40.9092C61.7324 40.7144 61.6007 40.5072 61.4841 40.2857C61.367 40.0655 61.2667 39.8403 61.1851 39.61L61.9055 40.0617L61.8764 40.9092Z" fill="#929496"/>
<path d="M62.6556 39.6624C62.5583 39.8831 62.444 40.1011 62.3112 40.3121C62.1794 40.5244 62.0337 40.7247 61.8764 40.9089L61.9055 40.0615L62.6556 39.6624Z" fill="#595A5B"/>
<path d="M61.1851 39.6101C61.4246 39.5846 61.6724 39.5753 61.9218 39.5835C62.1707 39.5939 62.4167 39.6194 62.6556 39.6627L61.9055 40.0618L61.1851 39.6101Z" fill="#D0D2D3"/>
<path d="M63.399 41.7087C63.1693 41.7834 62.9303 41.8441 62.6844 41.8885C62.4384 41.9315 62.193 41.9573 61.9488 41.9642L62.6005 41.4186L63.399 41.7087Z" fill="#595A5B"/>
<path d="M62.4535 40.5803C62.6342 40.7425 62.8044 40.9184 62.9664 41.1097C63.1273 41.3006 63.27 41.5013 63.3989 41.7086L62.6004 41.4185L62.4535 40.5803Z" fill="#929496"/>
<path d="M61.9488 41.9641C61.9995 41.7265 62.0654 41.4897 62.1505 41.2553C62.2367 41.0187 62.3376 40.7948 62.4536 40.5803L62.6005 41.4185L61.9488 41.9641Z" fill="#D0D2D3"/>
<path d="M64.6285 40.5072C64.6297 40.7495 64.6146 40.9955 64.5796 41.2416C64.5428 41.4899 64.4922 41.7311 64.4233 41.9642L64.1051 41.1773L64.6285 40.5072Z" fill="#929496"/>
<path d="M63.2648 41.0573C63.4741 40.936 63.695 40.8277 63.9258 40.7356C64.159 40.6411 64.3915 40.5652 64.6288 40.5072L64.1053 41.1773L63.2648 41.0573Z" fill="#D0D2D3"/>
<path d="M64.4236 41.9642C64.2138 41.8441 64.008 41.7067 63.8121 41.5538C63.6152 41.4001 63.431 41.2334 63.2648 41.0572L64.1053 41.1773L64.4236 41.9642Z" fill="#595A5B"/>
<path d="M63.8663 38.9668C64.0971 39.04 64.3256 39.1321 64.5494 39.2416C64.7738 39.3512 64.986 39.4749 65.1894 39.6112L64.3408 39.6706L63.8663 38.9668Z" fill="#929496"/>
<path d="M63.9682 40.4337C63.9175 40.1968 63.8825 39.9533 63.8644 39.7056C63.8469 39.4551 63.8469 39.209 63.8662 38.9668L64.3406 39.6706L63.9682 40.4337Z" fill="#D0D2D3"/>
<path d="M65.1895 39.6111C65.01 39.7741 64.817 39.9277 64.6089 40.0664C64.4009 40.2053 64.1875 40.3286 63.9684 40.4337L64.3408 39.6705L65.1895 39.6111Z" fill="#595A5B"/>
</g>
</g>
<defs>
<clipPath id="clip0_3955_5046">
<rect x="0.595581" y="0.900024" width="83" height="42" rx="8" fill="white"/>
</clipPath>
<clipPath id="clip1_3955_5046">
<rect width="97.8387" height="36.396" fill="white" transform="translate(-6.40442 6.90002)"/>
</clipPath>
</defs>
</svg>
