<?xml version="1.0" encoding="UTF-8"?>
<svg id="Capa_1" xmlns="http://www.w3.org/2000/svg" xmlns:xlink="http://www.w3.org/1999/xlink" version="1.1" viewBox="0 0 83 43">
  <!-- Generator: Adobe Illustrator 30.2.1, SVG Export Plug-In . SVG Version: 2.1.1 Build 1)  -->
  <defs>
    <style>
      .st0 {
        fill: none;
      }

      .st1 {
        fill: #6d6d65;
        fill-rule: evenodd;
      }

      .st2 {
        fill: #9c1010;
      }

      .st3 {
        fill: #fff;
      }

      .st4 {
        clip-path: url(#clippath);
      }
    </style>
    <clipPath id="clippath">
      <rect class="st0" y=".5" width="83" height="42" rx="8" ry="8"/>
    </clipPath>
  </defs>
  <g class="st4">
    <path class="st3" d="M83,.5H0v42h83V.5Z"/>
  </g>
  <g>
    <path id="path14" class="st2" d="M70.46,21.14c.65.61,1.6,1.54,2.74,1.52.73,0,1.49-.37,1.49-1.06.01-.86-1.42-1.48-2.83-2.19-1.42-.71-2.97-2.1-2.96-3.62.02-2.56,2.05-3.94,4.37-3.94,1.53,0,3.6.77,4.23,2.29l-1.96,2c-.68-.71-1.53-1.22-2.29-1.27-.67-.04-1.21.36-1.22.84-.02.8,2.08,1.48,2.89,1.93,2.66,1.5,2.86,2.84,2.88,3.86,0,2.56-2.13,4.17-4.73,4.17-2.44,0-3.86-1.18-4.64-2.29l2.03-2.24ZM66.74,19.68h-10.56c.31,2.2,1.95,3.16,3.5,3.21.99.03,2.24-.16,3.5-1.31l2.72,1.28c-2.04,2.91-5.16,2.79-6.16,2.8-3.75,0-6.86-2.77-6.74-7.18.1-3.87,2.89-6.67,6.86-6.68s6.77,2.95,6.92,6.67c.02.38,0,.81-.03,1.21h0ZM63.42,17.12c-.08-.22-.18-.42-.28-.61-.22-.41-.5-.76-.81-1.03-.31-.27-.67-.47-1.08-.6-.42-.14-.91-.21-1.46-.21-.5,0-.95.07-1.35.22-.4.14-.76.36-1.1.66-.33.29-.6.64-.81,1.04-.09.17-.16.35-.23.53h7.11ZM46.91,13.68v-6.69s3.32,0,3.32,0v18.39s-3.31,0-3.31,0v-1.46c-1.3,1.12-2.37,1.79-4.26,1.8-2.87.06-6.2-2.7-6.08-7.21.06-3.47,2.31-6.65,6.08-6.65,1.8,0,2.99.56,4.26,1.83ZM47.05,18.88c0-.57-.09-1.09-.27-1.57-.18-.47-.46-.91-.83-1.3h0c-.36-.39-.76-.69-1.18-.88h0c-.41-.19-.85-.28-1.34-.28-.51,0-.97.09-1.4.27-.43.18-.83.46-1.19.84-.36.37-.63.78-.81,1.24-.18.45-.27.95-.27,1.5,0,.59.09,1.12.28,1.6.18.48.46.91.82,1.29.37.39.76.68,1.2.86.43.19.9.28,1.42.28.46,0,.89-.09,1.3-.28h0c.41-.19.81-.48,1.18-.87h0c.37-.39.65-.81.83-1.26.18-.45.27-.93.27-1.45h0ZM22.18,12.2h3.3s0,1.49,0,1.49c1.04-1.15,2.4-1.87,3.72-1.88,1.42-.01,4.75.37,4.75,5.21v8.33s-3.33,0-3.33,0v-7.27c0-4.8-5.14-4.07-5.14.86v6.42s-3.3,0-3.3,0v-13.15ZM15.6,23.98c-1.26.99-1.89,1.73-4.23,1.73-3.88,0-6.17-3.75-6.18-6.95s2.07-6.91,6.08-6.91c2.25,0,3.41.95,4.32,1.82v-1.48s3.29,0,3.29,0v13.15s-3.28,0-3.28,0v-1.36ZM15.76,18.7c0-.51-.09-.99-.27-1.43-.18-.44-.46-.86-.83-1.24h0c-.37-.38-.76-.67-1.18-.86-.4-.18-.84-.27-1.3-.27-.52,0-.99.09-1.42.28-.43.19-.83.47-1.19.85-.37.38-.64.81-.82,1.28-.18.48-.28,1.01-.28,1.59,0,1.08.36,1.99,1.08,2.72.36.37.76.65,1.19.83.42.18.89.27,1.4.27s.93-.09,1.34-.28c.42-.19.81-.48,1.18-.88.37-.4.65-.83.83-1.3.18-.47.27-.99.27-1.55"/>
    <path id="path18" class="st1" d="M56.83,34.19h-.76s0-4.45,0-4.45h.76s0,.61,0,.61c.4-.4,1.1-.99,2.12-.62l-.39.54c-.69-.3-1.72.31-1.72,1.27v2.65ZM41.84,34.2h-.81s3.52-6.14,3.52-6.14h.22s3.58,6.14,3.58,6.14h-.84s-1.16-2-1.16-2h-3.34s-1.16,2.01-1.16,2.01ZM46,31.62l-1.31-2.27-1.33,2.28h2.64ZM34.33,33.32c.31.35.9.49,1.22.49.45,0,1.04-.31,1.04-.74,0-.59-.62-.73-1.09-.88-.72-.24-1.39-.73-1.39-1.29,0-.89.78-1.24,1.53-1.24.59,0,1.15.24,1.55.64l-.42.4c-.39-.36-.78-.53-1.13-.52-.5.02-.93.25-.93.7,0,.34.67.64,1.07.8.79.32,1.45.61,1.44,1.45-.02.86-1.11,1.2-1.7,1.19-.56-.01-1.24-.15-1.63-.6l.44-.4ZM73.83,33.32c.31.35.9.49,1.22.49.45,0,1.04-.31,1.04-.74,0-.59-.62-.73-1.09-.88-.72-.24-1.39-.73-1.39-1.29,0-.89.78-1.24,1.53-1.24.59,0,1.15.24,1.55.64l-.42.4c-.39-.36-.78-.53-1.13-.52-.5.02-.93.25-.93.7,0,.34.67.64,1.07.8.79.32,1.45.61,1.44,1.45-.02.86-1.11,1.2-1.7,1.19-.56-.01-1.24-.15-1.63-.6l.44-.4ZM32,33.52c-.23.26-.54.46-.93.61-.39.15-.81.22-1.27.22-.84,0-1.54-.23-2.1-.68-.56-.45-.84-1.01-.84-1.67s.29-1.23.86-1.69c.57-.45,1.29-.68,2.15-.68.44,0,.85.07,1.21.21.37.14.68.34.92.61v-.72s.72,0,.72,0v4.5s-.72,0-.72,0v-.71ZM32.11,31.96c0-.48-.23-.91-.68-1.27-.45-.36-.98-.54-1.57-.54-.64,0-1.19.18-1.64.54-.45.36-.68.81-.68,1.34s.23.94.68,1.29c.45.35.99.52,1.62.52s1.14-.18,1.59-.55c.45-.37.68-.81.68-1.33h0ZM71.5,33.49c-.23.26-.54.46-.93.61-.39.15-.81.22-1.27.22-.84,0-1.54-.23-2.1-.68-.56-.45-.84-1.01-.84-1.67s.29-1.23.86-1.69c.57-.45,1.29-.68,2.15-.68.44,0,.85.07,1.21.21.37.14.68.34.92.61v-.72s.72,0,.72,0v4.5s-.72,0-.72,0v-.71ZM71.62,31.93c0-.48-.23-.91-.68-1.27-.45-.36-.98-.54-1.57-.54-.64,0-1.19.18-1.64.54-.45.36-.68.81-.68,1.34s.23.94.68,1.29c.45.35.99.52,1.62.52s1.14-.18,1.59-.55c.45-.37.68-.81.68-1.33h0ZM25.71,32.17h-5.11c.04.49.27.88.67,1.19.4.3.9.45,1.5.45.76,0,1.71-.23,2.12-.92l.64.26c-.72,1.01-2.09,1.23-2.73,1.21-.82-.02-1.52-.23-2.09-.69-.57-.46-.85-1.02-.85-1.67,0-1.54,1.59-2.34,2.97-2.35,1.48,0,2.89.91,2.89,2.49v.04ZM24.91,31.6c-.34-1.27-1.66-1.47-2.19-1.44-.54.03-1.74.21-2.05,1.44h4.25ZM54.98,32.15h-5.11c.04.49.27.88.67,1.19.4.3.9.45,1.5.45.76,0,1.71-.23,2.12-.92l.64.26c-.72,1.01-2.09,1.23-2.73,1.21-.82-.02-1.52-.23-2.09-.69-.57-.46-.85-1.02-.85-1.67,0-1.54,1.59-2.34,2.97-2.35,1.48,0,2.89.91,2.89,2.49v.04ZM54.18,31.57c-.34-1.27-1.66-1.47-2.19-1.44-.54.03-1.74.21-2.05,1.44h4.25ZM65.19,32.14h-5.11c.04.49.27.88.67,1.19.4.3.9.45,1.5.45.76,0,1.71-.23,2.12-.92l.64.26c-.72,1.01-2.09,1.23-2.73,1.21-.82-.02-1.52-.23-2.09-.69-.57-.46-.85-1.02-.85-1.67,0-1.54,1.59-2.34,2.97-2.35,1.48,0,2.89.91,2.89,2.49v.04ZM64.39,31.57c-.34-1.27-1.66-1.47-2.19-1.44-.54.03-1.74.21-2.05,1.44h4.25ZM13.65,29.76h.73s0,.78,0,.78c.51-.51,1.01-.87,2.02-.87,1.54,0,2.21.78,2.21,2.07v2.47s-.74,0-.74,0v-2.45c0-1.06-.43-1.54-1.53-1.54s-1.96.73-1.96,1.87v2.12s-.73,0-.73,0v-4.46ZM11.4,34.21v-4.46s.69,0,.69,0v4.46s-.69,0-.69,0ZM10.41,34.22h-3.67s0-6.16,0-6.16h.79s0,5.72,0,5.72h2.88s0,.44,0,.44ZM12.11,27.66h1.14s-1.48,1.34-1.48,1.34h-.77s1.11-1.34,1.11-1.34ZM52.39,27.64h1.14s-1.48,1.34-1.48,1.34h-.77s1.11-1.34,1.11-1.34"/>
  </g>
</svg>