<svg width="83" height="42" viewBox="0 0 83 42" fill="none" xmlns="http://www.w3.org/2000/svg">
<g clip-path="url(#clip0_3952_13004)">
<rect width="83" height="42" rx="8" fill="#256FB7"/>
<path d="M65.5515 -0.518921H-1.55151V24.5189H65.5515V-0.518921Z" fill="#256FB7"/>
<mask id="mask0_3952_13004" style="mask-type:luminance" maskUnits="userSpaceOnUse" x="2" y="-7" width="79" height="56">
<path d="M80.2222 -6.99994H1.99997V48.5244H80.2222V-6.99994Z" fill="white"/>
</mask>
<g mask="url(#mask0_3952_13004)">
<mask id="mask1_3952_13004" style="mask-type:luminance" maskUnits="userSpaceOnUse" x="2" y="-7" width="79" height="56">
<path d="M80.2222 -6.99994H1.99997V48.5244H80.2222V-6.99994Z" fill="white"/>
</mask>
<g mask="url(#mask1_3952_13004)">
<path d="M69.6202 18.1028C70.2666 18.8163 70.7192 19.7244 70.8485 20.7622C70.9777 23.0973 69.2969 25.0433 66.9697 25.2379C65.9353 25.3028 64.901 24.9784 64.0606 24.3298C64.8363 25.1082 66 25.5622 67.2283 25.4325C69.5555 25.3028 71.2363 23.2919 71.107 20.9568C71.0424 19.8541 70.4606 18.8163 69.6202 18.1028Z" fill="white"/>
</g>
<mask id="mask2_3952_13004" style="mask-type:luminance" maskUnits="userSpaceOnUse" x="2" y="-7" width="79" height="56">
<path d="M80.2222 -6.99994H1.99997V48.5244H80.2222V-6.99994Z" fill="white"/>
</mask>
<g mask="url(#mask2_3952_13004)">
<path d="M62.2505 22.9028C62.1212 22.9676 62.0565 23.0325 62.1212 23.2271C62.1858 23.4217 62.2505 23.4217 62.3798 23.4217C62.4444 23.4217 62.5091 23.2919 62.4444 23.0974V23.0325C62.4444 22.8379 62.3798 22.773 62.4444 22.7082C62.4444 22.6433 62.5091 22.5784 62.5737 22.5136C62.7676 22.4487 62.9616 22.5784 63.0262 22.8379C63.1555 23.1622 63.0909 23.3568 62.8969 23.4217L62.8323 23.2919C62.9616 23.2271 63.0262 23.0974 62.9616 22.8379C62.8969 22.7082 62.7676 22.5784 62.6384 22.6433C62.5737 22.6433 62.5091 22.773 62.5737 22.9676V23.0325V23.0974C62.5737 23.2271 62.5737 23.2919 62.5737 23.3568C62.5737 23.4217 62.5091 23.4865 62.4444 23.4865C62.2505 23.5514 62.1212 23.4865 61.9919 23.2271C61.8626 22.9676 61.9272 22.773 62.1212 22.7082L62.2505 22.9028Z" fill="white"/>
</g>
<mask id="mask3_3952_13004" style="mask-type:luminance" maskUnits="userSpaceOnUse" x="2" y="-7" width="79" height="56">
<path d="M80.2222 -6.99994H1.99997V48.5244H80.2222V-6.99994Z" fill="white"/>
</mask>
<g mask="url(#mask3_3952_13004)">
<path d="M62.1212 21.346L62.7676 20.8271V21.0217L62.2505 21.4757L62.3798 21.6703H62.7676V21.8001H61.6687V21.6703H62.1212H62.2505L62.1858 21.6055L61.6687 21.0865V20.892L62.1212 21.346Z" fill="white"/>
</g>
<mask id="mask4_3952_13004" style="mask-type:luminance" maskUnits="userSpaceOnUse" x="2" y="-7" width="79" height="56">
<path d="M80.2222 -6.99994H1.99997V48.5244H80.2222V-6.99994Z" fill="white"/>
</mask>
<g mask="url(#mask4_3952_13004)">
<path d="M62.6383 19.7244L63.0262 19.8541L62.9616 19.9839L62.5737 19.8541L61.7979 20.0487L61.8626 19.8541L62.3151 19.7244H62.3798C62.3798 19.7244 62.3798 19.7244 62.4444 19.7244C62.4444 19.6595 62.3798 19.6595 62.3798 19.5947L62.0565 19.2055L62.1212 19.0757L62.6383 19.7244Z" fill="white"/>
</g>
<mask id="mask5_3952_13004" style="mask-type:luminance" maskUnits="userSpaceOnUse" x="2" y="-7" width="79" height="56">
<path d="M80.2222 -6.99994H1.99997V48.5244H80.2222V-6.99994Z" fill="white"/>
</mask>
<g mask="url(#mask5_3952_13004)">
<path d="M63.3495 17.7136L63.0909 17.973L63.802 18.5568L63.608 18.7514L62.9616 18.1676L62.703 18.4919L62.5737 18.2973L63.1555 17.5838L63.3495 17.7136Z" fill="white"/>
</g>
<mask id="mask6_3952_13004" style="mask-type:luminance" maskUnits="userSpaceOnUse" x="2" y="-7" width="79" height="56">
<path d="M80.2222 -6.99994H1.99997V48.5244H80.2222V-6.99994Z" fill="white"/>
</mask>
<g mask="url(#mask6_3952_13004)">
<path d="M64.7717 16.6757L64.2545 17.0001L64.3838 17.1947L64.8363 16.8703L64.9656 17.0649L64.4485 17.3244L64.5778 17.5838L65.1596 17.2595L65.2242 17.4541L64.4485 17.9082L63.9313 16.9352L64.707 16.4811L64.7717 16.6757Z" fill="white"/>
</g>
<mask id="mask7_3952_13004" style="mask-type:luminance" maskUnits="userSpaceOnUse" x="2" y="-7" width="79" height="56">
<path d="M80.2222 -6.99994H1.99997V48.5244H80.2222V-6.99994Z" fill="white"/>
</mask>
<g mask="url(#mask7_3952_13004)">
<path d="M66.905 17.0649H66.6464L66.5171 16.8055L66.0646 16.8703L66 17.1947L65.7414 17.2595L66.0646 16.092L66.3232 16.0271L66.905 17.0649ZM66.2586 16.546C66.1939 16.4163 66.1939 16.4163 66.1293 16.3514C66.1293 16.4163 66.1293 16.4812 66.0646 16.6109L66 16.8055L66.3232 16.7406L66.2586 16.546Z" fill="white"/>
</g>
<mask id="mask8_3952_13004" style="mask-type:luminance" maskUnits="userSpaceOnUse" x="2" y="-7" width="79" height="56">
<path d="M80.2222 -6.99994H1.99997V48.5244H80.2222V-6.99994Z" fill="white"/>
</mask>
<g mask="url(#mask8_3952_13004)">
<path d="M68.5858 17.4541L68.3919 17.3892L68.4565 17.0649C68.4565 17.0649 68.4565 17 68.5212 16.9352C68.5858 16.8703 68.5212 16.8054 68.5858 16.8054C68.5858 16.7406 68.5858 16.7406 68.6505 16.6757V16.6109C68.5858 16.7406 68.5858 16.7406 68.5212 16.8703C68.5212 16.8703 68.4565 16.9352 68.4565 17L68.1333 17.4541L68.004 17.1946L67.9394 16.7406C67.9394 16.7406 67.9394 16.6757 67.9394 16.6109C67.9394 16.546 67.9394 16.4811 67.9394 16.4811C67.9394 16.4811 67.9394 16.4163 67.9394 16.3514V16.4811C67.9394 16.6109 67.8747 16.6757 67.8747 16.8703L67.7454 17.1946H67.4868L67.7454 16.1568L68.0687 16.2217L68.1333 16.7406C68.1333 16.8703 68.1333 16.9352 68.1333 17.0649C68.198 17 68.198 16.9352 68.2626 16.8703C68.2626 16.8054 68.3272 16.8054 68.3272 16.7406L68.6505 16.3514L68.9737 16.4811L68.5858 17.4541Z" fill="white"/>
</g>
<mask id="mask9_3952_13004" style="mask-type:luminance" maskUnits="userSpaceOnUse" x="2" y="-7" width="79" height="56">
<path d="M80.2222 -6.99994H1.99997V48.5244H80.2222V-6.99994Z" fill="white"/>
</mask>
<g mask="url(#mask9_3952_13004)">
<path d="M66.5818 19.5298C66.4525 19.6595 66.1939 19.919 65.9353 20.1784L65.6121 20.4379C65.3535 20.373 65.1596 20.373 64.901 20.373C64.3838 20.373 63.9313 20.5028 63.6727 20.7622C63.608 20.8271 63.5434 20.9568 63.5434 21.0217C63.5434 21.2811 63.8666 21.4109 63.9313 21.4757C64.3838 21.6055 64.7717 21.6055 65.2242 21.346C65.4181 21.2163 65.7414 20.9568 65.9353 20.6974C66.0646 20.6974 66.2586 20.7622 66.5171 20.8271L66.7111 20.892C66.4525 21.1514 66.2585 21.346 66 21.6055C65.6767 21.9298 65.4181 22.0595 65.0949 22.1893C64.8363 22.2541 64.707 22.1893 64.6424 22.1893C64.8363 22.319 65.0303 22.4487 65.3535 22.3839C65.6767 22.3839 66 22.1893 66.3232 21.8649L66.7757 21.4109L67.099 21.0866L67.7454 21.2811L67.2929 21.6055L66.9697 21.9298C66.5818 22.2541 66.3878 22.4487 66.1939 22.6433C65.8707 22.9028 65.5474 23.0325 65.2242 23.0325C65.0949 23.0325 64.901 23.0325 64.707 22.9028C64.901 23.0325 65.0949 23.2271 65.4828 23.2271C65.9353 23.2271 66.3232 23.0325 66.905 22.4487C67.1636 22.1893 67.4222 21.9298 67.6808 21.6703L68.1333 21.2163C68.4565 21.2812 68.7151 21.2811 68.9737 21.2811C69.4262 21.2811 69.7495 21.0866 69.7495 20.8271C69.7495 20.6974 69.6202 20.5676 69.5555 20.5028C69.4909 20.4379 69.2969 20.373 69.0383 20.373C68.7151 20.373 68.3919 20.5028 68.0686 20.8271L67.8101 21.0866H67.7454L67.099 20.892C67.2929 20.7622 67.4222 20.5676 67.5515 20.4379C67.8747 20.1136 68.2626 19.9839 68.5212 19.9839C68.6505 19.9839 68.9737 19.9839 69.103 20.0487C68.7798 19.7893 68.5212 19.7893 68.3272 19.7893C68.1333 19.7893 67.7454 19.8541 67.3575 20.1784C67.2282 20.3082 66.9697 20.5028 66.7111 20.7622L66.3878 20.6325H66.3232L66 20.5028L66.1939 20.3082C66.3878 20.1136 66.6464 19.8541 66.7757 19.7244C67.3575 19.2055 67.7454 19.1406 68.004 19.1406C68.3272 19.1406 68.5212 19.2055 68.6505 19.3352C68.3272 19.0109 68.0686 18.946 67.6808 18.946C67.4222 18.946 66.9697 19.1406 66.5818 19.5298ZM64.1899 21.346C63.9959 21.346 63.8666 21.2811 63.8666 21.0866C63.8666 21.0866 63.8666 20.6325 64.9656 20.5676C65.0949 20.5676 65.2242 20.5676 65.4181 20.5676L65.3535 20.6974L65.2889 20.7622C65.0303 20.9568 64.5777 21.346 64.1899 21.346ZM68.5858 20.9568C68.9091 20.7622 69.1676 20.6325 69.2969 20.6325C69.4262 20.6325 69.4909 20.6325 69.4909 20.7622C69.4909 20.892 69.3616 20.9568 69.1676 21.0866C68.9737 21.1514 68.6505 21.1514 68.3272 21.1514C68.4565 21.0217 68.5212 21.0217 68.5858 20.9568Z" fill="white"/>
</g>
<mask id="mask10_3952_13004" style="mask-type:luminance" maskUnits="userSpaceOnUse" x="2" y="-7" width="79" height="56">
<path d="M80.2222 -6.99994H1.99997V48.5244H80.2222V-6.99994Z" fill="white"/>
</mask>
<g mask="url(#mask10_3952_13004)">
<path d="M69.0384 16.546C69.0384 16.4812 69.1677 16.4163 69.2969 16.4812C69.3616 16.4812 69.4262 16.6109 69.4262 16.7406C69.4262 16.8055 69.2969 16.8703 69.1677 16.8055C69.0384 16.7406 68.9737 16.6757 69.0384 16.546ZM69.3616 16.7406C69.4262 16.6757 69.3616 16.6109 69.2969 16.546C69.2323 16.546 69.1677 16.546 69.103 16.6109C69.103 16.6757 69.103 16.7406 69.1677 16.8055C69.2323 16.8055 69.2969 16.8055 69.3616 16.7406ZM69.2323 16.7406V16.6109L69.1677 16.6757L69.2323 16.546L69.2969 16.6109C69.2969 16.6109 69.3616 16.6757 69.2969 16.6757H69.2323V16.7406ZM69.2323 16.6109H69.2969C69.2969 16.6109 69.2969 16.6109 69.2323 16.6109Z" fill="white"/>
</g>
<mask id="mask11_3952_13004" style="mask-type:luminance" maskUnits="userSpaceOnUse" x="2" y="-7" width="79" height="56">
<path d="M80.2222 -6.99994H1.99997V48.5244H80.2222V-6.99994Z" fill="white"/>
</mask>
<g mask="url(#mask11_3952_13004)">
<path d="M28.7636 17.973H26.8242L25.402 23.4865H26.6949L26.9535 22.4487H28.505L28.7636 23.4865H30.2505L28.7636 17.973ZM27.2121 21.4757L27.7293 19.1406H27.7939L28.3111 21.4757H27.2121Z" fill="white"/>
</g>
<mask id="mask12_3952_13004" style="mask-type:luminance" maskUnits="userSpaceOnUse" x="2" y="-7" width="79" height="56">
<path d="M80.2222 -6.99994H1.99997V48.5244H80.2222V-6.99994Z" fill="white"/>
</mask>
<g mask="url(#mask12_3952_13004)">
<path d="M31.3495 18.946C31.1555 18.946 30.9616 18.8811 30.8969 18.8163C30.7676 18.6866 30.703 18.5568 30.703 18.3622C30.703 18.1676 30.7676 18.0379 30.8969 17.9082C31.0262 17.7784 31.2202 17.7784 31.3495 17.7784C31.5434 17.7784 31.6727 17.8433 31.802 17.9082C31.9313 18.0379 31.9959 18.1676 31.9959 18.3622C31.9959 18.5568 31.9313 18.6866 31.802 18.8163C31.7373 18.8811 31.5434 18.946 31.3495 18.946Z" fill="white"/>
</g>
<mask id="mask13_3952_13004" style="mask-type:luminance" maskUnits="userSpaceOnUse" x="2" y="-7" width="79" height="56">
<path d="M80.2222 -6.99994H1.99997V48.5244H80.2222V-6.99994Z" fill="white"/>
</mask>
<g mask="url(#mask13_3952_13004)">
<path d="M36.004 23.5514V17.973H39.1717V19.0109H37.2969V20.2433H39.0424V21.2163H37.2969V22.5136H39.2363V23.5514H36.004Z" fill="white"/>
</g>
<mask id="mask14_3952_13004" style="mask-type:luminance" maskUnits="userSpaceOnUse" x="2" y="-7" width="79" height="56">
<path d="M80.2222 -6.99994H1.99997V48.5244H80.2222V-6.99994Z" fill="white"/>
</mask>
<g mask="url(#mask14_3952_13004)">
<path d="M31.9959 19.2703H30.7676V23.4865H31.9959V19.2703Z" fill="white"/>
</g>
<mask id="mask15_3952_13004" style="mask-type:luminance" maskUnits="userSpaceOnUse" x="2" y="-7" width="79" height="56">
<path d="M80.2222 -6.99994H1.99997V48.5244H80.2222V-6.99994Z" fill="white"/>
</mask>
<g mask="url(#mask15_3952_13004)">
<path d="M44.4081 23.5514V19.3352H45.2485L45.3777 20.0487C45.507 19.7892 45.6363 19.5946 45.8303 19.4C46.0242 19.2703 46.3474 19.2055 46.6707 19.2703V20.4379L45.507 20.5676V23.5514H44.4081Z" fill="white"/>
</g>
<mask id="mask16_3952_13004" style="mask-type:luminance" maskUnits="userSpaceOnUse" x="2" y="-7" width="79" height="56">
<path d="M80.2222 -6.99994H1.99997V48.5244H80.2222V-6.99994Z" fill="white"/>
</mask>
<g mask="url(#mask16_3952_13004)">
<path d="M32.901 23.5514V19.3352H33.7414L33.8707 20.0487C34 19.7892 34.1293 19.5946 34.3232 19.4C34.5171 19.2703 34.8404 19.2055 35.2283 19.2703V20.4379L34.0646 20.5676V23.5514H32.901Z" fill="white"/>
</g>
<mask id="mask17_3952_13004" style="mask-type:luminance" maskUnits="userSpaceOnUse" x="2" y="-7" width="79" height="56">
<path d="M80.2222 -6.99994H1.99997V48.5244H80.2222V-6.99994Z" fill="white"/>
</mask>
<g mask="url(#mask17_3952_13004)">
<path d="M50.4202 19.8541C50.0969 19.4649 49.5798 19.2055 48.998 19.2055C48.3515 19.2055 47.899 19.4001 47.5757 19.8541C47.2525 20.2433 47.0586 20.8271 47.0586 21.4109C47.0586 22.0595 47.1879 22.5784 47.5757 22.9676C47.899 23.3568 48.4161 23.6163 48.998 23.6163C49.6444 23.6163 50.0969 23.4217 50.4202 22.9676C50.7434 22.5784 50.9373 21.9947 50.9373 21.4109C50.9373 20.7622 50.7434 20.2433 50.4202 19.8541ZM49.5151 22.2541C49.3858 22.4487 49.1919 22.5784 48.9333 22.5784C48.6747 22.5784 48.4808 22.4487 48.3515 22.2541C48.2222 22.0595 48.1576 21.8001 48.1576 21.4109C48.1576 21.0217 48.2222 20.7622 48.3515 20.5676C48.4808 20.373 48.6747 20.2433 48.9333 20.2433C49.1919 20.2433 49.3858 20.373 49.5151 20.5676C49.6444 20.7622 49.7091 21.0217 49.7091 21.4109C49.7091 21.8001 49.6444 22.0595 49.5151 22.2541Z" fill="white"/>
</g>
<mask id="mask18_3952_13004" style="mask-type:luminance" maskUnits="userSpaceOnUse" x="2" y="-7" width="79" height="56">
<path d="M80.2222 -6.99994H1.99997V48.5244H80.2222V-6.99994Z" fill="white"/>
</mask>
<g mask="url(#mask18_3952_13004)">
<path d="M54.8161 19.7244C54.5575 19.4001 54.1697 19.2055 53.7171 19.2055C53.5232 19.2055 53.3293 19.2703 53.1353 19.3352C52.9414 19.4001 52.8121 19.5947 52.6828 19.7893L52.5535 19.2703H51.5838V24.8487H52.8121V23.292C52.9414 23.4217 53.1353 23.4866 53.2646 23.4866C53.3939 23.4866 53.5232 23.5514 53.6525 23.5514C54.105 23.5514 54.4929 23.3568 54.8161 23.0325C55.1394 22.7082 55.2687 22.0595 55.2687 21.2811C55.204 20.6325 55.0747 20.0487 54.8161 19.7244ZM53.7818 22.319C53.6525 22.4487 53.4586 22.5784 53.3293 22.5784C53.2 22.5784 53.1353 22.5784 53.006 22.5784C52.9414 22.5784 52.8121 22.5136 52.6828 22.4487V20.6325C52.7474 20.5028 52.8767 20.5028 53.006 20.4379C53.1353 20.4379 53.2 20.373 53.3293 20.373C53.5232 20.373 53.7171 20.4379 53.7818 20.6325C53.9111 20.7622 53.9111 21.0866 53.9111 21.4757C54.0404 21.8001 53.9111 22.1244 53.7818 22.319Z" fill="white"/>
</g>
<mask id="mask19_3952_13004" style="mask-type:luminance" maskUnits="userSpaceOnUse" x="2" y="-7" width="79" height="56">
<path d="M80.2222 -6.99994H1.99997V48.5244H80.2222V-6.99994Z" fill="white"/>
</mask>
<g mask="url(#mask19_3952_13004)">
<path d="M58.7596 19.5947C58.501 19.3352 58.0484 19.2055 57.402 19.2055C57.1434 19.2055 56.9495 19.2055 56.6909 19.2703C56.4323 19.3352 56.1737 19.4001 55.9151 19.5298L56.1091 20.373C56.3676 20.3082 56.5616 20.2433 56.7555 20.1784C56.9495 20.1136 57.0788 20.1136 57.2727 20.1136C57.5313 20.1136 57.7252 20.1784 57.8545 20.2433C57.9838 20.373 57.9838 20.4379 57.9838 20.6325V20.892H57.5959C56.9495 20.892 56.4969 21.0217 56.1737 21.2811C55.8505 21.5406 55.7212 21.9298 55.7212 22.3839C55.7212 22.773 55.8505 23.0325 56.0444 23.292C56.303 23.5514 56.6262 23.6163 57.0141 23.6163C57.2727 23.6163 57.4666 23.5514 57.6606 23.4866C57.8545 23.3568 58.0485 23.2271 58.1777 23.0325L58.307 23.5514H59.2121V20.8271C59.2121 20.2433 59.0181 19.8541 58.7596 19.5947ZM57.9838 22.3839C57.8545 22.4487 57.7899 22.5136 57.6606 22.6433C57.5313 22.7082 57.402 22.773 57.2727 22.773C57.1434 22.773 57.0141 22.773 56.9495 22.6433C56.8848 22.5784 56.8202 22.4487 56.8202 22.319C56.8202 22.1244 56.8848 21.9947 57.0788 21.8649C57.208 21.8001 57.4666 21.7352 57.7252 21.7352H57.9192L57.9838 22.3839Z" fill="white"/>
</g>
<mask id="mask20_3952_13004" style="mask-type:luminance" maskUnits="userSpaceOnUse" x="2" y="-7" width="79" height="56">
<path d="M80.2222 -6.99994H1.99997V48.5244H80.2222V-6.99994Z" fill="white"/>
</mask>
<g mask="url(#mask20_3952_13004)">
<path d="M41.2404 23.6163C40.8525 23.6163 40.5293 23.4865 40.2707 23.2271C40.0121 22.9676 39.9474 22.5784 39.9474 21.9298V19.2703H41.1757V21.7352C41.1757 22.0595 41.2404 22.2541 41.305 22.3838C41.3697 22.5136 41.499 22.5784 41.6929 22.5784C41.8222 22.5784 41.9515 22.5784 42.0161 22.4487C42.1454 22.3838 42.2101 22.319 42.2747 22.1244V19.2703H43.503V23.4865H42.598L42.4687 22.9028C42.2747 23.1622 42.0808 23.2919 41.8868 23.4217C41.6283 23.5514 41.4343 23.6163 41.2404 23.6163Z" fill="white"/>
</g>
<path d="M20.3596 20.5028L19.3899 21.1514V22.1892L22.8161 20.0487C23.3333 19.7244 23.6565 19.4001 23.9151 19.0757C24.1091 18.7514 24.2383 18.4271 24.2383 18.1028C24.2383 17.3892 24.0444 16.8703 23.5919 16.546C23.1394 16.2217 22.4929 16.0919 21.6525 16.0919C21.1353 16.0919 20.5535 16.2217 19.9717 16.4163C19.3899 16.6757 18.8727 16.9352 18.5495 17.3244C18.2262 16.9352 17.903 16.6109 17.5151 16.4163C17.1272 16.2217 16.6747 16.0919 16.1575 16.0919C14.7353 16.0919 13.5717 16.7406 12.602 17.973C11.6323 19.2055 11.1798 20.5676 11.1798 21.9947C11.1798 23.2271 11.4383 24.1352 11.8262 24.6541C12.2788 25.173 12.8606 25.4325 13.5717 25.4325C14.0242 25.4325 14.5414 25.3028 15.0586 25.0433C15.5757 24.7838 16.1575 24.3947 16.7394 23.8757C16.9979 24.3947 17.3212 24.7838 17.7737 25.0433C18.2262 25.3028 18.7434 25.4325 19.3899 25.4325C20.2949 25.4325 21.1353 25.173 21.8464 24.6541C22.6222 24.1352 23.2687 23.6163 23.7858 23.0974L23.3333 22.3838L22.4282 23.0325C22.105 23.2919 21.7171 23.4865 21.2646 23.746C20.8121 23.9406 20.4242 24.0703 19.9717 24.0703C19.4545 24.0703 19.0666 23.8757 18.808 23.4217C18.5495 22.9676 18.4202 22.3838 18.4202 21.6703C18.4202 20.373 18.6788 19.3352 19.2606 18.4271C19.8424 17.519 20.4889 17.0649 21.2 17.0649C21.5878 17.0649 21.8464 17.1947 21.9757 17.3892C22.105 17.5838 22.1697 17.8433 22.1697 18.1028C22.1697 18.5568 22.0404 19.0109 21.7818 19.3352C21.6525 19.5298 21.1353 19.919 20.3596 20.5028ZM17.0626 18.5568C16.9979 18.8163 16.9333 19.0757 16.804 19.3352C16.6101 19.7892 16.4808 20.3082 16.3515 20.7622C16.2868 21.2163 16.2222 21.5406 16.2222 21.8649C16.2222 22.1244 16.2222 22.319 16.2222 22.5136C16.2222 22.6433 16.2222 22.8379 16.2868 22.9028L15.0586 23.6163C14.9939 23.6811 14.9293 23.6811 14.8 23.746C14.6707 23.8109 14.5414 23.8109 14.4121 23.8109C14.0242 23.8109 13.7656 23.6163 13.507 23.1622C13.3131 22.7082 13.1838 22.1892 13.1838 21.6055C13.1838 20.2433 13.507 19.1406 14.1535 18.2974C14.8 17.4541 15.4464 17.0001 16.2222 17.0001C16.5454 17.0001 16.804 17.0649 16.9333 17.2595C17.0626 17.3892 17.1272 17.6487 17.1272 17.9082C17.1919 18.1028 17.1272 18.2974 17.0626 18.5568Z" fill="white"/>
</g>
</g>
<defs>
<clipPath id="clip0_3952_13004">
<rect width="83" height="42" rx="8" fill="white"/>
</clipPath>
</defs>
</svg>
