<svg width="84" height="43" viewBox="0 0 84 43" fill="none" xmlns="http://www.w3.org/2000/svg">
<g clip-path="url(#clip0_3955_8887)">
<path d="M84.5956 -0.674988H-0.404419V42.325H84.5956V-0.674988Z" fill="white"/>
<g clip-path="url(#clip1_3955_8887)">
<path d="M8.28283 16.2943H7.20846C5.50738 16.2943 4.76129 16.921 4.76129 18.5474V25.8144C4.76129 26.2769 5.01496 26.5455 5.49246 26.5455H6.25347C6.71604 26.5455 6.98464 26.2919 6.98464 25.8144V23.2627H8.28283C11.3418 23.2627 12.9683 22.5465 12.9683 19.771C12.9533 16.9807 11.3418 16.2943 8.28283 16.2943ZM8.52158 21.3826H6.98464V18.8906C6.98464 18.4281 7.08909 18.1446 7.62627 18.1446H8.52158C10.1481 18.1446 10.73 18.5176 10.73 19.7561C10.73 20.9946 10.1481 21.3826 8.52158 21.3826ZM17.1911 18.6519C16.5047 18.6519 15.6691 18.7414 14.8036 18.9205C14.2963 19.0249 14.0426 19.3085 14.0426 19.7412V20.0396C14.0426 20.547 14.3411 20.7708 14.8335 20.6813C15.5647 20.532 16.2958 20.4425 16.8629 20.4425C18.0118 20.4425 18.6982 20.8156 18.6982 21.681V21.8004H16.6689C14.7589 21.8004 13.5651 22.3077 13.5651 24.173C13.5651 26.0233 14.744 26.5306 16.6689 26.5306H18.4595C20.1606 26.5306 20.9067 25.9039 20.9067 24.2625V21.681C20.9067 19.5621 19.3249 18.6519 17.1911 18.6519ZM18.7132 24.173C18.7132 24.6952 18.6087 24.9787 17.9223 24.9787H16.7733C15.8333 24.9787 15.6243 24.7549 15.6243 24.1879C15.6243 23.6059 15.8183 23.3821 16.7733 23.3821H18.6982V24.173H18.7132ZM26.6963 19.4428V19.9053C26.6963 20.3679 26.4277 20.6365 25.9054 20.6365C24.2491 20.6663 24.1745 20.8006 24.1745 21.3975V25.8293C24.1745 26.2919 23.9209 26.5604 23.4434 26.5604H22.6674C22.2048 26.5604 21.9363 26.3068 21.9363 25.8293V21.0692C21.9363 19.2637 22.5779 18.7713 25.9204 18.7265C26.4277 18.7116 26.6963 18.9653 26.6963 19.4428ZM30.7252 18.6519C30.0239 18.6519 29.2032 18.7414 28.3377 18.9205C27.8304 19.0249 27.5767 19.3085 27.5767 19.7412V20.0396C27.5767 20.547 27.8751 20.7708 28.3675 20.6813C29.0987 20.532 29.8299 20.4425 30.3969 20.4425C31.5459 20.4425 32.2323 20.8156 32.2323 21.681V21.8004H30.188C28.278 21.8004 27.0843 22.3077 27.0843 24.173C27.0843 26.0233 28.2631 26.5306 30.188 26.5306H31.9786C33.6797 26.5306 34.4258 25.9039 34.4258 24.2625V21.681C34.4407 19.5621 32.859 18.6519 30.7252 18.6519ZM32.2472 24.173C32.2472 24.6952 32.1428 24.9787 31.4564 24.9787H30.3074C29.3673 24.9787 29.1584 24.7549 29.1584 24.1879C29.1584 23.6059 29.3524 23.3821 30.3074 23.3821H32.2323V24.173H32.2472ZM43.3788 22.2928V25.8144C43.3788 26.2769 43.1252 26.5455 42.6477 26.5455H41.9016C41.439 26.5455 41.1704 26.2919 41.1704 25.8144V22.263C41.1704 20.8752 40.6631 20.4873 39.4843 20.4873C38.3054 20.4873 37.7981 20.8752 37.7981 22.263V25.8144C37.7981 26.2769 37.5444 26.5455 37.0669 26.5455H36.3209C35.8583 26.5455 35.5897 26.2919 35.5897 25.8144V22.2928C35.5897 19.4577 37.0222 18.637 39.4693 18.637C41.9613 18.6519 43.3788 19.4726 43.3788 22.2928ZM47.9449 18.6519C47.2585 18.6519 46.4229 18.7414 45.5574 18.9205C45.0501 19.0249 44.7964 19.3085 44.7964 19.7412V20.0396C44.7964 20.547 45.0949 20.7708 45.5873 20.6813C46.3184 20.532 47.0496 20.4425 47.6166 20.4425C48.7656 20.4425 49.452 20.8156 49.452 21.681V21.8004H47.4376C45.5276 21.8004 44.3338 22.3077 44.3338 24.173C44.3338 26.0233 45.5127 26.5306 47.4376 26.5306H49.2282C50.9293 26.5306 51.6754 25.9039 51.6754 24.2625V21.681C51.6604 19.5621 50.0937 18.6519 47.9449 18.6519ZM49.4669 24.173C49.4669 24.6952 49.3625 24.9787 48.6761 24.9787H47.5271C46.587 24.9787 46.3781 24.7549 46.3781 24.1879C46.3781 23.6059 46.5721 23.3821 47.5271 23.3821H49.452V24.173H49.4669ZM55.376 16.5778C55.376 17.3388 54.9731 17.7864 54.1524 17.7864C53.3466 17.7864 52.9288 17.3388 52.9288 16.5778C52.9288 15.8168 53.3317 15.3542 54.1524 15.3542C54.9731 15.3542 55.376 15.8168 55.376 16.5778ZM55.2715 19.5174V25.8144C55.2715 26.2769 55.0178 26.5455 54.5403 26.5455H53.7644C53.3018 26.5455 53.0332 26.2919 53.0332 25.8144V19.5174C53.0332 19.0548 53.2869 18.7862 53.7644 18.7862H54.5403C55.0178 18.7862 55.2715 19.0548 55.2715 19.5174ZM61.4044 19.4428V19.9053C61.4044 20.3679 61.1358 20.6365 60.6135 20.6365C58.9572 20.6663 58.8826 20.8006 58.8826 21.3975V25.8293C58.8826 26.2919 58.6289 26.5604 58.1514 26.5604H57.3755C56.9129 26.5604 56.6443 26.3068 56.6443 25.8293V21.0692C56.6443 19.2637 57.2859 18.7713 60.6284 18.7265C61.1358 18.7116 61.4044 18.9653 61.4044 19.4428Z" fill="#0037A2"/>
<path d="M66.6867 18.9802L70.2977 19.5771L70.1634 21.6512L65.6272 21.6363C65.5974 21.875 65.5825 22.1138 65.5825 22.3674C65.5825 23.3672 65.8361 24.3073 66.2987 25.128L63.8665 25.6502C63.4188 24.6505 63.1801 23.5313 63.1801 22.3674C63.1801 18.1297 66.433 14.6529 70.5663 14.2649L70.3574 16.727C68.8503 16.9658 67.5521 17.8014 66.6867 18.9802ZM71.3124 30.4998C74.058 30.4998 76.4754 29.1419 77.9526 27.0529L73.9088 27.4558C73.1329 27.8587 72.2376 28.0825 71.3124 28.0825C70.3724 28.0825 69.492 27.8587 68.716 27.4558L64.6722 27.0529C66.1346 29.127 68.5668 30.4998 71.3124 30.4998ZM72.2525 16.7121L72.0436 14.25C76.1769 14.638 79.4299 18.1147 79.4299 22.3525C79.4299 23.5164 79.1762 24.6356 78.7435 25.6353L76.3112 25.1131C76.7589 24.2924 77.0275 23.3523 77.0275 22.3525C77.0275 22.0989 77.0125 21.8601 76.9827 21.6214L72.4465 21.6363L72.2973 19.5622L75.9083 18.9653C75.0578 17.8014 73.7447 16.9658 72.2525 16.7121Z" fill="#CD1025"/>
</g>
</g>
<defs>
<clipPath id="clip0_3955_8887">
<rect x="0.595581" y="0.325012" width="83" height="42" rx="8" fill="white"/>
</clipPath>
<clipPath id="clip1_3955_8887">
<rect width="74.6686" height="16.2498" fill="white" transform="translate(4.76129 14.25)"/>
</clipPath>
</defs>
</svg>
